<?xml version="1.0" encoding="UTF-8"?>
<!DOCTYPE svg PUBLIC "-//W3C//DTD SVG 1.1//EN" "http://www.w3.org/Graphics/SVG/1.1/DTD/svg11.dtd">
<svg xmlns="http://www.w3.org/2000/svg" version="1.1" width="500px" height="500px" style="shape-rendering:geometricPrecision; text-rendering:geometricPrecision; image-rendering:optimizeQuality; fill-rule:evenodd; clip-rule:evenodd" xmlns:xlink="http://www.w3.org/1999/xlink">
<g><path style="opacity:1" fill="#131313" d="M 377.5,16.5 C 384.731,18.2713 387.397,22.938 385.5,30.5C 387.45,41.7344 383.283,45.401 373,41.5C 371.409,34.608 371.076,27.608 372,20.5C 373.5,18.5313 375.333,17.198 377.5,16.5 Z"/></g>
<g><path style="opacity:0.999" fill="#181818" d="M 339.5,26.5 C 342.559,26.7966 345.059,28.1299 347,30.5C 349.588,34.674 351.921,39.0074 354,43.5C 353.685,51.4481 349.852,53.7814 342.5,50.5C 339.415,45.9998 336.582,41.3331 334,36.5C 333.001,31.4909 334.834,28.1575 339.5,26.5 Z"/></g>
<g><path style="opacity:0.999" fill="#151515" d="M 413.5,26.5 C 421.032,26.5324 423.865,30.1991 422,37.5C 419.664,42.1751 416.831,46.5084 413.5,50.5C 405.206,53.0375 401.706,50.0375 403,41.5C 405.55,35.6955 409.05,30.6955 413.5,26.5 Z"/></g>
<g><path style="opacity:1" fill="#100f10" d="M 372.5,152.5 C 371.662,152.158 371.328,151.492 371.5,150.5C 372.327,146.193 372.993,141.86 373.5,137.5C 366.227,139.457 358.894,139.79 351.5,138.5C 345.12,136.813 339.12,134.146 333.5,130.5C 333.5,129.833 333.167,129.5 332.5,129.5C 329.805,126.474 327.138,123.474 324.5,120.5C 320.616,113.644 317.949,106.311 316.5,98.5C 310.275,101.402 304.942,105.402 300.5,110.5C 299.662,110.158 299.328,109.492 299.5,108.5C 299.804,107.85 300.137,107.183 300.5,106.5C 294.601,102.336 294.267,97.836 299.5,93C 305.167,92.6667 310.833,92.3333 316.5,92C 317.551,86.5123 319.217,81.1789 321.5,76C 321.355,75.228 321.022,74.5613 320.5,74C 315.747,71.5417 311.247,68.7084 307,65.5C 305.051,57.841 307.885,54.341 315.5,55C 320.798,57.5584 325.631,60.7251 330,64.5C 333.734,61.0483 337.9,58.215 342.5,56C 357.14,51.2559 372.14,49.2559 387.5,50C 407.588,54.1281 420.755,65.9614 427,85.5C 432.514,110.278 424.681,129.778 403.5,144C 394.066,148.684 384.066,151.018 373.5,151C 372.944,151.383 372.611,151.883 372.5,152.5 Z"/></g>
<g><path style="opacity:1" fill="#607ce8" d="M 352.5,54.5 C 386.017,53.8492 402.183,70.1826 401,103.5C 393.431,129.375 376.265,140.208 349.5,136C 326.471,127.451 316.638,110.951 320,86.5C 324.781,69.5514 335.614,58.8847 352.5,54.5 Z"/></g>
<g><path style="opacity:1" fill="#151515" d="M 440.5,54.5 C 449.146,53.8114 451.979,57.4781 449,65.5C 444.753,68.7084 440.253,71.5417 435.5,74C 427.032,75.241 424.032,71.741 426.5,63.5C 431.207,60.4398 435.874,57.4398 440.5,54.5 Z"/></g>
<g><path style="opacity:1" fill="#fafbfd" d="M 360.5,66.5 C 361.491,73.3134 361.825,80.3134 361.5,87.5C 361.5,87.8333 361.5,88.1667 361.5,88.5C 355.511,90.8268 349.511,93.1601 343.5,95.5C 348.903,85.6966 354.57,76.0299 360.5,66.5 Z"/></g>
<g><path style="opacity:1" fill="#bfcbf6" d="M 360.5,66.5 C 361.189,65.2264 362.023,65.2264 363,66.5C 368.833,76.1667 374.667,85.8333 380.5,95.5C 380.376,96.1067 380.043,96.44 379.5,96.5C 373.813,92.9899 367.813,89.9899 361.5,87.5C 361.825,80.3134 361.491,73.3134 360.5,66.5 Z"/></g>
<g><path style="opacity:1" fill="#c0ccf6" d="M 361.5,88.5 C 361.5,94.8333 361.5,101.167 361.5,107.5C 355.363,104.264 349.363,100.764 343.5,97C 342.262,96.31 342.262,95.81 343.5,95.5C 349.511,93.1601 355.511,90.8268 361.5,88.5 Z"/></g>
<g><path style="opacity:1" fill="#8298ed" d="M 361.5,87.5 C 367.813,89.9899 373.813,92.9899 379.5,96.5C 373.87,100.654 367.87,104.321 361.5,107.5C 361.5,101.167 361.5,94.8333 361.5,88.5C 361.5,88.1667 361.5,87.8333 361.5,87.5 Z"/></g>
<g><path style="opacity:0.998" fill="#161616" d="M 439.5,91.5 C 445.621,91.0899 451.621,91.5899 457.5,93C 461.41,96.9247 461.41,100.925 457.5,105C 450.862,106.611 444.195,106.611 437.5,105C 432.483,99.8304 433.15,95.3304 439.5,91.5 Z"/></g>
<g><path style="opacity:1" fill="#607ce8" d="M 226.5,174.5 C 199.357,184.015 180.023,175.681 168.5,149.5C 163.158,123.683 172.824,106.183 197.5,97C 222.43,93.3704 239.263,103.204 248,126.5C 251.94,147.61 244.774,163.61 226.5,174.5 Z"/></g>
<g><path style="opacity:1" fill="#607ce7" d="M 324.5,120.5 C 321.248,125.334 318.248,130.334 315.5,135.5C 314.209,136.542 314.209,137.708 315.5,139C 321.194,142.179 326.861,145.345 332.5,148.5C 338.915,146.118 345.248,142.785 351.5,138.5C 358.894,139.79 366.227,139.457 373.5,137.5C 372.993,141.86 372.327,146.193 371.5,150.5C 359.043,176.052 339.376,183.886 312.5,174C 294.578,162.578 287.745,146.411 292,125.5C 293.819,119.855 296.652,114.855 300.5,110.5C 304.942,105.402 310.275,101.402 316.5,98.5C 317.949,106.311 320.616,113.644 324.5,120.5 Z"/></g>
<g><path style="opacity:1" fill="#f7f8fd" d="M 361.5,111.5 C 361.819,116.363 361.486,121.03 360.5,125.5C 354.718,117.211 348.718,109.045 342.5,101C 349.036,103.939 355.37,107.439 361.5,111.5 Z"/></g>
<g><path style="opacity:1" fill="#f6bd2b" d="M 391.5,66.5 C 402.545,70.0484 410.045,77.7151 414,89.5C 417.714,110.241 410.214,125.074 391.5,134C 386.634,135.841 381.634,136.508 376.5,136C 397.246,126.014 406.08,109.514 403,86.5C 400.936,78.6908 397.102,72.0241 391.5,66.5 Z"/></g>
<g><path style="opacity:1" fill="#becaf6" d="M 360.5,125.5 C 361.486,121.03 361.819,116.363 361.5,111.5C 366.975,107.926 372.641,104.593 378.5,101.5C 378.833,101.833 379.167,102.167 379.5,102.5C 374,110.167 368.5,117.833 363,125.5C 362.023,126.774 361.189,126.774 360.5,125.5 Z"/></g>
<g><path style="opacity:1" fill="#607ce7" d="M 240.5,188.5 C 235.091,185.426 231.091,181.092 228.5,175.5C 235.48,171.519 241.146,166.186 245.5,159.5C 251.422,167.027 257.089,174.693 262.5,182.5C 262.783,183.289 263.283,183.956 264,184.5C 269.78,175.72 275.946,167.22 282.5,159C 275.98,161.593 269.647,164.76 263.5,168.5C 257.669,165.419 252.002,162.085 246.5,158.5C 246.263,157.209 246.596,156.209 247.5,155.5C 252.299,158.737 257.299,161.737 262.5,164.5C 262.897,165.525 263.563,165.692 264.5,165C 270.734,161.392 276.734,157.559 282.5,153.5C 276.587,143.07 270.42,132.737 264,122.5C 263.601,122.728 263.435,123.062 263.5,123.5C 259.5,129.5 255.5,135.5 251.5,141.5C 252.093,132.372 250.093,123.872 245.5,116C 261.586,109.636 276.419,111.802 290,122.5C 287.306,134.097 288.306,145.431 293,156.5C 295.734,160.391 298.234,164.391 300.5,168.5C 291.291,188.445 275.624,196.945 253.5,194C 248.91,192.703 244.577,190.87 240.5,188.5 Z"/></g>
<g><path style="opacity:1" fill="#f7f8fa" d="M 324.5,120.5 C 327.138,123.474 329.805,126.474 332.5,129.5C 327.82,131.564 323.154,133.73 318.5,136C 317.251,136.74 316.251,136.573 315.5,135.5C 318.248,130.334 321.248,125.334 324.5,120.5 Z"/></g>
<g><path style="opacity:0.999" fill="#151515" d="M 429.5,123.5 C 436.433,124.214 442.767,126.714 448.5,131C 452.53,139.622 449.863,143.622 440.5,143C 436.5,140.667 432.5,138.333 428.5,136C 424.48,131.552 424.813,127.385 429.5,123.5 Z"/></g>
<g><path style="opacity:1" fill="#0a0a0b" d="M 166.5,149.5 C 167.167,149.5 167.833,149.5 168.5,149.5C 180.023,175.681 199.357,184.015 226.5,174.5C 227.492,174.328 228.158,174.662 228.5,175.5C 231.091,181.092 235.091,185.426 240.5,188.5C 240.5,189.167 240.167,189.5 239.5,189.5C 239.167,189.5 238.833,189.5 238.5,189.5C 238.44,188.957 238.107,188.624 237.5,188.5C 236.502,197.141 236.169,205.808 236.5,214.5C 316.5,214.5 396.5,214.5 476.5,214.5C 479.595,214.626 481.428,216.293 482,219.5C 482.667,289.167 482.667,358.833 482,428.5C 477.369,460.131 459.203,477.964 427.5,482C 308.833,482.667 190.167,482.667 71.5,482C 39.3333,477.833 21.1667,459.667 17,427.5C 16.3333,358.167 16.3333,288.833 17,219.5C 17.4365,216.228 19.2699,214.561 22.5,214.5C 45.5,214.5 68.5,214.5 91.5,214.5C 91.5,190.833 91.5,167.167 91.5,143.5C 94.4859,129.492 103.153,123.659 117.5,126C 128.485,130.465 133.485,138.631 132.5,150.5C 144.012,150.828 155.346,150.495 166.5,149.5 Z"/></g>
<g><path style="opacity:1" fill="#1d1e23" d="M 299.5,108.5 C 299.328,109.492 299.662,110.158 300.5,110.5C 296.652,114.855 293.819,119.855 292,125.5C 287.745,146.411 294.578,162.578 312.5,174C 339.376,183.886 359.043,176.052 371.5,150.5C 371.328,151.492 371.662,152.158 372.5,152.5C 363.07,173.729 346.736,182.895 323.5,180C 315.472,178.736 308.639,175.236 303,169.5C 290.642,193.591 271.475,201.591 245.5,193.5C 243.249,192.589 241.249,191.256 239.5,189.5C 240.167,189.5 240.5,189.167 240.5,188.5C 244.577,190.87 248.91,192.703 253.5,194C 275.624,196.945 291.291,188.445 300.5,168.5C 298.234,164.391 295.734,160.391 293,156.5C 288.306,145.431 287.306,134.097 290,122.5C 276.419,111.802 261.586,109.636 245.5,116C 250.093,123.872 252.093,132.372 251.5,141.5C 250.366,144.37 249.7,147.37 249.5,150.5C 248.463,151.93 247.796,153.597 247.5,155.5C 246.596,156.209 246.263,157.209 246.5,158.5C 245.833,158.5 245.5,158.833 245.5,159.5C 241.146,166.186 235.48,171.519 228.5,175.5C 228.158,174.662 227.492,174.328 226.5,174.5C 244.774,163.61 251.94,147.61 248,126.5C 239.263,103.204 222.43,93.3704 197.5,97C 172.824,106.183 163.158,123.683 168.5,149.5C 167.833,149.5 167.167,149.5 166.5,149.5C 160.825,122.359 171.159,104.192 197.5,95C 217.191,91.3402 233.024,97.5069 245,113.5C 261.706,106.908 277.039,109.242 291,120.5C 293.61,116.258 296.443,112.258 299.5,108.5 Z"/></g>
<g><path style="opacity:1" fill="#bfcbf6" d="M 282.5,153.5 C 276.286,150.56 269.953,147.893 263.5,145.5C 263.5,138.167 263.5,130.833 263.5,123.5C 263.435,123.062 263.601,122.728 264,122.5C 270.42,132.737 276.587,143.07 282.5,153.5 Z"/></g>
<g><path style="opacity:1" fill="#f9f9fb" d="M 263.5,123.5 C 263.5,130.833 263.5,138.167 263.5,145.5C 258.947,147.359 254.447,149.359 250,151.5C 249.601,151.272 249.435,150.938 249.5,150.5C 249.7,147.37 250.366,144.37 251.5,141.5C 255.5,135.5 259.5,129.5 263.5,123.5 Z"/></g>
<g><path style="opacity:1" fill="#becaf6" d="M 209.5,107.5 C 215.819,117.464 222.153,127.464 228.5,137.5C 222.047,135.107 215.714,132.44 209.5,129.5C 209.5,122.167 209.5,114.833 209.5,107.5 Z"/></g>
<g><path style="opacity:1" fill="#f9fafd" d="M 209.5,107.5 C 209.5,114.833 209.5,122.167 209.5,129.5C 203.777,131.632 198.11,133.965 192.5,136.5C 191.893,136.376 191.56,136.043 191.5,135.5C 197.197,125.304 203.197,115.971 209.5,107.5 Z"/></g>
<g><path style="opacity:1" fill="#bfcbf6" d="M 209.5,129.5 C 209.823,136.022 209.49,142.355 208.5,148.5C 202.861,145.345 197.194,142.179 191.5,139C 190.209,137.708 190.209,136.542 191.5,135.5C 191.56,136.043 191.893,136.376 192.5,136.5C 198.11,133.965 203.777,131.632 209.5,129.5 Z"/></g>
<g><path style="opacity:1" fill="#8196ed" d="M 209.5,129.5 C 215.714,132.44 222.047,135.107 228.5,137.5C 222.113,142.347 215.447,146.013 208.5,148.5C 209.49,142.355 209.823,136.022 209.5,129.5 Z"/></g>
<g><path style="opacity:1" fill="#bfcbf6" d="M 332.5,129.5 C 333.167,129.5 333.5,129.833 333.5,130.5C 333.823,136.69 333.49,142.69 332.5,148.5C 326.861,145.345 321.194,142.179 315.5,139C 314.209,137.708 314.209,136.542 315.5,135.5C 316.251,136.573 317.251,136.74 318.5,136C 323.154,133.73 327.82,131.564 332.5,129.5 Z"/></g>
<g><path style="opacity:1" fill="#7e93e9" d="M 333.5,130.5 C 339.12,134.146 345.12,136.813 351.5,138.5C 345.248,142.785 338.915,146.118 332.5,148.5C 333.49,142.69 333.823,136.69 333.5,130.5 Z"/></g>
<g><path style="opacity:1" fill="#eaeaea" d="M 108.5,139.5 C 112.684,138.704 115.85,140.037 118,143.5C 118.833,205.503 118.667,267.503 117.5,329.5C 113.451,326.971 109.118,325.304 104.5,324.5C 104.333,264.166 104.5,203.832 105,143.5C 106.376,142.295 107.542,140.962 108.5,139.5 Z"/></g>
<g><path style="opacity:1" fill="#f6f7fc" d="M 209.5,152.5 C 209.5,157.5 209.5,162.5 209.5,167.5C 209.565,167.938 209.399,168.272 209,168.5C 203.22,159.72 197.054,151.22 190.5,143C 197.02,145.593 203.353,148.76 209.5,152.5 Z"/></g>
<g><path style="opacity:1" fill="#f6f7fc" d="M 333.5,152.5 C 333.5,157.5 333.5,162.5 333.5,167.5C 333.565,167.938 333.399,168.272 333,168.5C 327.22,159.72 321.054,151.22 314.5,143C 321.02,145.593 327.353,148.76 333.5,152.5 Z"/></g>
<g><path style="opacity:1" fill="#becaf6" d="M 209.5,167.5 C 209.5,162.5 209.5,157.5 209.5,152.5C 215.387,149.305 221.221,145.972 227,142.5C 221.702,151.056 215.868,159.39 209.5,167.5 Z"/></g>
<g><path style="opacity:1" fill="#becaf6" d="M 333.5,167.5 C 333.5,162.5 333.5,157.5 333.5,152.5C 339.387,149.305 345.221,145.972 351,142.5C 345.702,151.056 339.868,159.39 333.5,167.5 Z"/></g>
<g><path style="opacity:1" fill="#bfcbf5" d="M 263.5,145.5 C 263.823,152.022 263.49,158.355 262.5,164.5C 257.299,161.737 252.299,158.737 247.5,155.5C 247.796,153.597 248.463,151.93 249.5,150.5C 249.435,150.938 249.601,151.272 250,151.5C 254.447,149.359 258.947,147.359 263.5,145.5 Z"/></g>
<g><path style="opacity:1" fill="#8197ed" d="M 263.5,145.5 C 269.953,147.893 276.286,150.56 282.5,153.5C 276.734,157.559 270.734,161.392 264.5,165C 263.563,165.692 262.897,165.525 262.5,164.5C 263.49,158.355 263.823,152.022 263.5,145.5 Z"/></g>
<g><path style="opacity:0.999" fill="#141414" d="M 406.5,146.5 C 408.857,146.337 411.19,146.503 413.5,147C 418.009,152.187 421.342,158.02 423.5,164.5C 421.964,170.601 418.298,172.434 412.5,170C 406.728,164.301 403.895,157.468 404,149.5C 405.045,148.627 405.878,147.627 406.5,146.5 Z"/></g>
<g><path style="opacity:1" fill="#161616" d="M 377.5,154.5 C 380.617,154.642 383.117,155.976 385,158.5C 386.87,165.176 386.87,171.843 385,178.5C 381,182.5 377,182.5 373,178.5C 371.419,172.277 371.085,165.944 372,159.5C 373.107,156.887 374.94,155.22 377.5,154.5 Z"/></g>
<g><path style="opacity:1" fill="#f7f8fc" d="M 246.5,158.5 C 252.002,162.085 257.669,165.419 263.5,168.5C 263.819,173.363 263.486,178.03 262.5,182.5C 257.089,174.693 251.422,167.027 245.5,159.5C 245.5,158.833 245.833,158.5 246.5,158.5 Z"/></g>
<g><path style="opacity:1" fill="#bfcbf6" d="M 262.5,182.5 C 263.486,178.03 263.819,173.363 263.5,168.5C 269.647,164.76 275.98,161.593 282.5,159C 275.946,167.22 269.78,175.72 264,184.5C 263.283,183.956 262.783,183.289 262.5,182.5 Z"/></g>
<g><path style="opacity:1" fill="#464646" d="M 173.5,164.5 C 159.833,164.5 146.167,164.5 132.5,164.5C 132.5,168.833 132.5,173.167 132.5,177.5C 131.514,173.03 131.181,168.363 131.5,163.5C 145.677,163.171 159.677,163.504 173.5,164.5 Z"/></g>
<g><path style="opacity:1" fill="#cecece" d="M 173.5,164.5 C 178.319,169.739 183.986,173.739 190.5,176.5C 185.36,177.488 180.026,177.821 174.5,177.5C 160.5,177.5 146.5,177.5 132.5,177.5C 132.5,173.167 132.5,168.833 132.5,164.5C 146.167,164.5 159.833,164.5 173.5,164.5 Z"/></g>
<g><path style="opacity:1" fill="#484848" d="M 190.5,176.5 C 191.289,176.783 191.956,177.283 192.5,178C 186.319,178.819 180.319,178.653 174.5,177.5C 180.026,177.821 185.36,177.488 190.5,176.5 Z"/></g>
<g><path style="opacity:1" fill="#f0f0f0" d="M 222.5,177.5 C 223.831,230.335 223.831,283.335 222.5,336.5C 218.804,338.732 214.804,339.732 210.5,339.5C 210.5,286.5 210.5,233.5 210.5,180.5C 214.8,180.281 218.8,179.281 222.5,177.5 Z"/></g>
<g><path style="opacity:1" fill="#607ce8" d="M 156.5,179.5 C 182.076,176.69 198.909,187.356 207,211.5C 208.521,245.979 192.021,262.479 157.5,261C 133.198,252.915 122.698,236.081 126,210.5C 131.017,194.984 141.184,184.65 156.5,179.5 Z"/></g>
<g><path style="opacity:0.84" fill="#707070" d="M 238.5,189.5 C 237.523,192.287 237.19,195.287 237.5,198.5C 237.5,203.5 237.5,208.5 237.5,213.5C 317.335,213.167 397.002,213.501 476.5,214.5C 396.5,214.5 316.5,214.5 236.5,214.5C 236.169,205.808 236.502,197.141 237.5,188.5C 238.107,188.624 238.44,188.957 238.5,189.5 Z"/></g>
<g><path style="opacity:0.632" fill="#f5f5f5" d="M 238.5,189.5 C 238.833,189.5 239.167,189.5 239.5,189.5C 241.249,191.256 243.249,192.589 245.5,193.5C 242.525,194.655 239.858,196.322 237.5,198.5C 237.19,195.287 237.523,192.287 238.5,189.5 Z"/></g>
<g><path style="opacity:1" fill="#fafbfd" d="M 167.5,190.5 C 167.5,197.833 167.5,205.167 167.5,212.5C 161.613,215.026 155.78,217.693 150,220.5C 149.601,220.272 149.435,219.938 149.5,219.5C 155.264,209.63 161.264,199.963 167.5,190.5 Z"/></g>
<g><path style="opacity:1" fill="#909091" d="M 131.5,191.5 C 133.337,191.639 133.67,192.306 132.5,193.5C 131.702,193.043 131.369,192.376 131.5,191.5 Z"/></g>
<g><path style="opacity:1" fill="#bfcbf6" d="M 186.5,219.5 C 186.565,219.938 186.399,220.272 186,220.5C 180.002,217.417 173.835,214.75 167.5,212.5C 167.5,205.167 167.5,197.833 167.5,190.5C 173.89,199.47 180.224,209.137 186.5,219.5 Z"/></g>
<g><path style="opacity:0.262" fill="#9d9d9d" d="M 91.5,143.5 C 91.5,167.167 91.5,190.833 91.5,214.5C 68.5,214.5 45.5,214.5 22.5,214.5C 44.9939,213.503 67.6605,213.169 90.5,213.5C 90.1691,189.994 90.5025,166.661 91.5,143.5 Z"/></g>
<g><path style="opacity:1" fill="#c0ccf6" d="M 167.5,212.5 C 167.823,219.022 167.49,225.355 166.5,231.5C 160.517,227.86 154.517,224.194 148.5,220.5C 148.624,219.893 148.957,219.56 149.5,219.5C 149.435,219.938 149.601,220.272 150,220.5C 155.78,217.693 161.613,215.026 167.5,212.5 Z"/></g>
<g><path style="opacity:1" fill="#8197ed" d="M 167.5,212.5 C 173.835,214.75 180.002,217.417 186,220.5C 186.399,220.272 186.565,219.938 186.5,219.5C 187.773,220.077 187.773,220.743 186.5,221.5C 180.336,224.748 174.336,228.248 168.5,232C 167.563,232.692 166.897,232.525 166.5,231.5C 167.49,225.355 167.823,219.022 167.5,212.5 Z"/></g>
<g><path style="opacity:1" fill="#f8f8fd" d="M 167.5,235.5 C 167.819,240.363 167.486,245.03 166.5,249.5C 161.086,241.685 155.42,234.018 149.5,226.5C 149.833,226.167 150.167,225.833 150.5,225.5C 156.03,229.097 161.696,232.43 167.5,235.5 Z"/></g>
<g><path style="opacity:1" fill="#70b0b9" d="M 237.5,228.5 C 295.665,227.335 353.999,227.168 412.5,228C 411.473,228.513 410.473,229.013 409.5,229.5C 352.336,228.501 295.002,228.168 237.5,228.5 Z"/></g>
<g><path style="opacity:1" fill="#8aebfa" d="M 237.5,228.5 C 295.002,228.168 352.336,228.501 409.5,229.5C 403.506,232.314 398.173,236.148 393.5,241C 341.501,241.5 289.501,241.667 237.5,241.5C 237.5,237.167 237.5,232.833 237.5,228.5 Z"/></g>
<g><path style="opacity:1" fill="#bfcbf6" d="M 166.5,249.5 C 167.486,245.03 167.819,240.363 167.5,235.5C 173.647,231.76 179.98,228.593 186.5,226C 180.327,234.334 173.994,242.5 167.5,250.5C 166.893,250.376 166.56,250.043 166.5,249.5 Z"/></g>
<g><path style="opacity:1" fill="#64e3fa" d="M 446.5,229.5 C 453.313,228.509 460.313,228.175 467.5,228.5C 467.5,232.5 467.5,236.5 467.5,240.5C 465.5,240.5 463.5,240.5 461.5,240.5C 457.033,236.1 452.033,232.434 446.5,229.5 Z"/></g>
<g><path style="opacity:1" fill="#54a1af" d="M 461.5,240.5 C 463.5,240.5 465.5,240.5 467.5,240.5C 467.5,236.5 467.5,232.5 467.5,228.5C 460.313,228.175 453.313,228.509 446.5,229.5C 445.078,229.291 443.745,228.791 442.5,228C 451.16,227.5 459.827,227.334 468.5,227.5C 468.5,232.167 468.5,236.833 468.5,241.5C 465.941,241.802 463.607,241.468 461.5,240.5 Z"/></g>
<g><path style="opacity:1" fill="#fac51a" d="M 467.5,281.5 C 458.012,304.753 440.678,314.253 415.5,310C 392.173,300.128 382.84,282.628 387.5,257.5C 397.062,235.55 413.729,226.383 437.5,230C 462.069,238.633 472.069,255.8 467.5,281.5 Z"/></g>
<g><path style="opacity:1" fill="#79b6c0" d="M 30.5,227.5 C 50.8333,227.5 71.1667,227.5 91.5,227.5C 91.5,232.167 91.5,236.833 91.5,241.5C 71.1667,241.5 50.8333,241.5 30.5,241.5C 30.5,236.833 30.5,232.167 30.5,227.5 Z"/></g>
<g><path style="opacity:1" fill="#8aeffe" d="M 31.5,228.5 C 51.1667,228.5 70.8333,228.5 90.5,228.5C 90.5,232.5 90.5,236.5 90.5,240.5C 70.8333,240.5 51.1667,240.5 31.5,240.5C 31.5,236.5 31.5,232.5 31.5,228.5 Z"/></g>
<g><path style="opacity:1" fill="#33768d" d="M 237.5,255.5 C 237.5,255.167 237.5,254.833 237.5,254.5C 286.833,254.5 336.167,254.5 385.5,254.5C 385.737,255.791 385.404,256.791 384.5,257.5C 335.845,255.505 286.845,254.838 237.5,255.5 Z"/></g>
<g><path style="opacity:1" fill="#2b7e98" d="M 31.5,255.5 C 51.3264,254.503 71.3264,254.17 91.5,254.5C 91.8309,278.006 91.4975,301.339 90.5,324.5C 90.5,301.5 90.5,278.5 90.5,255.5C 70.8333,255.5 51.1667,255.5 31.5,255.5 Z"/></g>
<g><path style="opacity:1" fill="#31697c" d="M 140.5,255.5 C 137.833,255.5 135.167,255.5 132.5,255.5C 132.5,262.833 132.5,270.167 132.5,277.5C 131.508,270.018 131.175,262.352 131.5,254.5C 134.713,254.19 137.713,254.523 140.5,255.5 Z"/></g>
<g><path style="opacity:1" fill="#0f3b4c" d="M 237.5,254.5 C 237.5,254.833 237.5,255.167 237.5,255.5C 236.843,279.191 237.51,302.524 239.5,325.5C 238.791,326.404 237.791,326.737 236.5,326.5C 236.169,302.328 236.502,278.328 237.5,254.5 Z"/></g>
<g><path style="opacity:1" fill="#2ccaf2" d="M 132.5,277.5 C 132.5,270.167 132.5,262.833 132.5,255.5C 135.167,255.5 137.833,255.5 140.5,255.5C 157.876,266.25 175.209,266.083 192.5,255C 193.793,254.51 195.127,254.343 196.5,254.5C 196.5,262.167 196.5,269.833 196.5,277.5C 175.167,277.5 153.833,277.5 132.5,277.5 Z"/></g>
<g><path style="opacity:1" fill="#2bcaf3" d="M 31.5,255.5 C 51.1667,255.5 70.8333,255.5 90.5,255.5C 90.5,278.5 90.5,301.5 90.5,324.5C 83.5514,327.594 77.2181,331.761 71.5,337C 66.4302,339.424 61.0969,340.091 55.5,339C 50.4812,336.157 45.8145,332.824 41.5,329C 38.1488,327.072 34.6488,325.572 31,324.5C 30.1703,301.33 30.337,278.33 31.5,255.5 Z"/></g>
<g><path style="opacity:1" fill="#2bcbf4" d="M 237.5,255.5 C 286.845,254.838 335.845,255.505 384.5,257.5C 380.076,281.429 388.409,299.263 409.5,311C 422.232,315.638 434.899,315.471 447.5,310.5C 447.197,318.61 447.53,326.943 448.5,335.5C 446.779,337.694 444.445,338.861 441.5,339C 438.167,339.667 434.833,339.667 431.5,339C 425.5,335 419.5,331 413.5,327C 404.935,324.124 396.268,323.79 387.5,326C 381.556,329.611 375.889,333.611 370.5,338C 365.167,340 359.833,340 354.5,338C 348.01,332.843 341.01,328.509 333.5,325C 326.418,324.116 319.418,324.449 312.5,326C 306.833,329.667 301.167,333.333 295.5,337C 289.983,339.865 284.317,340.198 278.5,338C 272.519,332.019 265.519,327.686 257.5,325C 251.319,324.181 245.319,324.347 239.5,325.5C 237.51,302.524 236.843,279.191 237.5,255.5 Z"/></g>
<g><path style="opacity:1" fill="#191410" d="M 425.5,242.5 C 428.505,242.253 431.005,243.253 433,245.5C 433.5,251.825 433.666,258.158 433.5,264.5C 439.509,264.334 445.509,264.501 451.5,265C 456.701,268.24 456.701,271.574 451.5,275C 445.509,275.499 439.509,275.666 433.5,275.5C 433.666,281.509 433.499,287.509 433,293.5C 430.451,297.925 427.118,298.592 423,295.5C 422.5,288.842 422.334,282.175 422.5,275.5C 416.158,275.666 409.825,275.5 403.5,275C 400.713,272.833 399.88,269.999 401,266.5C 401.75,265.874 402.584,265.374 403.5,265C 409.825,264.5 416.158,264.334 422.5,264.5C 422.334,257.825 422.5,251.158 423,244.5C 423.995,243.934 424.828,243.267 425.5,242.5 Z"/></g>
<g><path style="opacity:1" fill="#121112" d="M 385.5,254.5 C 386.906,254.973 387.573,255.973 387.5,257.5C 382.84,282.628 392.173,300.128 415.5,310C 440.678,314.253 458.012,304.753 467.5,281.5C 467.037,284.482 466.704,287.482 466.5,290.5C 466.5,290.833 466.5,291.167 466.5,291.5C 462.139,299.861 455.806,306.194 447.5,310.5C 434.899,315.471 422.232,315.638 409.5,311C 388.409,299.263 380.076,281.429 384.5,257.5C 385.404,256.791 385.737,255.791 385.5,254.5 Z"/></g>
<g><path style="opacity:1" fill="#e7e5d2" d="M 426.5,245.5 C 427.496,245.414 428.329,245.748 429,246.5C 429.5,253.492 429.666,260.492 429.5,267.5C 436.508,267.334 443.508,267.5 450.5,268C 451.833,269.333 451.833,270.667 450.5,272C 443.508,272.5 436.508,272.666 429.5,272.5C 429.5,279.833 429.5,287.167 429.5,294.5C 428.178,294.67 427.011,294.337 426,293.5C 425.5,286.508 425.334,279.508 425.5,272.5C 418.492,272.666 411.492,272.5 404.5,272C 403.167,270.667 403.167,269.333 404.5,268C 411.492,267.5 418.492,267.334 425.5,267.5C 425.203,260.08 425.536,252.746 426.5,245.5 Z"/></g>
<g><path style="opacity:1" fill="#cecece" d="M 131.5,291.5 C 153.167,291.5 174.833,291.5 196.5,291.5C 196.5,295.833 196.5,300.167 196.5,304.5C 174.833,304.5 153.167,304.5 131.5,304.5C 131.5,300.167 131.5,295.833 131.5,291.5 Z"/></g>
<g><path style="opacity:1" fill="#227798" d="M 467.5,324.5 C 467.828,313.321 467.495,302.321 466.5,291.5C 466.5,291.167 466.5,290.833 466.5,290.5C 467.117,290.389 467.617,290.056 468,289.5C 468.826,301.341 468.659,313.007 467.5,324.5 Z"/></g>
<g><path style="opacity:1" fill="#24b1e8" d="M 466.5,291.5 C 467.495,302.321 467.828,313.321 467.5,324.5C 460.413,326.876 454.08,330.543 448.5,335.5C 447.53,326.943 447.197,318.61 447.5,310.5C 455.806,306.194 462.139,299.861 466.5,291.5 Z"/></g>
<g><path style="opacity:1" fill="#30c4ea" d="M 131.5,318.5 C 153.167,318.5 174.833,318.5 196.5,318.5C 196.666,323.179 196.499,327.845 196,332.5C 186.896,324.82 176.396,322.32 164.5,325C 162.913,325.862 161.246,326.529 159.5,327C 154.5,330.667 149.5,334.333 144.5,338C 140.27,339.29 135.936,339.79 131.5,339.5C 131.5,332.5 131.5,325.5 131.5,318.5 Z"/></g>
<g><path style="opacity:1" fill="#8be8f6" d="M 264.5,344.5 C 261.159,346.461 257.492,346.961 253.5,346C 249.313,344.075 245.313,341.908 241.5,339.5C 250.186,335.94 257.852,337.607 264.5,344.5 Z"/></g>
<g><path style="opacity:1" fill="#8be7f4" d="M 341.5,346.5 C 332.393,348.125 324.393,345.958 317.5,340C 318.416,339.722 319.082,339.222 319.5,338.5C 328.529,336.179 335.863,338.845 341.5,346.5 Z"/></g>
<g><path style="opacity:1" fill="#8bebf8" d="M 188.5,343.5 C 188.414,344.496 188.748,345.329 189.5,346C 180.728,347.255 173.061,345.089 166.5,339.5C 174.585,336.002 181.918,337.335 188.5,343.5 Z"/></g>
<g><path style="opacity:1" fill="#8de9f7" d="M 115.5,345.5 C 106.301,347.931 98.3015,345.931 91.5,339.5C 100.76,335.911 108.76,337.911 115.5,345.5 Z"/></g>
<g><path style="opacity:1" fill="#b8f4fe" d="M 319.5,338.5 C 319.082,339.222 318.416,339.722 317.5,340C 324.393,345.958 332.393,348.125 341.5,346.5C 353.251,354.784 365.585,355.617 378.5,349C 382.863,345.824 387.196,342.657 391.5,339.5C 393.564,339.762 394.897,340.929 395.5,343C 398.376,343.438 401.043,344.438 403.5,346C 407.587,346.762 411.587,346.596 415.5,345.5C 420.398,348.781 425.732,351.281 431.5,353C 436.22,353.717 440.886,353.55 445.5,352.5C 446.833,365.316 447.499,378.483 447.5,392C 447.333,405.167 447.167,418.333 447,431.5C 445.412,442.928 440.412,452.595 432,460.5C 431.517,461.448 431.351,462.448 431.5,463.5C 428.777,464.352 426.11,465.519 423.5,467C 425.473,467.495 427.473,467.662 429.5,467.5C 309.667,468.666 189.667,468.833 69.5,468C 47.9442,463.944 35.2776,451.111 31.5,429.5C 31.1686,399.329 31.5019,369.329 32.5,339.5C 38.4094,344.23 44.7428,348.397 51.5,352C 58.1667,354 64.8333,354 71.5,352C 78.391,348.062 85.0576,343.895 91.5,339.5C 98.3015,345.931 106.301,347.931 115.5,345.5C 127.894,355.071 140.894,355.905 154.5,348C 158.12,344.533 162.12,341.7 166.5,339.5C 173.061,345.089 180.728,347.255 189.5,346C 188.748,345.329 188.414,344.496 188.5,343.5C 199.659,354.101 212.325,356.268 226.5,350C 231.398,346.255 236.398,342.755 241.5,339.5C 245.313,341.908 249.313,344.075 253.5,346C 257.492,346.961 261.159,346.461 264.5,344.5C 272.469,351.655 281.803,354.489 292.5,353C 299.668,348.917 306.668,344.584 313.5,340C 315.345,338.872 317.345,338.372 319.5,338.5 Z"/></g>
<g><path style="opacity:1" fill="#8beefd" d="M 466.5,339.5 C 467.498,369.329 467.831,399.329 467.5,429.5C 463.833,451.167 451.167,463.833 429.5,467.5C 427.473,467.662 425.473,467.495 423.5,467C 426.11,465.519 428.777,464.352 431.5,463.5C 431.351,462.448 431.517,461.448 432,460.5C 440.412,452.595 445.412,442.928 447,431.5C 447.167,418.333 447.333,405.167 447.5,392C 447.499,378.483 446.833,365.316 445.5,352.5C 448.851,351.33 452.185,349.83 455.5,348C 459.043,344.951 462.709,342.118 466.5,339.5 Z"/></g>
<g><path style="opacity:1" fill="#639ba7" d="M 466.5,339.5 C 466.56,338.957 466.893,338.624 467.5,338.5C 468.83,368.997 468.83,399.331 467.5,429.5C 467.831,399.329 467.498,369.329 466.5,339.5 Z"/></g>
<g><path style="opacity:1" fill="#8debf8" d="M 415.5,345.5 C 411.587,346.596 407.587,346.762 403.5,346C 401.043,344.438 398.376,343.438 395.5,343C 394.897,340.929 393.564,339.762 391.5,339.5C 400.858,335.84 408.858,337.84 415.5,345.5 Z"/></g>
<g><path style="opacity:1" fill="#7ca4a4" d="M 32.5,339.5 C 31.5019,369.329 31.1686,399.329 31.5,429.5C 30.1703,399.331 30.1703,368.997 31.5,338.5C 32.1067,338.624 32.44,338.957 32.5,339.5 Z"/></g>
</svg>
