<?xml version="1.0" encoding="UTF-8"?>
<!DOCTYPE svg PUBLIC "-//W3C//DTD SVG 1.1//EN" "http://www.w3.org/Graphics/SVG/1.1/DTD/svg11.dtd">
<svg xmlns="http://www.w3.org/2000/svg" version="1.1" width="337px" height="312px" style="shape-rendering:geometricPrecision; text-rendering:geometricPrecision; image-rendering:optimizeQuality; fill-rule:evenodd; clip-rule:evenodd" xmlns:xlink="http://www.w3.org/1999/xlink">
<g><path style="opacity:1" fill="#fefefe" d="M -0.5,-0.5 C 111.833,-0.5 224.167,-0.5 336.5,-0.5C 336.5,103.5 336.5,207.5 336.5,311.5C 224.167,311.5 111.833,311.5 -0.5,311.5C -0.5,207.5 -0.5,103.5 -0.5,-0.5 Z"/></g>
<g><path style="opacity:1" fill="#0c0c0b" d="M 60.5,88.5 C 59.5233,91.2869 59.19,94.2869 59.5,97.5C 66.8333,97.5 74.1667,97.5 81.5,97.5C 93.4035,101.69 105.404,105.69 117.5,109.5C 133.279,104.612 147.612,97.1119 160.5,87C 162.5,86.3333 164.5,86.3333 166.5,87C 179.908,98.1216 195.075,105.955 212,110.5C 222.88,106.644 233.713,102.644 244.5,98.5C 251.833,98.5 259.167,98.5 266.5,98.5C 266.81,95.2869 266.477,92.2869 265.5,89.5C 258.114,84.0687 257.78,78.2353 264.5,72C 270.202,70.2795 274.702,71.7795 278,76.5C 279.151,81.5535 277.651,85.5535 273.5,88.5C 272.895,93.577 272.062,98.577 271,103.5C 262.245,104.319 253.411,104.819 244.5,105C 237.833,107.667 231.167,110.333 224.5,113C 228.777,114.252 232.944,115.752 237,117.5C 237.499,122.489 237.666,127.489 237.5,132.5C 245.196,132.831 252.862,132.497 260.5,131.5C 265.912,124.866 271.412,124.866 277,131.5C 278.522,142.314 274.022,146.481 263.5,144C 262.313,142.981 261.313,141.814 260.5,140.5C 252.862,139.503 245.196,139.169 237.5,139.5C 237.725,153.855 237.391,168.188 236.5,182.5C 243.508,182.666 250.508,182.5 257.5,182C 262.672,174 268.505,173.5 275,180.5C 276.831,191.672 272.331,195.838 261.5,193C 260.313,191.981 259.313,190.814 258.5,189.5C 250.528,188.502 242.528,188.169 234.5,188.5C 232.577,198.015 229.243,207.015 224.5,215.5C 223.733,216.172 223.066,217.005 222.5,218C 236.163,218.5 249.829,218.667 263.5,218.5C 264.496,218.414 265.329,218.748 266,219.5C 266.333,224.833 266.667,230.167 267,235.5C 271.949,238.12 273.616,242.12 272,247.5C 267.737,254.157 262.403,255.157 256,250.5C 251.889,244.056 253.223,239.056 260,235.5C 260.499,231.848 260.665,228.182 260.5,224.5C 246.496,224.333 232.496,224.5 218.5,225C 203.052,241.557 184.386,252.724 162.5,258.5C 153.788,257.643 145.788,254.809 138.5,250C 127.603,243.104 117.937,234.771 109.5,225C 94.1703,224.5 78.837,224.333 63.5,224.5C 63.3347,228.182 63.5014,231.848 64,235.5C 69.8122,239.303 70.9789,244.303 67.5,250.5C 62.6311,254.461 57.7978,254.461 53,250.5C 50.0623,244.235 51.3956,239.235 57,235.5C 57.3333,230.167 57.6667,224.833 58,219.5C 58.3826,218.944 58.8826,218.611 59.5,218.5C 74.5037,218.667 89.5037,218.5 104.5,218C 103.934,217.005 103.267,216.172 102.5,215.5C 98.3915,207.514 95.0582,199.181 92.5,190.5C 84.5,189.167 76.5,189.167 68.5,190.5C 64.8655,195.571 60.1989,196.738 54.5,194C 51.6819,190.662 50.8485,186.829 52,182.5C 54.8966,177.845 59.0633,176.345 64.5,178C 66.6051,179.193 68.2718,180.86 69.5,183C 76.4921,183.5 83.4921,183.666 90.5,183.5C 89.6267,168.853 89.2933,154.186 89.5,139.5C 81.4931,139.334 73.4931,139.5 65.5,140C 60.5483,146.575 55.0483,147.075 49,141.5C 46.0003,133.683 48.5003,128.683 56.5,126.5C 60.4881,126.823 63.4881,128.656 65.5,132C 73.4931,132.5 81.4931,132.666 89.5,132.5C 89.1033,127.041 89.6033,121.708 91,116.5C 95.8706,115.091 100.704,113.591 105.5,112C 97.5,109.333 89.5,106.667 81.5,104C 72.7854,103.805 64.1188,103.305 55.5,102.5C 54.8076,101.975 54.3076,101.308 54,100.5C 53.8275,96.1289 53.3275,91.7956 52.5,87.5C 45.9924,81.9715 45.9924,76.4715 52.5,71C 60.1182,68.6334 64.7848,71.3 66.5,79C 65.8582,83.1366 63.8582,86.3033 60.5,88.5 Z"/></g>
<g><path style="opacity:1" fill="#0171cc" d="M 55.5,74.5 C 61.2925,75.4215 62.6258,78.2548 59.5,83C 54.5023,84.3297 52.3357,82.4964 53,77.5C 53.6979,76.3094 54.5313,75.3094 55.5,74.5 Z"/></g>
<g><path style="opacity:1" fill="#01ca21" d="M 267.5,75.5 C 273.651,76.1029 274.984,78.9362 271.5,84C 264,84.1959 262.667,81.3626 267.5,75.5 Z"/></g>
<g><path style="opacity:1" fill="#808080" d="M 60.5,88.5 C 60.5,91.1667 60.5,93.8333 60.5,96.5C 67.6866,96.1755 74.6866,96.5088 81.5,97.5C 74.1667,97.5 66.8333,97.5 59.5,97.5C 59.19,94.2869 59.5233,91.2869 60.5,88.5 Z"/></g>
<g><path style="opacity:1" fill="#808080" d="M 265.5,89.5 C 266.477,92.2869 266.81,95.2869 266.5,98.5C 259.167,98.5 251.833,98.5 244.5,98.5C 251.313,97.5088 258.313,97.1755 265.5,97.5C 265.5,94.8333 265.5,92.1667 265.5,89.5 Z"/></g>
<g><path style="opacity:1" fill="#27fd33" d="M 162.5,96.5 C 177.714,106.438 194.047,114.272 211.5,120C 217.14,121.361 222.806,122.528 228.5,123.5C 228.667,141.17 228.5,158.836 228,176.5C 222.524,215.135 201.024,239.469 163.5,249.5C 125.976,239.469 104.476,215.135 99,176.5C 98.167,158.824 98.3337,141.157 99.5,123.5C 122.849,119.651 143.849,110.651 162.5,96.5 Z"/></g>
<g><path style="opacity:1" fill="#060805" d="M 154.5,118.5 C 184.919,116.281 204.753,129.614 214,158.5C 217.778,190.028 204.611,210.528 174.5,220C 151.68,223.671 133.514,216.171 120,197.5C 106.656,171.668 110.49,148.834 131.5,129C 138.591,124.035 146.258,120.535 154.5,118.5 Z"/></g>
<g><path style="opacity:1" fill="#00c4be" d="M 153.5,127.5 C 179.119,124.879 196.286,135.546 205,159.5C 208.527,187.605 196.693,205.105 169.5,212C 145.031,213.02 129.198,201.853 122,178.5C 118.786,152.913 129.286,135.913 153.5,127.5 Z"/></g>
<g><path style="opacity:1" fill="#0fc3db" d="M 54.5,131.5 C 60.1445,131.297 62.1445,133.797 60.5,139C 52.8394,141.168 50.8394,138.668 54.5,131.5 Z"/></g>
<g><path style="opacity:1" fill="#0175d3" d="M 266.5,131.5 C 272.643,132.026 273.976,134.86 270.5,140C 265.504,140.664 263.67,138.498 265,133.5C 265.717,132.956 266.217,132.289 266.5,131.5 Z"/></g>
<g><path style="opacity:1" fill="#020403" d="M 157.5,136.5 C 172.736,134.747 180.403,141.414 180.5,156.5C 184.493,156.245 187.326,157.911 189,161.5C 189.667,169.167 189.667,176.833 189,184.5C 184.298,196.187 175.631,202.187 163,202.5C 150.832,201.909 142.498,195.909 138,184.5C 137.333,176.833 137.333,169.167 138,161.5C 139.484,157.512 142.317,155.846 146.5,156.5C 145.492,147.176 149.159,140.51 157.5,136.5 Z"/></g>
<g><path style="opacity:1" fill="#00c6c0" d="M 171.5,152.5 C 171.5,153.5 171.5,154.5 171.5,155.5C 166.167,155.5 160.833,155.5 155.5,155.5C 155.5,154.5 155.5,153.5 155.5,152.5C 156.941,145.949 160.941,143.783 167.5,146C 169.923,147.571 171.256,149.737 171.5,152.5 Z"/></g>
<g><path style="opacity:1" fill="#006260" d="M 155.5,152.5 C 155.5,153.5 155.5,154.5 155.5,155.5C 160.833,155.5 166.167,155.5 171.5,155.5C 171.5,154.5 171.5,153.5 171.5,152.5C 172.434,153.568 172.768,154.901 172.5,156.5C 166.5,156.5 160.5,156.5 154.5,156.5C 154.232,154.901 154.566,153.568 155.5,152.5 Z"/></g>
<g><path style="opacity:1" fill="#78463b" d="M 180.5,179.5 C 180.5,174.833 180.5,170.167 180.5,165.5C 169.167,165.5 157.833,165.5 146.5,165.5C 146.5,169.5 146.5,173.5 146.5,177.5C 145.515,173.366 145.182,169.032 145.5,164.5C 157.5,164.5 169.5,164.5 181.5,164.5C 181.821,169.695 181.487,174.695 180.5,179.5 Z"/></g>
<g><path style="opacity:1" fill="#e4836f" d="M 180.5,179.5 C 178.744,188.885 173.078,193.885 163.5,194.5C 153.51,193.177 147.843,187.51 146.5,177.5C 146.5,173.5 146.5,169.5 146.5,165.5C 157.833,165.5 169.167,165.5 180.5,165.5C 180.5,170.167 180.5,174.833 180.5,179.5 Z"/></g>
<g><path style="opacity:1" fill="#070302" d="M 160.5,172.5 C 163.044,172.104 165.211,172.771 167,174.5C 167.784,177.76 167.617,180.927 166.5,184C 164.231,184.758 162.064,184.591 160,183.5C 159.245,179.745 159.411,176.078 160.5,172.5 Z"/></g>
<g><path style="opacity:1" fill="#0fc6de" d="M 264.5,180.5 C 270.53,180.815 272.197,183.481 269.5,188.5C 262.409,189.531 260.742,186.864 264.5,180.5 Z"/></g>
<g><path style="opacity:1" fill="#01d223" d="M 57.5,182.5 C 63.8895,181.218 65.8895,183.551 63.5,189.5C 56.7463,191.532 54.7463,189.199 57.5,182.5 Z"/></g>
<g><path style="opacity:1" fill="#818181" d="M 102.5,215.5 C 103.267,216.172 103.934,217.005 104.5,218C 89.5037,218.5 74.5037,218.667 59.5,218.5C 74.0291,218.161 88.3625,217.161 102.5,215.5 Z"/></g>
<g><path style="opacity:1" fill="#808080" d="M 224.5,215.5 C 237.301,217.16 250.301,218.16 263.5,218.5C 249.829,218.667 236.163,218.5 222.5,218C 223.066,217.005 223.733,216.172 224.5,215.5 Z"/></g>
<g><path style="opacity:1" fill="#0176d5" d="M 57.5,240.5 C 64.536,239.603 66.2027,242.103 62.5,248C 56.5933,248.746 54.9267,246.246 57.5,240.5 Z"/></g>
<g><path style="opacity:1" fill="#02ce22" d="M 260.5,240.5 C 267.536,239.603 269.203,242.103 265.5,248C 258.745,248.756 257.078,246.256 260.5,240.5 Z"/></g>
</svg>
