<?xml version="1.0" encoding="UTF-8"?>
<!DOCTYPE svg PUBLIC "-//W3C//DTD SVG 1.1//EN" "http://www.w3.org/Graphics/SVG/1.1/DTD/svg11.dtd">
<svg xmlns="http://www.w3.org/2000/svg" version="1.1" width="347px" height="320px" style="shape-rendering:geometricPrecision; text-rendering:geometricPrecision; image-rendering:optimizeQuality; fill-rule:evenodd; clip-rule:evenodd" xmlns:xlink="http://www.w3.org/1999/xlink">
<g><path style="opacity:1" fill="#121313" d="M 246.5,49.5 C 260.314,49.1459 266.814,55.8126 266,69.5C 265.484,72.0336 264.317,74.2002 262.5,76C 268.741,80.2426 272.574,86.076 274,93.5C 274.667,101.833 274.667,110.167 274,118.5C 273.5,119 273,119.5 272.5,120C 257.833,120.667 243.167,120.667 228.5,120C 228,119.5 227.5,119 227,118.5C 226.109,108.772 226.443,99.1055 228,89.5C 230.356,84.1397 233.856,79.6397 238.5,76C 231.595,64.2188 234.261,55.3855 246.5,49.5 Z"/></g>
<g><path style="opacity:1" fill="#171818" d="M 173.5,79.5 C 171.167,79.5 168.833,79.5 166.5,79.5C 166.169,107.672 166.502,135.672 167.5,163.5C 173.5,163.5 179.5,163.5 185.5,163.5C 185.881,159.881 186.881,156.548 188.5,153.5C 196.468,157.484 204.135,161.984 211.5,167C 203.635,171.765 195.635,176.265 187.5,180.5C 186.517,176.702 186.183,172.702 186.5,168.5C 179.833,168.5 173.167,168.5 166.5,168.5C 166.169,196.672 166.502,224.672 167.5,252.5C 170.167,252.5 172.833,252.5 175.5,252.5C 178.962,253.482 182.629,253.815 186.5,253.5C 185.92,249.351 186.586,245.684 188.5,242.5C 196.468,246.484 204.135,250.984 211.5,256C 203.635,260.765 195.635,265.265 187.5,269.5C 186.833,265.833 186.167,262.167 185.5,258.5C 177.611,258.724 169.944,258.058 162.5,256.5C 162.5,227.167 162.5,197.833 162.5,168.5C 159.5,168.5 156.5,168.5 153.5,168.5C 153.5,166.833 153.5,165.167 153.5,163.5C 153.833,163.5 154.167,163.5 154.5,163.5C 156.833,163.5 159.167,163.5 161.5,163.5C 161.167,134.159 161.5,104.826 162.5,75.5C 171.102,74.2742 179.769,73.6075 188.5,73.5C 188.334,69.4862 188.501,65.4862 189,61.5C 197.25,66.3745 205.417,71.3745 213.5,76.5C 205.453,81.6112 197.286,86.6112 189,91.5C 188.501,87.5138 188.334,83.5138 188.5,79.5C 183.5,79.5 178.5,79.5 173.5,79.5 Z"/></g>
<g><path style="opacity:1" fill="#66ebe7" d="M 246.5,58.5 C 257.564,58.0253 260.564,62.5253 255.5,72C 247.938,75.6802 243.605,73.3468 242.5,65C 243.205,62.4582 244.539,60.2916 246.5,58.5 Z"/></g>
<g><path style="opacity:0.458" fill="#58e9e5" d="M 192.5,68.5 C 196.973,70.9048 201.306,73.5715 205.5,76.5C 201.418,79.2914 197.251,81.9581 193,84.5C 192.501,79.1771 192.334,73.8437 192.5,68.5 Z"/></g>
<g><path style="opacity:0.501" fill="#848484" d="M 173.5,79.5 C 171.735,80.4614 169.735,80.7947 167.5,80.5C 167.5,108.167 167.5,135.833 167.5,163.5C 166.502,135.672 166.169,107.672 166.5,79.5C 168.833,79.5 171.167,79.5 173.5,79.5 Z"/></g>
<g><path style="opacity:1" fill="#96f4f1" d="M 263.5,88.5 C 261.877,89.7794 260.21,91.1128 258.5,92.5C 252.014,92.4058 245.347,92.4058 238.5,92.5C 238.567,91.0413 238.234,89.7079 237.5,88.5C 243.47,81.0305 250.803,79.5305 259.5,84C 261.041,85.3712 262.375,86.8712 263.5,88.5 Z"/></g>
<g><path style="opacity:1" fill="#2b2b2b" d="M 91.5,91.5 C 94.1873,91.3359 96.854,91.5026 99.5,92C 102.134,94.2933 102.134,96.46 99.5,98.5C 97.5,98.5 95.5,98.5 93.5,98.5C 93.762,99.9778 93.4287,101.311 92.5,102.5C 91.5108,98.8927 91.1774,95.226 91.5,91.5 Z M 97.5,94.5 C 97.38,95.5862 96.7133,96.2528 95.5,96.5C 94.5836,96.4573 93.9169,96.1239 93.5,95.5C 94.7079,94.7659 96.0413,94.4326 97.5,94.5 Z"/></g>
<g><path style="opacity:0.039" fill="#e1e1e1" d="M 97.5,94.5 C 96.0413,94.4326 94.7079,94.7659 93.5,95.5C 93.62,94.4138 94.2867,93.7472 95.5,93.5C 96.4164,93.5427 97.0831,93.8761 97.5,94.5 Z"/></g>
<g><path style="opacity:1" fill="#353535" d="M 83.5,104.5 C 81.8007,104.473 80.4674,103.806 79.5,102.5C 78.3664,99.6296 77.6997,96.6296 77.5,93.5C 81.0512,92.3904 84.5512,92.3904 88,93.5C 88.9967,96.8006 89.3301,100.134 89,103.5C 87.3005,104.406 85.4672,104.739 83.5,104.5 Z M 81.5,95.5 C 85.5878,95.2184 86.0878,95.8851 83,97.5C 81.9701,97.1639 81.4701,96.4972 81.5,95.5 Z M 84.5,99.5 C 85.3764,99.3691 86.0431,99.7025 86.5,100.5C 85.4231,101.705 84.0898,102.372 82.5,102.5C 82.7822,101.222 83.4489,100.222 84.5,99.5 Z"/></g>
<g><path style="opacity:1" fill="#4c4c4c" d="M 108.5,97.5 C 111.258,98.9665 110.925,99.6332 107.5,99.5C 106.244,99.4614 105.244,99.9614 104.5,101C 107.149,101.452 109.649,102.286 112,103.5C 112.905,100.019 114.571,97.0195 117,94.5C 119.643,95.3207 121.976,96.654 124,98.5C 124.441,104.203 121.941,105.87 116.5,103.5C 114.968,106.75 113.134,107.084 111,104.5C 110.439,105.022 109.772,105.355 109,105.5C 106.865,104.873 104.698,104.373 102.5,104C 101.561,100.146 101.894,96.313 103.5,92.5C 106.872,91.8678 110.205,92.3678 113.5,94C 112.874,94.7504 112.374,95.5838 112,96.5C 109.936,95.4086 107.769,95.2419 105.5,96C 106.527,96.5133 107.527,97.0133 108.5,97.5 Z M 117.5,98.5 C 121.161,98.4257 121.828,99.4257 119.5,101.5C 117.129,101.108 116.462,100.108 117.5,98.5 Z"/></g>
<g><path style="opacity:1" fill="#67f0ec" d="M 237.5,88.5 C 238.234,89.7079 238.567,91.0413 238.5,92.5C 245.347,92.4058 252.014,92.4058 258.5,92.5C 260.21,91.1128 261.877,89.7794 263.5,88.5C 264.793,89.842 265.626,91.5087 266,93.5C 266.82,100.014 266.653,106.347 265.5,112.5C 265.5,108.833 265.5,105.167 265.5,101.5C 255.5,101.5 245.5,101.5 235.5,101.5C 235.5,98.8333 235.5,96.1667 235.5,93.5C 235.402,91.4471 236.069,89.7804 237.5,88.5 Z"/></g>
<g><path style="opacity:1" fill="#3b3b3b" d="M 78.5,104.5 C 78.5,105.167 78.5,105.833 78.5,106.5C 76.4078,106.439 74.9078,105.439 74,103.5C 73.0754,104.047 72.2421,104.713 71.5,105.5C 72.1272,106.417 72.4606,107.417 72.5,108.5C 71.8333,108.5 71.5,108.833 71.5,109.5C 70.8333,109.5 70.1667,109.5 69.5,109.5C 69.5,108.833 69.1667,108.5 68.5,108.5C 67.9391,105.538 66.9391,102.705 65.5,100C 67.1257,98.1814 69.1257,96.8481 71.5,96C 75.4799,95.6413 76.8133,97.308 75.5,101C 77.4257,101.422 78.4257,102.589 78.5,104.5 Z M 69.5,99.5 C 74.4214,99.1349 74.7547,100.135 70.5,102.5C 69.6143,101.675 69.281,100.675 69.5,99.5 Z"/></g>
<g><path style="opacity:0.235" fill="#afafaf" d="M 108.5,97.5 C 109.5,97.5 110.5,97.5 111.5,97.5C 111.5,98.5 111.5,99.5 111.5,100.5C 109.901,100.768 108.568,100.434 107.5,99.5C 110.925,99.6332 111.258,98.9665 108.5,97.5 Z"/></g>
<g><path style="opacity:0.161" fill="#c8c8c8" d="M 84.5,99.5 C 83.4489,100.222 82.7822,101.222 82.5,102.5C 81.596,101.791 81.2627,100.791 81.5,99.5C 82.5,99.5 83.5,99.5 84.5,99.5 Z"/></g>
<g><path style="opacity:0.153" fill="#a3a3a3" d="M 91.5,91.5 C 91.1774,95.226 91.5108,98.8927 92.5,102.5C 93.4287,101.311 93.762,99.9778 93.5,98.5C 95.5,98.5 97.5,98.5 99.5,98.5C 98.0813,99.4511 96.4147,99.7845 94.5,99.5C 94.5,100.833 94.5,102.167 94.5,103.5C 93.1667,103.5 91.8333,103.5 90.5,103.5C 90.1832,99.2984 90.5166,95.2984 91.5,91.5 Z"/></g>
<g><path style="opacity:0.999" fill="#484848" d="M 128.5,114.5 C 128.5,113.833 128.167,113.5 127.5,113.5C 127.167,113.5 126.833,113.5 126.5,113.5C 126.158,112.662 125.492,112.328 124.5,112.5C 124.027,111.094 123.027,110.427 121.5,110.5C 122.617,106.274 124.784,102.607 128,99.5C 130.034,101.032 132.201,102.365 134.5,103.5C 135.386,104.325 135.719,105.325 135.5,106.5C 133.037,106.219 130.87,105.219 129,103.5C 129.05,105.752 130.216,107.418 132.5,108.5C 132.192,109.308 131.692,109.975 131,110.5C 129.414,109.624 127.914,108.624 126.5,107.5C 126.167,107.833 125.833,108.167 125.5,108.5C 126.865,109.941 128.365,111.274 130,112.5C 130.528,113.816 130.028,114.483 128.5,114.5 Z"/></g>
<g><path style="opacity:1" fill="#3d3d3d" d="M 68.5,108.5 C 68.5,108.833 68.5,109.167 68.5,109.5C 68.1583,110.338 67.4916,110.672 66.5,110.5C 64.2512,111.08 62.5846,112.413 61.5,114.5C 61.5,115.167 61.8333,115.5 62.5,115.5C 62.1667,116.5 61.5,117.167 60.5,117.5C 60.1667,117.5 59.8333,117.5 59.5,117.5C 58.4648,113.561 57.1314,109.728 55.5,106C 56.6667,104.833 57.8333,103.667 59,102.5C 62.1104,104.636 65.2771,106.636 68.5,108.5 Z M 59.5,106.5 C 62.0454,107.438 62.5454,108.771 61,110.5C 60.2086,109.255 59.7086,107.922 59.5,106.5 Z"/></g>
<g><path style="opacity:0.086" fill="#b3b2b2" d="M 79.5,102.5 C 80.4674,103.806 81.8007,104.473 83.5,104.5C 82.1667,105.167 80.8333,105.833 79.5,106.5C 79.1667,106.5 78.8333,106.5 78.5,106.5C 78.5,105.833 78.5,105.167 78.5,104.5C 79.3382,104.158 79.6716,103.492 79.5,102.5 Z"/></g>
<g><path style="opacity:1" fill="#738375" d="M 121.5,110.5 C 121.833,111.167 122.167,111.833 122.5,112.5C 116.166,109.613 109.5,107.946 102.5,107.5C 92.8912,105.763 83.5578,106.763 74.5,110.5C 70.5,112.167 66.5,113.833 62.5,115.5C 61.8333,115.5 61.5,115.167 61.5,114.5C 63.5932,113.955 65.5932,113.122 67.5,112C 66.944,111.617 66.6107,111.117 66.5,110.5C 67.4916,110.672 68.1583,110.338 68.5,109.5C 68.8333,109.5 69.1667,109.5 69.5,109.5C 70.1667,110.833 70.8333,110.833 71.5,109.5C 71.5,108.833 71.8333,108.5 72.5,108.5C 72.4346,108.938 72.6012,109.272 73,109.5C 75.294,108.578 77.4606,107.578 79.5,106.5C 93.8702,103.652 107.87,104.985 121.5,110.5 Z"/></g>
<g><path style="opacity:1" fill="#33ede7" d="M 235.5,93.5 C 235.5,96.1667 235.5,98.8333 235.5,101.5C 245.5,101.5 255.5,101.5 265.5,101.5C 265.5,105.167 265.5,108.833 265.5,112.5C 255.167,112.5 244.833,112.5 234.5,112.5C 234.177,105.978 234.51,99.6446 235.5,93.5 Z"/></g>
<g><path style="opacity:1" fill="#9ad7c4" d="M 97.5,112.5 C 96.8091,114.022 95.6424,115.022 94,115.5C 86.0906,112.679 79.9239,114.679 75.5,121.5C 75.3354,118.482 75.502,115.482 76,112.5C 76.3076,111.692 76.8076,111.025 77.5,110.5C 78.6956,110.846 78.6956,111.346 77.5,112C 80.7532,113.814 84.0865,113.98 87.5,112.5C 89.8395,112.669 92.0061,113.336 94,114.5C 94.8159,113.177 95.9826,112.511 97.5,112.5 Z"/></g>
<g><path style="opacity:1" fill="#6dcba8" d="M 102.5,107.5 C 103.6,108.558 104.934,109.392 106.5,110C 106.272,110.399 105.938,110.565 105.5,110.5C 102.447,110.111 99.78,110.777 97.5,112.5C 95.9826,112.511 94.8159,113.177 94,114.5C 92.0061,113.336 89.8395,112.669 87.5,112.5C 84.0865,113.98 80.7532,113.814 77.5,112C 78.6956,111.346 78.6956,110.846 77.5,110.5C 76.8076,111.025 76.3076,111.692 76,112.5C 75.502,115.482 75.3354,118.482 75.5,121.5C 74.8333,122.167 74.1667,122.833 73.5,123.5C 73.5792,122.07 73.2458,120.736 72.5,119.5C 73.0253,118.808 73.6919,118.308 74.5,118C 71.7205,115.23 72.0538,112.896 75.5,111C 75.2716,110.601 74.9382,110.435 74.5,110.5C 83.5578,106.763 92.8912,105.763 102.5,107.5 Z"/></g>
<g><path style="opacity:0.408" fill="#8a8570" d="M 122.5,112.5 C 123.167,112.5 123.833,112.5 124.5,112.5C 124.842,113.338 125.508,113.672 126.5,113.5C 126.833,114.833 127.167,114.833 127.5,113.5C 128.167,113.5 128.5,113.833 128.5,114.5C 144.776,126.715 153.442,143.048 154.5,163.5C 154.167,163.5 153.833,163.5 153.5,163.5C 153.527,152.256 150.194,142.256 143.5,133.5C 141.967,129.296 139.3,125.963 135.5,123.5C 132.582,119.043 128.582,116.043 123.5,114.5C 123.167,113.833 122.833,113.167 122.5,112.5 Z"/></g>
<g><path style="opacity:1" fill="#4bc9bd" d="M 74.5,110.5 C 74.9382,110.435 75.2716,110.601 75.5,111C 72.0538,112.896 71.7205,115.23 74.5,118C 73.6919,118.308 73.0253,118.808 72.5,119.5C 73.2458,120.736 73.5792,122.07 73.5,123.5C 73.5,124.5 73.5,125.5 73.5,126.5C 72.5,126.5 71.5,126.5 70.5,126.5C 70.552,128.903 70.2186,131.236 69.5,133.5C 68.2028,135.371 67.2028,137.371 66.5,139.5C 65.8333,139.833 65.1667,140.167 64.5,140.5C 60.839,139.838 59.839,137.838 61.5,134.5C 62.5817,133.406 63.2483,132.073 63.5,130.5C 62.8224,128.484 62.1557,126.484 61.5,124.5C 60.3998,123.442 59.0664,122.608 57.5,122C 58.3805,121.292 59.0472,120.458 59.5,119.5C 59.8333,118.833 60.1667,118.167 60.5,117.5C 61.5,117.167 62.1667,116.5 62.5,115.5C 66.5,113.833 70.5,112.167 74.5,110.5 Z"/></g>
<g><path style="opacity:1" fill="#bbd67d" d="M 102.5,107.5 C 109.5,107.946 116.166,109.613 122.5,112.5C 122.833,113.167 123.167,113.833 123.5,114.5C 124.315,115.837 125.482,116.837 127,117.5C 127.95,123.117 127.117,128.45 124.5,133.5C 125.443,135.47 124.776,136.97 122.5,138C 123.056,138.383 123.389,138.883 123.5,139.5C 123.167,139.5 122.833,139.5 122.5,139.5C 120.61,137.41 118.943,135.077 117.5,132.5C 122.31,130.221 124.143,126.554 123,121.5C 116.39,118.828 110.556,115.162 105.5,110.5C 105.938,110.565 106.272,110.399 106.5,110C 104.934,109.392 103.6,108.558 102.5,107.5 Z"/></g>
<g><path style="opacity:1" fill="#6d9954" d="M 97.5,112.5 C 103.576,111.161 108.242,112.994 111.5,118C 114.174,118.67 116.507,119.837 118.5,121.5C 115.482,121.335 112.482,121.502 109.5,122C 107.114,123.193 104.78,124.36 102.5,125.5C 96.8114,123.41 91.8114,124.576 87.5,129C 85.9751,130.009 84.3084,130.509 82.5,130.5C 79.6733,129.892 77.0067,128.892 74.5,127.5C 74.8333,125.5 75.1667,123.5 75.5,121.5C 79.9239,114.679 86.0906,112.679 94,115.5C 95.6424,115.022 96.8091,114.022 97.5,112.5 Z"/></g>
<g><path style="opacity:1" fill="#33c3ca" d="M 59.5,119.5 C 59.0472,120.458 58.3805,121.292 57.5,122C 59.0664,122.608 60.3998,123.442 61.5,124.5C 57.9486,126.004 56.7819,128.67 58,132.5C 58.8159,133.823 59.9826,134.489 61.5,134.5C 59.839,137.838 60.839,139.838 64.5,140.5C 61.4328,142.121 58.5995,144.121 56,146.5C 55.5001,160.163 55.3334,173.829 55.5,187.5C 57.4273,190.767 59.7606,193.767 62.5,196.5C 62.0825,197.222 61.4158,197.722 60.5,198C 60.4829,201.633 60.6496,205.467 61,209.5C 61.7172,210.044 62.2172,210.711 62.5,211.5C 60.5,210.5 58.5,209.5 56.5,208.5C 53.8826,207.216 51.8826,205.216 50.5,202.5C 49.5,200.5 48.5,198.5 47.5,196.5C 48.0214,192.945 47.3547,189.445 45.5,186C 45.4399,174.579 45.6065,163.079 46,151.5C 46.9299,149.644 47.4299,147.644 47.5,145.5C 45.8333,144.5 44.5,143.167 43.5,141.5C 45.3337,139.502 46.3337,137.168 46.5,134.5C 49.2102,128.071 53.5435,123.071 59.5,119.5 Z"/></g>
<g><path style="opacity:1" fill="#ddebea" d="M 75.5,121.5 C 75.1667,123.5 74.8333,125.5 74.5,127.5C 73.5,127.5 72.5,127.5 71.5,127.5C 71.5,128.5 71.5,129.5 71.5,130.5C 71.573,132.027 70.9063,133.027 69.5,133.5C 70.2186,131.236 70.552,128.903 70.5,126.5C 71.5,126.5 72.5,126.5 73.5,126.5C 73.5,125.5 73.5,124.5 73.5,123.5C 74.1667,122.833 74.8333,122.167 75.5,121.5 Z"/></g>
<g><path style="opacity:1" fill="#676665" d="M 102.5,125.5 C 100.42,126.946 98.0871,127.946 95.5,128.5C 94.7379,129.628 94.0712,130.795 93.5,132C 91.5,132.5 89.5,133 87.5,133.5C 85.664,132.604 83.9974,131.604 82.5,130.5C 84.3084,130.509 85.9751,130.009 87.5,129C 91.8114,124.576 96.8114,123.41 102.5,125.5 Z"/></g>
<g><path style="opacity:1" fill="#15312f" d="M 61.5,124.5 C 62.1557,126.484 62.8224,128.484 63.5,130.5C 63.2483,132.073 62.5817,133.406 61.5,134.5C 59.9826,134.489 58.8159,133.823 58,132.5C 56.7819,128.67 57.9486,126.004 61.5,124.5 Z"/></g>
<g><path style="opacity:1" fill="#161616" d="M 248.5,131.5 C 261.826,132.322 267.66,139.322 266,152.5C 264.961,154.746 263.794,156.913 262.5,159C 269.094,162.592 272.928,168.092 274,175.5C 274.667,183.833 274.667,192.167 274,200.5C 273.167,201.333 272.333,202.167 271.5,203C 257.5,203.667 243.5,203.667 229.5,203C 228.667,202.167 227.833,201.333 227,200.5C 226.109,190.772 226.443,181.106 228,171.5C 230.027,166.136 233.527,161.969 238.5,159C 231.088,145.725 234.422,136.558 248.5,131.5 Z"/></g>
<g><path style="opacity:1" fill="#e0e5de" d="M 105.5,110.5 C 110.556,115.162 116.39,118.828 123,121.5C 124.143,126.554 122.31,130.221 117.5,132.5C 118.943,135.077 120.61,137.41 122.5,139.5C 122.5,140.167 122.167,140.5 121.5,140.5C 120.833,140.167 120.167,139.833 119.5,139.5C 118.571,136.588 117.238,133.921 115.5,131.5C 120.399,129.929 122.399,126.596 121.5,121.5C 120.5,121.5 119.5,121.5 118.5,121.5C 116.507,119.837 114.174,118.67 111.5,118C 108.242,112.994 103.576,111.161 97.5,112.5C 99.78,110.777 102.447,110.111 105.5,110.5 Z"/></g>
<g><path style="opacity:1" fill="#e5da67" d="M 135.5,123.5 C 139.3,125.963 141.967,129.296 143.5,133.5C 145.487,137.226 145.82,141.06 144.5,145C 146.922,147.112 146.922,149.112 144.5,151C 145.167,159.333 145.833,167.667 146.5,176C 146.848,178.055 146.181,180.055 144.5,182C 145.167,182.333 145.833,182.667 146.5,183C 145.359,183.741 145.359,184.575 146.5,185.5C 145.975,186.192 145.308,186.692 144.5,187C 145.308,187.308 145.975,187.808 146.5,188.5C 145.5,190.5 144.5,192.5 143.5,194.5C 143.97,195.463 144.637,195.463 145.5,194.5C 145.672,195.492 145.338,196.158 144.5,196.5C 143.542,196.953 142.708,197.619 142,198.5C 141.29,197.027 140.124,196.36 138.5,196.5C 138.579,195.07 138.246,193.736 137.5,192.5C 138.161,172.97 138.828,153.47 139.5,134C 139.056,130.099 137.722,126.599 135.5,123.5 Z"/></g>
<g><path style="opacity:1" fill="#232222" d="M 118.5,121.5 C 119.5,121.5 120.5,121.5 121.5,121.5C 122.399,126.596 120.399,129.929 115.5,131.5C 113.5,131.5 111.5,131.5 109.5,131.5C 107.192,130.286 104.859,130.286 102.5,131.5C 100.812,133.188 99.1457,134.854 97.5,136.5C 93.1539,136.666 88.8206,136.499 84.5,136C 82.7577,132.128 79.7577,130.295 75.5,130.5C 74.2946,129.314 72.9613,129.314 71.5,130.5C 71.5,129.5 71.5,128.5 71.5,127.5C 72.5,127.5 73.5,127.5 74.5,127.5C 77.0067,128.892 79.6733,129.892 82.5,130.5C 83.9974,131.604 85.664,132.604 87.5,133.5C 89.5,133 91.5,132.5 93.5,132C 94.0712,130.795 94.7379,129.628 95.5,128.5C 98.0871,127.946 100.42,126.946 102.5,125.5C 104.78,124.36 107.114,123.193 109.5,122C 112.482,121.502 115.482,121.335 118.5,121.5 Z"/></g>
<g><path style="opacity:1" fill="#8e8b8b" d="M 106.5,124.5 C 108.977,124.051 110.977,124.717 112.5,126.5C 112,127.881 111,128.547 109.5,128.5C 108.034,127.865 106.7,127.031 105.5,126C 106.056,125.617 106.389,125.117 106.5,124.5 Z"/></g>
<g><path style="opacity:1" fill="#d8d96f" d="M 123.5,114.5 C 128.582,116.043 132.582,119.043 135.5,123.5C 137.722,126.599 139.056,130.099 139.5,134C 138.828,153.47 138.161,172.97 137.5,192.5C 138.246,193.736 138.579,195.07 138.5,196.5C 140.124,196.36 141.29,197.027 142,198.5C 142.708,197.619 143.542,196.953 144.5,196.5C 144.262,198.404 143.262,199.738 141.5,200.5C 138.167,203.5 134.833,206.5 131.5,209.5C 130.489,204.82 130.156,199.82 130.5,194.5C 131.836,192.99 133.003,191.323 134,189.5C 134.667,175.5 134.667,161.5 134,147.5C 131.06,143.963 127.56,141.297 123.5,139.5C 123.389,138.883 123.056,138.383 122.5,138C 124.776,136.97 125.443,135.47 124.5,133.5C 127.117,128.45 127.95,123.117 127,117.5C 125.482,116.837 124.315,115.837 123.5,114.5 Z"/></g>
<g><path style="opacity:1" fill="#32341e" d="M 129.5,124.5 C 134.324,127.453 134.658,130.787 130.5,134.5C 126.851,131.62 126.518,128.286 129.5,124.5 Z"/></g>
<g><path style="opacity:1" fill="#68874f" d="M 75.5,130.5 C 75.0049,134.582 74.0049,137.915 72.5,140.5C 73.499,144.328 75.1657,147.828 77.5,151C 77.1667,151.333 76.8333,151.667 76.5,152C 79.0005,151.114 81.6671,150.28 84.5,149.5C 84.8333,149.5 85.1667,149.5 85.5,149.5C 85.5,149.833 85.5,150.167 85.5,150.5C 83.9142,151.148 82.2475,151.648 80.5,152C 79.2949,153.376 77.9616,154.542 76.5,155.5C 75.6726,154.561 75.0059,154.895 74.5,156.5C 71.7687,154.929 69.9354,152.595 69,149.5C 68.3239,144.129 68.4905,138.796 69.5,133.5C 70.9063,133.027 71.573,132.027 71.5,130.5C 72.9613,129.314 74.2946,129.314 75.5,130.5 Z"/></g>
<g><path style="opacity:1" fill="#7da55b" d="M 75.5,130.5 C 79.7577,130.295 82.7577,132.128 84.5,136C 88.8206,136.499 93.1539,136.666 97.5,136.5C 95.5073,138.163 93.1739,139.33 90.5,140C 93.6467,141.42 96.8134,141.587 100,140.5C 100.106,141.794 101.106,142.461 103,142.5C 105.625,140.714 108.125,138.714 110.5,136.5C 106.752,134.99 107.085,133.823 111.5,133C 110.584,132.722 109.918,132.222 109.5,131.5C 111.5,131.5 113.5,131.5 115.5,131.5C 117.238,133.921 118.571,136.588 119.5,139.5C 116.738,140.38 114.071,141.546 111.5,143C 109.167,143.333 106.833,143.667 104.5,144C 97.3884,144.488 90.3884,144.155 83.5,143C 82.1443,145.414 82.4776,147.581 84.5,149.5C 81.6671,150.28 79.0005,151.114 76.5,152C 76.8333,151.667 77.1667,151.333 77.5,151C 75.1657,147.828 73.499,144.328 72.5,140.5C 74.0049,137.915 75.0049,134.582 75.5,130.5 Z"/></g>
<g><path style="opacity:1" fill="#8dbc64" d="M 109.5,131.5 C 109.918,132.222 110.584,132.722 111.5,133C 107.085,133.823 106.752,134.99 110.5,136.5C 108.125,138.714 105.625,140.714 103,142.5C 101.106,142.461 100.106,141.794 100,140.5C 96.8134,141.587 93.6467,141.42 90.5,140C 93.1739,139.33 95.5073,138.163 97.5,136.5C 99.1457,134.854 100.812,133.188 102.5,131.5C 104.859,130.286 107.192,130.286 109.5,131.5 Z"/></g>
<g><path style="opacity:1" fill="#8be7a1" d="M 257.5,151.5 C 257.5,149.5 257.5,147.5 257.5,145.5C 252.833,145.5 248.167,145.5 243.5,145.5C 243.5,147.5 243.5,149.5 243.5,151.5C 241.689,143.471 245.022,139.971 253.5,141C 258.311,143.288 259.645,146.788 257.5,151.5 Z"/></g>
<g><path style="opacity:1" fill="#7c9e58" d="M 66.5,139.5 C 66.5,141.833 66.5,144.167 66.5,146.5C 64.6316,147.263 62.9649,148.263 61.5,149.5C 60.506,159.319 60.1726,169.319 60.5,179.5C 59.3307,182.511 57.664,185.178 55.5,187.5C 55.3334,173.829 55.5001,160.163 56,146.5C 58.5995,144.121 61.4328,142.121 64.5,140.5C 65.1667,140.167 65.8333,139.833 66.5,139.5 Z"/></g>
<g><path style="opacity:0.118" fill="#c5c8ca" d="M 119.5,144.5 C 120.492,144.328 121.158,144.662 121.5,145.5C 118.955,148.084 116.288,150.584 113.5,153C 112.563,153.692 111.897,153.525 111.5,152.5C 112.833,151.833 113.833,150.833 114.5,149.5C 115.6,148.442 116.934,147.608 118.5,147C 119.252,146.329 119.586,145.496 119.5,144.5 Z"/></g>
<g><path style="opacity:1" fill="#d5e0db" d="M 69.5,133.5 C 68.4905,138.796 68.3239,144.129 69,149.5C 69.9354,152.595 71.7687,154.929 74.5,156.5C 74.44,157.043 74.1067,157.376 73.5,157.5C 69.8771,154.573 67.5438,150.906 66.5,146.5C 66.5,144.167 66.5,141.833 66.5,139.5C 67.2028,137.371 68.2028,135.371 69.5,133.5 Z"/></g>
<g><path style="opacity:1" fill="#8b554a" d="M 119.5,139.5 C 120.167,139.833 120.833,140.167 121.5,140.5C 120.833,141.833 120.167,143.167 119.5,144.5C 119.586,145.496 119.252,146.329 118.5,147C 116.934,147.608 115.6,148.442 114.5,149.5C 112.833,149.5 111.167,149.5 109.5,149.5C 101.5,149.5 93.5,149.5 85.5,149.5C 85.1667,149.5 84.8333,149.5 84.5,149.5C 82.4776,147.581 82.1443,145.414 83.5,143C 90.3884,144.155 97.3884,144.488 104.5,144C 106.833,143.667 109.167,143.333 111.5,143C 114.071,141.546 116.738,140.38 119.5,139.5 Z"/></g>
<g><path style="opacity:1" fill="#2d384a" d="M 66.5,146.5 C 67.5438,150.906 69.8771,154.573 73.5,157.5C 74.1067,157.376 74.44,157.043 74.5,156.5C 75.0059,154.895 75.6726,154.561 76.5,155.5C 71.8333,162.833 67.1667,170.167 62.5,177.5C 61.5064,168.348 61.1731,159.015 61.5,149.5C 62.9649,148.263 64.6316,147.263 66.5,146.5 Z"/></g>
<g><path style="opacity:1" fill="#70fa90" d="M 257.5,151.5 C 254.848,155.314 251.181,156.481 246.5,155C 245.29,153.961 244.29,152.794 243.5,151.5C 243.5,149.5 243.5,147.5 243.5,145.5C 248.167,145.5 252.833,145.5 257.5,145.5C 257.5,147.5 257.5,149.5 257.5,151.5 Z"/></g>
<g><path style="opacity:1" fill="#f3de5e" d="M 143.5,133.5 C 150.194,142.256 153.527,152.256 153.5,163.5C 153.5,165.167 153.5,166.833 153.5,168.5C 152.068,177.566 149.401,186.233 145.5,194.5C 144.637,195.463 143.97,195.463 143.5,194.5C 144.5,192.5 145.5,190.5 146.5,188.5C 145.975,187.808 145.308,187.308 144.5,187C 145.308,186.692 145.975,186.192 146.5,185.5C 145.359,184.575 145.359,183.741 146.5,183C 145.833,182.667 145.167,182.333 144.5,182C 146.181,180.055 146.848,178.055 146.5,176C 145.833,167.667 145.167,159.333 144.5,151C 146.922,149.112 146.922,147.112 144.5,145C 145.82,141.06 145.487,137.226 143.5,133.5 Z"/></g>
<g><path style="opacity:1" fill="#a7be92" d="M 85.5,150.5 C 87.8568,150.337 90.1902,150.503 92.5,151C 83.0302,166.111 73.6969,181.278 64.5,196.5C 63.8333,196.5 63.1667,196.5 62.5,196.5C 59.7606,193.767 57.4273,190.767 55.5,187.5C 57.664,185.178 59.3307,182.511 60.5,179.5C 61.5,179.167 62.1667,178.5 62.5,177.5C 67.1667,170.167 71.8333,162.833 76.5,155.5C 77.9616,154.542 79.2949,153.376 80.5,152C 82.2475,151.648 83.9142,151.148 85.5,150.5 Z"/></g>
<g><path style="opacity:1" fill="#a7bf92" d="M 80.5,200.5 C 79.0256,201.436 78.0256,202.77 77.5,204.5C 73.5753,203.421 70.242,201.421 67.5,198.5C 76.9413,182.552 86.6079,166.719 96.5,151C 100.541,150.173 104.541,150.34 108.5,151.5C 98.8901,167.725 89.5567,184.059 80.5,200.5 Z"/></g>
<g><path style="opacity:0.49" fill="#878887" d="M 188.5,153.5 C 186.881,156.548 185.881,159.881 185.5,163.5C 185.334,159.486 185.501,155.486 186,151.5C 186.995,152.066 187.828,152.733 188.5,153.5 Z"/></g>
<g><path style="opacity:1" fill="#18c3da" d="M 46.5,134.5 C 46.3337,137.168 45.3337,139.502 43.5,141.5C 44.5,143.167 45.8333,144.5 47.5,145.5C 47.4299,147.644 46.9299,149.644 46,151.5C 45.6065,163.079 45.4399,174.579 45.5,186C 47.3547,189.445 48.0214,192.945 47.5,196.5C 40.4809,187.12 37.1476,176.453 37.5,164.5C 37.1173,153.338 40.1173,143.338 46.5,134.5 Z"/></g>
<g><path style="opacity:1" fill="#455753" d="M 61.5,149.5 C 61.1731,159.015 61.5064,168.348 62.5,177.5C 62.1667,178.5 61.5,179.167 60.5,179.5C 60.1726,169.319 60.506,159.319 61.5,149.5 Z"/></g>
<g><path style="opacity:1" fill="#55ed79" d="M 189.5,158.5 C 194.305,161.071 198.972,163.904 203.5,167C 199.037,169.3 194.704,171.8 190.5,174.5C 189.505,169.208 189.172,163.875 189.5,158.5 Z"/></g>
<g><path style="opacity:0.922" fill="#486e76" d="M 59.5,117.5 C 59.8333,117.5 60.1667,117.5 60.5,117.5C 60.1667,118.167 59.8333,118.833 59.5,119.5C 53.5435,123.071 49.2102,128.071 46.5,134.5C 40.1173,143.338 37.1173,153.338 37.5,164.5C 37.1476,176.453 40.4809,187.12 47.5,196.5C 48.5,198.5 49.5,200.5 50.5,202.5C 43.6689,195.175 39.1689,186.508 37,176.5C 33.0263,152.229 40.5263,132.562 59.5,117.5 Z"/></g>
<g><path style="opacity:1" fill="#2e3748" d="M 121.5,145.5 C 123.89,146.446 126.056,147.779 128,149.5C 128.5,159.828 128.666,170.161 128.5,180.5C 122.442,172.072 116.609,163.405 111,154.5C 108.634,158.036 106.467,161.703 104.5,165.5C 109.927,174.697 115.594,183.697 121.5,192.5C 120.5,193.167 119.5,193.833 118.5,194.5C 113.193,186.184 107.86,177.851 102.5,169.5C 99.8333,173.5 97.1667,177.5 94.5,181.5C 98.7607,187.693 102.761,194.026 106.5,200.5C 102.854,203.327 98.8537,205.661 94.5,207.5C 89.8165,205.158 85.1498,202.825 80.5,200.5C 89.5567,184.059 98.8901,167.725 108.5,151.5C 104.541,150.34 100.541,150.173 96.5,151C 86.6079,166.719 76.9413,182.552 67.5,198.5C 66.2905,198.068 65.2905,197.401 64.5,196.5C 73.6969,181.278 83.0302,166.111 92.5,151C 90.1902,150.503 87.8568,150.337 85.5,150.5C 85.5,150.167 85.5,149.833 85.5,149.5C 93.5,149.5 101.5,149.5 109.5,149.5C 110.167,150.5 110.833,151.5 111.5,152.5C 111.897,153.525 112.563,153.692 113.5,153C 116.288,150.584 118.955,148.084 121.5,145.5 Z"/></g>
<g><path style="opacity:1" fill="#699154" d="M 109.5,149.5 C 111.167,149.5 112.833,149.5 114.5,149.5C 113.833,150.833 112.833,151.833 111.5,152.5C 110.833,151.5 110.167,150.5 109.5,149.5 Z"/></g>
<g><path style="opacity:0.509" fill="#82807c" d="M 153.5,168.5 C 156.5,168.5 159.5,168.5 162.5,168.5C 162.5,197.833 162.5,227.167 162.5,256.5C 161.502,227.671 161.169,198.671 161.5,169.5C 159.167,169.5 156.833,169.5 154.5,169.5C 153.65,178.724 150.65,187.058 145.5,194.5C 149.401,186.233 152.068,177.566 153.5,168.5 Z"/></g>
<g><path style="opacity:0.504" fill="#888888" d="M 187.5,180.5 C 187.44,181.043 187.107,181.376 186.5,181.5C 185.509,177.555 185.176,173.555 185.5,169.5C 179.5,169.5 173.5,169.5 167.5,169.5C 167.5,197.167 167.5,224.833 167.5,252.5C 166.502,224.672 166.169,196.672 166.5,168.5C 173.167,168.5 179.833,168.5 186.5,168.5C 186.183,172.702 186.517,176.702 187.5,180.5 Z"/></g>
<g><path style="opacity:1" fill="#449fb9" d="M 128.5,180.5 C 128.664,183.187 128.497,185.854 128,188.5C 125.722,189.719 123.555,191.052 121.5,192.5C 115.594,183.697 109.927,174.697 104.5,165.5C 106.467,161.703 108.634,158.036 111,154.5C 116.609,163.405 122.442,172.072 128.5,180.5 Z"/></g>
<g><path style="opacity:1" fill="#9ef8b3" d="M 265.5,174.5 C 263.862,173.841 262.195,173.174 260.5,172.5C 252.353,173.05 244.02,173.717 235.5,174.5C 241.067,163.258 249.4,160.758 260.5,167C 262.808,169.128 264.474,171.628 265.5,174.5 Z"/></g>
<g><path style="opacity:1" fill="#449eb9" d="M 118.5,194.5 C 114.728,196.934 110.728,198.934 106.5,200.5C 102.761,194.026 98.7607,187.693 94.5,181.5C 97.1667,177.5 99.8333,173.5 102.5,169.5C 107.86,177.851 113.193,186.184 118.5,194.5 Z"/></g>
<g><path style="opacity:1" fill="#7cfe9a" d="M 265.5,174.5 C 265.5,174.833 265.5,175.167 265.5,175.5C 265.5,178.5 265.5,181.5 265.5,184.5C 255.67,184.185 245.67,184.519 235.5,185.5C 235.5,182.167 235.5,178.833 235.5,175.5C 235.5,175.167 235.5,174.833 235.5,174.5C 244.02,173.717 252.353,173.05 260.5,172.5C 262.195,173.174 263.862,173.841 265.5,174.5 Z"/></g>
<g><path style="opacity:1" fill="#329749" d="M 235.5,175.5 C 235.5,178.833 235.5,182.167 235.5,185.5C 235.5,188.5 235.5,191.5 235.5,194.5C 245.5,194.5 255.5,194.5 265.5,194.5C 265.5,191.167 265.5,187.833 265.5,184.5C 265.5,181.5 265.5,178.5 265.5,175.5C 266.491,181.979 266.824,188.646 266.5,195.5C 255.833,195.5 245.167,195.5 234.5,195.5C 234.176,188.646 234.509,181.979 235.5,175.5 Z"/></g>
<g><path style="opacity:1" fill="#55fe7c" d="M 265.5,184.5 C 265.5,187.833 265.5,191.167 265.5,194.5C 255.5,194.5 245.5,194.5 235.5,194.5C 235.5,191.5 235.5,188.5 235.5,185.5C 245.67,184.519 255.67,184.185 265.5,184.5 Z"/></g>
<g><path style="opacity:1" fill="#7b9e5b" d="M 122.5,139.5 C 122.833,139.5 123.167,139.5 123.5,139.5C 127.56,141.297 131.06,143.963 134,147.5C 134.667,161.5 134.667,175.5 134,189.5C 133.003,191.323 131.836,192.99 130.5,194.5C 122.032,198.901 113.699,203.568 105.5,208.5C 102.027,210.652 98.3599,212.319 94.5,213.5C 89.3905,211.446 84.3905,209.113 79.5,206.5C 78.8333,205.833 78.1667,205.167 77.5,204.5C 78.0256,202.77 79.0256,201.436 80.5,200.5C 85.1498,202.825 89.8165,205.158 94.5,207.5C 98.8537,205.661 102.854,203.327 106.5,200.5C 110.728,198.934 114.728,196.934 118.5,194.5C 119.5,193.833 120.5,193.167 121.5,192.5C 123.555,191.052 125.722,189.719 128,188.5C 128.497,185.854 128.664,183.187 128.5,180.5C 128.666,170.161 128.5,159.828 128,149.5C 126.056,147.779 123.89,146.446 121.5,145.5C 121.158,144.662 120.492,144.328 119.5,144.5C 120.167,143.167 120.833,141.833 121.5,140.5C 122.167,140.5 122.5,140.167 122.5,139.5 Z"/></g>
<g><path style="opacity:0.455" fill="#8d8c7c" d="M 141.5,200.5 C 139.167,204.833 135.833,208.167 131.5,210.5C 131.5,210.167 131.5,209.833 131.5,209.5C 134.833,206.5 138.167,203.5 141.5,200.5 Z"/></g>
<g><path style="opacity:1" fill="#b4d583" d="M 130.5,194.5 C 130.156,199.82 130.489,204.82 131.5,209.5C 131.5,209.833 131.5,210.167 131.5,210.5C 130.738,212.262 129.404,213.262 127.5,213.5C 123.402,215.048 119.402,216.881 115.5,219C 110.937,220.475 106.27,221.308 101.5,221.5C 100.448,221.649 99.448,221.483 98.5,221C 100.833,220.667 103.167,220.333 105.5,220C 105.865,215.905 105.865,212.072 105.5,208.5C 113.699,203.568 122.032,198.901 130.5,194.5 Z"/></g>
<g><path style="opacity:1" fill="#4fc9bb" d="M 62.5,196.5 C 63.1667,196.5 63.8333,196.5 64.5,196.5C 65.2905,197.401 66.2905,198.068 67.5,198.5C 70.242,201.421 73.5753,203.421 77.5,204.5C 78.1667,205.167 78.8333,205.833 79.5,206.5C 78.8943,211.266 78.561,215.599 78.5,219.5C 72.301,218.401 66.9676,215.734 62.5,211.5C 62.2172,210.711 61.7172,210.044 61,209.5C 60.6496,205.467 60.4829,201.633 60.5,198C 61.4158,197.722 62.0825,197.222 62.5,196.5 Z"/></g>
<g><path style="opacity:1" fill="#75cda5" d="M 79.5,206.5 C 84.3905,209.113 89.3905,211.446 94.5,213.5C 94.1049,216.574 94.1049,219.574 94.5,222.5C 88.8397,222.559 83.5064,221.559 78.5,219.5C 78.561,215.599 78.8943,211.266 79.5,206.5 Z"/></g>
<g><path style="opacity:1" fill="#8ed097" d="M 105.5,208.5 C 105.865,212.072 105.865,215.905 105.5,220C 103.167,220.333 100.833,220.667 98.5,221C 99.448,221.483 100.448,221.649 101.5,221.5C 99.3926,222.468 97.0593,222.802 94.5,222.5C 94.1049,219.574 94.1049,216.574 94.5,213.5C 98.3599,212.319 102.027,210.652 105.5,208.5 Z"/></g>
<g><path style="opacity:1" fill="#131314" d="M 244.5,214.5 C 248.514,214.334 252.514,214.501 256.5,215C 267.159,221.638 269.159,230.305 262.5,241C 268.921,244.67 272.755,250.17 274,257.5C 274.667,265.833 274.667,274.167 274,282.5C 273.167,283.333 272.333,284.167 271.5,285C 257.5,285.667 243.5,285.667 229.5,285C 228.333,284.5 227.5,283.667 227,282.5C 226.109,272.772 226.443,263.106 228,253.5C 230.055,248.112 233.555,243.946 238.5,241C 231.918,230.166 233.918,221.333 244.5,214.5 Z"/></g>
<g><path style="opacity:0.655" fill="#748176" d="M 56.5,208.5 C 58.5,209.5 60.5,210.5 62.5,211.5C 66.9676,215.734 72.301,218.401 78.5,219.5C 83.5064,221.559 88.8397,222.559 94.5,222.5C 97.0593,222.802 99.3926,222.468 101.5,221.5C 106.27,221.308 110.937,220.475 115.5,219C 119.402,216.881 123.402,215.048 127.5,213.5C 122.217,217.639 116.217,220.473 109.5,222C 91.2932,226.092 74.6265,222.759 59.5,212C 58.2899,210.961 57.2899,209.794 56.5,208.5 Z"/></g>
<g><path style="opacity:1" fill="#7dd4f3" d="M 247.5,222.5 C 255.709,221.872 259.209,225.539 258,233.5C 253,238.833 248,238.833 243,233.5C 241.393,228.438 242.893,224.772 247.5,222.5 Z"/></g>
<g><path style="opacity:0.478" fill="#848484" d="M 188.5,242.5 C 186.586,245.684 185.92,249.351 186.5,253.5C 182.629,253.815 178.962,253.482 175.5,252.5C 178.833,252.5 182.167,252.5 185.5,252.5C 185.334,248.486 185.501,244.486 186,240.5C 186.995,241.066 187.828,241.733 188.5,242.5 Z"/></g>
<g><path style="opacity:1" fill="#78cdea" d="M 189.5,247.5 C 194.305,250.071 198.972,252.904 203.5,256C 199.037,258.3 194.704,260.8 190.5,263.5C 189.505,258.208 189.172,252.875 189.5,247.5 Z"/></g>
<g><path style="opacity:1" fill="#8ee0f7" d="M 265.5,258.5 C 265.5,259.5 265.5,260.5 265.5,261.5C 255.5,261.5 245.5,261.5 235.5,261.5C 235.5,260.5 235.5,259.5 235.5,258.5C 239.517,246.823 247.184,243.323 258.5,248C 262.301,250.614 264.634,254.114 265.5,258.5 Z"/></g>
<g><path style="opacity:0.481" fill="#8a8a8a" d="M 185.5,258.5 C 186.167,262.167 186.833,265.833 187.5,269.5C 187.44,270.043 187.107,270.376 186.5,270.5C 185.509,266.555 185.176,262.555 185.5,258.5 Z"/></g>
<g><path style="opacity:1" fill="#52b6e6" d="M 235.5,258.5 C 235.5,259.5 235.5,260.5 235.5,261.5C 235.5,264.167 235.5,266.833 235.5,269.5C 245.5,269.5 255.5,269.5 265.5,269.5C 265.5,266.833 265.5,264.167 265.5,261.5C 265.5,260.5 265.5,259.5 265.5,258.5C 266.49,264.645 266.823,270.978 266.5,277.5C 255.833,277.5 245.167,277.5 234.5,277.5C 234.177,270.978 234.51,264.645 235.5,258.5 Z"/></g>
<g><path style="opacity:1" fill="#6ed0fa" d="M 235.5,261.5 C 245.5,261.5 255.5,261.5 265.5,261.5C 265.5,264.167 265.5,266.833 265.5,269.5C 255.5,269.5 245.5,269.5 235.5,269.5C 235.5,266.833 235.5,264.167 235.5,261.5 Z"/></g>
</svg>
