<svg id="eUWs8KkEBJt1" xmlns="http://www.w3.org/2000/svg" xmlns:xlink="http://www.w3.org/1999/xlink" viewBox="0 0 1000 1000" shape-rendering="geometricPrecision" text-rendering="geometricPrecision"><style><![CDATA[#eUWs8KkEBJt3_to {animation: eUWs8KkEBJt3_to__to 3000ms linear infinite normal forwards}@keyframes eUWs8KkEBJt3_to__to { 0% {transform: translate(528.249373px,101.786333px)} 66.666667% {transform: translate(179.881042px,101.783076px)} 100% {transform: translate(179.881042px,101.783076px)}} #eUWs8KkEBJt13_tr {animation: eUWs8KkEBJt13_tr__tr 3000ms linear infinite normal forwards}@keyframes eUWs8KkEBJt13_tr__tr { 0% {transform: translate(423.593000px,714.200000px) rotate(0deg)} 23.333333% {transform: translate(423.593000px,714.200000px) rotate(-21.592122deg)} 46.666667% {transform: translate(423.593000px,714.200000px) rotate(6.833154deg)} 73.333333% {transform: translate(423.593000px,714.200000px) rotate(14.216375deg)} 100% {transform: translate(423.593000px,714.200000px) rotate(3.208924deg)}} #eUWs8KkEBJt17_to {animation: eUWs8KkEBJt17_to__to 3000ms linear infinite normal forwards}@keyframes eUWs8KkEBJt17_to__to { 0% {transform: translate(-140.846131px,-0px)} 66.666667% {transform: translate(500.011833px,500px)} 100% {transform: translate(500.011833px,500px)}} #eUWs8KkEBJt17_ts {animation: eUWs8KkEBJt17_ts__ts 3000ms linear infinite normal forwards}@keyframes eUWs8KkEBJt17_ts__ts { 0% {transform: scale(0.500000,0.500000)} 66.666667% {transform: scale(1.754885,1.754885)} 100% {transform: scale(1.754885,1.754885)}}]]></style><defs><linearGradient id="eUWs8KkEBJt5-fill" x1="0.464000" y1="0.230000" x2="0.500000" y2="1" spreadMethod="pad" gradientUnits="objectBoundingBox"><stop id="eUWs8KkEBJt5-fill-0" offset="0%" stop-color="rgb(25,222,243)"/><stop id="eUWs8KkEBJt5-fill-1" offset="44.500000%" stop-color="rgb(23,181,232)"/><stop id="eUWs8KkEBJt5-fill-2" offset="100%" stop-color="rgb(4,205,51)"/></linearGradient><linearGradient id="eUWs8KkEBJt14-fill" x1="0.500000" y1="0" x2="0.500000" y2="1" spreadMethod="pad" gradientUnits="objectBoundingBox"><stop id="eUWs8KkEBJt14-fill-0" offset="0%" stop-color="rgb(19,123,216)"/><stop id="eUWs8KkEBJt14-fill-1" offset="31.100000%" stop-color="rgb(43,145,231)"/><stop id="eUWs8KkEBJt14-fill-2" offset="100%" stop-color="rgb(25,222,243)"/></linearGradient></defs><g id="eUWs8KkEBJt2"><g id="eUWs8KkEBJt3_to" transform="translate(528.249373,101.786333)"><g id="eUWs8KkEBJt3" transform="scale(0.686879,0.686879) translate(0,0)"><g id="eUWs8KkEBJt4" transform="matrix(1 0 0 1 46.32000000000000 227.32300000000001)"><path id="eUWs8KkEBJt5" d="M803.251000,59.389000C801.698705,53.381321,795.584944,49.756051,789.569000,51.276000C773.100000,55.425000,740.914000,67.288000,721.100000,99.132000C719.740000,101.559000,718.533000,103.992000,717.421000,106.424000C716.309000,103.992000,715.102000,101.559000,713.742000,99.132000C693.929000,67.290000,661.742000,55.425000,645.273000,51.276000C639.257141,49.756637,633.143768,53.381677,631.591000,59.389000C627.283000,75.834000,622.178000,109.725000,640.507000,142.417000C649.244162,156.318286,661.172090,167.934242,675.300000,176.300000C679.252324,178.699063,681.302423,183.297742,680.445000,187.841000C656.066000,316.120000,491.345000,320.284000,491.345000,320.284000L104.117000,320.284000C37.285000,320.284000,-9.467000,386.691000,13.417000,449.484000C66.193000,594.314000,205.157000,697.714000,368.262000,697.632000C575.707000,697.532000,745.415000,524.117000,745.415000,316.673000L745.415000,190.723000C745.401062,186.496144,747.772769,182.623012,751.544000,180.714000C766.230000,173.341000,782.491000,161.454000,794.338000,142.414000C812.665000,109.725000,807.560000,75.834000,803.251000,59.389000Z" transform="matrix(1 0 0 1 4.59000000000000 -38.87300000000000)" fill="url(#eUWs8KkEBJt5-fill)" stroke="none" stroke-width="1"/><path id="eUWs8KkEBJt6" d="M772.993000,142.415000C761.138000,161.459000,744.877000,173.346000,730.193000,180.715000C726.430394,182.628757,724.061591,186.493665,724.064000,190.715000L724.064000,316.675000C724.064000,524.118000,554.355000,697.524000,346.912000,697.637000C222.032000,697.701000,111.288000,637.078000,42.559000,543.659000C113.879490,620.061939,213.763108,663.360948,318.281000,663.183000C504.581000,663.096000,660.435000,523.251000,690.281000,344.556000C693.722789,323.956120,695.451372,303.106425,695.449000,282.221000C695.449000,261.088000,696.025000,239.857000,695.670000,218.748000C695.340000,199.202000,689.662000,177.216000,698.470000,158.720000C708.258000,138.170000,732.205000,127.520000,744.362000,107.977000C753.371891,91.646674,757.853203,73.204936,757.342000,54.561000C761.412000,53.130000,765.111000,52.068000,768.231000,51.279000C774.242114,49.758093,780.351973,53.381813,781.900000,59.386000C786.215000,75.826000,791.313000,109.731000,772.993000,142.415000Z" transform="matrix(1 0 0 1 25.93600000000000 -38.87300000000000)" fill="rgb(8,108,183)" stroke="none" stroke-width="1"/><path id="eUWs8KkEBJt7" d="M-18223.936000,-15584.973000L-18225.136000,-15584.973000C-18246.390000,-15585.273000,-18263.357000,-15586.617000,-18280.150000,-15589.344000C-18296,-15591.918000,-18310.599000,-15595.504000,-18329.492000,-15600.290000C-18336.792000,-15602.140000,-18344.679000,-15605.432000,-18352.308000,-15608.615000C-18356.261000,-15610.265000,-18360.349000,-15611.971000,-18364.232000,-15613.415000C-18373.716000,-15616.940000,-18381.490000,-15620.003000,-18389.437000,-15623.345000L-18391.220000,-15624.093000C-18396.457463,-15626.158895,-18401.557817,-15628.556763,-18406.490000,-15631.272000C-18424.459000,-15641.736000,-18447.668000,-15655.819000,-18467.826000,-15671.979000C-18482.000829,-15683.343788,-18495.338671,-15695.714795,-18507.736000,-15708.996000C-18519.172461,-15721.149190,-18529.630679,-15734.187104,-18539.013000,-15747.988000C-18549.932537,-15763.001724,-18559.784109,-15778.763838,-18568.495000,-15795.158000C-18575.283651,-15807.868994,-18581.186360,-15821.033647,-18586.161000,-15834.558000C-18587.837000,-15839.210000,-18589.567000,-15844.022000,-18590.919000,-15848.441000C-18592.360078,-15853.094043,-18593.453092,-15857.847821,-18594.189000,-15862.663000C-18594.470802,-15864.460163,-18594.647436,-15866.272246,-18594.718000,-15868.090000L-18594.718000,-15868.096000C-18595.029380,-15870.322015,-18595.213346,-15872.564001,-18595.269000,-15874.811000C-18595.444917,-15880.709504,-18595.117060,-15886.612260,-18594.289000,-15892.455000C-18593.096999,-15900.948551,-18590.932454,-15909.276899,-18587.838000,-15917.276000C-18583.910640,-15927.392546,-18578.572097,-15936.902741,-18571.981000,-15945.524000C-18565.202666,-15954.372194,-18556.969360,-15962.003590,-18547.633000,-15968.092000C-18539.788991,-15973.206646,-18531.351189,-15977.346800,-18522.506000,-15980.421000C-18516.102633,-15982.668692,-18509.526916,-15984.391381,-18502.844000,-15985.572000C-18498.061000,-15986.404000,-18495.031000,-15986.600000,-18494.905000,-15986.608000L-18193.105000,-15986.529000L-18102.863000,-15987.617000L-18087.050000,-15987.617000C-18086.911000,-15987.625000,-18083.589000,-15987.825000,-18077.833000,-15988.601000C-18072.567000,-15989.311000,-18064.171000,-15990.662000,-18054.079000,-15993.064000C-18042.641655,-15995.786240,-18031.398146,-15999.266596,-18020.423000,-16003.482000C-18007.095419,-16008.583450,-17994.247832,-16014.859830,-17982.032000,-16022.237000C-17970.196996,-16029.409248,-17959.612424,-16038.465718,-17950.696000,-16049.049000C-17943.494183,-16057.632257,-17937.402541,-16067.088732,-17932.565000,-16077.195000C-17929.127259,-16084.338830,-17926.329317,-16091.773238,-17924.204000,-16099.411000C-17923.362717,-16102.372913,-17922.687993,-16105.379622,-17922.183000,-16108.417000L-17922.183000,-16108.431000C-17924.072764,-16109.464603,-17925.908490,-16110.594075,-17927.683000,-16111.815000C-17932.320643,-16114.968179,-17936.708005,-16118.474592,-17940.806000,-16122.303000C-17946.671280,-16127.757785,-17951.934704,-16133.825809,-17956.506000,-16140.403000C-17962.119758,-16148.478787,-17966.573761,-16157.301631,-17969.738000,-16166.614000C-17972.918002,-16176.096713,-17974.796474,-16185.967103,-17975.322000,-16195.955000C-17975.766961,-16204.301199,-17975.388802,-16212.670933,-17974.193000,-16220.943000C-17973.098171,-16229.093712,-17971.134669,-16237.103941,-17968.336000,-16244.837000L-17968.336000,-16244.837000C-17967.381637,-16246.292786,-17966.304727,-16247.664433,-17965.117000,-16248.937000C-17962.804672,-16251.556532,-17959.921073,-16253.609403,-17956.689000,-16254.937000C-17954.349444,-16255.728476,-17951.890321,-16256.108104,-17949.421000,-16256.059000C-17946.432334,-16256.033228,-17943.457006,-16255.656991,-17940.556000,-16254.938000L-17940.550000,-16254.938000L-17940.550000,-16254.938000C-17940.007000,-16254.803000,-17935.032000,-16253.552000,-17928.150000,-16251.078000C-17919.385274,-16247.997997,-17910.983664,-16243.968711,-17903.095000,-16239.062000C-17898.960307,-16236.367207,-17895.014157,-16233.393645,-17891.284000,-16230.162000C-17888.084000,-16227.414000,-17884.884000,-16224.392000,-17881.751000,-16221.180000C-17876.493000,-16215.780000,-17873.196000,-16211.625000,-17873.060000,-16211.451000C-17873.031000,-16211.490000,-17869.902000,-16215.563000,-17864.734000,-16220.951000C-17858.466757,-16227.580786,-17851.484910,-16233.496474,-17843.916000,-16238.590000C-17839.785368,-16241.249331,-17835.480667,-16243.628025,-17831.031000,-16245.710000C-17827.236000,-16247.510000,-17823.164000,-16249.217000,-17818.926000,-16250.792000C-17811.726000,-16253.467000,-17806.483000,-16254.840000,-17806.426000,-16254.854000C-17803.354282,-16255.784645,-17800.166380,-16256.276179,-17796.957000,-16256.314000C-17794.749586,-16256.347531,-17792.552258,-16256.009480,-17790.457000,-16255.314000C-17787.141675,-16254.026942,-17784.183790,-16251.962767,-17781.832000,-16249.295000C-17780.617929,-16248.010271,-17779.514039,-16246.625727,-17778.532000,-16245.156000L-17778.526000,-16245.145000C-17777.890742,-16244.127948,-17777.386739,-16243.034597,-17777.026000,-16241.891000C-17775.858086,-16238.256652,-17774.873182,-16234.566017,-17774.075000,-16230.833000C-17772.799494,-16224.928073,-17771.923838,-16218.943817,-17771.454000,-16212.921000C-17770.854645,-16205.380218,-17770.944350,-16197.800485,-17771.722000,-16190.276000C-17772.612896,-16181.659090,-17774.536704,-16173.180566,-17777.452000,-16165.023000C-17780.999615,-16155.365557,-17786.026239,-16146.317971,-17792.352000,-16138.204000C-17797.802752,-16131.180285,-17803.976670,-16124.748953,-17810.772000,-16119.016000C-17815.719648,-16114.814670,-17820.952885,-16110.961748,-17826.434000,-16107.485000C-17830.459000,-16104.941000,-17833.024000,-16103.648000,-17833.049000,-16103.635000C-17833.049000,-16103.208000,-17833.211000,-16056.175000,-17833.049000,-16016.627000C-17833.020000,-16009.006000,-17833.035000,-16003.115000,-17833.049000,-15997.919000L-17833.049000,-15997.709000C-17833.059000,-15993.127000,-17833.067000,-15988.800000,-17833.049000,-15983.753000C-17833.049000,-15982.130000,-17832.985000,-15980.396000,-17832.918000,-15978.560000L-17832.910000,-15978.380000C-17832.601794,-15972.569262,-17832.679298,-15966.744480,-17833.142000,-15960.944000C-17836.929000,-15917.901000,-17844.214000,-15880.187000,-17854.796000,-15848.849000C-17859.258560,-15835.697726,-17864.525154,-15822.833144,-17870.566000,-15810.328000C-17876.277987,-15798.509090,-17882.597771,-15786.993691,-17889.500000,-15775.828000C-17901.629208,-15756.254909,-17915.291713,-15737.674652,-17930.359000,-15720.262000C-17941.043398,-15707.857156,-17952.406456,-15696.053423,-17964.396000,-15684.905000C-17972.990000,-15676.953000,-17978.396000,-15672.686000,-17978.626000,-15672.505000L-17978.632000,-15672.499000C-17979.456000,-15671.870000,-17987.019000,-15666.128000,-17998.812000,-15658.255000C-18006.035000,-15653.434000,-18013.373000,-15648.797000,-18020.621000,-15644.474000C-18029.674000,-15639.074000,-18038.613000,-15634.148000,-18047.193000,-15629.837000C-18055.773000,-15625.526000,-18065.404000,-15621.115000,-18075.836000,-15616.723000C-18084.182000,-15613.209000,-18093.051000,-15609.702000,-18102.197000,-15606.297000C-18117.043000,-15600.771000,-18127.808000,-15597.312000,-18128.986000,-15596.936000L-18129.006000,-15596.930000C-18137.895506,-15594.479214,-18146.903783,-15592.481640,-18155.996000,-15590.945000C-18165.818000,-15589.207000,-18175.937000,-15587.823000,-18186.074000,-15586.830000C-18198.736000,-15585.600000,-18211.480000,-15584.973000,-18223.936000,-15584.973000ZM-17947.280000,-16231.527000C-17948.861020,-16225.113159,-17949.883178,-16218.574359,-17950.335000,-16211.984000C-17950.839521,-16205.503854,-17950.795029,-16198.992646,-17950.202000,-16192.520000C-17949.555500,-16185.173596,-17947.958155,-16177.942183,-17945.450000,-16171.007000C-17941.997982,-16162.031586,-17936.865980,-16153.796828,-17930.329000,-16146.744000C-17925.160495,-16141.101199,-17919.430957,-16135.999230,-17913.229000,-16131.517000C-17912.360331,-16130.902856,-17911.451272,-16130.347932,-17910.508000,-16129.856000L-17910.502000,-16129.856000L-17910.469000,-16129.838000C-17909.651000,-16129.388000,-17908.803000,-16128.922000,-17907.819000,-16128.266000C-17906.359837,-16127.244791,-17905.004947,-16126.082165,-17903.774000,-16124.795000C-17901.946224,-16122.539224,-17900.410114,-16120.062028,-17899.202000,-16117.422000C-17898.192918,-16114.776174,-17897.644652,-16111.977006,-17897.581000,-16109.146000L-17897.581000,-16109.131000L-17897.581000,-16109.131000C-17898.323567,-16103.825638,-17899.389214,-16098.570537,-17900.772000,-16093.395000C-17902.197040,-16087.911015,-17903.902956,-16082.503885,-17905.883000,-16077.195000C-17908.262868,-16070.790011,-17911.085345,-16064.558307,-17914.330000,-16058.545000C-17919.548258,-16049.247171,-17925.896445,-16040.630432,-17933.230000,-16032.891000C-17941.093280,-16024.495796,-17949.454731,-16016.581486,-17958.269000,-16009.191000C-17968.261000,-16000.666000,-17981.703000,-15992.905000,-17998.222000,-15986.124000C-18012.907340,-15980.229929,-18028.014039,-15975.445512,-18043.415000,-15971.811000C-18051.649000,-15969.811000,-18064.749000,-15966.921000,-18080.395000,-15964.504000C-18089.680000,-15963.069000,-18095.653000,-15962.463000,-18095.711000,-15962.457000L-18495.996000,-15962.178000L-18502.943000,-15961.114000C-18505.042507,-15960.714763,-18507.118608,-15960.200996,-18509.162000,-15959.575000C-18514.373673,-15958.015186,-18519.439771,-15956.004941,-18524.303000,-15953.567000C-18531.073132,-15950.196246,-18537.384060,-15945.972942,-18543.082000,-15941C-18549.973766,-15934.967259,-18555.772552,-15927.790242,-18560.223000,-15919.785000C-18564.544175,-15912.086869,-18567.704613,-15903.792699,-18569.602000,-15895.171000C-18571.027382,-15888.588071,-18571.598751,-15881.848938,-18571.302000,-15875.120000C-18571.107574,-15870.569875,-18570.459700,-15866.050496,-18569.368000,-15861.629000C-18568.966023,-15859.950104,-18568.451869,-15858.300066,-18567.829000,-15856.690000C-18567.821000,-15856.657000,-18566.968000,-15852.843000,-18564.706000,-15846.172000C-18561.317447,-15836.370814,-18557.326852,-15826.788243,-18552.757000,-15817.479000C-18545.535289,-15802.735906,-18537.301953,-15788.510256,-18528.116000,-15774.904000C-18515.696228,-15756.515763,-18501.924843,-15739.077580,-18486.916000,-15722.734000C-18479.972661,-15714.702248,-18472.340621,-15707.292721,-18464.107000,-15700.590000C-18455.584000,-15693.457000,-18446.359000,-15686.501000,-18436.593000,-15679.136000L-18436.583000,-15679.129000L-18435.493000,-15678.307000C-18433.511000,-15676.807000,-18431.460000,-15675.266000,-18429.430000,-15673.726000C-18420.204297,-15666.805032,-18410.439833,-15660.633021,-18400.230000,-15655.269000C-18391.345000,-15650.531000,-18381.615000,-15645.945000,-18369.605000,-15640.838000C-18342.457000,-15629.291000,-18315.125000,-15620.762000,-18290.562000,-15616.171000C-18267.165561,-15611.801567,-18243.415951,-15609.599572,-18219.615000,-15609.593000L-18219.605000,-15609.593000C-18210.490000,-15609.593000,-18201.373000,-15609.924000,-18192.505000,-15610.576000C-18185.417000,-15611.098000,-18178.470000,-15611.826000,-18171.859000,-15612.741000C-18160.820000,-15614.268000,-18154.369000,-15615.824000,-18154.099000,-15615.889000C-18153.984000,-15615.915000,-18142.499000,-15618.461000,-18126.029000,-15623.405000C-18116.406000,-15626.295000,-18107.023000,-15629.418000,-18098.144000,-15632.689000C-18087.044000,-15636.780000,-18076.705000,-15641.111000,-18067.421000,-15645.562000C-18058.137000,-15650.013000,-18048.349000,-15655.332000,-18038.337000,-15661.362000C-18030.337000,-15666.182000,-18022.165000,-15671.474000,-18014.052000,-15677.091000C-18000.169000,-15686.700000,-17991.304000,-15693.911000,-17991.220000,-15693.980000C-17990.745000,-15694.368000,-17979.468000,-15703.624000,-17964.638000,-15718.680000C-17955.788000,-15727.666000,-17947.431000,-15736.923000,-17939.800000,-15746.191000C-17930.695943,-15757.172427,-17922.318783,-15768.736703,-17914.722000,-15780.810000C-17900.706000,-15803.295000,-17889.908000,-15824.388000,-17881.708000,-15845.293000C-17878.408000,-15853.709000,-17875.508000,-15862.131000,-17872.849000,-15871.041000C-17870.320000,-15879.508000,-17868.361000,-15887.197000,-17866.777000,-15893.602000C-17864.068000,-15904.555000,-17861.816000,-15919.164000,-17860.086000,-15937.021000C-17858.604000,-15952.288000,-17857.486000,-15970.128000,-17856.752000,-15990.048000C-17856.164000,-16006.026000,-17856.352000,-16017.276000,-17856.552000,-16029.185000L-17856.560000,-16029.685000C-17856.646000,-16035.018000,-17856.738000,-16040.532000,-17856.751000,-16046.563000C-17856.821000,-16077.182000,-17856.501000,-16108.863000,-17856.499000,-16109.132000C-17856.188800,-16112.218380,-17855.124193,-16115.181079,-17853.399000,-16117.759000C-17850.737000,-16121.443000,-17845.690000,-16124.253000,-17845.477000,-16124.371000C-17839.689806,-16127.284971,-17834.207673,-16130.768881,-17829.112000,-16134.771000C-17824.018126,-16138.696357,-17819.316500,-16143.105952,-17815.073000,-16147.938000C-17810.131260,-16153.537419,-17806.008856,-16159.809574,-17802.829000,-16166.567000C-17799.658691,-16173.614237,-17797.564997,-16181.097736,-17796.618000,-16188.767000C-17795.719330,-16195.734070,-17795.462918,-16202.768993,-17795.852000,-16209.783000C-17796.193392,-16217.121530,-17797.176815,-16224.416064,-17798.791000,-16231.583000L-17798.791000,-16231.596000C-17803.664378,-16230.302204,-17808.452336,-16228.705773,-17813.127000,-16226.816000C-17817.740822,-16224.987850,-17822.240601,-16222.884057,-17826.602000,-16220.516000C-17831.461628,-16217.900580,-17836.059036,-16214.824813,-17840.331000,-16211.331000C-17847.219317,-16205.564157,-17853.271388,-16198.866559,-17858.313000,-16191.431000C-17859.494077,-16189.612262,-17860.453232,-16187.658703,-17861.170000,-16185.612000C-17861.445539,-16184.834016,-17861.769849,-16184.074176,-17862.141000,-16183.337000C-17862.814675,-16181.990120,-17863.787479,-16180.815162,-17864.985000,-16179.902000L-17864.991000,-16179.902000L-17864.991000,-16179.902000C-17865.198000,-16179.761000,-17870.118000,-16176.463000,-17873.966000,-16176.463000C-17874.093000,-16176.463000,-17874.212000,-16176.463000,-17874.321000,-16176.473000C-17878.221000,-16176.690000,-17881.606000,-16179.773000,-17881.749000,-16179.903000C-17883.815129,-16183.895132,-17886.129675,-16187.753710,-17888.679000,-16191.456000C-17891.203201,-16195.171963,-17893.947786,-16198.733345,-17896.898000,-16202.121000C-17900.231660,-16205.972572,-17903.911759,-16209.510073,-17907.892000,-16212.689000C-17911.989451,-16215.866254,-17916.360568,-16218.673916,-17920.954000,-16221.079000C-17925.098426,-16223.268968,-17929.360200,-16225.229264,-17933.720000,-16226.951000C-17938.149934,-16228.730043,-17942.676809,-16230.257475,-17947.279000,-16231.526000Z" transform="matrix(1 0 0 1 18595.09999999999854 16256.20000000000073)" fill="rgb(0,0,0)" stroke="none" stroke-width="1"/><ellipse id="eUWs8KkEBJt8" rx="17.515000" ry="17.515000" transform="matrix(1 0 0 1 165.76100000000002 342.15600000000001)" fill="rgb(0,0,0)" stroke="none" stroke-width="1"/></g><g id="eUWs8KkEBJt9"><path id="eUWs8KkEBJt10" d="M476.865000,523.479000C434.383000,540.062000,414.079000,546.329000,365.702000,546.329000C203.065000,546.329000,64.458000,443.454000,11.423000,299.200000L182.965000,299.200000C246.678964,299.200119,307.764995,324.596159,352.700000,369.766000Z" transform="matrix(1 0 0 1 53.28100000000000 339.74700000000001)" fill="rgb(232,232,234)" stroke="none" stroke-width="1"/><path id="eUWs8KkEBJt11" d="M441.061000,456.217000C399.836000,472.092000,364.782000,476.600000,318.282000,476.617000C213.832929,476.801158,114.007770,433.557668,42.700000,357.237000L42.555000,357.092000C44.115000,359.215000,45.692000,361.321000,47.316000,363.398000C48.747000,365.263000,50.195000,367.130000,51.681000,368.971000C77.805000,401.344000,105.939000,427.289000,140.945000,450.063000C164.063850,465.144512,188.777672,477.626514,214.637000,487.282000C227.721794,492.206063,241.080836,496.368034,254.647000,499.747000C277.087800,505.364618,299.997549,508.907194,323.087000,510.330000C335.560000,511.030000,347.817000,511.214000,360.274000,510.813000C361.274000,510.781000,362.252000,510.749000,363.250000,510.700000L366.242000,510.555000C407.290000,508.400000,422.993000,501.887000,459.633000,487.282000Z" transform="matrix(1 0 0 1 72.25600000000000 375.02699999999999)" fill="rgb(214,214,216)" stroke="none" stroke-width="1"/><path id="eUWs8KkEBJt12" d="M-18200.800000,-15765.561000C-18216.685000,-15765.561000,-18228.109000,-15765.914000,-18228.210000,-15765.917000C-18228.392000,-15765.942000,-18246.999000,-15768.575000,-18272.144000,-15774.317000C-18286.944000,-15777.696000,-18301.132000,-15781.481000,-18314.296000,-15785.567000C-18329.388956,-15790.161244,-18344.173616,-15795.713174,-18358.560000,-15802.189000C-18372.036677,-15808.418915,-18385.047607,-15815.610485,-18397.492000,-15823.708000C-18408.003312,-15830.522540,-18418.157376,-15837.872906,-18427.914000,-15845.730000C-18437.345492,-15853.206647,-18446.319322,-15861.243122,-18454.787000,-15869.796000L-18454.808000,-15869.817000C-18455.808000,-15870.847000,-18464.874000,-15880.272000,-18476.417000,-15893.685000C-18483.560000,-15901.985000,-18490.235000,-15910.158000,-18496.257000,-15917.980000C-18503.790000,-15927.763000,-18510.337000,-15937.043000,-18515.714000,-15945.564000C-18521.245724,-15954.362167,-18526.298735,-15963.452378,-18530.851000,-15972.795000C-18534.591000,-15980.442000,-18538.070000,-15988.357000,-18541.189000,-15996.316000C-18546.250000,-16009.216000,-18548.730000,-16018.090000,-18548.996000,-16019.060000L-18548.996000,-16019.078000L-18538.889000,-16029.003000L-18361.451000,-16028.984000C-18349.902218,-16028.159764,-18338.417852,-16026.598922,-18327.068000,-16024.311000C-18315.658657,-16022.088861,-18304.393577,-16019.181259,-18293.334000,-16015.604000C-18280.705150,-16011.559121,-18268.471488,-16006.370970,-18256.785000,-16000.104000C-18245.234825,-15993.754573,-18234.156846,-15986.581692,-18223.637000,-15978.641000C-18214.774000,-15972.001000,-18205.937000,-15964.659000,-18197.375000,-15956.818000C-18189.114449,-15949.330100,-18181.264983,-15941.400850,-18173.861000,-15933.065000C-18173.519000,-15932.681000,-18139.381000,-15894.300000,-18113.740000,-15861.365000C-18106.340000,-15851.865000,-18094.873000,-15836.647000,-18082.240000,-15818.142000C-18074.990000,-15807.520000,-18070.656000,-15800.642000,-18070.185000,-15799.895000L-18070.185000,-15799.888000L-18070.185000,-15783.488000C-18075.432955,-15781.197762,-18080.823939,-15779.250340,-18086.324000,-15777.658000C-18092.445000,-15775.804000,-18098.982000,-15774.144000,-18105.752000,-15772.723000C-18114.219000,-15770.945000,-18123.080000,-15769.535000,-18132.090000,-15768.535000C-18154.172000,-15766.075000,-18181.645000,-15765.561000,-18200.800000,-15765.561000ZM-18530.600000,-16004.761000C-18530.555000,-16004.644000,-18527.411000,-15996.717000,-18521.900000,-15985.295000C-18518.648000,-15978.560000,-18515.224000,-15971.947000,-18511.722000,-15965.643000C-18507.337000,-15957.750000,-18502.814000,-15950.311000,-18498.277000,-15943.532000C-18495.916000,-15940.004000,-18493.861000,-15936.906000,-18491.992000,-15934.084000L-18491.984000,-15934.072000C-18478.484000,-15913.708000,-18477.384000,-15912.045000,-18451.007000,-15885.836000C-18444.167000,-15879.036000,-18436.331000,-15871.908000,-18427.722000,-15864.643000C-18420.839000,-15858.834000,-18413.437000,-15852.918000,-18405.722000,-15847.058000C-18392.622000,-15837.113000,-18383.005000,-15830.677000,-18382.915000,-15830.617000C-18382.615000,-15830.428000,-18375.532000,-15825.917000,-18363.715000,-15819.851000C-18356.678000,-15816.240000,-18349.387000,-15812.803000,-18342.041000,-15809.636000C-18332.850000,-15805.673000,-18323.547000,-15802.122000,-18314.389000,-15799.082000C-18305.231000,-15796.042000,-18294.928000,-15793.033000,-18283.789000,-15790.146000C-18274.863000,-15787.833000,-18265.389000,-15785.593000,-18255.633000,-15783.489000C-18239.010000,-15779.903000,-18227.117000,-15777.915000,-18227.004000,-15777.896000C-18226.373000,-15777.847000,-18211.363000,-15776.696000,-18191.137000,-15776.696000L-18191.131000,-15776.696000C-18179.067000,-15776.696000,-18167.531000,-15777.096000,-18156.860000,-15777.896000C-18141.925132,-15779.019652,-18127.078094,-15781.103628,-18112.411000,-15784.135000C-18101.653000,-15786.377000,-18095.179000,-15788.326000,-18095.111000,-15788.346000L-18091.047000,-15794.813000C-18091.247000,-15795.093000,-18112.838000,-15825.335000,-18136.682000,-15854.408000C-18160.313000,-15883.225000,-18186.825000,-15911.640000,-18187.088000,-15911.924000C-18194.057320,-15920.172725,-18201.513272,-15927.997668,-18209.416000,-15935.357000C-18217.482142,-15942.974600,-18225.946347,-15950.159343,-18234.773000,-15956.881000C-18245.067041,-15964.753263,-18255.947732,-15971.827199,-18267.320000,-15978.041000C-18278.589647,-15984.086521,-18290.383029,-15989.100281,-18302.556000,-15993.021000C-18312.797985,-15996.338752,-18323.244207,-15998.989306,-18333.829000,-16000.956000C-18344.037098,-16002.937452,-18354.377519,-16004.162780,-18364.766000,-16004.622000L-18530.592000,-16004.762000Z" transform="matrix(1 0 0 1 18609.29999999999927 16655.40000000000146)" fill="rgb(0,0,0)" stroke="none" stroke-width="1"/></g><g id="eUWs8KkEBJt13_tr" transform="translate(423.593000,714.200000) rotate(0)"><g id="eUWs8KkEBJt13" transform="translate(-423.593000,-714.200000)"><path id="eUWs8KkEBJt14" d="M241.226000,363.739000C241.226000,363.739000,248.201000,452.053000,322.479000,501.565000C383.445000,538.304000,448.479000,525.815000,472.331000,519.246000C477.920516,517.712449,481.427931,512.180693,480.431000,506.471000C476.203000,482.095000,459.768000,417.944000,400.540000,378.465000C324.083000,332.390000,241.226000,363.739000,241.226000,363.739000Z" transform="matrix(1 0 0 1 193.32400000000001 372.73000000000002)" fill="url(#eUWs8KkEBJt14-fill)" stroke="none" stroke-width="1"/><path id="eUWs8KkEBJt15" d="M472.325000,517.261000C448.488000,523.824000,383.442000,536.321000,322.481000,499.585000C248.202000,450.076000,241.222000,361.757000,241.222000,361.757000C247.227301,359.638656,253.362632,357.908752,259.590000,356.578000C268.421000,386.817000,288.654000,431.821000,334.239000,462.221000C388.766000,495.066000,446.526000,488.551000,475.188000,482.121000C477.345451,489.476997,479.095773,496.946328,480.431000,504.495000C481.424275,510.203761,477.914118,515.731847,472.325000,517.261000Z" transform="matrix(1 0 0 1 193.32200000000000 374.71300000000002)" fill="rgb(8,108,183)" stroke="none" stroke-width="1"/><path id="eUWs8KkEBJt16" d="M-18364.186000,-15831.386000C-18368.596000,-15831.386000,-18373,-15831.526000,-18377.272000,-15831.802000C-18386.598000,-15832.924000,-18394.972000,-15834.232000,-18402.879000,-15835.802000C-18411.485842,-15837.480464,-18419.988911,-15839.653058,-18428.346000,-15842.309000C-18436.675757,-15844.955873,-18444.777829,-15848.272014,-18452.573000,-15852.225000C-18460.349857,-15856.179167,-18467.684675,-15860.948258,-18474.454000,-15866.452000C-18481.085891,-15871.909151,-18487.359223,-15877.787999,-18493.235000,-15884.052000C-18498.978048,-15890.167489,-18504.367155,-15896.605972,-18509.376000,-15903.336000C-18518.590385,-15915.633324,-18526.443652,-15928.893884,-18532.798000,-15942.885000C-18536.097423,-15950.281639,-18538.964254,-15957.863751,-18541.384000,-15965.593000C-18543.321000,-15971.775000,-18544.970000,-15978.041000,-18546.284000,-15984.219000C-18547.545900,-15989.901736,-18548.455301,-15995.657045,-18549.007000,-16001.452000C-18548.941381,-16002.779828,-18548.774226,-16004.100686,-18548.507000,-16005.403000C-18547.987615,-16008.204749,-18546.978876,-16010.893140,-18545.527000,-16013.345000C-18544.062000,-16015.698000,-18540.986000,-16017.377000,-18538.515000,-16018.726000L-18538.507000,-16018.726000C-18537.900000,-16019.056000,-18537.273000,-16019.398000,-18536.724000,-16019.726000C-18535.794000,-16020.278000,-18528.556000,-16022.592000,-18516.986000,-16024.781000C-18502.093297,-16027.569757,-18486.975549,-16028.982046,-18471.824000,-16029C-18454.129733,-16029.099901,-18436.496088,-16026.923717,-18419.357000,-16022.525000C-18410.015727,-16020.080611,-18400.902636,-16016.835256,-18392.119000,-16012.825000C-18382.845843,-16008.576850,-18374.023448,-16003.406833,-18365.785000,-15997.393000C-18357.248731,-15991.142668,-18349.253830,-15984.184763,-18341.885000,-15976.593000C-18335.133999,-15969.621835,-18328.916488,-15962.153133,-18323.285000,-15954.250000C-18313.590632,-15940.593605,-18305.562416,-15925.827985,-18299.371000,-15910.267000C-18294.925014,-15899.180851,-18291.402696,-15887.746280,-18288.840000,-15876.080000C-18287.815211,-15871.537998,-18287.029464,-15866.945351,-18286.486000,-15862.321000C-18286.522251,-15860.905068,-18286.675777,-15859.494574,-18286.945000,-15858.104000C-18287.452760,-15855.146977,-18288.543588,-15852.320477,-18290.154000,-15849.789000C-18292.037345,-15847.161796,-18294.370229,-15844.888156,-18297.045000,-15843.073000C-18298.366425,-15842.118841,-18299.744633,-15841.245897,-18301.172000,-15840.459000L-18301.178000,-15840.459000C-18307.129270,-15838.618675,-18313.176609,-15837.104754,-18319.293000,-15835.924000C-18325.850000,-15834.608000,-18332.574000,-15833.559000,-18339.281000,-15832.807000C-18347.549887,-15831.871792,-18355.864404,-15831.397393,-18364.186000,-15831.386000ZM-18471.243000,-16004.577000C-18478.204000,-16004.577000,-18485.335000,-16004.227000,-18492.436000,-16003.537000C-18498.120000,-16002.985000,-18503.799000,-16002.216000,-18509.317000,-16001.250000C-18518.747000,-15999.599000,-18524.454000,-15997.938000,-18524.510000,-15997.922000C-18524.504000,-15997.885000,-18523.838000,-15993.434000,-18522.010000,-15986.244000C-18519.469424,-15976.367601,-18516.219313,-15966.687452,-18512.285000,-15957.279000C-18506.863520,-15944.209448,-18500.064805,-15931.754803,-18492.004000,-15920.126000C-18482.506532,-15906.392170,-18470.986988,-15894.173388,-18457.836000,-15883.884000C-18453.024389,-15880.128016,-18447.880057,-15876.818962,-18442.467000,-15873.998000C-18437.393058,-15871.414609,-18432.165982,-15869.143709,-18426.815000,-15867.198000C-18409.790000,-15860.798000,-18390.340000,-15857.215000,-18365.608000,-15855.927000L-18365.178000,-15855.927000C-18358.278000,-15855.927000,-18351.143000,-15856.287000,-18343.987000,-15856.997000C-18338.245000,-15857.566000,-18332.475000,-15858.358000,-18326.841000,-15859.352000C-18317.183000,-15861.052000,-18311.236000,-15862.762000,-18311.181000,-15862.779000C-18311.187000,-15862.818000,-18311.857000,-15867.546000,-18313.804000,-15875.279000C-18316.465485,-15885.729560,-18319.927375,-15895.959773,-18324.159000,-15905.879000C-18329.905267,-15919.473903,-18337.224132,-15932.348956,-18345.966000,-15944.241000C-18350.923920,-15950.942408,-18356.393980,-15957.249309,-18362.327000,-15963.105000C-18368.676474,-15969.358174,-18375.578226,-15975.024566,-18382.948000,-15980.035000C-18389.907753,-15984.738251,-18397.303020,-15988.762382,-18405.032000,-15992.052000C-18412.388455,-15995.173193,-18419.986481,-15997.691153,-18427.751000,-15999.581000C-18441.995886,-16002.980462,-18456.597322,-16004.657792,-18471.242000,-16004.577000Z" transform="matrix(1 0 0 1 18972.59999999999854 16743.20000000000073)" fill="rgb(0,0,0)" stroke="none" stroke-width="1"/></g></g></g></g><g id="eUWs8KkEBJt17_to" transform="translate(-140.846131,-0)"><g id="eUWs8KkEBJt17_ts" transform="scale(0.500000,0.500000)"><g id="eUWs8KkEBJt17" transform="translate(-256,-256)"><rect id="eUWs8KkEBJt18" width="446.953223" height="37.275000" rx="0" ry="0" transform="matrix(0.70710000000000 -0.70710000000000 0.70710000000000 0.70710000000000 85.02451352507717 399.64983773272979)" fill="rgb(255,34,0)" stroke="rgb(0,0,0)" stroke-width="10"/><path id="eUWs8KkEBJt19" d="M256,0C114.840000,0,0,114.840000,0,256C0,397.160000,114.840000,512,256,512C397.160000,512,512,397.160000,512,256C512,114.840000,397.160000,0,256,0ZM256,474.718000C135.400000,474.718000,37.282000,376.600000,37.282000,256C37.282000,135.400000,135.400000,37.282000,256,37.282000C376.600000,37.282000,474.718000,135.400000,474.718000,256C474.718000,376.600000,376.600000,474.718000,256,474.718000Z" fill="rgb(255,34,0)" stroke="rgb(0,0,0)" stroke-width="10"/></g></g></g></g><clipPath id="eUWs8KkEBJt20" display="none"/></svg>