<svg id="eW4Zntjbmg51" xmlns="http://www.w3.org/2000/svg" xmlns:xlink="http://www.w3.org/1999/xlink" viewBox="0 0 1000 1000" shape-rendering="geometricPrecision" text-rendering="geometricPrecision"><style><![CDATA[#eW4Zntjbmg55_to {animation: eW4Zntjbmg55_to__to 3000ms linear infinite normal forwards}@keyframes eW4Zntjbmg55_to__to { 0% {transform: translate(208.558541px,133.159668px)} 40% {transform: translate(208.558541px,133.159668px)} 66.666667% {transform: translate(127.758000px,131.979000px)} 100% {transform: translate(127.758000px,131.979000px)}} #eW4Zntjbmg56_to {animation: eW4Zntjbmg56_to__to 3000ms linear infinite normal forwards}@keyframes eW4Zntjbmg56_to__to { 0% {transform: translate(40.909507px,442.662310px)} 26.666667% {transform: translate(-40.402000px,527.908000px)} 100% {transform: translate(-40.402000px,527.908000px)}} #eW4Zntjbmg57_to {animation: eW4Zntjbmg57_to__to 3000ms linear infinite normal forwards}@keyframes eW4Zntjbmg57_to__to { 0% {transform: translate(741.181913px,247.089542px)} 26.666667% {transform: translate(817.156000px,324.824000px)} 100% {transform: translate(817.156000px,324.824000px)}} #eW4Zntjbmg58_to {animation: eW4Zntjbmg58_to__to 3000ms linear infinite normal forwards}@keyframes eW4Zntjbmg58_to__to { 0% {transform: translate(533.792754px,133.477152px)} 40% {transform: translate(533.792754px,133.477152px)} 66.666667% {transform: translate(626.027000px,135.800000px)} 100% {transform: translate(626.027000px,135.800000px)}} #eW4Zntjbmg59_to {animation: eW4Zntjbmg59_to__to 3000ms linear infinite normal forwards}@keyframes eW4Zntjbmg59_to__to { 0% {transform: translate(249.882377px,247.704267px)} 26.666667% {transform: translate(346.506000px,147.722000px)} 100% {transform: translate(346.506000px,147.722000px)}} #eW4Zntjbmg510_to {animation: eW4Zntjbmg510_to__to 3000ms linear infinite normal forwards}@keyframes eW4Zntjbmg510_to__to { 0% {transform: translate(135.745340px,414.451928px)} 40% {transform: translate(135.745340px,414.451928px)} 66.666667% {transform: translate(133.201000px,306.907000px)} 100% {transform: translate(133.201000px,306.907000px)}} #eW4Zntjbmg511_to {animation: eW4Zntjbmg511_to__to 3000ms linear infinite normal forwards}@keyframes eW4Zntjbmg511_to__to { 0% {transform: translate(178.815583px,692.931166px)} 26.666667% {transform: translate(84.369000px,609.072000px)} 100% {transform: translate(84.369000px,609.072000px)}} #eW4Zntjbmg512 {animation: eW4Zntjbmg512_c_o 3000ms linear infinite normal forwards}@keyframes eW4Zntjbmg512_c_o { 0% {opacity: 0} 26.666667% {opacity: 0} 40% {opacity: 1} 100% {opacity: 1}} #eW4Zntjbmg514_to {animation: eW4Zntjbmg514_to__to 3000ms linear infinite normal forwards}@keyframes eW4Zntjbmg514_to__to { 0% {transform: translate(703.143788px,-164.948891px)} 40% {transform: translate(703.143788px,-164.948891px)} 66.666667% {transform: translate(845.119670px,-203.446198px)} 100% {transform: translate(845.119670px,-203.446198px)}} #eW4Zntjbmg519 {animation: eW4Zntjbmg519_c_o 3000ms linear infinite normal forwards}@keyframes eW4Zntjbmg519_c_o { 0% {opacity: 0} 26.666667% {opacity: 0} 40% {opacity: 1} 100% {opacity: 1}} #eW4Zntjbmg521_to {animation: eW4Zntjbmg521_to__to 3000ms linear infinite normal forwards}@keyframes eW4Zntjbmg521_to__to { 0% {transform: translate(475px,228.176244px)} 40% {transform: translate(475px,228.176244px)} 66.666667% {transform: translate(458.540764px,95.960097px)} 100% {transform: translate(458.540764px,95.960097px)}} #eW4Zntjbmg526 {animation: eW4Zntjbmg526_c_o 3000ms linear infinite normal forwards}@keyframes eW4Zntjbmg526_c_o { 0% {opacity: 0} 26.666667% {opacity: 0} 40% {opacity: 1} 100% {opacity: 1}} #eW4Zntjbmg528_to {animation: eW4Zntjbmg528_to__to 3000ms linear infinite normal forwards}@keyframes eW4Zntjbmg528_to__to { 0% {transform: translate(600px,-146.825386px)} 40% {transform: translate(600px,-146.825386px)} 66.666667% {transform: translate(462.264586px,-146.523195px)} 100% {transform: translate(462.264586px,-146.523195px)}} #eW4Zntjbmg529_to {animation: eW4Zntjbmg529_to__to 3000ms linear infinite normal forwards}@keyframes eW4Zntjbmg529_to__to { 0% {transform: translate(453.904341px,160.859557px)} 40% {transform: translate(453.904341px,160.859557px)} 66.666667% {transform: translate(466.449153px,47.479814px)} 100% {transform: translate(466.449153px,47.479814px)}} #eW4Zntjbmg534 {animation: eW4Zntjbmg534_c_o 3000ms linear infinite normal forwards}@keyframes eW4Zntjbmg534_c_o { 0% {opacity: 0} 26.666667% {opacity: 0} 40% {opacity: 1} 100% {opacity: 1}} #eW4Zntjbmg540 {animation: eW4Zntjbmg540_c_o 3000ms linear infinite normal forwards}@keyframes eW4Zntjbmg540_c_o { 0% {opacity: 0} 66.666667% {opacity: 0} 80% {opacity: 1} 100% {opacity: 1}} #eW4Zntjbmg543 {animation: eW4Zntjbmg543_c_o 3000ms linear infinite normal forwards}@keyframes eW4Zntjbmg543_c_o { 0% {opacity: 0} 66.666667% {opacity: 0} 80% {opacity: 1} 100% {opacity: 1}} #eW4Zntjbmg546 {animation: eW4Zntjbmg546_c_o 3000ms linear infinite normal forwards}@keyframes eW4Zntjbmg546_c_o { 0% {opacity: 0} 66.666667% {opacity: 0} 80% {opacity: 1} 100% {opacity: 1}} #eW4Zntjbmg549 {animation: eW4Zntjbmg549_c_o 3000ms linear infinite normal forwards}@keyframes eW4Zntjbmg549_c_o { 0% {opacity: 0} 66.666667% {opacity: 0} 80% {opacity: 1} 100% {opacity: 1}}]]></style><defs><linearGradient id="eW4Zntjbmg516-fill" x1="0.500000" y1="0" x2="0.500000" y2="1" spreadMethod="pad" gradientUnits="objectBoundingBox"><stop id="eW4Zntjbmg516-fill-0" offset="0%" stop-color="rgb(159,216,248)"/><stop id="eW4Zntjbmg516-fill-1" offset="100%" stop-color="rgb(50,176,249)"/></linearGradient><linearGradient id="eW4Zntjbmg517-fill" x1="0.500000" y1="0" x2="0.500000" y2="1" spreadMethod="pad" gradientUnits="objectBoundingBox"><stop id="eW4Zntjbmg517-fill-0" offset="0%" stop-color="rgb(159,216,248)"/><stop id="eW4Zntjbmg517-fill-1" offset="100%" stop-color="rgb(50,176,249)"/></linearGradient><linearGradient id="eW4Zntjbmg523-fill" x1="0.500000" y1="0" x2="0.500000" y2="1" spreadMethod="pad" gradientUnits="objectBoundingBox"><stop id="eW4Zntjbmg523-fill-0" offset="0%" stop-color="rgb(196,255,210)"/><stop id="eW4Zntjbmg523-fill-1" offset="100%" stop-color="rgb(28,217,72)"/></linearGradient><linearGradient id="eW4Zntjbmg524-fill" x1="0.500000" y1="0" x2="0.500000" y2="1" spreadMethod="pad" gradientUnits="objectBoundingBox"><stop id="eW4Zntjbmg524-fill-0" offset="0%" stop-color="rgb(196,255,210)"/><stop id="eW4Zntjbmg524-fill-1" offset="100%" stop-color="rgb(28,217,72)"/></linearGradient><linearGradient id="eW4Zntjbmg531-fill" x1="0.500000" y1="0" x2="0.500000" y2="1" spreadMethod="pad" gradientUnits="objectBoundingBox"><stop id="eW4Zntjbmg531-fill-0" offset="0%" stop-color="rgb(211,251,255)"/><stop id="eW4Zntjbmg531-fill-1" offset="100%" stop-color="rgb(25,222,243)"/></linearGradient><linearGradient id="eW4Zntjbmg532-fill" x1="0.500000" y1="0" x2="0.500000" y2="1" spreadMethod="pad" gradientUnits="objectBoundingBox"><stop id="eW4Zntjbmg532-fill-0" offset="0%" stop-color="rgb(211,251,255)"/><stop id="eW4Zntjbmg532-fill-1" offset="100%" stop-color="rgb(25,222,243)"/></linearGradient><linearGradient id="eW4Zntjbmg537-fill" x1="0.500000" y1="0" x2="0.500000" y2="1" spreadMethod="pad" gradientUnits="objectBoundingBox"><stop id="eW4Zntjbmg537-fill-0" offset="0%" stop-color="rgb(255,198,147)"/><stop id="eW4Zntjbmg537-fill-1" offset="100%" stop-color="rgb(246,128,22)"/></linearGradient><linearGradient id="eW4Zntjbmg538-fill" x1="0.500000" y1="0" x2="0.500000" y2="1" spreadMethod="pad" gradientUnits="objectBoundingBox"><stop id="eW4Zntjbmg538-fill-0" offset="0%" stop-color="rgb(255,198,147)"/><stop id="eW4Zntjbmg538-fill-1" offset="100%" stop-color="rgb(246,128,22)"/></linearGradient><linearGradient id="eW4Zntjbmg541-fill" x1="0.500000" y1="0" x2="0.500000" y2="1" spreadMethod="pad" gradientUnits="objectBoundingBox"><stop id="eW4Zntjbmg541-fill-0" offset="0%" stop-color="rgb(211,251,255)"/><stop id="eW4Zntjbmg541-fill-1" offset="100%" stop-color="rgb(25,222,243)"/></linearGradient><linearGradient id="eW4Zntjbmg544-fill" x1="0.500000" y1="0" x2="0.500000" y2="1" spreadMethod="pad" gradientUnits="objectBoundingBox"><stop id="eW4Zntjbmg544-fill-0" offset="0%" stop-color="rgb(255,206,162)"/><stop id="eW4Zntjbmg544-fill-1" offset="100%" stop-color="rgb(246,134,33)"/></linearGradient><linearGradient id="eW4Zntjbmg547-fill" x1="0.500000" y1="0" x2="0.500000" y2="1" spreadMethod="pad" gradientUnits="objectBoundingBox"><stop id="eW4Zntjbmg547-fill-0" offset="0%" stop-color="rgb(186,230,255)"/><stop id="eW4Zntjbmg547-fill-1" offset="100%" stop-color="rgb(65,181,248)"/></linearGradient><linearGradient id="eW4Zntjbmg550-fill" x1="0.500000" y1="0" x2="0.500000" y2="1" spreadMethod="pad" gradientUnits="objectBoundingBox"><stop id="eW4Zntjbmg550-fill-0" offset="0%" stop-color="rgb(196,255,210)"/><stop id="eW4Zntjbmg550-fill-1" offset="100%" stop-color="rgb(28,217,72)"/></linearGradient><linearGradient id="eW4Zntjbmg555-fill" x1="0.500000" y1="0" x2="0.500000" y2="1" spreadMethod="pad" gradientUnits="objectBoundingBox"><stop id="eW4Zntjbmg555-fill-0" offset="0%" stop-color="rgb(255,255,255)"/><stop id="eW4Zntjbmg555-fill-1" offset="100%" stop-color="rgb(0,202,196)"/></linearGradient><linearGradient id="eW4Zntjbmg556-fill" x1="0.500000" y1="0" x2="0.500000" y2="1" spreadMethod="pad" gradientUnits="objectBoundingBox"><stop id="eW4Zntjbmg556-fill-0" offset="0%" stop-color="rgb(70,171,248)"/><stop id="eW4Zntjbmg556-fill-1" offset="50.900000%" stop-color="rgb(0,202,196)"/><stop id="eW4Zntjbmg556-fill-2" offset="100%" stop-color="rgb(5,255,62)"/></linearGradient><linearGradient id="eW4Zntjbmg568-fill" x1="0.500000" y1="0" x2="0.500000" y2="0.676000" spreadMethod="pad" gradientUnits="objectBoundingBox"><stop id="eW4Zntjbmg568-fill-0" offset="0%" stop-color="rgb(4,205,51)"/><stop id="eW4Zntjbmg568-fill-1" offset="100%" stop-color="rgba(70,171,248,0.69)"/></linearGradient><radialGradient id="eW4Zntjbmg571-fill" cx="0" cy="0" r="0.248000" spreadMethod="pad" gradientUnits="objectBoundingBox" gradientTransform="matrix(1 0 0 1 0.50000000000000 0.50000000000000)"><stop id="eW4Zntjbmg571-fill-0" offset="0%" stop-color="rgb(4,205,51)"/><stop id="eW4Zntjbmg571-fill-1" offset="100%" stop-color="rgba(70,171,248,0.82)"/></radialGradient><linearGradient id="eW4Zntjbmg575-fill" x1="0.500000" y1="0" x2="0.500000" y2="1" spreadMethod="pad" gradientUnits="objectBoundingBox"><stop id="eW4Zntjbmg575-fill-0" offset="0%" stop-color="rgb(239,255,255)"/><stop id="eW4Zntjbmg575-fill-1" offset="0%" stop-color="rgb(184,184,184)"/><stop id="eW4Zntjbmg575-fill-2" offset="100%" stop-color="rgb(255,255,255)"/></linearGradient><linearGradient id="eW4Zntjbmg578-fill" x1="0.500000" y1="0" x2="0.500000" y2="1" spreadMethod="pad" gradientUnits="objectBoundingBox"><stop id="eW4Zntjbmg578-fill-0" offset="0%" stop-color="rgb(255,255,255)"/><stop id="eW4Zntjbmg578-fill-1" offset="34.800000%" stop-color="rgb(255,255,255)"/><stop id="eW4Zntjbmg578-fill-2" offset="100%" stop-color="rgb(211,211,211)"/></linearGradient><linearGradient id="eW4Zntjbmg581-fill" x1="0.500000" y1="0" x2="0.500000" y2="1" spreadMethod="pad" gradientUnits="objectBoundingBox"><stop id="eW4Zntjbmg581-fill-0" offset="0%" stop-color="rgb(255,255,255)"/><stop id="eW4Zntjbmg581-fill-1" offset="34.800000%" stop-color="rgb(255,255,255)"/><stop id="eW4Zntjbmg581-fill-2" offset="100%" stop-color="rgb(211,211,211)"/></linearGradient><linearGradient id="eW4Zntjbmg584-fill" x1="0.500000" y1="0" x2="0.500000" y2="1" spreadMethod="pad" gradientUnits="objectBoundingBox"><stop id="eW4Zntjbmg584-fill-0" offset="0%" stop-color="rgb(255,255,255)"/><stop id="eW4Zntjbmg584-fill-1" offset="34.800000%" stop-color="rgb(255,255,255)"/><stop id="eW4Zntjbmg584-fill-2" offset="100%" stop-color="rgb(211,211,211)"/></linearGradient><linearGradient id="eW4Zntjbmg598-fill" x1="0.500000" y1="0" x2="0.691000" y2="0.976000" spreadMethod="pad" gradientUnits="objectBoundingBox"><stop id="eW4Zntjbmg598-fill-0" offset="0%" stop-color="rgb(1,213,18)"/><stop id="eW4Zntjbmg598-fill-1" offset="100%" stop-color="rgb(62,218,255)"/></linearGradient><linearGradient id="eW4Zntjbmg5101-fill" x1="0.500000" y1="0" x2="0.500000" y2="1" spreadMethod="pad" gradientUnits="objectBoundingBox"><stop id="eW4Zntjbmg5101-fill-0" offset="0%" stop-color="rgb(250,250,0)"/><stop id="eW4Zntjbmg5101-fill-1" offset="100%" stop-color="rgb(242,0,47)"/></linearGradient></defs><g id="eW4Zntjbmg52" transform="matrix(1 0 0 1 10.54980468000008 -1.49999999999994)"><g id="eW4Zntjbmg53" transform="matrix(1 0 0 1 12.96900000000000 12.76000000000000)"/><g id="eW4Zntjbmg54" transform="matrix(1 0 0 1 12.96900000000000 12.76000000000000)"><g id="eW4Zntjbmg55_to" transform="translate(208.558541,133.159668)"><path id="eW4Zntjbmg55" d="M292.408000,217.269000C289.553191,217.268623,286.979653,215.548757,285.887215,212.911236C284.794778,210.273715,285.398534,207.237844,287.417000,205.219000L354,139.131000C356.756729,136.374271,361.226271,136.374271,363.983000,139.131000C366.739729,141.887729,366.739729,146.357271,363.983000,149.114000L297.400000,215.200000C296.077603,216.526450,294.281019,217.271068,292.408000,217.269000Z" transform="rotate(45) scale(1,1) translate(0,0)" fill="rgb(0,0,0)" stroke="none" stroke-width="1"/></g><g id="eW4Zntjbmg56_to" transform="translate(40.909507,442.662310)"><path id="eW4Zntjbmg56" d="M269.300000,235.424000C266.445191,235.423623,263.871653,233.703757,262.779215,231.066236C261.686778,228.428715,262.290534,225.392844,264.309000,223.374000L362.540000,132.074000C365.296729,129.317271,369.766271,129.317271,372.523000,132.074000C375.279729,134.830729,375.279729,139.300271,372.523000,142.057000L274.292000,233.357000C272.969275,234.682717,271.172731,235.426598,269.300000,235.424000Z" transform="rotate(-4.992081) scale(0.999792,0.999792) translate(0,0)" fill="rgb(0,0,0)" stroke="none" stroke-width="1"/></g><g id="eW4Zntjbmg57_to" transform="translate(741.181913,247.089542)"><path id="eW4Zntjbmg57" d="M296.553000,212.226000C293.698191,212.225623,291.124653,210.505757,290.032215,207.868236C288.939778,205.230715,289.543534,202.194844,291.562000,200.176000L381.120000,119.123000C383.876729,116.366271,388.346271,116.366271,391.103000,119.123000C393.859729,121.879729,393.859729,126.349271,391.103000,129.106000L301.545000,210.159000C300.222275,211.484717,298.425731,212.228598,296.553000,212.226000Z" transform="rotate(85.987829) skewX(0) skewY(0) scale(1.000452,1.000452) translate(0,0)" fill="rgb(0,0,0)" stroke="none" stroke-width="1"/></g><g id="eW4Zntjbmg58_to" transform="translate(533.792754,133.477152)"><path id="eW4Zntjbmg58" d="M296.553000,212.226000C293.698191,212.225623,291.124653,210.505757,290.032215,207.868236C288.939778,205.230715,289.543534,202.194844,291.562000,200.176000L354,139.131000C356.756729,136.374271,361.226271,136.374271,363.983000,139.131000C366.739729,141.887729,366.739729,146.357271,363.983000,149.114000L301.548000,210.159000C300.224541,211.485455,298.426770,212.229397,296.553000,212.226000Z" transform="rotate(45) scale(1,1) translate(0,0)" fill="rgb(0,0,0)" stroke="none" stroke-width="1"/></g><g id="eW4Zntjbmg59_to" transform="translate(249.882377,247.704267)"><path id="eW4Zntjbmg59" d="M296.553000,212.226000C293.698191,212.225623,291.124653,210.505757,290.032215,207.868236C288.939778,205.230715,289.543534,202.194844,291.562000,200.176000L379.815000,111.863000C382.571729,109.106271,387.041271,109.106271,389.798000,111.863000C392.554729,114.619729,392.554729,119.089271,389.798000,121.846000L301.545000,210.159000C300.222275,211.484717,298.425731,212.228598,296.553000,212.226000Z" transform="translate(0,0)" fill="rgb(0,0,0)" stroke="none" stroke-width="1"/></g><g id="eW4Zntjbmg510_to" transform="translate(135.745340,414.451928)"><path id="eW4Zntjbmg510" d="M269.300000,235.424000C266.445191,235.423623,263.871653,233.703757,262.779215,231.066236C261.686778,228.428715,262.290534,225.392844,264.309000,223.374000L329.396000,154.466000C332.152729,151.709271,336.622271,151.709271,339.379000,154.466000C342.135729,157.222729,342.135729,161.692271,339.379000,164.449000L274.290000,233.356000C272.967928,234.681592,271.172182,235.425801,269.300000,235.424000Z" transform="rotate(-45) scale(1,1) translate(0,0)" fill="rgb(0,0,0)" stroke="none" stroke-width="1"/></g><g id="eW4Zntjbmg511_to" transform="translate(178.815583,692.931166)"><path id="eW4Zntjbmg511" d="M260.300000,245.976000C257.445191,245.975623,254.871653,244.255757,253.779215,241.618236C252.686778,238.980715,253.290534,235.944844,255.309000,233.926000L342.949000,139C345.705729,136.243271,350.175271,136.243271,352.932000,139C355.688729,141.756729,355.688729,146.226271,352.932000,148.983000L265.292000,243.909000C263.969275,245.234717,262.172731,245.978598,260.300000,245.976000Z" transform="rotate(-89.000024) scale(1,1) translate(0,0)" fill="rgb(0,0,0)" stroke="none" stroke-width="1"/></g></g><g id="eW4Zntjbmg512" transform="matrix(1 0 0 1 -18549 -14896)" opacity="0"><g id="eW4Zntjbmg513" transform="matrix(1 0 0 1 17882 14907.79999999999927)"><g id="eW4Zntjbmg514_to" transform="translate(703.143788,-164.948891)"><path id="eW4Zntjbmg514" d="M269.300000,235.424000C266.445191,235.423623,263.871653,233.703757,262.779215,231.066236C261.686778,228.428715,262.290534,225.392844,264.309000,223.374000L356.827569,126.944865C359.584298,124.188135,364.053839,124.188135,366.810569,126.944865C369.567298,129.701594,369.567298,134.171135,366.810569,136.927865L274.290000,233.356000C272.967928,234.681592,271.172182,235.425801,269.300000,235.424000Z" transform="rotate(32.005383) skewX(-0) skewY(0) scale(1.000002,1.000002) translate(0,0)" fill="rgb(0,0,0)" stroke="none" stroke-width="1"/></g><path id="eW4Zntjbmg515" d="M128.612000,0C199.643000,0,257.224000,57.908000,257.224000,129.341000C257.224000,200.774000,199.643000,258.682000,128.612000,258.682000C57.581000,258.682000,0,200.774000,0,129.341000C0,57.908000,57.582000,0,128.612000,0Z" transform="matrix(1 0 0 1 688.39400000000001 26.49700000000000)" fill="rgb(255,255,255)" stroke="none" stroke-width="1"/><circle id="eW4Zntjbmg516" r="51.606000" transform="matrix(1 0 0 1 817.00500000000000 155.83799999999999)" fill="url(#eW4Zntjbmg516-fill)" stroke="none" stroke-width="1"/><path id="eW4Zntjbmg517" d="M493.913000,111.147000L460.322000,115.715000L431.105000,111.147000C405.092000,111.154000,384.005000,133.241000,384,160.489000L384,164.539000C429.900000,202.998000,495.118000,202.998000,541.018000,164.539000L541.018000,160.489000C541.012000,133.241000,519.926000,111.154000,493.913000,111.147000Z" transform="matrix(1 0 0 1 354.49599999999998 91.79600000000001)" fill="url(#eW4Zntjbmg517-fill)" stroke="none" stroke-width="1"/></g><path id="eW4Zntjbmg518" d="M113.382000,281.115000C95.218519,277.395219,77.965307,270.135108,62.607000,259.749000C39.776570,244.337372,21.905479,222.635571,11.159000,197.273000C7.527890,188.683249,4.756366,179.755015,2.885000,170.619000C-0.962155,151.734275,-0.962155,132.267725,2.885000,113.383000C6.604656,95.219170,13.864772,77.965607,24.251000,62.607000C39.662896,39.776420,61.365062,21.905315,86.728000,11.159000C95.317751,7.527890,104.245985,4.756366,113.382000,2.885000C132.266725,-0.962155,151.733275,-0.962155,170.618000,2.885000C188.781481,6.604781,206.034693,13.864892,221.393000,24.251000C244.223430,39.662628,262.094521,61.364429,272.841000,86.727000C276.472110,95.316751,279.243634,104.244985,281.115000,113.381000C284.962100,132.265730,284.962100,151.732270,281.115000,170.617000C277.395219,188.780481,270.135108,206.033693,259.749000,221.392000C244.337372,244.222430,222.635571,262.093521,197.273000,272.840000C188.683247,276.471104,179.755013,279.242628,170.619000,281.114000C151.734270,284.961100,132.267730,284.961100,113.383000,281.114000ZM70.993000,247.315000C113.893094,276.303384,170.106906,276.303384,213.007000,247.315000Q213.995000,246.647000,214.971000,245.961000C214.671000,242.724000,212.396000,221.649000,202.751000,209.020000C195.457000,199.469000,183.841000,195.678000,177.305000,194.190000L177.223000,194.245000C155.941420,208.623787,128.056580,208.623787,106.775000,194.245000L106.693000,194.190000C100.157000,195.678000,88.541000,199.469000,81.247000,209.020000C71.603000,221.649000,69.326000,242.720000,69.027000,245.961000Q70.005000,246.643000,70.993000,247.310000ZM215.007000,201.180000C223.507000,210.961000,227.007000,226.256000,228.381000,235.103000Q230.123000,233.486000,231.802000,231.803000C243.388800,220.224659,252.630665,206.517715,259.020000,191.435000C262.267397,183.752369,264.746154,175.767086,266.420000,167.596000C269.860360,150.706081,269.860360,133.295919,266.420000,116.406000C263.093248,100.160832,256.599690,84.729881,247.310000,70.994000C233.526848,50.575198,214.117996,34.591683,191.435000,24.980000C183.752367,21.732609,175.767084,19.253852,167.596000,17.580000C150.706081,14.139640,133.295919,14.139640,116.406000,17.580000C100.160720,20.906848,84.729522,27.400028,70.993000,36.689000C50.574034,50.472576,34.590787,69.882219,24.980000,92.566000C21.732609,100.248633,19.253852,108.233916,17.580000,116.405000C14.139640,133.294919,14.139640,150.705081,17.580000,167.595000C20.906772,183.839684,27.399968,199.270241,36.689000,213.006000C41.249500,219.749977,46.443393,226.043190,52.200000,231.800000Q53.879000,233.479000,55.621000,235.100000C56.991000,226.253000,60.497000,210.958000,68.995000,201.177000C75.873871,193.237006,84.556226,187.062071,94.314000,183.170000C90.013718,178.195554,86.518122,172.578983,83.954000,166.524000C75.652708,146.908873,77.838676,124.425658,89.763000,106.777000C96.600453,96.648128,106.228662,88.719567,117.481000,83.952000C137.095701,75.650136,159.578908,77.836139,177.227000,89.761000C187.356436,96.598094,195.285410,106.226382,200.053000,117.479000C208.354864,137.093701,206.168861,159.576908,194.244000,177.225000C192.845280,179.294735,191.325290,181.279872,189.692000,183.170000C199.448087,187.062124,208.128984,193.236312,215.007000,201.175000ZM123.316000,97.780000C100.515296,107.388972,88.705985,132.712324,95.999809,156.355601C103.293633,179.998879,127.317020,194.268036,151.568455,189.361676C175.819889,184.455317,192.407417,161.970079,189.937167,137.350934C187.466917,112.731789,166.742763,93.990352,142,94C135.582017,93.991165,129.227885,95.273963,123.316000,97.772000Z" transform="matrix(1 0 0 1 18557 14922)" fill="rgb(0,0,0)" stroke="none" stroke-width="1" stroke-dashoffset="5193.140000"/></g><g id="eW4Zntjbmg519" transform="matrix(1 0 0 1 -18552.09999999999854 -14229)" opacity="0"><g id="eW4Zntjbmg520" transform="matrix(1 0 0 1 17882 14907.79999999999927)"><g id="eW4Zntjbmg521_to" transform="translate(475,228.176244)"><path id="eW4Zntjbmg521" d="M269.300000,235.424000C266.445191,235.423623,263.871653,233.703757,262.779215,231.066236C261.686778,228.428715,262.290534,225.392844,264.309000,223.374000L354,139.131000C356.756729,136.374271,361.226271,136.374271,363.983000,139.131000C366.739729,141.887729,366.739729,146.357271,363.983000,149.114000L274.293000,233.357000C272.970030,234.682963,271.173077,235.426864,269.300000,235.424000Z" transform="rotate(-51.009006) scale(0.999685,0.999685) translate(0,0)" fill="rgb(0,0,0)" stroke="none" stroke-width="1"/></g><path id="eW4Zntjbmg522" d="M128.612000,0C199.643000,0,257.224000,57.908000,257.224000,129.341000C257.224000,200.774000,199.643000,258.682000,128.612000,258.682000C57.581000,258.682000,0,200.774000,0,129.341000C0,57.908000,57.582000,0,128.612000,0Z" transform="matrix(1 0 0 1 688.39400000000001 26.49700000000000)" fill="rgb(255,255,255)" stroke="none" stroke-width="1"/><circle id="eW4Zntjbmg523" r="51.606000" transform="matrix(1 0 0 1 817.00500000000000 155.83799999999999)" fill="url(#eW4Zntjbmg523-fill)" stroke="none" stroke-width="1"/><path id="eW4Zntjbmg524" d="M493.913000,111.147000L460.322000,115.715000L431.105000,111.147000C405.092000,111.154000,384.005000,133.241000,384,160.489000L384,164.539000C429.900000,202.998000,495.118000,202.998000,541.018000,164.539000L541.018000,160.489000C541.012000,133.241000,519.926000,111.154000,493.913000,111.147000Z" transform="matrix(1 0 0 1 354.49599999999998 91.79600000000001)" fill="url(#eW4Zntjbmg524-fill)" stroke="none" stroke-width="1"/></g><path id="eW4Zntjbmg525" d="M113.382000,281.115000C95.218519,277.395219,77.965307,270.135108,62.607000,259.749000C39.776570,244.337372,21.905479,222.635571,11.159000,197.273000C7.527890,188.683249,4.756366,179.755015,2.885000,170.619000C-0.962155,151.734275,-0.962155,132.267725,2.885000,113.383000C6.604656,95.219170,13.864772,77.965607,24.251000,62.607000C39.662896,39.776420,61.365062,21.905315,86.728000,11.159000C95.317751,7.527890,104.245985,4.756366,113.382000,2.885000C132.266725,-0.962155,151.733275,-0.962155,170.618000,2.885000C188.781481,6.604781,206.034693,13.864892,221.393000,24.251000C244.223430,39.662628,262.094521,61.364429,272.841000,86.727000C276.472110,95.316751,279.243634,104.244985,281.115000,113.381000C284.962100,132.265730,284.962100,151.732270,281.115000,170.617000C277.395219,188.780481,270.135108,206.033693,259.749000,221.392000C244.337372,244.222430,222.635571,262.093521,197.273000,272.840000C188.683247,276.471104,179.755013,279.242628,170.619000,281.114000C151.734270,284.961100,132.267730,284.961100,113.383000,281.114000ZM70.993000,247.315000C113.893094,276.303384,170.106906,276.303384,213.007000,247.315000Q213.995000,246.647000,214.971000,245.961000C214.671000,242.724000,212.396000,221.649000,202.751000,209.020000C195.457000,199.469000,183.841000,195.678000,177.305000,194.190000L177.223000,194.245000C155.941420,208.623787,128.056580,208.623787,106.775000,194.245000L106.693000,194.190000C100.157000,195.678000,88.541000,199.469000,81.247000,209.020000C71.603000,221.649000,69.326000,242.720000,69.027000,245.961000Q70.005000,246.643000,70.993000,247.310000ZM215.007000,201.180000C223.507000,210.961000,227.007000,226.256000,228.381000,235.103000Q230.123000,233.486000,231.802000,231.803000C243.388800,220.224659,252.630665,206.517715,259.020000,191.435000C262.267397,183.752369,264.746154,175.767086,266.420000,167.596000C269.860360,150.706081,269.860360,133.295919,266.420000,116.406000C263.093248,100.160832,256.599690,84.729881,247.310000,70.994000C233.526848,50.575198,214.117996,34.591683,191.435000,24.980000C183.752367,21.732609,175.767084,19.253852,167.596000,17.580000C150.706081,14.139640,133.295919,14.139640,116.406000,17.580000C100.160720,20.906848,84.729522,27.400028,70.993000,36.689000C50.574034,50.472576,34.590787,69.882219,24.980000,92.566000C21.732609,100.248633,19.253852,108.233916,17.580000,116.405000C14.139640,133.294919,14.139640,150.705081,17.580000,167.595000C20.906772,183.839684,27.399968,199.270241,36.689000,213.006000C41.249500,219.749977,46.443393,226.043190,52.200000,231.800000Q53.879000,233.479000,55.621000,235.100000C56.991000,226.253000,60.497000,210.958000,68.995000,201.177000C75.873871,193.237006,84.556226,187.062071,94.314000,183.170000C90.013718,178.195554,86.518122,172.578983,83.954000,166.524000C75.652708,146.908873,77.838676,124.425658,89.763000,106.777000C96.600453,96.648128,106.228662,88.719567,117.481000,83.952000C137.095701,75.650136,159.578908,77.836139,177.227000,89.761000C187.356436,96.598094,195.285410,106.226382,200.053000,117.479000C208.354864,137.093701,206.168861,159.576908,194.244000,177.225000C192.845280,179.294735,191.325290,181.279872,189.692000,183.170000C199.448087,187.062124,208.128984,193.236312,215.007000,201.175000ZM123.316000,97.780000C100.515296,107.388972,88.705985,132.712324,95.999809,156.355601C103.293633,179.998879,127.317020,194.268036,151.568455,189.361676C175.819889,184.455317,192.407417,161.970079,189.937167,137.350934C187.466917,112.731789,166.742763,93.990352,142,94C135.582017,93.991165,129.227885,95.273963,123.316000,97.772000Z" transform="matrix(1 0 0 1 18557 14922)" fill="rgb(0,0,0)" stroke="none" stroke-width="1"/></g><g id="eW4Zntjbmg526" transform="matrix(1 0 0 1 -17869 -14232)" opacity="0"><g id="eW4Zntjbmg527" transform="matrix(1 0 0 1 17882 14907.79999999999927)"><g id="eW4Zntjbmg528_to" transform="translate(600,-146.825386)"><path id="eW4Zntjbmg528" d="M296.553000,212.226000C293.698191,212.225623,291.124653,210.505757,290.032215,207.868236C288.939778,205.230715,289.543534,202.194844,291.562000,200.176000L385.294976,121.991766C388.051705,119.235037,392.521247,119.235037,395.277976,121.991766C398.034705,124.748495,398.034705,129.218037,395.277976,131.974766L301.545000,210.159000C300.222275,211.484717,298.425731,212.228598,296.553000,212.226000Z" transform="rotate(40.000033) scale(1,1) translate(0,0)" fill="rgb(0,0,0)" stroke="none" stroke-width="1"/></g><g id="eW4Zntjbmg529_to" transform="translate(453.904341,160.859557)"><path id="eW4Zntjbmg529" d="M296.553000,212.226000C293.698191,212.225623,291.124653,210.505757,290.032215,207.868236C288.939778,205.230715,289.543534,202.194844,291.562000,200.176000L373.510000,117.048000C376.266729,114.291271,380.736271,114.291271,383.493000,117.048000C386.249729,119.804729,386.249729,124.274271,383.493000,127.031000L301.545000,210.159000C300.222275,211.484717,298.425731,212.228598,296.553000,212.226000Z" transform="rotate(-38.015660) scale(1.000200,1.000200) translate(0,0)" fill="rgb(0,0,0)" stroke="none" stroke-width="1"/></g><path id="eW4Zntjbmg530" d="M128.612000,0C199.643000,0,257.224000,57.908000,257.224000,129.341000C257.224000,200.774000,199.643000,258.682000,128.612000,258.682000C57.581000,258.682000,0,200.774000,0,129.341000C0,57.908000,57.582000,0,128.612000,0Z" transform="matrix(1 0 0 1 688.39400000000001 26.49700000000000)" fill="rgb(255,255,255)" stroke="none" stroke-width="1"/><circle id="eW4Zntjbmg531" r="51.606000" transform="matrix(1 0 0 1 817.00500000000000 155.83799999999999)" fill="url(#eW4Zntjbmg531-fill)" stroke="none" stroke-width="1"/><path id="eW4Zntjbmg532" d="M493.913000,111.147000L460.322000,115.715000L431.105000,111.147000C405.092000,111.154000,384.005000,133.241000,384,160.489000L384,164.539000C429.900000,202.998000,495.118000,202.998000,541.018000,164.539000L541.018000,160.489000C541.012000,133.241000,519.926000,111.154000,493.913000,111.147000Z" transform="matrix(1 0 0 1 354.49599999999998 91.79600000000001)" fill="url(#eW4Zntjbmg532-fill)" stroke="none" stroke-width="1"/></g><path id="eW4Zntjbmg533" d="M113.382000,281.115000C95.218519,277.395219,77.965307,270.135108,62.607000,259.749000C39.776570,244.337372,21.905479,222.635571,11.159000,197.273000C7.527890,188.683249,4.756366,179.755015,2.885000,170.619000C-0.962155,151.734275,-0.962155,132.267725,2.885000,113.383000C6.604656,95.219170,13.864772,77.965607,24.251000,62.607000C39.662896,39.776420,61.365062,21.905315,86.728000,11.159000C95.317751,7.527890,104.245985,4.756366,113.382000,2.885000C132.266725,-0.962155,151.733275,-0.962155,170.618000,2.885000C188.781481,6.604781,206.034693,13.864892,221.393000,24.251000C244.223430,39.662628,262.094521,61.364429,272.841000,86.727000C276.472110,95.316751,279.243634,104.244985,281.115000,113.381000C284.962100,132.265730,284.962100,151.732270,281.115000,170.617000C277.395219,188.780481,270.135108,206.033693,259.749000,221.392000C244.337372,244.222430,222.635571,262.093521,197.273000,272.840000C188.683247,276.471104,179.755013,279.242628,170.619000,281.114000C151.734270,284.961100,132.267730,284.961100,113.383000,281.114000ZM70.993000,247.315000C113.893094,276.303384,170.106906,276.303384,213.007000,247.315000Q213.995000,246.647000,214.971000,245.961000C214.671000,242.724000,212.396000,221.649000,202.751000,209.020000C195.457000,199.469000,183.841000,195.678000,177.305000,194.190000L177.223000,194.245000C155.941420,208.623787,128.056580,208.623787,106.775000,194.245000L106.693000,194.190000C100.157000,195.678000,88.541000,199.469000,81.247000,209.020000C71.603000,221.649000,69.326000,242.720000,69.027000,245.961000Q70.005000,246.643000,70.993000,247.310000ZM215.007000,201.180000C223.507000,210.961000,227.007000,226.256000,228.381000,235.103000Q230.123000,233.486000,231.802000,231.803000C243.388800,220.224659,252.630665,206.517715,259.020000,191.435000C262.267397,183.752369,264.746154,175.767086,266.420000,167.596000C269.860360,150.706081,269.860360,133.295919,266.420000,116.406000C263.093248,100.160832,256.599690,84.729881,247.310000,70.994000C233.526848,50.575198,214.117996,34.591683,191.435000,24.980000C183.752367,21.732609,175.767084,19.253852,167.596000,17.580000C150.706081,14.139640,133.295919,14.139640,116.406000,17.580000C100.160720,20.906848,84.729522,27.400028,70.993000,36.689000C50.574034,50.472576,34.590787,69.882219,24.980000,92.566000C21.732609,100.248633,19.253852,108.233916,17.580000,116.405000C14.139640,133.294919,14.139640,150.705081,17.580000,167.595000C20.906772,183.839684,27.399968,199.270241,36.689000,213.006000C41.249500,219.749977,46.443393,226.043190,52.200000,231.800000Q53.879000,233.479000,55.621000,235.100000C56.991000,226.253000,60.497000,210.958000,68.995000,201.177000C75.873871,193.237006,84.556226,187.062071,94.314000,183.170000C90.013718,178.195554,86.518122,172.578983,83.954000,166.524000C75.652708,146.908873,77.838676,124.425658,89.763000,106.777000C96.600453,96.648128,106.228662,88.719567,117.481000,83.952000C137.095701,75.650136,159.578908,77.836139,177.227000,89.761000C187.356436,96.598094,195.285410,106.226382,200.053000,117.479000C208.354864,137.093701,206.168861,159.576908,194.244000,177.225000C192.845280,179.294735,191.325290,181.279872,189.692000,183.170000C199.448087,187.062124,208.128984,193.236312,215.007000,201.175000ZM123.316000,97.780000C100.515296,107.388972,88.705985,132.712324,95.999809,156.355601C103.293633,179.998879,127.317020,194.268036,151.568455,189.361676C175.819889,184.455317,192.407417,161.970079,189.937167,137.350934C187.466917,112.731789,166.742763,93.990352,142,94C135.582017,93.991165,129.227885,95.273963,123.316000,97.772000Z" transform="matrix(1 0 0 1 18557 14922)" fill="rgb(0,0,0)" stroke="none" stroke-width="1"/></g><g id="eW4Zntjbmg534" transform="matrix(1 0 0 1 -17869 -14896)" opacity="0"><g id="eW4Zntjbmg535" transform="matrix(1 0 0 1 17882 14907.79999999999927)"><path id="eW4Zntjbmg536" d="M128.612000,0C199.643000,0,257.224000,57.908000,257.224000,129.341000C257.224000,200.774000,199.643000,258.682000,128.612000,258.682000C57.581000,258.682000,0,200.774000,0,129.341000C0,57.908000,57.582000,0,128.612000,0Z" transform="matrix(1 0 0 1 688.39400000000001 26.49700000000000)" fill="rgb(255,255,255)" stroke="none" stroke-width="1"/><circle id="eW4Zntjbmg537" r="51.606000" transform="matrix(1 0 0 1 817.00500000000000 155.83799999999999)" fill="url(#eW4Zntjbmg537-fill)" stroke="none" stroke-width="1"/><path id="eW4Zntjbmg538" d="M493.913000,111.147000L460.322000,115.715000L431.105000,111.147000C405.092000,111.154000,384.005000,133.241000,384,160.489000L384,164.539000C429.900000,202.998000,495.118000,202.998000,541.018000,164.539000L541.018000,160.489000C541.012000,133.241000,519.926000,111.154000,493.913000,111.147000Z" transform="matrix(1 0 0 1 354.49599999999998 91.79600000000001)" fill="url(#eW4Zntjbmg538-fill)" stroke="none" stroke-width="1"/></g><path id="eW4Zntjbmg539" d="M113.382000,281.115000C95.218519,277.395219,77.965307,270.135108,62.607000,259.749000C39.776570,244.337372,21.905479,222.635571,11.159000,197.273000C7.527890,188.683249,4.756366,179.755015,2.885000,170.619000C-0.962155,151.734275,-0.962155,132.267725,2.885000,113.383000C6.604656,95.219170,13.864772,77.965607,24.251000,62.607000C39.662896,39.776420,61.365062,21.905315,86.728000,11.159000C95.317751,7.527890,104.245985,4.756366,113.382000,2.885000C132.266725,-0.962155,151.733275,-0.962155,170.618000,2.885000C188.781481,6.604781,206.034693,13.864892,221.393000,24.251000C244.223430,39.662628,262.094521,61.364429,272.841000,86.727000C276.472110,95.316751,279.243634,104.244985,281.115000,113.381000C284.962100,132.265730,284.962100,151.732270,281.115000,170.617000C277.395219,188.780481,270.135108,206.033693,259.749000,221.392000C244.337372,244.222430,222.635571,262.093521,197.273000,272.840000C188.683247,276.471104,179.755013,279.242628,170.619000,281.114000C151.734270,284.961100,132.267730,284.961100,113.383000,281.114000ZM70.993000,247.315000C113.893094,276.303384,170.106906,276.303384,213.007000,247.315000Q213.995000,246.647000,214.971000,245.961000C214.671000,242.724000,212.396000,221.649000,202.751000,209.020000C195.457000,199.469000,183.841000,195.678000,177.305000,194.190000L177.223000,194.245000C155.941420,208.623787,128.056580,208.623787,106.775000,194.245000L106.693000,194.190000C100.157000,195.678000,88.541000,199.469000,81.247000,209.020000C71.603000,221.649000,69.326000,242.720000,69.027000,245.961000Q70.005000,246.643000,70.993000,247.310000ZM215.007000,201.180000C223.507000,210.961000,227.007000,226.256000,228.381000,235.103000Q230.123000,233.486000,231.802000,231.803000C243.388800,220.224659,252.630665,206.517715,259.020000,191.435000C262.267397,183.752369,264.746154,175.767086,266.420000,167.596000C269.860360,150.706081,269.860360,133.295919,266.420000,116.406000C263.093248,100.160832,256.599690,84.729881,247.310000,70.994000C233.526848,50.575198,214.117996,34.591683,191.435000,24.980000C183.752367,21.732609,175.767084,19.253852,167.596000,17.580000C150.706081,14.139640,133.295919,14.139640,116.406000,17.580000C100.160720,20.906848,84.729522,27.400028,70.993000,36.689000C50.574034,50.472576,34.590787,69.882219,24.980000,92.566000C21.732609,100.248633,19.253852,108.233916,17.580000,116.405000C14.139640,133.294919,14.139640,150.705081,17.580000,167.595000C20.906772,183.839684,27.399968,199.270241,36.689000,213.006000C41.249500,219.749977,46.443393,226.043190,52.200000,231.800000Q53.879000,233.479000,55.621000,235.100000C56.991000,226.253000,60.497000,210.958000,68.995000,201.177000C75.873871,193.237006,84.556226,187.062071,94.314000,183.170000C90.013718,178.195554,86.518122,172.578983,83.954000,166.524000C75.652708,146.908873,77.838676,124.425658,89.763000,106.777000C96.600453,96.648128,106.228662,88.719567,117.481000,83.952000C137.095701,75.650136,159.578908,77.836139,177.227000,89.761000C187.356436,96.598094,195.285410,106.226382,200.053000,117.479000C208.354864,137.093701,206.168861,159.576908,194.244000,177.225000C192.845280,179.294735,191.325290,181.279872,189.692000,183.170000C199.448087,187.062124,208.128984,193.236312,215.007000,201.175000ZM123.316000,97.780000C100.515296,107.388972,88.705985,132.712324,95.999809,156.355601C103.293633,179.998879,127.317020,194.268036,151.568455,189.361676C175.819889,184.455317,192.407417,161.970079,189.937167,137.350934C187.466917,112.731789,166.742763,93.990352,142,94C135.582017,93.991165,129.227885,95.273963,123.316000,97.772000Z" transform="matrix(1 0 0 1 18557 14922)" fill="rgb(0,0,0)" stroke="none" stroke-width="1"/></g><g id="eW4Zntjbmg540" transform="matrix(1 0 0 1 44.88100000000000 60.35800000000000)" opacity="0"><circle id="eW4Zntjbmg541" r="78.509000" transform="matrix(1 0 0 1 66.62800000000000 434.15100000000001)" fill="url(#eW4Zntjbmg541-fill)" stroke="none" stroke-width="1"/><path id="eW4Zntjbmg542" d="M-17288,-14515C-17294.092379,-14514.998643,-17300.169397,-14515.611069,-17306.139000,-14516.828000C-17311.929165,-14518.014595,-17317.587726,-14519.771151,-17323.032000,-14522.072000C-17328.383794,-14524.338404,-17333.503384,-14527.118060,-17338.319000,-14530.372000C-17343.098902,-14533.602724,-17347.559170,-14537.282781,-17351.639000,-14541.362000C-17355.717939,-14545.441723,-17359.397975,-14549.901632,-17362.629000,-14554.681000C-17365.883309,-14559.496745,-17368.662982,-14564.616703,-17370.929000,-14569.969000C-17373.232261,-14575.413081,-17374.988890,-14581.072548,-17376.173000,-14586.864000C-17377.391382,-14592.832353,-17378.003491,-14598.908557,-17378,-14605C-17378.002639,-14611.092213,-17377.389523,-14617.169095,-17376.170000,-14623.138000C-17374.985743,-14628.929090,-17373.229117,-14634.588211,-17370.926000,-14640.032000C-17368.660402,-14645.384499,-17365.880707,-14650.504497,-17362.626000,-14655.320000C-17359.394490,-14660.099314,-17355.714493,-14664.559510,-17351.636000,-14668.640000C-17347.555997,-14672.718731,-17343.095744,-14676.398440,-17338.316000,-14679.629000C-17333.500384,-14682.882940,-17328.380794,-14685.662596,-17323.029000,-14687.929000C-17317.584726,-14690.229849,-17311.926165,-14691.986405,-17306.136000,-14693.173000C-17300.167345,-14694.389395,-17294.091343,-14695.001484,-17288,-14695C-17281.907621,-14695.001357,-17275.830603,-14694.388931,-17269.861000,-14693.172000C-17264.070113,-14691.985691,-17258.410861,-14690.229129,-17252.966000,-14687.928000C-17247.614677,-14685.660619,-17242.495179,-14682.881013,-17237.679000,-14679.628000C-17232.899665,-14676.397719,-17228.440050,-14672.717984,-17224.361000,-14668.639000C-17220.281387,-14664.559528,-17216.601298,-14660.099220,-17213.371000,-14655.319000C-17210.115808,-14650.503792,-17207.336086,-14645.383746,-17205.071000,-14640.031000C-17202.768122,-14634.586946,-17201.010855,-14628.927917,-17199.825000,-14623.137000C-17198.608174,-14617.168107,-17197.996744,-14611.091662,-17198,-14605C-17197.997664,-14598.907903,-17198.610100,-14592.831118,-17199.828000,-14586.862000C-17201.013695,-14581.070718,-17202.770966,-14575.411341,-17205.074000,-14569.967000C-17207.339507,-14564.614457,-17210.119207,-14559.494451,-17213.374000,-14554.679000C-17216.603815,-14549.898727,-17220.283943,-14545.438707,-17224.364000,-14541.360000C-17228.443284,-14537.280976,-17232.902870,-14533.600930,-17237.682000,-14530.370000C-17242.498179,-14527.116987,-17247.617677,-14524.337381,-17252.969000,-14522.070000C-17258.413861,-14519.768871,-17264.073113,-14518.012309,-17269.864000,-14516.826000C-17275.832689,-14515.609941,-17281.908691,-14514.998187,-17288,-14515ZM-17288,-14680C-17298.027801,-14680.019530,-17307.956381,-14678.014835,-17317.191000,-14674.106000C-17321.650706,-14672.217194,-17325.917242,-14669.901409,-17329.931000,-14667.191000C-17333.913453,-14664.498162,-17337.630251,-14661.431971,-17341.031000,-14658.034000C-17344.428849,-14654.633409,-17347.494722,-14650.916591,-17350.187000,-14646.934000C-17352.897358,-14642.920746,-17355.213460,-14638.654911,-17357.103000,-14634.196000C-17361.012417,-14624.959703,-17363.018101,-14615.029576,-17363,-14605C-17363.019494,-14594.969393,-17361.015177,-14585.037944,-17357.107000,-14575.800000C-17355.217468,-14571.340768,-17352.901367,-14567.074601,-17350.191000,-14563.061000C-17347.499219,-14559.078037,-17344.433308,-14555.361173,-17341.035000,-14551.961000C-17337.634109,-14548.562589,-17333.917333,-14545.495748,-17329.935000,-14542.802000C-17325.920918,-14540.092126,-17321.654435,-14537.776370,-17317.195000,-14535.887000C-17307.958528,-14531.980407,-17298.028629,-14529.978102,-17288,-14530C-17277.969240,-14529.979972,-17268.037620,-14531.984663,-17258.800000,-14535.894000C-17254.340565,-14537.783370,-17250.074082,-14540.099126,-17246.060000,-14542.809000C-17242.076715,-14545.501475,-17238.359823,-14548.568414,-17234.960000,-14551.968000C-17231.560694,-14555.367807,-17228.494086,-14559.084704,-17225.802000,-14563.068000C-17223.091633,-14567.081601,-17220.775532,-14571.347768,-17218.886000,-14575.807000C-17214.977823,-14585.044944,-17212.973506,-14594.976393,-17212.993000,-14605.007000C-17212.974172,-14615.034955,-17214.978482,-14624.963658,-17218.886000,-14634.199000C-17220.775753,-14638.657808,-17223.091845,-14642.923623,-17225.802000,-14646.937000C-17228.494584,-14650.919923,-17231.561154,-14654.636775,-17234.960000,-14658.037000C-17238.360103,-14661.435683,-17242.076971,-14664.501932,-17246.060000,-14667.194000C-17250.073758,-14669.904409,-17254.340294,-14672.220194,-17258.800000,-14674.109000C-17268.037720,-14678.017677,-17277.969408,-14680.021361,-17288,-14680Z" transform="matrix(1 0 0 1 17355.09999999999854 15039.60000000000036)" fill="rgb(0,0,0)" stroke="none" stroke-width="1"/></g><g id="eW4Zntjbmg543" transform="matrix(1 0 0 1 44.88100000000000 60.35800000000000)" opacity="0"><path id="eW4Zntjbmg544" d="M62.807000,0C97.494348,0,125.614000,28.119652,125.614000,62.807000C125.614000,97.494348,97.494348,125.614000,62.807000,125.614000C28.119652,125.614000,0,97.494348,0,62.807000C0,46.149548,6.617147,30.174342,18.395744,18.395744C30.174342,6.617147,46.149548,0,62.807000,0Z" transform="matrix(1 0 0 1 392.11900000000003 751.64200000000005)" fill="url(#eW4Zntjbmg544-fill)" stroke="none" stroke-width="1"/><path id="eW4Zntjbmg545" d="M-17303,-14545C-17313.030826,-14544.980316,-17322.962443,-14546.985346,-17332.200000,-14550.895000C-17336.659493,-14552.782933,-17340.925448,-14555.098766,-17344.938000,-14557.810000C-17348.920934,-14560.502570,-17352.637787,-14563.569141,-17356.038000,-14566.968000C-17359.436241,-14570.368234,-17362.502146,-14574.085092,-17365.194000,-14578.068000C-17367.906588,-14582.080604,-17370.222807,-14586.347324,-17372.110000,-14590.808000C-17376.017094,-14600.043369,-17378.020408,-14609.972188,-17378,-14620C-17378.018827,-14630.028155,-17376.013809,-14639.956988,-17372.105000,-14649.192000C-17370.217807,-14653.652676,-17367.901588,-14657.919396,-17365.189000,-14661.932000C-17362.497146,-14665.914908,-17359.431241,-14669.631766,-17356.033000,-14673.032000C-17352.632787,-14676.430859,-17348.915934,-14679.497430,-17344.933000,-14682.190000C-17340.920448,-14684.901234,-17336.654493,-14687.217067,-17332.195000,-14689.105000C-17322.957443,-14693.014654,-17313.025826,-14695.019684,-17302.995000,-14695C-17292.964174,-14695.019684,-17283.032557,-14693.014654,-17273.795000,-14689.105000C-17269.335507,-14687.217067,-17265.069552,-14684.901234,-17261.057000,-14682.190000C-17257.073693,-14679.497929,-17253.356795,-14676.431320,-17249.957000,-14673.032000C-17246.558759,-14669.631766,-17243.492854,-14665.914908,-17240.801000,-14661.932000C-17238.088412,-14657.919396,-17235.772193,-14653.652676,-17233.885000,-14649.192000C-17229.979621,-14639.956275,-17227.978010,-14630.027469,-17228,-14620C-17227.981173,-14609.971845,-17229.986191,-14600.043012,-17233.895000,-14590.808000C-17235.782193,-14586.347324,-17238.098412,-14582.080604,-17240.811000,-14578.068000C-17243.502854,-14574.085092,-17246.568759,-14570.368234,-17249.967000,-14566.968000C-17253.367213,-14563.569141,-17257.084066,-14560.502570,-17261.067000,-14557.810000C-17265.079552,-14555.098766,-17269.345507,-14552.782933,-17273.805000,-14550.895000C-17283.041007,-14546.986006,-17292.970857,-14544.980989,-17303,-14545ZM-17303,-14680C-17311.022919,-14680.015489,-17318.966462,-14678.411815,-17326.355000,-14675.285000C-17329.922167,-14673.773771,-17333.335015,-14671.921503,-17336.546000,-14669.754000C-17339.731631,-14667.599550,-17342.704733,-14665.146464,-17345.425000,-14662.428000C-17348.143447,-14659.707356,-17350.596528,-14656.733924,-17352.751000,-14653.548000C-17354.919592,-14650.338028,-17356.771920,-14646.925404,-17358.282000,-14643.358000C-17361.409871,-14635.968632,-17363.014560,-14628.024096,-17363,-14620C-17363.015190,-14611.977434,-17361.411525,-14604.034277,-17358.285000,-14596.646000C-17356.775340,-14593.078394,-17354.922990,-14589.665730,-17352.754000,-14586.456000C-17350.600025,-14583.269705,-17348.146906,-14580.296227,-17345.428000,-14577.576000C-17342.707999,-14574.857243,-17339.734868,-14572.404134,-17336.549000,-14570.250000C-17333.338224,-14568.081874,-17329.925347,-14566.229255,-17326.358000,-14564.718000C-17318.968746,-14561.589760,-17311.024134,-14559.985056,-17303,-14560C-17294.977081,-14559.984511,-17287.033538,-14561.588185,-17279.645000,-14564.715000C-17276.077653,-14566.226255,-17272.664776,-14568.078874,-17269.454000,-14570.247000C-17266.268132,-14572.401134,-17263.295001,-14574.854243,-17260.575000,-14577.573000C-17257.855846,-14580.293002,-17255.402706,-14583.266504,-17253.249000,-14586.453000C-17251.080010,-14589.662730,-17249.227660,-14593.075394,-17247.718000,-14596.643000C-17244.590050,-14604.031993,-17242.985355,-14611.976218,-17243,-14620C-17242.984895,-14628.022881,-17244.588553,-14635.966348,-17247.715000,-14643.355000C-17249.225080,-14646.922404,-17251.077408,-14650.335028,-17253.246000,-14653.545000C-17255.400472,-14656.730924,-17257.853553,-14659.704356,-17260.572000,-14662.425000C-17263.292267,-14665.143464,-17266.265369,-14667.596550,-17269.451000,-14669.751000C-17272.661985,-14671.918503,-17276.074833,-14673.770771,-17279.642000,-14675.282000C-17287.031254,-14678.410240,-17294.975866,-14680.014944,-17303,-14680Z" transform="matrix(1 0 0 1 17758.09999999999854 15434.60000000000036)" fill="rgb(0,0,0)" stroke="none" stroke-width="1"/></g><g id="eW4Zntjbmg546" transform="matrix(1 0 0 1 44.88100000000000 60.35800000000000)" opacity="0"><circle id="eW4Zntjbmg547" r="78.509000" transform="matrix(1 0 0 1 832.19799999999998 439.65199999999999)" fill="url(#eW4Zntjbmg547-fill)" stroke="none" stroke-width="1"/><path id="eW4Zntjbmg548" d="M-17288,-14515C-17294.092379,-14514.998643,-17300.169397,-14515.611069,-17306.139000,-14516.828000C-17311.929165,-14518.014595,-17317.587726,-14519.771151,-17323.032000,-14522.072000C-17328.383794,-14524.338404,-17333.503384,-14527.118060,-17338.319000,-14530.372000C-17343.098902,-14533.602724,-17347.559170,-14537.282781,-17351.639000,-14541.362000C-17355.717939,-14545.441723,-17359.397975,-14549.901632,-17362.629000,-14554.681000C-17365.883309,-14559.496745,-17368.662982,-14564.616703,-17370.929000,-14569.969000C-17373.232261,-14575.413081,-17374.988890,-14581.072548,-17376.173000,-14586.864000C-17377.391382,-14592.832353,-17378.003491,-14598.908557,-17378,-14605C-17378.002639,-14611.092213,-17377.389523,-14617.169095,-17376.170000,-14623.138000C-17374.985743,-14628.929090,-17373.229117,-14634.588211,-17370.926000,-14640.032000C-17368.660402,-14645.384499,-17365.880707,-14650.504497,-17362.626000,-14655.320000C-17359.394490,-14660.099314,-17355.714493,-14664.559510,-17351.636000,-14668.640000C-17347.555997,-14672.718731,-17343.095744,-14676.398440,-17338.316000,-14679.629000C-17333.500384,-14682.882940,-17328.380794,-14685.662596,-17323.029000,-14687.929000C-17317.584726,-14690.229849,-17311.926165,-14691.986405,-17306.136000,-14693.173000C-17300.167345,-14694.389395,-17294.091343,-14695.001484,-17288,-14695C-17281.907621,-14695.001357,-17275.830603,-14694.388931,-17269.861000,-14693.172000C-17264.070113,-14691.985691,-17258.410861,-14690.229129,-17252.966000,-14687.928000C-17247.614677,-14685.660619,-17242.495179,-14682.881013,-17237.679000,-14679.628000C-17232.899665,-14676.397719,-17228.440050,-14672.717984,-17224.361000,-14668.639000C-17220.281387,-14664.559528,-17216.601298,-14660.099220,-17213.371000,-14655.319000C-17210.115808,-14650.503792,-17207.336086,-14645.383746,-17205.071000,-14640.031000C-17202.768122,-14634.586946,-17201.010855,-14628.927917,-17199.825000,-14623.137000C-17198.608174,-14617.168107,-17197.996744,-14611.091662,-17198,-14605C-17197.997664,-14598.907903,-17198.610100,-14592.831118,-17199.828000,-14586.862000C-17201.013695,-14581.070718,-17202.770966,-14575.411341,-17205.074000,-14569.967000C-17207.339507,-14564.614457,-17210.119207,-14559.494451,-17213.374000,-14554.679000C-17216.603815,-14549.898727,-17220.283943,-14545.438707,-17224.364000,-14541.360000C-17228.443284,-14537.280976,-17232.902870,-14533.600930,-17237.682000,-14530.370000C-17242.498179,-14527.116987,-17247.617677,-14524.337381,-17252.969000,-14522.070000C-17258.413861,-14519.768871,-17264.073113,-14518.012309,-17269.864000,-14516.826000C-17275.832689,-14515.609941,-17281.908691,-14514.998187,-17288,-14515ZM-17288,-14680C-17298.027801,-14680.019530,-17307.956381,-14678.014835,-17317.191000,-14674.106000C-17321.650706,-14672.217194,-17325.917242,-14669.901409,-17329.931000,-14667.191000C-17333.913453,-14664.498162,-17337.630251,-14661.431971,-17341.031000,-14658.034000C-17344.428849,-14654.633409,-17347.494722,-14650.916591,-17350.187000,-14646.934000C-17352.897358,-14642.920746,-17355.213460,-14638.654911,-17357.103000,-14634.196000C-17361.012417,-14624.959703,-17363.018101,-14615.029576,-17363,-14605C-17363.019494,-14594.969393,-17361.015177,-14585.037944,-17357.107000,-14575.800000C-17355.217468,-14571.340768,-17352.901367,-14567.074601,-17350.191000,-14563.061000C-17347.499219,-14559.078037,-17344.433308,-14555.361173,-17341.035000,-14551.961000C-17337.634109,-14548.562589,-17333.917333,-14545.495748,-17329.935000,-14542.802000C-17325.920918,-14540.092126,-17321.654435,-14537.776370,-17317.195000,-14535.887000C-17307.958528,-14531.980407,-17298.028629,-14529.978102,-17288,-14530C-17277.969240,-14529.979972,-17268.037620,-14531.984663,-17258.800000,-14535.894000C-17254.340565,-14537.783370,-17250.074082,-14540.099126,-17246.060000,-14542.809000C-17242.076715,-14545.501475,-17238.359823,-14548.568414,-17234.960000,-14551.968000C-17231.560694,-14555.367807,-17228.494086,-14559.084704,-17225.802000,-14563.068000C-17223.091633,-14567.081601,-17220.775532,-14571.347768,-17218.886000,-14575.807000C-17214.977823,-14585.044944,-17212.973506,-14594.976393,-17212.993000,-14605.007000C-17212.974172,-14615.034955,-17214.978482,-14624.963658,-17218.886000,-14634.199000C-17220.775753,-14638.657808,-17223.091845,-14642.923623,-17225.802000,-14646.937000C-17228.494584,-14650.919923,-17231.561154,-14654.636775,-17234.960000,-14658.037000C-17238.360103,-14661.435683,-17242.076971,-14664.501932,-17246.060000,-14667.194000C-17250.073758,-14669.904409,-17254.340294,-14672.220194,-17258.800000,-14674.109000C-17268.037720,-14678.017677,-17277.969408,-14680.021361,-17288,-14680Z" transform="matrix(1 0 0 1 18121.09999999999854 15044.60000000000036)" fill="rgb(0,0,0)" stroke="none" stroke-width="1"/></g><g id="eW4Zntjbmg549" opacity="0"><path id="eW4Zntjbmg550" d="M62.807000,0C97.494348,0,125.614000,28.119652,125.614000,62.807000C125.614000,97.494348,97.494348,125.614000,62.807000,125.614000C28.119652,125.614000,0,97.494348,0,62.807000C0,46.149548,6.617147,30.174342,18.395744,18.395744C30.174342,6.617147,46.149548,0,62.807000,0Z" transform="matrix(1 0 0 1 425.43200000000002 63)" fill="url(#eW4Zntjbmg550-fill)" stroke="none" stroke-width="1"/><path id="eW4Zntjbmg551" d="M-17303,-14545C-17313.030826,-14544.980316,-17322.962443,-14546.985346,-17332.200000,-14550.895000C-17336.659493,-14552.782933,-17340.925448,-14555.098766,-17344.938000,-14557.810000C-17348.920934,-14560.502570,-17352.637787,-14563.569141,-17356.038000,-14566.968000C-17359.436241,-14570.368234,-17362.502146,-14574.085092,-17365.194000,-14578.068000C-17367.906588,-14582.080604,-17370.222807,-14586.347324,-17372.110000,-14590.808000C-17376.017094,-14600.043369,-17378.020408,-14609.972188,-17378,-14620C-17378.018827,-14630.028155,-17376.013809,-14639.956988,-17372.105000,-14649.192000C-17370.217807,-14653.652676,-17367.901588,-14657.919396,-17365.189000,-14661.932000C-17362.497146,-14665.914908,-17359.431241,-14669.631766,-17356.033000,-14673.032000C-17352.632787,-14676.430859,-17348.915934,-14679.497430,-17344.933000,-14682.190000C-17340.920448,-14684.901234,-17336.654493,-14687.217067,-17332.195000,-14689.105000C-17322.957443,-14693.014654,-17313.025826,-14695.019684,-17302.995000,-14695C-17292.964174,-14695.019684,-17283.032557,-14693.014654,-17273.795000,-14689.105000C-17269.335507,-14687.217067,-17265.069552,-14684.901234,-17261.057000,-14682.190000C-17257.073693,-14679.497929,-17253.356795,-14676.431320,-17249.957000,-14673.032000C-17246.558759,-14669.631766,-17243.492854,-14665.914908,-17240.801000,-14661.932000C-17238.088412,-14657.919396,-17235.772193,-14653.652676,-17233.885000,-14649.192000C-17229.979621,-14639.956275,-17227.978010,-14630.027469,-17228,-14620C-17227.981173,-14609.971845,-17229.986191,-14600.043012,-17233.895000,-14590.808000C-17235.782193,-14586.347324,-17238.098412,-14582.080604,-17240.811000,-14578.068000C-17243.502854,-14574.085092,-17246.568759,-14570.368234,-17249.967000,-14566.968000C-17253.367213,-14563.569141,-17257.084066,-14560.502570,-17261.067000,-14557.810000C-17265.079552,-14555.098766,-17269.345507,-14552.782933,-17273.805000,-14550.895000C-17283.041007,-14546.986006,-17292.970857,-14544.980989,-17303,-14545ZM-17303,-14680C-17311.022919,-14680.015489,-17318.966462,-14678.411815,-17326.355000,-14675.285000C-17329.922167,-14673.773771,-17333.335015,-14671.921503,-17336.546000,-14669.754000C-17339.731631,-14667.599550,-17342.704733,-14665.146464,-17345.425000,-14662.428000C-17348.143447,-14659.707356,-17350.596528,-14656.733924,-17352.751000,-14653.548000C-17354.919592,-14650.338028,-17356.771920,-14646.925404,-17358.282000,-14643.358000C-17361.409871,-14635.968632,-17363.014560,-14628.024096,-17363,-14620C-17363.015190,-14611.977434,-17361.411525,-14604.034277,-17358.285000,-14596.646000C-17356.775340,-14593.078394,-17354.922990,-14589.665730,-17352.754000,-14586.456000C-17350.600025,-14583.269705,-17348.146906,-14580.296227,-17345.428000,-14577.576000C-17342.707999,-14574.857243,-17339.734868,-14572.404134,-17336.549000,-14570.250000C-17333.338224,-14568.081874,-17329.925347,-14566.229255,-17326.358000,-14564.718000C-17318.968746,-14561.589760,-17311.024134,-14559.985056,-17303,-14560C-17294.977081,-14559.984511,-17287.033538,-14561.588185,-17279.645000,-14564.715000C-17276.077653,-14566.226255,-17272.664776,-14568.078874,-17269.454000,-14570.247000C-17266.268132,-14572.401134,-17263.295001,-14574.854243,-17260.575000,-14577.573000C-17257.855846,-14580.293002,-17255.402706,-14583.266504,-17253.249000,-14586.453000C-17251.080010,-14589.662730,-17249.227660,-14593.075394,-17247.718000,-14596.643000C-17244.590050,-14604.031993,-17242.985355,-14611.976218,-17243,-14620C-17242.984895,-14628.022881,-17244.588553,-14635.966348,-17247.715000,-14643.355000C-17249.225080,-14646.922404,-17251.077408,-14650.335028,-17253.246000,-14653.545000C-17255.400472,-14656.730924,-17257.853553,-14659.704356,-17260.572000,-14662.425000C-17263.292267,-14665.143464,-17266.265369,-14667.596550,-17269.451000,-14669.751000C-17272.661985,-14671.918503,-17276.074833,-14673.770771,-17279.642000,-14675.282000C-17287.031254,-14678.410240,-17294.975866,-14680.014944,-17303,-14680Z" transform="matrix(1 0 0 1 17791.40000000000146 14746)" fill="rgb(0,0,0)" stroke="none" stroke-width="1"/></g></g><g id="eW4Zntjbmg552" transform="matrix(0.08866089883824 0 0 0.08866089883824 191.88725871146755 274.55564323792913)"><g id="eW4Zntjbmg553" transform="matrix(1 0 0 1 976.11500000000001 136.79800000000000)"><g id="eW4Zntjbmg554"><path id="eW4Zntjbmg555" d="M4765.773000,2455.292000C4765.773000,2998.537000,4586.243000,3499.856000,4283.260000,3903.136000C3843.059000,4489.078000,3198.400000,4767.700000,2409.100000,4767.700000C1076.550000,4767.700000,52.429000,3787.846000,52.429000,2455.300000C52.429000,1682.224000,303.766000,994.064000,869.275000,552.483000C1278.515000,232.913000,1793.508000,42.500000,2352.981000,42.500000C3685.531000,42.500000,4765.773000,1122.741000,4765.773000,2455.292000Z" transform="matrix(1 0 0 1 188.19900000000001 17.84700000000000)" fill="url(#eW4Zntjbmg555-fill)" stroke="none" stroke-width="1"/><path id="eW4Zntjbmg556" d="M4466.555000,3422.487000C4034.400000,4073.206000,3294.967000,4502.087000,2455.292000,4502.087000C1122.775000,4502.084000,42.500000,3421.809000,42.500000,2089.293000C42.500000,1249.619000,471.378000,510.185000,1122.100000,78.030000C868.387000,459.900000,720.568000,918.269000,720.568000,1411.225000C720.568000,2743.742000,1800.844000,3824.017000,3133.361000,3824.017000C3626.316000,3824.017000,4084.690000,3676.200000,4466.555000,3422.487000Z" transform="matrix(1 0 0 1 85.88800000000001 399.51900000000001)" fill="url(#eW4Zntjbmg556-fill)" stroke="none" stroke-width="1"/><path id="eW4Zntjbmg557" d="M1524.453000,992.591000C1263.720000,589.392000,896.888000,268.169000,463.641000,63.664000C420.201871,43.162914,368.368086,61.757871,347.867000,105.197000C327.365914,148.636129,345.960871,200.469914,389.400000,220.971000C1221.878000,613.942000,1759.794000,1462.388000,1759.794000,2382.500000C1759.945037,2603.426948,1729.513226,2823.311415,1669.365000,3035.893000C1660.706383,3065.841453,1668.739571,3098.133568,1690.420936,3120.534458C1712.102301,3142.935348,1744.115044,3152.018140,1774.330126,3144.341531C1804.545207,3136.664923,1828.340345,3113.403275,1836.700000,3083.370000C1901.238575,2855.345321,1933.895294,2619.482978,1933.740000,2382.501000C1933.740000,1887.249000,1792.217000,1406.632000,1524.452000,992.590000Z" transform="matrix(1 0 0 1 3141.53000000000020 180.32599999999999)" fill="rgb(0,0,0)" stroke="none" stroke-width="1"/><path id="eW4Zntjbmg558" d="M4823.750000,3543.470000C4780.788501,3523.117211,4729.462035,3541.443039,4709.106000,3584.403000C4319.578000,4406.700000,3480.482000,4938.030000,2571.415000,4938.030000C1267.756000,4938.030000,207.155000,3876.921000,207.155000,2572.630000C207.155000,1268.339000,1267.755000,207.230000,2571.415000,207.230000C2786.734021,207.081879,3001.067486,236.298404,3208.491000,294.072000C3254.299706,306.853526,3301.796474,280.079706,3314.578000,234.271000C3327.359526,188.462294,3300.585706,140.965526,3254.777000,128.184000C3032.285269,66.200129,2802.379387,34.849908,2571.415000,35C1893.915000,35,1256.967000,298.960000,777.894000,778.251000C298.821000,1257.542000,35,1894.810000,35,2572.634000C35,3250.458000,298.833000,3887.714000,777.894000,4367.017000C1256.955000,4846.320000,1893.915000,5110.268000,2571.415000,5110.268000C3060.862000,5110.268000,3535.975000,4970.504000,3945.372000,4706.060000C4344.013000,4448.566000,4661.914000,4086.212000,4864.679000,3658.167000C4885.036628,3615.190556,4866.715611,3563.847482,4823.750000,3543.467000Z" transform="matrix(1 0 0 1 -35 -35)" fill="rgb(0,0,0)" stroke="none" stroke-width="1"/></g><g id="eW4Zntjbmg559" transform="matrix(1 0 0 1 3603.07999999999993 3505.53000000000020)"><path id="eW4Zntjbmg560" d="M687.448000,519.131000C687.478179,543.897679,682.744884,568.439046,673.506000,591.418000C644.864000,662.559000,575.196000,676.324000,493.806000,676.324000C386.858000,676.324000,356.145000,627.847000,356.145000,520.908000C356.145000,427.330000,366.545000,347.492000,454.783000,329.433000C467.626445,326.811645,480.701776,325.493960,493.810000,325.500000C600.757000,325.492000,687.448000,412.184000,687.448000,519.131000Z" transform="matrix(1 0 0 1 -203.98500000000001 -244.35900000000001)" fill="rgb(212,207,213)" stroke="none" stroke-width="1"/><path id="eW4Zntjbmg561" d="M722.718000,588.258000C693.278596,661.609724,622.177937,709.675588,543.139000,709.658000C436.217000,709.658000,349.500000,622.942000,349.500000,516.019000C349.487110,423.142937,415.459358,343.355399,506.684000,325.919000C497.360477,348.858666,492.585241,373.392036,492.624000,398.154000C492.624000,505.077000,579.340000,591.793000,686.263000,591.793000C698.501403,591.817517,710.712318,590.633439,722.718000,588.258000Z" transform="matrix(1 0 0 1 -261.14999999999998 -249.08600000000001)" fill="rgb(197,190,198)" stroke="none" stroke-width="1"/><path id="eW4Zntjbmg562" d="M270.150000,109.051000C181.320000,109.051000,109.050000,181.320000,109.050000,270.151000C109.050000,358.982000,181.319000,431.251000,270.150000,431.251000C352.550000,431.251000,421.315000,370.305000,430.120000,289.439000C430.853666,283.036242,431.230582,276.597628,431.249000,270.153000C431.249000,181.323000,358.980000,109.053000,270.149000,109.053000M270.150000,0C419.350000,0,540.300000,120.950000,540.300000,270.150000C540.287174,280.553581,539.694589,290.948364,538.525000,301.286000C523.966000,435.014000,409.353000,540.300000,270.150000,540.300000C120.950000,540.300000,0,419.350000,0,270.150000C0,120.950000,120.950000,0,270.150000,0Z" fill="rgb(0,0,0)" stroke="none" stroke-width="1"/></g><g id="eW4Zntjbmg563" transform="matrix(1 0 0 1 835.01900000000001 3284.94000000000005)"><path id="eW4Zntjbmg564" d="M558.871000,426.189000C558.914945,458.302943,552.497272,490.097481,540,519.680000C503.535000,605.889000,419.248000,631.615000,319.759000,631.615000C187.105000,631.615000,125.427000,568.325000,125.427000,435.671000C125.427000,336.561000,138.517000,241.996000,224.195000,205.298000C254.056065,192.524236,286.203537,185.958444,318.682000,186C451.336000,186,558.871000,293.535000,558.871000,426.189000Z" transform="matrix(1 0 0 1 -33.23900000000000 -95.21800000000000)" fill="rgb(212,207,213)" stroke="none" stroke-width="1"/><path id="eW4Zntjbmg565" d="M579.100000,504.457000C541.247885,592.848588,454.344370,650.162319,358.189000,650.150000C225.516000,650.150000,118,542.634000,118,409.961000C117.987852,313.805390,175.302021,226.901809,263.694000,189.050000C250.939707,218.921003,244.381303,251.070043,244.416000,283.550000C244.416000,416.223000,351.932000,523.739000,484.605000,523.739000C517.083549,523.771756,549.230833,517.212003,579.100000,504.457000Z" transform="matrix(1 0 0 1 -34.96100000000000 -98.26900000000001)" fill="rgb(197,190,198)" stroke="none" stroke-width="1"/><path id="eW4Zntjbmg566" d="M313.588000,109.051000C200.806000,109.051000,109.051000,200.806000,109.051000,313.588000C109.051000,426.370000,200.806000,518.125000,313.588000,518.125000C426.370000,518.125000,518.125000,426.370000,518.125000,313.588000C518.125000,200.806000,426.371000,109.051000,313.588000,109.051000M313.588000,0C486.778000,0,627.176000,140.400000,627.176000,313.588000C627.176000,486.776000,486.776000,627.176000,313.588000,627.176000C140.400000,627.176000,0,486.779000,0,313.588000C0,140.397000,140.400000,0,313.588000,0Z" fill="rgb(0,0,0)" stroke="none" stroke-width="1"/></g><g id="eW4Zntjbmg567" transform="matrix(1 0 0 1 3761.73000000000002 2186.07000000000016)"><path id="eW4Zntjbmg568" d="M333.022000,0C391.300000,0,449.580000,216.464000,449.580000,216.464000C449.580000,216.464000,666.044000,274.743000,666.044000,333.022000C666.044000,360.763000,616.999000,388.503000,563.594000,410.792000C509.016000,433.578000,449.580000,449.580000,449.580000,449.580000C449.580000,449.580000,391.300000,666.044000,333.022000,666.044000C274.744000,666.044000,216.464000,449.580000,216.464000,449.580000C216.464000,449.580000,0,391.300000,0,333.022000C0,274.744000,216.464000,216.464000,216.464000,216.464000C216.464000,216.464000,274.743000,0,333.022000,0Z" transform="matrix(1 0 0 1 0.00700000000000 0)" fill="url(#eW4Zntjbmg568-fill)" stroke="none" stroke-width="1"/><path id="eW4Zntjbmg569" d="M333.022000,134.900000C319.186371,168.651636,307.431028,203.219023,297.822000,238.408000L285.138000,285.187000L238.412000,297.818000C203.223023,307.427028,168.655636,319.182371,134.904000,333.018000C168.655646,346.853603,203.223031,358.608945,238.412000,368.218000L285.191000,380.902000L297.822000,427.628000C307.431026,462.816978,319.186369,497.384365,333.022000,531.136000C346.857603,497.384354,358.612945,462.816969,368.222000,427.628000L380.879000,380.805000L427.673000,368.205000C428.213000,368.059000,482.273000,353.420000,531.139000,333.021000L531.139000,333.021000C497.385987,319.185409,462.817272,307.430069,427.627000,297.821000L380.848000,285.137000L368.217000,238.411000C358.607945,203.222031,346.852603,168.654646,333.017000,134.903000M333.017000,0.003000C391.300000,0,449.580000,216.464000,449.580000,216.464000C449.580000,216.464000,666.044000,274.743000,666.044000,333.022000C666.044000,360.762000,616.999000,388.503000,563.594000,410.792000C509.016000,433.578000,449.580000,449.580000,449.580000,449.580000C449.580000,449.580000,391.300000,666.044000,333.022000,666.044000C274.744000,666.044000,216.464000,449.580000,216.464000,449.580000C216.464000,449.580000,0,391.300000,0,333.022000C0,274.744000,216.464000,216.464000,216.464000,216.464000C216.464000,216.464000,274.743000,0,333.022000,0Z" fill="rgb(0,0,0)" stroke="none" stroke-width="1"/></g><g id="eW4Zntjbmg570" transform="matrix(1 0 0 1 387.67200000000003 1623.14000000000010)"><path id="eW4Zntjbmg571" d="M457.890000,0C538.021000,0,618.152000,297.628000,618.152000,297.628000C618.152000,297.628000,915.780000,377.759000,915.780000,457.890000C915.780000,496.032000,848.345000,534.174000,774.917000,564.820000C699.874000,596.150000,618.152000,618.152000,618.152000,618.152000C618.152000,618.152000,538.021000,915.780000,457.890000,915.780000C377.759000,915.780000,297.628000,618.151000,297.628000,618.151000C297.628000,618.151000,0,538.021000,0,457.890000C0,377.759000,297.629000,297.628000,297.629000,297.628000C297.629000,297.628000,377.759000,0,457.890000,0Z" transform="matrix(1 0 0 1 0 0.00400000000000)" fill="url(#eW4Zntjbmg571-fill)" stroke="none" stroke-width="1"/><path id="eW4Zntjbmg572" d="M457.890000,121.734000C433.438000,168.810000,403.683000,247.146000,383.776000,320.858000L370.363000,370.406000L320.858000,383.776000C247.146000,403.683000,168.810000,433.438000,121.734000,457.890000C168.810000,482.342000,247.146000,512.100000,320.858000,532L370.441000,545.400000L383.784000,594.960000C403.623000,668.640000,433.377000,747,457.870000,794.085000C482.326000,747.014000,512.092000,668.653000,532,594.922000L545.400000,545.339000L594.956000,532C595.716000,531.800000,671.756000,511.200000,740.556000,482.484000C763.156000,473.052000,780.512000,464.767000,793.773000,457.750000C746.667000,433.326000,668.492000,403.650000,594.927000,383.780000L545.379000,370.367000L532,320.858000C512.100000,247.146000,482.342000,168.810000,457.890000,121.734000M457.890000,0C538.021000,0,618.152000,297.629000,618.152000,297.629000C618.152000,297.629000,915.780000,377.759000,915.780000,457.890000C915.780000,496.032000,848.345000,534.174000,774.917000,564.820000C699.874000,596.149000,618.152000,618.152000,618.152000,618.152000C618.152000,618.152000,538.021000,915.780000,457.890000,915.780000C377.759000,915.780000,297.629000,618.152000,297.629000,618.152000C297.629000,618.152000,0,538.021000,0,457.890000C0,377.759000,297.629000,297.629000,297.629000,297.629000C297.629000,297.629000,377.759000,0,457.890000,0Z" fill="rgb(0,0,0)" stroke="none" stroke-width="1"/></g></g><g id="eW4Zntjbmg573" transform="matrix(1 0 0 1 2124.71999999999980 614.14400000000001)"><g id="eW4Zntjbmg574" transform="matrix(1 0 0 1 756.66200000000003 2140.07999999999993)"><path id="eW4Zntjbmg575" d="M-1580.217000,-2340.045000L-1719.471000,-1511.900000L-495.461000,-1513.245000L-619.316000,-2340.045000Z" transform="matrix(1 0 0 1 1737.02999999999997 2340.03999999999996)" fill="url(#eW4Zntjbmg575-fill)" stroke="rgb(112,112,112)" stroke-width="1"/><path id="eW4Zntjbmg576" d="M-18489.467000,2183.931000L-19644.860000,2183.931000L-19675.385000,2085.416000L-19553.754000,1290.340000L-19433.054000,1316.052000L-19553.754000,2085.417000L-18459.281000,2085.417000L-18573.552000,1316.052000L-18452.852000,1290.340000L-18387.301000,1730.255000L-18334.637000,2083.700000L-18334.170000,2083.693000L-18342.524000,2183.932000Z" transform="matrix(1 0 0 1 19633.59999999999854 -1284.03999999999996)" fill="rgb(0,0,0)" stroke="none" stroke-width="1"/></g><g id="eW4Zntjbmg577" transform="matrix(1 0 0 1 1653.17000000000007 0.00100000000000)"><circle id="eW4Zntjbmg578" r="562.161000" transform="matrix(1 0 0 1 562.16099999999994 562.16099999999994)" fill="url(#eW4Zntjbmg578-fill)" stroke="none" stroke-width="1"/><path id="eW4Zntjbmg579" d="M564.243000,123.922000C321.449000,123.922000,123.922000,321.449000,123.922000,564.243000C123.922000,807.037000,321.449000,1004.564000,564.243000,1004.564000C807.037000,1004.564000,1004.564000,807.037000,1004.564000,564.243000C1004.564000,321.449000,807.037000,123.922000,564.243000,123.922000M564.243000,0C875.866000,0,1128.486000,252.620000,1128.486000,564.243000C1128.486000,875.866000,875.866000,1128.486000,564.243000,1128.486000C252.620000,1128.486000,0,875.866000,0,564.243000C0,252.620000,252.620000,0,564.243000,0Z" transform="matrix(1 0 0 1 0 0.79100000000000)" fill="rgb(0,0,0)" stroke="none" stroke-width="1"/></g><g id="eW4Zntjbmg580"><circle id="eW4Zntjbmg581" r="564.243000" transform="matrix(1 0 0 1 564.24300000000005 564.24400000000003)" fill="url(#eW4Zntjbmg581-fill)" stroke="none" stroke-width="1"/><path id="eW4Zntjbmg582" d="M564.243000,123.922000C321.449000,123.922000,123.922000,321.449000,123.922000,564.243000C123.922000,807.037000,321.449000,1004.564000,564.243000,1004.564000C807.037000,1004.564000,1004.564000,807.037000,1004.564000,564.243000C1004.564000,321.449000,807.037000,123.922000,564.243000,123.922000M564.243000,0C875.866000,0,1128.486000,252.620000,1128.486000,564.243000C1128.486000,875.866000,875.866000,1128.486000,564.243000,1128.486000C252.620000,1128.486000,0,875.866000,0,564.243000C0,252.620000,252.620000,0,564.243000,0Z" fill="rgb(0,0,0)" stroke="none" stroke-width="1"/></g><g id="eW4Zntjbmg583" transform="matrix(1 0 0 1 536.15999999999997 569.55399999999997)"><path id="eW4Zntjbmg584" d="M351.775000,276.192000C351.775000,276.192000,716.412000,155.940000,1057.775000,163.698000C1399.138000,171.456000,1748.256000,276.192000,1748.256000,276.192000C1748.256000,276.192000,1845.234000,594.279000,1845.234000,927.882000C1845.234000,1261.485000,1748.256000,1610.605000,1748.256000,1610.605000C1748.256000,1610.605000,1391.378000,1719.220000,1057.775000,1719.220000C724.172000,1719.220000,351.775000,1610.605000,351.775000,1610.605000C351.775000,1610.605000,258.675000,1249.848000,262.556000,927.882000C266.437000,605.916000,351.775000,276.192000,351.775000,276.192000Z" transform="matrix(1 0 0 1 -202.95400000000001 -103.85500000000000)" fill="url(#eW4Zntjbmg584-fill)" stroke="none" stroke-width="1"/><path id="eW4Zntjbmg585" d="M857.547000,1677.583000C754.602000,1677.583000,638.257000,1667.948000,511.747000,1648.947000C419.734000,1635.127000,324.259000,1616.706000,227.975000,1594.195000C186.259000,1584.441000,157.575000,1570.795000,140.867000,1561.073000C122.746000,1550.527000,114.407000,1542.194000,114.325000,1542.111000C114.243000,1542.028000,106.069000,1532.319000,95.732000,1511.531000C86.213000,1492.389000,72.896000,1459.700000,63.507000,1412.674000C45.384000,1321.914000,30.787000,1231.934000,20.123000,1145.235000C5.700000,1028.030000,-1.026000,920.068000,0.126000,824.349000C3.106000,577.108000,50.526000,325.680000,78.520000,197.812000C83.909000,173.195000,91.561000,156.654000,97.031000,147.112000C102.979000,136.738000,107.671000,132.199000,107.718000,132.154000C107.765000,132.109000,111.930000,127.190000,122.228000,120.571000C131.671000,114.501000,148.299000,105.771000,173.887000,98.645000C235.624000,81.456000,333.322000,56.681000,448.159000,36.268000C583.550000,12.200000,709.659000,0,822.982000,0C834.582000,0,846.208000,0.131000,857.546000,0.388000C1118.171000,6.315000,1383.461000,64.711000,1518.400000,98.988000C1545.360000,105.836000,1563.050000,113.843000,1573.142000,119.353000C1584,125.282000,1588.695000,129.731000,1588.742000,129.775000C1588.789000,129.819000,1594.186000,134.557000,1600.959000,144.993000C1607.216000,154.636000,1615.976000,171.265000,1622.175000,195.723000C1636.935000,253.954000,1658.195000,346.598000,1675.661000,457.266000C1696.188000,587.324000,1706.596000,710.826000,1706.596000,824.344000C1706.596000,924.611000,1698.367000,1036.169000,1682.137000,1155.916000C1672.495000,1227.067000,1659.913000,1301.233000,1644.743000,1376.353000C1640.327000,1398.226000,1635.721000,1419.965000,1630.659000,1442.814000C1622.383000,1480.155000,1610.953000,1506.074000,1602.822000,1521.241000C1593.992000,1537.713000,1587.069000,1545.380000,1587,1545.455000C1586.931000,1545.530000,1579.153000,1552.796000,1562.270000,1562.207000C1546.663000,1570.907000,1519.836000,1583.287000,1480.658000,1592.864000C1417.178000,1608.381000,1317.814000,1630.558000,1204.941000,1648.090000C1078.966000,1667.662000,962.086000,1677.583000,857.547000,1677.583000ZM827.131000,115.400000C744.860000,115.400000,654.290000,122.907000,557.937000,137.709000C485.531000,148.833000,411.029000,163.847000,336.500000,182.335000C253.431000,202.941000,208.127000,222.187000,207.679000,222.378000C207.634000,222.486000,202.707000,234.064000,195.879000,255.122000C186.631499,283.950848,179.052279,313.288439,173.179000,342.989000C148.972000,464.525000,119.660000,647.040000,117.500000,826.334000C116.492000,909.947000,122.452000,1004.354000,135.215000,1106.934000C144.595000,1182.318000,157.385000,1260.434000,173.231000,1339.103000C181.077000,1378.060000,190.724000,1405.858000,197.431000,1422.318000C204.731000,1440.218000,210.189000,1448.885000,210.243000,1448.971000C210.343000,1449.035000,220.467000,1455.781000,239.543000,1464.459000C257.285000,1472.528000,286.752000,1484.059000,326.372000,1493.147000C408.717000,1512.047000,489.998000,1527.423000,567.957000,1538.860000C673.483000,1554.341000,770.714000,1562.190000,856.949000,1562.190000C941.128000,1562.190000,1034.782000,1554.715000,1135.310000,1539.973000C1210.244000,1528.984000,1287.589000,1514.217000,1365.196000,1496.083000C1407.849000,1486.116000,1439.474000,1475.443000,1458.496000,1468.245000C1478.996000,1460.484000,1489.762000,1454.931000,1489.865000,1454.877000C1489.918000,1454.777000,1495.727000,1443.677000,1503.483000,1423.193000C1514.403342,1393.883085,1523.092757,1363.789706,1529.477000,1333.170000C1531.848000,1321.989000,1533.877000,1312.214000,1535.854000,1302.405000C1548.935000,1237.649000,1559.785000,1173.687000,1568.105000,1112.297000C1582.105000,1008.997000,1589.205000,912.786000,1589.205000,826.337000C1589.205000,647.113000,1559.215000,473.308000,1534.057000,359.063000C1524.297000,314.742000,1512.508000,281.710000,1504.336000,261.804000C1495.476000,240.221000,1488.852000,229.004000,1488.786000,228.895000C1488.686000,228.837000,1477.697000,222.647000,1456.317000,214.078000C1436.685000,206.210000,1404.117000,194.721000,1360.441000,184.670000C1233.978000,155.570000,1043.972000,119.985000,856.955000,115.735000C847.184000,115.509000,837.149000,115.400000,827.131000,115.400000Z" fill="rgb(0,0,0)" stroke="none" stroke-width="1"/></g><g id="eW4Zntjbmg586" transform="matrix(1 0 0 1 759.44500000000005 1350.23000000000002)"><path id="eW4Zntjbmg587" d="M502.700000,615.428000L502.700000,615.465000C558.219000,579.933000,607.232000,529.538000,657.846000,487.450000C690.356000,460.419000,701.335000,420.940000,687.210000,381.850000C662,312.085000,564.700000,261.446000,455.849000,261.446000C346.563000,261.446000,249.088000,311.692000,224.072000,380.916000C209.828000,420.316000,220.932000,460.144000,253.772000,487.443000C304.293000,529.443000,353.506000,579.951000,408.872000,615.427000L502.700000,615.464000C294.523000,610.943000,502.700000,615.428000,502.700000,615.428000ZM455.812000,533.410000C409.451000,494.869000,352.144000,458.661000,312.026000,413.665000C324.731000,367.365000,419.466000,355.294000,455.849000,355.294000C494.208000,355.294000,583.865000,367.374000,599.122000,414.159000C556.346000,457.786000,502.823000,494.325000,455.812000,533.410000Z" transform="matrix(1 0 0 1 170.53700000000001 12.26300000000000)" fill="rgb(0,0,0)" stroke="none" stroke-width="1"/><path id="eW4Zntjbmg588" d="M246.279000,217.692000C185.900000,217.692000,185.800000,311.526000,246.279000,311.526000C306.659000,311.527000,306.759000,217.692000,246.279000,217.692000Z" transform="matrix(1 0 0 1 81.03700000000001 -217.69200000000001)" fill="rgb(0,0,0)" stroke="none" stroke-width="1"/><path id="eW4Zntjbmg589" d="M341.875000,311.527000C402.254000,311.527000,402.355000,217.693000,341.875000,217.693000C281.500000,217.692000,281.400000,311.527000,341.875000,311.527000Z" transform="matrix(1 0 0 1 583.45500000000004 -217.69200000000001)" fill="rgb(0,0,0)" stroke="none" stroke-width="1"/><path id="eW4Zntjbmg590" d="M305.900000,408.677000C305.743096,426.931786,316.190583,443.619677,332.680000,451.453000L553.711000,556.460000C606.502000,581.539000,648.621000,497.660000,593.979000,471.703000L464.149000,410.028000L593.249000,351.381000C648.480000,326.290000,609.676000,240.875000,554.439000,265.948000L333.413000,366.364000C316.791047,373.914554,306.058020,390.421173,305.900000,408.677000Z" transform="matrix(1 0 0 1 632.57299999999998 11.97700000000000)" fill="rgb(0,0,0)" stroke="none" stroke-width="1"/><path id="eW4Zntjbmg591" d="M443.266000,371.307000L222.235000,266.300000C167.448000,240.257000,127.174000,325.028000,181.968000,351.058000L311.800000,412.732000L182.700000,471.378000C128.407000,496.044000,167.924000,581.133000,221.510000,556.811000L442.534000,456.400000C478.191000,440.200000,478.642000,388.120000,443.266000,371.311000Z" transform="matrix(1 0 0 1 -155.87899999999999 11.96300000000000)" fill="rgb(0,0,0)" stroke="none" stroke-width="1"/></g><g id="eW4Zntjbmg592" transform="matrix(1 0 0 1 1181.46000000000004 2189.46999999999980)"><path id="eW4Zntjbmg593" d="M451.079000,516L311.579000,516L223.100000,324.984000L539.557000,324.984000Z" transform="matrix(1 0 0 1 -178.11900000000000 -304.21100000000001)" fill="rgb(255,255,255)" stroke="none" stroke-width="1"/><path id="eW4Zntjbmg594" d="M427.646000,369.900000Q475.680000,369.900000,523.776000,367.760000L483.065000,506.555000L372.228000,506.555000L331.516000,367.761000Q379.644000,369.825000,427.646000,369.900000ZM231.826000,361.261000L292.080000,566.677000C297.940499,586.661451,316.273965,600.390375,337.100000,600.390000L518.200000,600.390000C539.026221,600.391523,557.360561,586.663370,563.222000,566.679000L623.476000,361.263000C706.679000,354.049000,148.627000,354.043000,231.826000,361.262000Z" transform="matrix(1 0 0 1 -223.34100000000001 -355.85000000000002)" fill="rgb(0,0,0)" stroke="none" stroke-width="1"/></g><path id="eW4Zntjbmg595" d="M439.600000,620.627000C439.600000,620.627000,439.629000,620.633000,432.148000,639.450000C424.667000,658.267000,424.441000,788.024000,432.148000,804.567000C439.855000,821.110000,440.138000,819.842000,440.138000,819.842000L556.119000,819.842000C556.119000,819.842000,557.593000,821.806000,564.762000,804.567000C571.931000,787.328000,574.762000,658.261000,564.762000,639.450000C554.762000,620.639000,554.550000,620.627000,554.550000,620.627000Z" transform="matrix(1 0 0 1 889.93700000000001 1326.86999999999989)" fill="rgb(0,0,0)" stroke="none" stroke-width="1"/></g><g id="eW4Zntjbmg596" transform="matrix(1 0 0 1 2602.92000000000007 3049.59000000000015)"><g id="eW4Zntjbmg597"><path id="eW4Zntjbmg598" d="M1631.520000,2433.973000C912.565000,1926.010000,691.277000,1480.568000,762.300000,732.357000C1134.112000,744.357000,1271.846000,733.239000,1609.076000,557.763000C1948.384000,734.470000,2084.500000,744.784000,2458.417000,731.980000C2529.486000,1480.399000,2350.717000,1932.516000,1631.517000,2440.671000" transform="matrix(1 0 0 1 -700.72100000000000 -504.85800000000000)" fill="url(#eW4Zntjbmg598-fill)" fill-rule="evenodd" stroke="none" stroke-width="1"/><path id="eW4Zntjbmg599" d="M-3368.263000,5224.858000L-3368.263000,5224.858000C-3368.657000,5224.576000,-3408.463000,5195.885000,-3469.242000,5147.296000C-3525.511000,5102.312000,-3611.958000,5030.459000,-3704.263000,4943.588000C-3808.035000,4845.932000,-3897.920000,4749.588000,-3971.429000,4657.224000C-4015.070000,4602.387000,-4053.358000,4548.355000,-4085.221000,4496.634000C-4120.264000,4439.748000,-4148.393000,4384.250000,-4168.836000,4331.686000C-4220.145000,4199.749000,-4253.981000,4051.330000,-4269.407000,3890.547000C-4275.240000,3829.787000,-4278.364000,3767.079000,-4278.700000,3704.162000C-4278.965000,3653.862000,-4277.454000,3603.307000,-4274.207000,3553.908000C-4268.713000,3470.322000,-4259.918000,3417.633000,-4259.832000,3417.108000C-4259.103000,3417.167000,-4181.054000,3423.354000,-4079.041000,3423.354000C-4017.973000,3423.354000,-3960.496000,3421.180000,-3908.214000,3416.892000C-3842.719000,3411.520000,-3785.294000,3402.799000,-3737.534000,3390.973000C-3688.172417,3378.620403,-3639.605015,3363.286949,-3592.099000,3345.057000C-3552.844000,3330.079000,-3513.417000,3312.981000,-3474.909000,3294.245000C-3409.617000,3262.474000,-3368.667000,3236.398000,-3368.259000,3236.139000C-3367.818000,3236.392000,-3321.516000,3262.912000,-3253.713000,3295.223000C-3213.921000,3314.184000,-3174.654000,3331.382000,-3137,3346.341000C-3089.928000,3365.041000,-3045.244000,3380.281000,-3004.189000,3391.634000C-2963.134000,3402.987000,-2909.719000,3411.363000,-2845.428000,3416.525000C-2793.999000,3420.655000,-2735.536000,3422.749000,-2671.665000,3422.749000C-2563.544000,3422.749000,-2475.143000,3416.593000,-2474.265000,3416.532000L-2474.242000,3416.666000C-2473.498000,3422.032000,-2469.593000,3451.188000,-2465.754000,3498.250000C-2461.902000,3545.464000,-2457.371000,3620.639000,-2457.654000,3710.655000C-2457.971000,3811.827000,-2464.184000,3910.736000,-2476.116000,4004.630000C-2491.033000,4121.998000,-2514.980000,4231.824000,-2547.296000,4331.054000C-2564.188000,4382.925000,-2589.742000,4437.869000,-2623.250000,4494.363000C-2653.708000,4545.721000,-2691.420000,4599.509000,-2735.341000,4654.243000C-2809.314000,4746.426000,-2902.029000,4842.936000,-3010.908000,4941.096000C-3064.378000,4989.302000,-3150.981000,5064.045000,-3259.908000,5146.376000C-3324.899000,5195.498000,-3367.834000,5224.567000,-3368.259000,5224.855000ZM-4170.800000,3518.834000C-4170.967000,3520.124000,-4174.830000,3550.267000,-4177.427000,3599.786000C-4180.933282,3669.065296,-4180.609789,3738.485390,-4176.458000,3807.729000C-4170.572000,3906.038000,-4157.165000,4001.106000,-4136.604000,4090.294000C-4110.904000,4201.770000,-4073.889000,4304.326000,-4026.587000,4395.111000C-3979.285000,4485.896000,-3915.049000,4579.264000,-3835.677000,4672.632000C-3772.177000,4747.332000,-3698.898000,4822.204000,-3617.877000,4895.156000C-3545.800000,4960.056000,-3480.798000,5011.409000,-3438.957000,5043.056000C-3393.257000,5077.627000,-3364.972000,5096.535000,-3364.698000,5096.717000C-3364.429000,5096.549000,-3332.350000,5076.629000,-3283.355000,5042.058000C-3237.787000,5009.907000,-3167.386000,4957.858000,-3090.775000,4892.494000C-3004.657000,4819.020000,-2928.403000,4744.040000,-2864.128000,4669.636000C-2825.963000,4625.457000,-2791.651000,4580.995000,-2762.148000,4537.483000C-2729.695000,4489.614000,-2702.255000,4441.713000,-2680.592000,4395.110000C-2639.153000,4305.949000,-2607.334000,4204.400000,-2586.021000,4093.276000C-2568.970000,4004.376000,-2558.565000,3909.192000,-2555.097000,3810.357000C-2552.010000,3722.436000,-2555.097000,3647.832000,-2558.236000,3600.728000C-2561.624000,3549.876000,-2565.817000,3519.064000,-2565.858000,3518.768000L-2565.947000,3518.779000C-2571.178000,3519.163000,-2619.017000,3522.537000,-2686.466000,3522.539000C-2781.766000,3522.539000,-2919.637000,3515.845000,-3035.295000,3483.946000C-3081.195000,3471.285000,-3127.252000,3456.385000,-3172.181000,3439.661000C-3208.121000,3426.281000,-3243.434000,3411.708000,-3277.136000,3396.344000C-3334.095000,3370.378000,-3367.725000,3350.563000,-3368.057000,3350.367000L-3368.092000,3350.389000C-3371.637000,3352.460000,-3404.312000,3371.346000,-3459.234000,3396.403000C-3492.928000,3411.773000,-3528.152000,3426.343000,-3563.913000,3439.712000C-3608.613000,3456.417000,-3654.313000,3471.284000,-3699.735000,3483.895000C-3814.629000,3515.795000,-3953.871000,3522.488000,-4050.446000,3522.488000C-4120.913000,3522.490000,-4170.300000,3518.870000,-4170.800000,3518.834000Z" transform="matrix(1 0 0 1 4278.72999999999956 -3236.13999999999987)" fill="rgb(0,0,0)" stroke="none" stroke-width="1"/></g><g id="eW4Zntjbmg5100" transform="matrix(1 0 0 1 0 0.68600000000000)"><path id="eW4Zntjbmg5101" d="M2103.623000,2068.900000C2721.752000,1283.788000,828.023000,1243.736000,1643.259000,557.759000C1292.891000,733.244000,1149.797000,744.351000,763.493000,732.359000C689.705000,1480.569000,897.664000,1932.704000,1644.620000,2440.659000C1829.250000,2315.087000,1996.964000,2172.103000,2119.620000,2048.019000" transform="matrix(1 0 0 1 -699.32899999999995 -494.09500000000003)" fill="url(#eW4Zntjbmg5101-fill)" fill-rule="evenodd" stroke="none" stroke-width="1"/><path id="eW4Zntjbmg5102" d="M-3368.023000,5221.712000C-3368.023000,5221.712000,-3557.810000,5074.970000,-3646.068000,5000.541000C-3745.297000,4916.868000,-3833.888000,4830.957000,-3909.386000,4745.199000C-3954.214000,4694.280000,-3994.857000,4642.852000,-4030.195000,4592.345000C-4069.063000,4536.790000,-4102.473000,4480.965000,-4129.488000,4426.424000C-4157.268130,4369.987520,-4180.846465,4311.578306,-4200.031000,4251.672000C-4218.517548,4193.906350,-4233.548474,4135.091293,-4245.044000,4075.539000C-4265.044000,3972.747000,-4276.258000,3863.071000,-4278.369000,3749.558000C-4279.855392,3669.376416,-4276.799499,3589.174997,-4269.216000,3509.339000C-4263.676000,3452.149000,-4260.330000,3415.239000,-4260.073000,3413.784000C-4259.300000,3413.803000,-4013.308000,3432.584000,-3807.813000,3401.642000C-3602.318000,3370.700000,-3368.543000,3234,-3367.888000,3233.660000L-3301.105000,3330.284000C-3301.200000,3330.353000,-3462.563000,3495.794000,-3477.514000,3526.600000C-3496.204000,3565.100000,-3495.676000,3594.400000,-3491.190000,3628.006000C-3486.711000,3661.575000,-3440.935000,3735.675000,-3440.906000,3735.713000C-3417.806000,3766.007000,-3387.030000,3797.403000,-3349.449000,3829.031000C-3309.507273,3862.430603,-3267.047914,3892.698443,-3222.449000,3919.565000C-3221.973000,3919.865000,-3172.802000,3950.336000,-3106.996000,3994.917000C-3045.862000,4036.328000,-2956.889000,4099.087000,-2880.187000,4162.889000C-2846.291623,4191.088560,-2815.864914,4223.213493,-2789.546000,4258.589000C-2768.528518,4286.844522,-2750.229434,4317.023797,-2734.893000,4348.724000C-2709.034000,4402.241000,-2701.033000,4441.543000,-2700.956000,4441.934000C-2700.850000,4442.512000,-2698.362000,4456.327000,-2697.916000,4479.789000C-2697.502000,4501.711000,-2675.306000,4594.832000,-2842.833000,4780.313000C-3010.360000,4965.794000,-3368.023000,5221.712000,-3368.023000,5221.712000ZM-4168.271000,3517.461000L-4168.271000,3517.461000C-4168.453000,3518.797000,-4172.750000,3550.747000,-4175.749000,3603.879000C-4179.761108,3677.271945,-4179.565120,3750.834475,-4175.162000,3824.205000C-4168.922000,3927.871000,-4154.400000,4027.411000,-4132,4120.061000C-4119.129373,4173.666885,-4102.987144,4226.434033,-4083.664000,4278.066000C-4063.668286,4331.487529,-4039.623767,4383.304731,-4011.740000,4433.066000C-3959.940000,4524.952000,-3892.021000,4617.855000,-3809.876000,4709.190000C-3744.155000,4782.268000,-3669.231000,4854.511000,-3587.190000,4923.913000C-3514.214000,4985.650000,-3368.023000,5119.892000,-3368.023000,5119.892000C-3368.023000,5119.892000,-3116.473000,4947.720000,-2923.433000,4749.470000C-2730.393000,4551.220000,-2810.822000,4420.377000,-2824.615000,4391.859000C-2847.846000,4343.822000,-2884.815000,4295.104000,-2934.487000,4247.054000C-2958.879000,4223.459000,-2999.760000,4187.254000,-3056,4148.773000C-3089.692000,4125.721000,-3113.119000,4112.689000,-3113.351000,4112.561000C-3113.844000,4112.249000,-3168.184000,4077.620000,-3239.087000,4031.166000C-3286.294000,4000.240000,-3356.216000,3953.116000,-3418.125000,3901.132000C-3449.791000,3874.544000,-3477.175000,3848.538000,-3499.513000,3823.840000C-3524.947000,3795.722000,-3544.683000,3768.373000,-3558.177000,3742.554000C-3568.599941,3722.761543,-3576.793775,3701.873320,-3582.608000,3680.273000C-3587.588410,3661.525021,-3590.531442,3642.294395,-3591.386000,3622.915000C-3592.747000,3591.509000,-3588.680000,3560.005000,-3578.947000,3526.601000C-3572.246521,3503.474210,-3562.862352,3481.211098,-3550.986000,3460.266000C-3542.338000,3445.174000,-3535.627000,3436.899000,-3535.493000,3436.736000C-3535.554082,3436.768461,-3535.618017,3436.795241,-3535.684000,3436.816000C-3542.036000,3439.232000,-3576.257000,3452.022000,-3626.184000,3466.488000C-3658.215000,3475.770000,-3690.349000,3483.910000,-3721.697000,3490.688000C-3760.878000,3499.158000,-3798.925000,3505.504000,-3834.778000,3509.550000C-3897.288000,3516.604000,-3969.893000,3520.180000,-4050.578000,3520.180000C-4117.803000,3520.180000,-4166.236000,3517.580000,-4168.265000,3517.467000Z" transform="matrix(1 0 0 1 4278.72999999999956 -3233.65999999999985)" fill="rgb(0,0,0)" stroke="none" stroke-width="1"/></g></g></g></svg>