<svg id="eksbXHhDOKN1" xmlns="http://www.w3.org/2000/svg" xmlns:xlink="http://www.w3.org/1999/xlink" viewBox="0 0 1000 1000" shape-rendering="geometricPrecision" text-rendering="geometricPrecision"><style><![CDATA[#eksbXHhDOKN25_tr {animation: eksbXHhDOKN25_tr__tr 3000ms linear infinite normal forwards}@keyframes eksbXHhDOKN25_tr__tr { 0% {transform: translate(757.576330px,199.778162px) rotate(0deg)} 66.666667% {transform: translate(757.576330px,199.778162px) rotate(180.123569deg)} 100% {transform: translate(757.576330px,199.778162px) rotate(180.123569deg)}} #eksbXHhDOKN42_to {animation: eksbXHhDOKN42_to__to 3000ms linear infinite normal forwards}@keyframes eksbXHhDOKN42_to__to { 0% {transform: translate(251.360434px,-197.970516px)} 56.666667% {transform: translate(245px,669px)} 100% {transform: translate(245px,669px)}} #eksbXHhDOKN62_to {animation: eksbXHhDOKN62_to__to 3000ms linear infinite normal forwards}@keyframes eksbXHhDOKN62_to__to { 0% {transform: translate(421px,-283.384099px)} 73.333333% {transform: translate(421px,745px)} 100% {transform: translate(421px,745px)}} #eksbXHhDOKN82_to {animation: eksbXHhDOKN82_to__to 3000ms linear infinite normal forwards}@keyframes eksbXHhDOKN82_to__to { 0% {transform: translate(552.608289px,-215.251474px)} 73.333333% {transform: translate(576px,599px)} 100% {transform: translate(576px,599px)}} #eksbXHhDOKN102_to {animation: eksbXHhDOKN102_to__to 3000ms linear infinite normal forwards}@keyframes eksbXHhDOKN102_to__to { 0% {transform: translate(598.599796px,-445.553586px)} 73.333333% {transform: translate(607px,715px)} 100% {transform: translate(607px,715px)}} #eksbXHhDOKN122_to {animation: eksbXHhDOKN122_to__to 3000ms linear infinite normal forwards}@keyframes eksbXHhDOKN122_to__to { 0% {transform: translate(397.589645px,-133.154534px)} 73.333333% {transform: translate(402px,596px)} 100% {transform: translate(402px,596px)}}]]></style><g id="eksbXHhDOKN2" clip-path="url(#eksbXHhDOKN143)"><g id="eksbXHhDOKN3"><g id="eksbXHhDOKN4" transform="matrix(1 0 0 1 35.42600000000000 35.42700000000000)"><path id="eksbXHhDOKN5" d="M7.500000,254.500000L909.425000,254.500000L909.425000,526.711000L7.500000,526.711000Z" transform="matrix(1 0 0 1 6.11100000000000 207.35100000000000)" fill="rgb(42,204,244)" stroke="none" stroke-width="1"/><path id="eksbXHhDOKN6" d="M474.500000,254.500000L528.942000,254.500000L528.942000,526.711000L474.500000,526.711000Z" transform="matrix(1 0 0 1 386.59399999999999 207.35100000000000)" fill="rgb(34,179,235)" stroke="none" stroke-width="1"/><path id="eksbXHhDOKN7" d="M7.500000,224.500000L909.425000,224.500000L909.425000,278.942000L7.500000,278.942000Z" transform="matrix(1 0 0 1 6.11100000000000 182.90899999999999)" fill="rgb(138,238,255)" stroke="none" stroke-width="1"/><path id="eksbXHhDOKN8" d="M474.500000,224.500000L528.942000,224.500000L528.942000,278.942000L474.500000,278.942000Z" transform="matrix(1 0 0 1 386.59399999999999 182.90899999999999)" fill="rgb(99,229,255)" stroke="none" stroke-width="1"/><path id="eksbXHhDOKN9" d="M143.442000,622.424000L89,622.424000L89,154.224000C89,139.190257,101.187257,127.003000,116.221000,127.003000C131.254743,127.003000,143.442000,139.190257,143.442000,154.224000Z" transform="matrix(1 0 0 1 72.51200000000000 103.47199999999999)" fill="rgb(241,241,241)" stroke="none" stroke-width="1"/><path id="eksbXHhDOKN10" d="M259.442000,622.424000L205,622.424000L205,154.224000C205,139.190257,217.187257,127.003000,232.221000,127.003000C247.254743,127.003000,259.442000,139.190257,259.442000,154.224000Z" transform="matrix(1 0 0 1 167.02199999999999 103.47199999999999)" fill="rgb(241,241,241)" stroke="none" stroke-width="1"/><path id="eksbXHhDOKN11" d="M909.425000,345.500000C871.840000,345.500000,871.840000,376.969000,834.253000,376.969000C796.666000,376.969000,796.668000,345.500000,759.081000,345.500000C721.494000,345.500000,721.500000,376.969000,683.920000,376.969000C646.340000,376.969000,646.339000,345.500000,608.758000,345.500000C571.177000,345.500000,571.178000,376.969000,533.597000,376.969000C496.016000,376.969000,496.017000,345.500000,458.437000,345.500000C420.857000,345.500000,420.863000,376.969000,383.287000,376.969000C345.711000,376.969000,345.707000,345.500000,308.130000,345.500000C270.553000,345.500000,270.550000,376.969000,232.969000,376.969000C195.388000,376.969000,195.389000,345.500000,157.809000,345.500000C120.229000,345.500000,120.231000,376.969000,82.653000,376.969000C45.075000,376.969000,45.076000,345.500000,7.500000,345.500000L7.500000,532.418000C7.499735,559.370799,18.206507,585.219772,37.264920,604.278373C56.323333,623.336974,82.172201,634.044000,109.125000,634.044000L807.800000,634.044000C834.752799,634.044000,860.601667,623.336974,879.660080,604.278373C898.718493,585.219772,909.425265,559.370799,909.425000,532.418000Z" transform="matrix(1 0 0 1 6.11100000000000 281.49200000000002)" fill="rgb(185,245,255)" stroke="none" stroke-width="1"/><g id="eksbXHhDOKN12" transform="matrix(1 0 0 1 13.61100000000000 626.99199999999996)"><path id="eksbXHhDOKN13" d="M288.923000,376.969000C301.087000,376.969000,309.306000,373.669000,316.144000,369.204000C301.857000,359.885000,293.621000,345.504000,268.206000,345.504000C256.042000,345.504000,247.825000,348.804000,240.987000,353.269000C255.273000,362.584000,263.510000,376.969000,288.923000,376.969000Z" transform="matrix(1 0 0 1 182.73099999999999 -345.50000000000000)" fill="rgb(138,238,255)" stroke="none" stroke-width="1"/><path id="eksbXHhDOKN14" d="M371.761000,376.969000C383.925000,376.969000,392.144000,373.669000,398.982000,369.206000C384.693000,359.887000,376.457000,345.500000,351.040000,345.500000C338.876000,345.500000,330.659000,348.800000,323.819000,353.265000C338.108000,362.582000,346.344000,376.969000,371.761000,376.969000Z" transform="matrix(1 0 0 1 250.21700000000001 -345.50000000000000)" fill="rgb(138,238,255)" stroke="none" stroke-width="1"/><path id="eksbXHhDOKN15" d="M206.100000,376.969000C218.264000,376.969000,226.481000,373.669000,233.319000,369.204000C219.033000,359.885000,210.796000,345.504000,185.383000,345.504000C173.219000,345.504000,165,348.804000,158.162000,353.269000C172.448000,362.584000,180.684000,376.969000,206.100000,376.969000Z" transform="matrix(1 0 0 1 115.24800000000000 -345.50000000000000)" fill="rgb(138,238,255)" stroke="none" stroke-width="1"/><path id="eksbXHhDOKN16" d="M454.600000,376.969000C466.764000,376.969000,474.983000,373.669000,481.821000,369.207000C467.532000,359.889000,459.300000,345.500000,433.874000,345.500000C421.710000,345.500000,413.493000,348.800000,406.655000,353.263000C420.948000,362.582000,429.183000,376.969000,454.600000,376.969000Z" transform="matrix(1 0 0 1 317.70699999999999 -345.50000000000000)" fill="rgb(138,238,255)" stroke="none" stroke-width="1"/><path id="eksbXHhDOKN17" d="M520.125000,372.800000L520.125000,532.418000C520.125265,559.370799,509.418493,585.219772,490.360080,604.278373C471.301667,623.336974,445.452799,634.044000,418.500000,634.044000L472.942000,634.044000C499.894972,634.044265,525.744097,623.337356,544.802727,604.278727C563.861356,585.220097,574.568265,559.370972,574.568000,532.418000L574.568000,345.500000C545.554000,345.500000,538.925000,364.243000,520.126000,372.800000Z" transform="matrix(1 0 0 1 327.35800000000000 -345.50000000000000)" fill="rgb(138,238,255)" stroke="none" stroke-width="1"/><path id="eksbXHhDOKN18" d="M28.212000,376.969000C40.376000,376.969000,48.595000,373.669000,55.433000,369.204000C41.147000,359.885000,32.912000,345.500000,7.500000,345.500000L7.500000,372.800000C14.016134,375.687136,21.086326,377.109572,28.212000,376.967000Z" transform="matrix(1 0 0 1 -7.50000000000000 -345.50000000000000)" fill="rgb(138,238,255)" stroke="none" stroke-width="1"/><path id="eksbXHhDOKN19" d="M123.265000,376.969000C135.429000,376.969000,143.648000,373.669000,150.486000,369.204000C136.199000,359.885000,127.963000,345.504000,102.548000,345.504000C90.384000,345.504000,82.167000,348.804000,75.327000,353.269000C89.614000,362.584000,97.850000,376.969000,123.265000,376.969000Z" transform="matrix(1 0 0 1 47.76100000000000 -345.50000000000000)" fill="rgb(138,238,255)" stroke="none" stroke-width="1"/></g><g id="eksbXHhDOKN20" transform="matrix(1 0 0 1 215.95400000000001 280.37700000000001)"><path id="eksbXHhDOKN21" d="M119,154.500000L275.068000,154.500000L275.068000,208.942000L119,208.942000Z" transform="matrix(1 0 0 1 -119 -154.50000000000000)" fill="rgb(208,208,208)" stroke="none" stroke-width="1"/><path id="eksbXHhDOKN22" d="M119,224.500000L275.068000,224.500000L275.068000,278.942000L119,278.942000Z" transform="matrix(1 0 0 1 -119 -97.46800000000000)" fill="rgb(208,208,208)" stroke="none" stroke-width="1"/><path id="eksbXHhDOKN23" d="M119,294.500000L275.068000,294.500000L275.068000,348.942000L119,348.942000Z" transform="matrix(1 0 0 1 -119 -40.43600000000000)" fill="rgb(208,208,208)" stroke="none" stroke-width="1"/></g><path id="eksbXHhDOKN24" d="M915.536000,296.437000L872.890000,296.437000C865.418648,296.501042,859.395665,302.575873,859.395665,310.047500C859.395665,317.519127,865.418648,323.593958,872.890000,323.658000L901.926000,323.658000L901.926000,350.879000L440.074000,350.879000L440.074000,323.658000L886.227000,323.658000C886.227000,323.658000,880.768000,317.358000,880.768000,312.032000C880.768000,306.500000,889.077000,296.432000,889.077000,296.432000L440.077000,296.432000L440.077000,160.332000C440.055498,137.789241,421.785760,119.520397,399.243000,119.500000C376.702390,119.524801,358.435801,137.791390,358.411000,160.332000L358.411000,169.406000L229.565000,169.406000L229.565000,160.332000C229.543500,137.790021,211.274979,119.521500,188.733000,119.500000C166.191999,119.524250,147.924802,137.791000,147.900000,160.332000L147.900000,192.950000C147.900000,195.167000,146.914000,244.810000,147.900000,251.069000C150.100000,265.055000,156.211000,240.155000,161.511000,240.155000C166.051000,240.155000,175.122000,262.755000,175.122000,262.755000L175.122000,160.332000C175.129717,152.818051,181.219051,146.728717,188.733000,146.721000C196.240575,146.744060,202.320940,152.824425,202.344000,160.332000L202.344000,528.609000C194.383591,522.505203,185.027801,518.480996,175.122000,516.900000L175.122000,250.277000C175.163919,245.386640,172.578979,240.849717,168.350651,238.392356C164.122323,235.934995,158.900677,235.934995,154.672349,238.392356C150.444021,240.849717,147.859081,245.386640,147.901000,250.277000L147.901000,296.437000L13.611000,296.437000C6.093852,296.437000,0,302.530852,0,310.048000L0,716.548000C0.071091,780.161777,51.622224,831.713357,115.236000,831.785000L813.911000,831.785000C877.523996,831.712807,929.074359,780.161997,929.146000,716.549000L929.146000,310.049000C929.146265,306.439138,927.712508,302.977022,925.160138,300.424277C922.607767,297.871532,919.145862,296.437265,915.536000,296.437000ZM385.636000,160.332000C385.644267,152.818279,391.733279,146.729267,399.247000,146.721000C406.754575,146.744060,412.834940,152.824425,412.858000,160.332000L412.858000,539.316000C406.479000,544.238000,400.267000,547.491000,389.402000,547.491000C388.074000,547.491000,386.834000,547.427000,385.636000,547.333000ZM358.411000,350.879000L229.565000,350.879000L229.565000,323.658000L358.411000,323.658000ZM358.411000,378.100000L358.411000,423.468000L229.565000,423.468000L229.565000,378.100000ZM229.565000,450.690000L358.411000,450.690000L358.411000,477.911000L229.565000,477.911000ZM358.411000,296.437000L229.565000,296.437000L229.565000,251.069000L358.411000,251.069000ZM229.565000,505.137000L358.411000,505.137000L358.411000,533.147000C348.693000,525.099000,336.320000,516.025000,314.240000,516.025000C290.503000,516.025000,277.983000,526.511000,267.921000,534.935000C259.214000,542.227000,252.921000,547.495000,239.079000,547.495000C235.877286,547.527439,232.683109,547.178312,229.564000,546.455000ZM358.411000,196.626000L358.411000,223.847000L229.565000,223.847000L229.565000,196.626000ZM27.221000,378.100000L147.900000,378.100000L147.900000,517.840000C134,521.206000,125.114000,528.640000,117.600000,534.931000C108.895000,542.223000,102.600000,547.489000,88.760000,547.489000C74.920000,547.489000,68.627000,542.221000,59.922000,534.931000C51.990000,528.287000,42.501000,520.384000,27.217000,517.331000L27.217000,378.100000ZM27.221000,323.658000L147.900000,323.658000L147.900000,350.879000L27.221000,350.879000ZM901.921000,716.549000C901.865891,765.135497,862.492497,804.508891,813.906000,804.564000L115.236000,804.564000C66.649503,804.508891,27.276109,765.135497,27.221000,716.549000L27.221000,545.557000C32.865000,547.773000,37.221000,551.422000,42.448000,555.799000C52.507000,564.225000,65.029000,574.710000,88.764000,574.710000C112.499000,574.710000,125.021000,564.224000,135.080000,555.800000C143.785000,548.508000,150.080000,543.240000,163.920000,543.240000C177.760000,543.240000,184.055000,548.508000,192.762000,555.800000C197.420000,559.700000,202.625000,564.033000,209.207000,567.572000C209.423000,567.695000,209.643000,567.810000,209.866000,567.922000C217.386000,571.847000,226.700000,574.711000,239.081000,574.711000C262.818000,574.711000,275.338000,564.225000,285.399000,555.801000C294.106000,548.509000,300.399000,543.241000,314.242000,543.241000C328.085000,543.241000,334.377000,548.509000,343.084000,555.801000C349.484000,561.158000,356.884000,567.335000,367.519000,571.134000C367.731000,571.208000,367.940000,571.285000,368.156000,571.348000C374.998576,573.651238,382.179595,574.788072,389.399000,574.711000C413.134000,574.711000,425.654000,564.225000,435.713000,555.800000C444.418000,548.508000,450.713000,543.242000,464.549000,543.242000C478.385000,543.242000,484.684000,548.510000,493.391000,555.802000C503.452000,564.228000,515.974000,574.712000,539.709000,574.712000C543.257857,574.720200,546.802482,574.466511,550.314000,573.953000C551.365000,573.796000,565.271000,565.836000,577.279000,559.173000C583.179000,555.899000,589.832000,550.073000,594.534000,547.491000C599.721000,544.645000,602.375000,545.365000,602.953000,544.943000C606.668000,542.243000,598.232000,540.120000,597.453000,534.931000C596.881000,531.110000,588.968000,534.804000,585.798000,532.567000C583.278000,530.782000,549.898000,546.493000,546.286000,547.031000C544.107592,547.345443,541.908967,547.498859,539.708000,547.490000C525.865000,547.490000,519.573000,542.222000,510.866000,534.930000C500.805000,526.504000,488.283000,516.020000,464.548000,516.020000C456.166137,515.900742,447.845033,517.458612,440.074000,520.602000L440.074000,378.100000L901.925000,378.100000L901.925000,517.329000C886.638000,520.383000,877.147000,528.286000,869.212000,534.929000C860.503000,542.221000,854.212000,547.489000,840.365000,547.489000C826.518000,547.489000,820.225000,542.221000,811.518000,534.929000C801.455000,526.503000,788.934000,516.019000,765.195000,516.019000C741.456000,516.019000,728.938000,526.505000,718.877000,534.929000C710.170000,542.221000,703.877000,547.489000,690.033000,547.489000C676.189000,547.489000,669.897000,542.221000,661.188000,534.929000C651.127000,526.503000,638.605000,516.019000,614.869000,516.019000C607.971996,515.942842,601.107021,516.967727,594.533000,519.055000C590.425414,520.706870,586.481532,522.739744,582.753000,525.127000C579.299000,527.244000,575.121000,530.678000,570.532000,533.264000C565.368000,536.174000,560.632000,539.517000,555.854000,542.469000C552.823312,544.302212,549.618295,545.830356,546.286000,547.031000C542.953705,548.231644,584.700000,532.827000,585.800000,536.209000C586.916018,539.642118,589.350347,542.491161,592.567290,544.129170C595.784232,545.767179,599.520179,546.059930,602.953000,544.943000C606.810297,543.749069,610.832721,543.175256,614.870000,543.243000C628.715000,543.243000,635.006000,548.511000,643.714000,555.803000C653.775000,564.229000,666.297000,574.713000,690.033000,574.713000C713.769000,574.713000,726.290000,564.227000,736.352000,555.803000C745.059000,548.511000,751.352000,543.243000,765.194000,543.243000C779.036000,543.243000,785.334000,548.511000,794.041000,555.803000C804.104000,564.227000,816.625000,574.713000,840.364000,574.713000C864.103000,574.713000,876.624000,564.227000,886.687000,555.803000C891.917000,551.422000,896.276000,547.773000,901.924000,545.557000L901.924000,716.549000Z" transform="matrix(1 0 0 1 0 97.36100000000000)" fill="rgb(0,0,0)" stroke="none" stroke-width="1"/></g><g id="eksbXHhDOKN25_tr" transform="translate(757.576330,199.778162) rotate(0)"><g id="eksbXHhDOKN25" transform="translate(-722.150330,-164.351162)"><circle id="eksbXHhDOKN26" r="87" transform="matrix(1 0 0 1 722 165)" fill="rgb(255,213,79)" stroke="none" stroke-width="1"/><path id="eksbXHhDOKN27" d="M410.221000,43C400.973042,42.997406,391.783890,44.470249,383,47.363000C418.736174,59.118591,442.887624,92.487952,442.887624,130.108000C442.887624,167.728048,418.736174,201.097409,383,212.853000C415.716201,223.613823,451.700862,214.088001,474.807992,188.549684C497.915122,163.011366,503.805577,126.256235,489.836363,94.775985C475.867149,63.295734,444.661458,43.001844,410.221000,43Z" transform="matrix(1 0 0 1 312.04500000000002 35.03400000000000)" fill="rgb(255,193,40)" stroke="none" stroke-width="1"/><path id="eksbXHhDOKN28" d="M443.218000,35.500000C387.592985,35.500000,342.500000,80.592985,342.500000,136.218000C342.500000,191.843015,387.592985,236.936000,443.218000,236.936000C498.843015,236.936000,543.936000,191.843015,543.936000,136.218000C543.873176,80.619028,498.816972,35.562824,443.218000,35.500000ZM443.218000,209.715000C402.625071,209.715000,369.718000,176.807929,369.718000,136.215000C369.718000,95.622071,402.625071,62.715000,443.218000,62.715000C483.810929,62.715000,516.718000,95.622071,516.718000,136.215000C516.673909,176.789652,483.792652,209.670909,443.218000,209.715000Z" transform="matrix(1 0 0 1 279.04899999999998 28.92300000000000)" fill="rgb(0,0,0)" stroke="none" stroke-width="1"/><path id="eksbXHhDOKN29" d="M404.111000,52.627000C411.628148,52.627000,417.722000,46.533148,417.722000,39.016000L417.722000,13.611000C417.657958,6.139648,411.583127,0.116665,404.111500,0.116665C396.639873,0.116665,390.565042,6.139648,390.501000,13.611000L390.501000,39.017000C390.501552,46.533367,396.594633,52.626448,404.111000,52.627000Z" transform="matrix(1 0 0 1 318.15600000000001 0)" fill="rgb(0,0,0)" stroke="none" stroke-width="1"/><path id="eksbXHhDOKN30" d="M391,165.611000L391,191.017000C390.958081,195.907360,393.543021,200.444283,397.771349,202.901644C401.999677,205.359005,407.221323,205.359005,411.449651,202.901644C415.677979,200.444283,418.262919,195.907360,418.221000,191.017000L418.221000,165.611000C418.262919,160.720640,415.677979,156.183717,411.449651,153.726356C407.221323,151.268995,401.999677,151.268995,397.771349,153.726356C393.543021,156.183717,390.958081,160.720640,391,165.611000Z" transform="matrix(1 0 0 1 318.56299999999999 123.84099999999999)" fill="rgb(0,0,0)" stroke="none" stroke-width="1"/><path id="eksbXHhDOKN31" d="M363.528000,53.539000C365.942810,57.783078,370.446177,60.408262,375.329148,60.418337C380.212119,60.428412,384.726282,57.821834,387.158584,53.587757C389.590886,49.353679,389.568530,44.141059,387.100000,39.928000L374.400000,17.928000C371.968629,13.717089,367.475455,11.123168,362.613014,11.123341C357.750573,11.123515,353.257584,13.717757,350.826514,17.928841C348.395444,22.139926,348.395629,27.328089,350.827000,31.539000Z" transform="matrix(1 0 0 1 284.34399999999999 9.05900000000000)" fill="rgb(0,0,0)" stroke="none" stroke-width="1"/><path id="eksbXHhDOKN32" d="M432.239000,144.331000C429.112994,146.135901,426.832029,149.108695,425.897907,152.595384C424.963785,156.082073,425.453026,159.797036,427.258000,162.923000L439.958000,184.923000C443.716574,191.432504,452.040496,193.662574,458.550000,189.904000C465.059504,186.145426,467.289574,177.821504,463.531000,171.312000L450.831000,149.312000C449.026477,146.185588,446.053676,143.904271,442.566830,142.970107C439.079984,142.035943,435.364840,142.525486,432.239000,144.331000Z" transform="matrix(1 0 0 1 346.61500000000001 116.10400000000000)" fill="rgb(0,0,0)" stroke="none" stroke-width="1"/><path id="eksbXHhDOKN33" d="M325.426000,66.900000L347.426000,79.600000C351.636911,82.031371,356.825074,82.031556,361.036159,79.600486C365.247243,77.169416,367.841485,72.676427,367.841659,67.813986C367.841832,62.951545,365.247911,58.458371,361.037000,56.027000L339.037000,43.327000C332.527496,39.568426,324.203574,41.798496,320.445000,48.308000C316.686426,54.817504,318.916496,63.141426,325.426000,66.900000Z" transform="matrix(1 0 0 1 259.59199999999998 33.81100000000000)" fill="rgb(0,0,0)" stroke="none" stroke-width="1"/><path id="eksbXHhDOKN34" d="M457.313000,142.466000L479.313000,155.166000C485.803198,158.746781,493.965436,156.475343,497.672929,150.056686C501.380421,143.638028,499.269644,135.432775,492.925000,131.600000L470.925000,118.900000C464.415496,115.141426,456.091574,117.371496,452.333000,123.881000C448.574426,130.390504,450.804496,138.714426,457.314000,142.473000Z" transform="matrix(1 0 0 1 367.04300000000001 95.37800000000000)" fill="rgb(0,0,0)" stroke="none" stroke-width="1"/><path id="eksbXHhDOKN35" d="M321.111000,110.221000L346.517000,110.221000C353.988352,110.156958,360.011335,104.082127,360.011335,96.610500C360.011335,89.138873,353.988352,83.064042,346.517000,83L321.111000,83C316.220640,82.958081,311.683717,85.543021,309.226356,89.771349C306.768995,93.999677,306.768995,99.221323,309.226356,103.449651C311.683717,107.677979,316.220640,110.262919,321.111000,110.221000Z" transform="matrix(1 0 0 1 250.53299999999999 67.62300000000000)" fill="rgb(0,0,0)" stroke="none" stroke-width="1"/><path id="eksbXHhDOKN36" d="M459.500000,96.111000C459.500000,103.628148,465.593852,109.722000,473.111000,109.722000L498.517000,109.722000C505.988352,109.657958,512.011335,103.583127,512.011335,96.111500C512.011335,88.639873,505.988352,82.565042,498.517000,82.501000L473.111000,82.501000C465.594243,82.501000,459.500552,88.594243,459.500000,96.111000Z" transform="matrix(1 0 0 1 374.37299999999999 67.21599999999999)" fill="rgb(0,0,0)" stroke="none" stroke-width="1"/><path id="eksbXHhDOKN37" d="M347.428000,119.324000L325.428000,132.024000C318.917667,135.782022,316.686478,144.106167,320.444500,150.616500C324.202522,157.126833,332.526667,159.358022,339.037000,155.600000L361.037000,142.900000C367.546504,139.141426,369.776574,130.817504,366.018000,124.308000C362.259426,117.798496,353.935504,115.568426,347.426000,119.327000Z" transform="matrix(1 0 0 1 259.59199999999998 95.73099999999999)" fill="rgb(0,0,0)" stroke="none" stroke-width="1"/><path id="eksbXHhDOKN38" d="M463.630000,80.994000C466.015526,80.993409,468.358687,80.363553,470.423000,79.168000L492.423000,66.468000C498.932504,62.709426,501.162574,54.385504,497.404000,47.876000C493.645426,41.366496,485.321504,39.136426,478.812000,42.895000L456.812000,55.595000C451.474950,58.676695,448.874249,64.959723,450.471960,70.911888C452.069671,76.864052,457.467134,81.000172,463.630000,80.995000Z" transform="matrix(1 0 0 1 366.63700000000000 33.45800000000000)" fill="rgb(0,0,0)" stroke="none" stroke-width="1"/><path id="eksbXHhDOKN39" d="M363.528000,149.563000L350.828000,171.563000C348.385365,175.774440,348.378342,180.969878,350.809580,185.187907C353.240819,189.405936,357.739981,192.004044,362.608522,192.001380C367.477062,191.998716,371.973378,189.395687,374.400000,185.175000L387.100000,163.175000C390.858574,156.665496,388.628504,148.341574,382.119000,144.583000C375.609496,140.824426,367.285574,143.054496,363.527000,149.564000Z" transform="matrix(1 0 0 1 284.34399999999999 116.30800000000001)" fill="rgb(0,0,0)" stroke="none" stroke-width="1"/><path id="eksbXHhDOKN40" d="M431.374000,58.271000C434.499341,60.078680,438.215214,60.569432,441.702689,59.635099C445.190165,58.700766,448.162992,56.418039,449.966000,53.290000L462.666000,31.290000C465.207612,27.073870,465.274289,21.813855,462.840367,17.534654C460.406444,13.255453,455.851371,10.624196,450.928499,10.653713C446.005627,10.683230,441.482434,13.368920,439.100000,17.677000L426.400000,39.677000C424.594215,42.802778,424.104521,46.518013,425.038707,50.004938C425.972892,53.491862,428.254384,56.464666,431.381000,58.269000Z" transform="matrix(1 0 0 1 345.91000000000003 8.85400000000000)" fill="rgb(0,0,0)" stroke="none" stroke-width="1"/></g></g><g id="eksbXHhDOKN41"><g id="eksbXHhDOKN42_to" transform="translate(251.360434,-197.970516)"><g id="eksbXHhDOKN42" transform="translate(0,0)"><g id="eksbXHhDOKN43" transform="matrix(1 0 0 1 2.57800000000000 2.57800000000000)"><path id="eksbXHhDOKN44" d="M85.421000,0C132.597716,0,170.842000,38.244284,170.842000,85.421000C170.842000,132.597716,132.597716,170.842000,85.421000,170.842000C38.244284,170.842000,0,132.597716,0,85.421000C0,38.244284,38.244284,0,85.421000,0Z" fill="rgb(255,199,21)" stroke="none" stroke-width="1"/><path id="eksbXHhDOKN45" d="M162.015000,40.200000C183.671737,73.229808,179.864766,116.799069,152.807827,145.572399C125.750888,174.345729,82.497762,180.821884,48.200000,161.235000C67.601689,190.800358,103.213954,205.355427,137.769693,197.842980C172.325431,190.330533,198.680364,162.303742,204.055934,127.351787C209.431504,92.399832,192.716331,57.748909,162.015000,40.200000Z" transform="matrix(1 0 0 1 -34.21000000000000 -28.96200000000000)" fill="rgb(255,206,75)" stroke="none" stroke-width="1"/><circle id="eksbXHhDOKN46" r="74.382000" transform="matrix(1 0 0 1 85.42100000000001 85.42100000000001)" fill="rgb(254,223,107)" stroke="none" stroke-width="1"/><g id="eksbXHhDOKN47" transform="matrix(1 0 0 1 42.56400000000000 42.55700000000000)"><path id="eksbXHhDOKN48" d="M207.120000,151.338000L222.051000,166.271000C222.308881,166.529002,222.658715,166.673956,223.023500,166.673956C223.388285,166.673956,223.738119,166.529002,223.996000,166.271000L231.866000,158.400000C232.402609,157.863091,232.402609,156.992909,231.866000,156.456000L207.120000,131.700000C206.862119,131.441998,206.512285,131.297044,206.147500,131.297044C205.782715,131.297044,205.432881,131.441998,205.175000,131.700000L180.439000,156.442000C179.902391,156.978909,179.902391,157.849091,180.439000,158.386000L188.309000,166.257000C188.566881,166.515002,188.916715,166.659956,189.281500,166.659956C189.646285,166.659956,189.996119,166.515002,190.254000,166.257000L205.176000,151.333000C205.714514,150.798322,206.584243,150.800558,207.120000,151.338000Z" transform="matrix(1 0 0 1 -163.29100000000000 -131.30199999999999)" fill="rgb(254,223,107)" stroke="none" stroke-width="1"/><path id="eksbXHhDOKN49" d="M139.600000,229.500000L131.730000,237.372000C131.193391,237.908909,131.193391,238.779091,131.730000,239.316000L139.599000,247.187000C139.856881,247.445002,140.206715,247.589956,140.571500,247.589956C140.936285,247.589956,141.286119,247.445002,141.544000,247.187000L149.414000,239.315000C149.950609,238.778091,149.950609,237.907909,149.414000,237.371000L141.544000,229.500000C141.286290,229.242059,140.936621,229.097129,140.572000,229.097129C140.207379,229.097129,139.857710,229.242059,139.600000,229.500000Z" transform="matrix(1 0 0 1 -131.32400000000001 -195.47999999999999)" fill="rgb(254,223,107)" stroke="none" stroke-width="1"/><path id="eksbXHhDOKN50" d="M207.100000,312.766000L231.850000,288.011000C232.108002,287.753119,232.252956,287.403285,232.252956,287.038500C232.252956,286.673715,232.108002,286.323881,231.850000,286.066000L223.976000,278.199000C223.439091,277.662391,222.568909,277.662391,222.032000,278.199000L207.100000,293.133000C206.842119,293.391002,206.492285,293.535956,206.127500,293.535956C205.762715,293.535956,205.412881,293.391002,205.155000,293.133000L190.230000,278.207000C189.693206,277.671057,188.823794,277.671057,188.287000,278.207000L180.406000,286.068000C180.147692,286.325921,180.002543,286.675970,180.002543,287.041000C180.002543,287.406030,180.147692,287.756079,180.406000,288.014000L205.156000,312.768000C205.692909,313.304609,206.563091,313.304609,207.100000,312.768000Z" transform="matrix(1 0 0 1 -163.26900000000001 -227.43899999999999)" fill="rgb(254,223,107)" stroke="none" stroke-width="1"/><path id="eksbXHhDOKN51" d="M335.159000,229.513000L327.289000,237.385000C326.752391,237.921909,326.752391,238.792091,327.289000,239.329000L335.159000,247.200000C335.416881,247.458002,335.766715,247.602956,336.131500,247.602956C336.496285,247.602956,336.846119,247.458002,337.104000,247.200000L344.974000,239.328000C345.510609,238.791091,345.510609,237.920909,344.974000,237.384000L337.104000,229.513000C336.846119,229.254998,336.496285,229.110044,336.131500,229.110044C335.766715,229.110044,335.416881,229.254998,335.159000,229.513000Z" transform="matrix(1 0 0 1 -259.66199999999998 -195.48900000000000)" fill="rgb(254,223,107)" stroke="none" stroke-width="1"/><path id="eksbXHhDOKN52" d="M247.055000,237.089000L239.036000,229.068000C238.778119,228.809998,238.428285,228.665044,238.063500,228.665044C237.698715,228.665044,237.348881,228.809998,237.091000,229.068000L229.072000,237.089000C228.535391,237.625909,228.535391,238.496091,229.072000,239.033000L237.091000,247.055000C237.348881,247.313002,237.698715,247.457956,238.063500,247.457956C238.428285,247.457956,238.778119,247.313002,239.036000,247.055000L247.055000,239.033000C247.591609,238.496091,247.591609,237.625909,247.055000,237.089000Z" transform="matrix(1 0 0 1 -195.20699999999999 -195.19700000000000)" fill="rgb(254,223,107)" stroke="none" stroke-width="1"/></g><path id="eksbXHhDOKN53" d="M214.388000,102.906000C223.476946,132.303907,216.062704,164.318251,194.975637,186.727657C173.888570,209.137064,142.383734,218.482356,112.488000,211.196000C142.579664,237.909775,188.459845,235.848693,216.034998,206.544343C243.610151,177.239992,242.880390,131.319337,214.388000,102.906000Z" transform="matrix(1 0 0 1 -76.40100000000000 -70.11000000000000)" fill="rgb(254,223,107)" stroke="none" stroke-width="1"/></g><g id="eksbXHhDOKN54"><path id="eksbXHhDOKN55" d="M201.963000,122.900000C201.479525,122.416483,200.823767,122.144843,200.140000,122.144843C199.456233,122.144843,198.800475,122.416483,198.317000,122.900000L171.636000,149.587000C170.629790,150.593675,170.629790,152.225325,171.636000,153.232000L181.450000,163.048000C181.933475,163.531517,182.589233,163.803157,183.273000,163.803157C183.956767,163.803157,184.612525,163.531517,185.096000,163.048000L200.140000,148L215.192000,163.055000C215.675475,163.538517,216.331233,163.810157,217.015000,163.810157C217.698767,163.810157,218.354525,163.538517,218.838000,163.055000L228.652000,153.239000C229.658210,152.232325,229.658210,150.600675,228.652000,149.594000ZM217.015000,157.589000L201.963000,142.534000C201.479525,142.050483,200.823767,141.778843,200.140000,141.778843C199.456233,141.778843,198.800475,142.050483,198.317000,142.534000L183.274000,157.580000L177.105000,151.410000L200.140000,128.370000L223.184000,151.419000Z" transform="matrix(1 0 0 1 -112.14100000000001 -80.15700000000000)" fill="rgb(0,0,0)" stroke="none" stroke-width="1"/><path id="eksbXHhDOKN56" d="M134.561000,219.939000C133.877300,219.939178,133.221625,220.210727,132.738000,220.694000L122.924000,230.511000C121.917790,231.517675,121.917790,233.149325,122.924000,234.156000L132.738000,243.972000C133.745018,244.978325,135.376982,244.978325,136.384000,243.972000L146.198000,234.156000C147.204210,233.149325,147.204210,231.517675,146.198000,230.511000L136.384000,220.695000C135.900601,220.211267,135.244866,219.939333,134.561000,219.939000ZM134.561000,238.503000L128.393000,232.333000L134.562000,226.163000L140.730000,232.333000Z" transform="matrix(1 0 0 1 -80.17400000000001 -144.33500000000001)" fill="rgb(0,0,0)" stroke="none" stroke-width="1"/><path id="eksbXHhDOKN57" d="M181.438000,269.400000L171.610000,279.200000C170.604869,280.215528,170.609787,281.852529,171.621000,282.862000L198.300000,309.553000C198.783475,310.036517,199.439233,310.308157,200.123000,310.308157C200.806767,310.308157,201.462525,310.036517,201.946000,309.553000L228.636000,282.853000C228.675000,282.814000,228.718000,282.768000,228.754000,282.727000C229.652035,281.705599,229.602137,280.162259,228.640000,279.201000L218.820000,269.390000C217.813325,268.383790,216.181675,268.383790,215.175000,269.390000L200.126000,284.450000L185.082000,269.400000C184.075212,268.395007,182.444788,268.395007,181.438000,269.400000ZM200.125000,290.673000C200.808700,290.672822,201.464375,290.401273,201.948000,289.918000L217,274.864000L223.172000,281.031000L200.124000,304.084000L177.077000,281.033000L183.255000,274.871000L198.300000,289.919000C198.784173,290.403289,199.441195,290.674948,200.126000,290.674000Z" transform="matrix(1 0 0 1 -112.12700000000000 -176.29599999999999)" fill="rgb(0,0,0)" stroke="none" stroke-width="1"/><path id="eksbXHhDOKN58" d="M330.122000,244.742000C330.805700,244.741822,331.461375,244.470273,331.945000,243.987000L341.759000,234.170000C342.765210,233.163325,342.765210,231.531675,341.759000,230.525000L331.945000,220.709000C331.461525,220.225483,330.805767,219.953843,330.122000,219.953843C329.438233,219.953843,328.782475,220.225483,328.299000,220.709000L318.485000,230.525000C317.478790,231.531675,317.478790,233.163325,318.485000,234.170000L328.299000,243.986000C328.782337,244.469826,329.438112,244.741777,330.122000,244.742000ZM330.122000,226.178000L336.291000,232.348000L330.122000,238.518000L323.953000,232.348000Z" transform="matrix(1 0 0 1 -208.51100000000000 -144.34500000000000)" fill="rgb(0,0,0)" stroke="none" stroke-width="1"/><path id="eksbXHhDOKN59" d="M232.056000,244.600000C232.739700,244.599822,233.395375,244.328273,233.879000,243.845000L243.838000,233.884000C243.888000,233.834000,243.938000,233.777000,243.985000,233.724000C244.853389,232.700541,244.791186,231.182007,243.842000,230.233000L233.878000,220.267000C233.394525,219.783483,232.738767,219.511843,232.055000,219.511843C231.371233,219.511843,230.715475,219.783483,230.232000,220.267000L220.268000,230.233000C219.261790,231.239675,219.261790,232.871325,220.268000,233.878000L230.232000,243.845000C230.715684,244.328798,231.371888,244.600417,232.056000,244.600000ZM232.056000,225.736000L238.374000,232.056000L232.056000,238.376000L225.738000,232.056000Z" transform="matrix(1 0 0 1 -144.05600000000001 -144.05300000000000)" fill="rgb(0,0,0)" stroke="none" stroke-width="1"/><path id="eksbXHhDOKN60" d="M150.225000,25.774000C121.833543,-2.607061,77.838296,-8.187648,43.260000,12.206000C33.501000,17.756000,36.160000,18.276000,36.888000,19.506000C37.616000,20.736000,35.727000,22.300000,45.888000,16.648000C84.371063,-6.114818,133.970218,5.709221,158.045122,43.385356C182.120025,81.061490,172.011503,131.038503,135.187015,156.396917C98.362528,181.755332,48.066973,173.374324,21.455146,137.445190C-5.156682,101.516056,1.486863,50.961656,36.478000,23.128000C49.690000,13.650000,37.778000,20.620000,36.891000,19.505000C36.004000,18.390000,44.551000,10.224000,33.268000,19.092000C7.721713,39.395908,-4.491671,72.169175,1.536583,104.239747C7.564837,136.310320,30.844842,162.411950,62.020025,172.054015C93.195209,181.696079,127.146353,173.295272,150.228000,150.228000C166.731264,133.724790,176.002707,111.341602,176.002707,88.002500C176.002707,64.663398,166.731264,42.280210,150.228000,25.777000Z" fill="rgb(0,0,0)" stroke="none" stroke-width="1"/><path id="eksbXHhDOKN61" d="M75.877000,178.526000C109.702672,194.690403,150.254230,184.133121,171.903374,153.526282C193.552517,122.919443,190.001272,81.166914,163.494000,54.656000C142.842485,34.016361,112.290129,26.839847,84.609146,36.126553C56.928163,45.413259,36.885747,69.563837,32.860500,98.482294C28.835254,127.400750,41.520402,156.106775,65.613000,172.600000C77.228000,179.446000,68.392000,173.105000,69.197000,171.931000C69.583565,171.367021,69.730251,170.672576,69.604788,170.000442C69.479326,169.328308,69.091992,168.733546,68.528000,168.347000C39.210150,148.298255,28.952189,109.829096,44.395183,77.844687C59.838176,45.860277,96.342724,29.969403,130.275566,40.459912C164.208408,50.950421,185.375405,84.670743,180.072919,119.790142C174.770432,154.909540,144.591439,180.877411,109.074000,180.882000C98.228000,180.882000,87.174000,180.763000,68.528000,168.347000C67.243000,167.732000,69.812000,170.647000,69.197000,171.931000C68.582000,173.215000,62.868000,171.406000,75.877000,178.526000Z" transform="matrix(1 0 0 1 -21.07600000000000 -21.07600000000000)" fill="rgb(0,0,0)" stroke="none" stroke-width="1"/></g></g></g><g id="eksbXHhDOKN62_to" transform="translate(421,-283.384099)"><g id="eksbXHhDOKN62" transform="translate(0,0)"><g id="eksbXHhDOKN63" transform="matrix(1 0 0 1 2.57800000000000 2.57800000000000)"><path id="eksbXHhDOKN64" d="M85.421000,0C132.597716,0,170.842000,38.244284,170.842000,85.421000C170.842000,132.597716,132.597716,170.842000,85.421000,170.842000C38.244284,170.842000,0,132.597716,0,85.421000C0,38.244284,38.244284,0,85.421000,0Z" fill="rgb(255,199,21)" stroke="none" stroke-width="1"/><path id="eksbXHhDOKN65" d="M162.015000,40.200000C183.671737,73.229808,179.864766,116.799069,152.807827,145.572399C125.750888,174.345729,82.497762,180.821884,48.200000,161.235000C67.601689,190.800358,103.213954,205.355427,137.769693,197.842980C172.325431,190.330533,198.680364,162.303742,204.055934,127.351787C209.431504,92.399832,192.716331,57.748909,162.015000,40.200000Z" transform="matrix(1 0 0 1 -34.21000000000000 -28.96200000000000)" fill="rgb(255,206,75)" stroke="none" stroke-width="1"/><circle id="eksbXHhDOKN66" r="74.382000" transform="matrix(1 0 0 1 85.42100000000001 85.42100000000001)" fill="rgb(254,223,107)" stroke="none" stroke-width="1"/><g id="eksbXHhDOKN67" transform="matrix(1 0 0 1 42.56400000000000 42.55700000000000)"><path id="eksbXHhDOKN68" d="M207.120000,151.338000L222.051000,166.271000C222.308881,166.529002,222.658715,166.673956,223.023500,166.673956C223.388285,166.673956,223.738119,166.529002,223.996000,166.271000L231.866000,158.400000C232.402609,157.863091,232.402609,156.992909,231.866000,156.456000L207.120000,131.700000C206.862119,131.441998,206.512285,131.297044,206.147500,131.297044C205.782715,131.297044,205.432881,131.441998,205.175000,131.700000L180.439000,156.442000C179.902391,156.978909,179.902391,157.849091,180.439000,158.386000L188.309000,166.257000C188.566881,166.515002,188.916715,166.659956,189.281500,166.659956C189.646285,166.659956,189.996119,166.515002,190.254000,166.257000L205.176000,151.333000C205.714514,150.798322,206.584243,150.800558,207.120000,151.338000Z" transform="matrix(1 0 0 1 -163.29100000000000 -131.30199999999999)" fill="rgb(254,223,107)" stroke="none" stroke-width="1"/><path id="eksbXHhDOKN69" d="M139.600000,229.500000L131.730000,237.372000C131.193391,237.908909,131.193391,238.779091,131.730000,239.316000L139.599000,247.187000C139.856881,247.445002,140.206715,247.589956,140.571500,247.589956C140.936285,247.589956,141.286119,247.445002,141.544000,247.187000L149.414000,239.315000C149.950609,238.778091,149.950609,237.907909,149.414000,237.371000L141.544000,229.500000C141.286290,229.242059,140.936621,229.097129,140.572000,229.097129C140.207379,229.097129,139.857710,229.242059,139.600000,229.500000Z" transform="matrix(1 0 0 1 -131.32400000000001 -195.47999999999999)" fill="rgb(254,223,107)" stroke="none" stroke-width="1"/><path id="eksbXHhDOKN70" d="M207.100000,312.766000L231.850000,288.011000C232.108002,287.753119,232.252956,287.403285,232.252956,287.038500C232.252956,286.673715,232.108002,286.323881,231.850000,286.066000L223.976000,278.199000C223.439091,277.662391,222.568909,277.662391,222.032000,278.199000L207.100000,293.133000C206.842119,293.391002,206.492285,293.535956,206.127500,293.535956C205.762715,293.535956,205.412881,293.391002,205.155000,293.133000L190.230000,278.207000C189.693206,277.671057,188.823794,277.671057,188.287000,278.207000L180.406000,286.068000C180.147692,286.325921,180.002543,286.675970,180.002543,287.041000C180.002543,287.406030,180.147692,287.756079,180.406000,288.014000L205.156000,312.768000C205.692909,313.304609,206.563091,313.304609,207.100000,312.768000Z" transform="matrix(1 0 0 1 -163.26900000000001 -227.43899999999999)" fill="rgb(254,223,107)" stroke="none" stroke-width="1"/><path id="eksbXHhDOKN71" d="M335.159000,229.513000L327.289000,237.385000C326.752391,237.921909,326.752391,238.792091,327.289000,239.329000L335.159000,247.200000C335.416881,247.458002,335.766715,247.602956,336.131500,247.602956C336.496285,247.602956,336.846119,247.458002,337.104000,247.200000L344.974000,239.328000C345.510609,238.791091,345.510609,237.920909,344.974000,237.384000L337.104000,229.513000C336.846119,229.254998,336.496285,229.110044,336.131500,229.110044C335.766715,229.110044,335.416881,229.254998,335.159000,229.513000Z" transform="matrix(1 0 0 1 -259.66199999999998 -195.48900000000000)" fill="rgb(254,223,107)" stroke="none" stroke-width="1"/><path id="eksbXHhDOKN72" d="M247.055000,237.089000L239.036000,229.068000C238.778119,228.809998,238.428285,228.665044,238.063500,228.665044C237.698715,228.665044,237.348881,228.809998,237.091000,229.068000L229.072000,237.089000C228.535391,237.625909,228.535391,238.496091,229.072000,239.033000L237.091000,247.055000C237.348881,247.313002,237.698715,247.457956,238.063500,247.457956C238.428285,247.457956,238.778119,247.313002,239.036000,247.055000L247.055000,239.033000C247.591609,238.496091,247.591609,237.625909,247.055000,237.089000Z" transform="matrix(1 0 0 1 -195.20699999999999 -195.19700000000000)" fill="rgb(254,223,107)" stroke="none" stroke-width="1"/></g><path id="eksbXHhDOKN73" d="M214.388000,102.906000C223.476946,132.303907,216.062704,164.318251,194.975637,186.727657C173.888570,209.137064,142.383734,218.482356,112.488000,211.196000C142.579664,237.909775,188.459845,235.848693,216.034998,206.544343C243.610151,177.239992,242.880390,131.319337,214.388000,102.906000Z" transform="matrix(1 0 0 1 -76.40100000000000 -70.11000000000000)" fill="rgb(254,223,107)" stroke="none" stroke-width="1"/></g><g id="eksbXHhDOKN74"><path id="eksbXHhDOKN75" d="M201.963000,122.900000C201.479525,122.416483,200.823767,122.144843,200.140000,122.144843C199.456233,122.144843,198.800475,122.416483,198.317000,122.900000L171.636000,149.587000C170.629790,150.593675,170.629790,152.225325,171.636000,153.232000L181.450000,163.048000C181.933475,163.531517,182.589233,163.803157,183.273000,163.803157C183.956767,163.803157,184.612525,163.531517,185.096000,163.048000L200.140000,148L215.192000,163.055000C215.675475,163.538517,216.331233,163.810157,217.015000,163.810157C217.698767,163.810157,218.354525,163.538517,218.838000,163.055000L228.652000,153.239000C229.658210,152.232325,229.658210,150.600675,228.652000,149.594000ZM217.015000,157.589000L201.963000,142.534000C201.479525,142.050483,200.823767,141.778843,200.140000,141.778843C199.456233,141.778843,198.800475,142.050483,198.317000,142.534000L183.274000,157.580000L177.105000,151.410000L200.140000,128.370000L223.184000,151.419000Z" transform="matrix(1 0 0 1 -112.14100000000001 -80.15700000000000)" fill="rgb(0,0,0)" stroke="none" stroke-width="1"/><path id="eksbXHhDOKN76" d="M134.561000,219.939000C133.877300,219.939178,133.221625,220.210727,132.738000,220.694000L122.924000,230.511000C121.917790,231.517675,121.917790,233.149325,122.924000,234.156000L132.738000,243.972000C133.745018,244.978325,135.376982,244.978325,136.384000,243.972000L146.198000,234.156000C147.204210,233.149325,147.204210,231.517675,146.198000,230.511000L136.384000,220.695000C135.900601,220.211267,135.244866,219.939333,134.561000,219.939000ZM134.561000,238.503000L128.393000,232.333000L134.562000,226.163000L140.730000,232.333000Z" transform="matrix(1 0 0 1 -80.17400000000001 -144.33500000000001)" fill="rgb(0,0,0)" stroke="none" stroke-width="1"/><path id="eksbXHhDOKN77" d="M181.438000,269.400000L171.610000,279.200000C170.604869,280.215528,170.609787,281.852529,171.621000,282.862000L198.300000,309.553000C198.783475,310.036517,199.439233,310.308157,200.123000,310.308157C200.806767,310.308157,201.462525,310.036517,201.946000,309.553000L228.636000,282.853000C228.675000,282.814000,228.718000,282.768000,228.754000,282.727000C229.652035,281.705599,229.602137,280.162259,228.640000,279.201000L218.820000,269.390000C217.813325,268.383790,216.181675,268.383790,215.175000,269.390000L200.126000,284.450000L185.082000,269.400000C184.075212,268.395007,182.444788,268.395007,181.438000,269.400000ZM200.125000,290.673000C200.808700,290.672822,201.464375,290.401273,201.948000,289.918000L217,274.864000L223.172000,281.031000L200.124000,304.084000L177.077000,281.033000L183.255000,274.871000L198.300000,289.919000C198.784173,290.403289,199.441195,290.674948,200.126000,290.674000Z" transform="matrix(1 0 0 1 -112.12700000000000 -176.29599999999999)" fill="rgb(0,0,0)" stroke="none" stroke-width="1"/><path id="eksbXHhDOKN78" d="M330.122000,244.742000C330.805700,244.741822,331.461375,244.470273,331.945000,243.987000L341.759000,234.170000C342.765210,233.163325,342.765210,231.531675,341.759000,230.525000L331.945000,220.709000C331.461525,220.225483,330.805767,219.953843,330.122000,219.953843C329.438233,219.953843,328.782475,220.225483,328.299000,220.709000L318.485000,230.525000C317.478790,231.531675,317.478790,233.163325,318.485000,234.170000L328.299000,243.986000C328.782337,244.469826,329.438112,244.741777,330.122000,244.742000ZM330.122000,226.178000L336.291000,232.348000L330.122000,238.518000L323.953000,232.348000Z" transform="matrix(1 0 0 1 -208.51100000000000 -144.34500000000000)" fill="rgb(0,0,0)" stroke="none" stroke-width="1"/><path id="eksbXHhDOKN79" d="M232.056000,244.600000C232.739700,244.599822,233.395375,244.328273,233.879000,243.845000L243.838000,233.884000C243.888000,233.834000,243.938000,233.777000,243.985000,233.724000C244.853389,232.700541,244.791186,231.182007,243.842000,230.233000L233.878000,220.267000C233.394525,219.783483,232.738767,219.511843,232.055000,219.511843C231.371233,219.511843,230.715475,219.783483,230.232000,220.267000L220.268000,230.233000C219.261790,231.239675,219.261790,232.871325,220.268000,233.878000L230.232000,243.845000C230.715684,244.328798,231.371888,244.600417,232.056000,244.600000ZM232.056000,225.736000L238.374000,232.056000L232.056000,238.376000L225.738000,232.056000Z" transform="matrix(1 0 0 1 -144.05600000000001 -144.05300000000000)" fill="rgb(0,0,0)" stroke="none" stroke-width="1"/><path id="eksbXHhDOKN80" d="M150.225000,25.774000C121.833543,-2.607061,77.838296,-8.187648,43.260000,12.206000C33.501000,17.756000,36.160000,18.276000,36.888000,19.506000C37.616000,20.736000,35.727000,22.300000,45.888000,16.648000C84.371063,-6.114818,133.970218,5.709221,158.045122,43.385356C182.120025,81.061490,172.011503,131.038503,135.187015,156.396917C98.362528,181.755332,48.066973,173.374324,21.455146,137.445190C-5.156682,101.516056,1.486863,50.961656,36.478000,23.128000C49.690000,13.650000,37.778000,20.620000,36.891000,19.505000C36.004000,18.390000,44.551000,10.224000,33.268000,19.092000C7.721713,39.395908,-4.491671,72.169175,1.536583,104.239747C7.564837,136.310320,30.844842,162.411950,62.020025,172.054015C93.195209,181.696079,127.146353,173.295272,150.228000,150.228000C166.731264,133.724790,176.002707,111.341602,176.002707,88.002500C176.002707,64.663398,166.731264,42.280210,150.228000,25.777000Z" fill="rgb(0,0,0)" stroke="none" stroke-width="1"/><path id="eksbXHhDOKN81" d="M75.877000,178.526000C109.702672,194.690403,150.254230,184.133121,171.903374,153.526282C193.552517,122.919443,190.001272,81.166914,163.494000,54.656000C142.842485,34.016361,112.290129,26.839847,84.609146,36.126553C56.928163,45.413259,36.885747,69.563837,32.860500,98.482294C28.835254,127.400750,41.520402,156.106775,65.613000,172.600000C77.228000,179.446000,68.392000,173.105000,69.197000,171.931000C69.583565,171.367021,69.730251,170.672576,69.604788,170.000442C69.479326,169.328308,69.091992,168.733546,68.528000,168.347000C39.210150,148.298255,28.952189,109.829096,44.395183,77.844687C59.838176,45.860277,96.342724,29.969403,130.275566,40.459912C164.208408,50.950421,185.375405,84.670743,180.072919,119.790142C174.770432,154.909540,144.591439,180.877411,109.074000,180.882000C98.228000,180.882000,87.174000,180.763000,68.528000,168.347000C67.243000,167.732000,69.812000,170.647000,69.197000,171.931000C68.582000,173.215000,62.868000,171.406000,75.877000,178.526000Z" transform="matrix(1 0 0 1 -21.07600000000000 -21.07600000000000)" fill="rgb(0,0,0)" stroke="none" stroke-width="1"/></g></g></g><g id="eksbXHhDOKN82_to" transform="translate(552.608289,-215.251474)"><g id="eksbXHhDOKN82" transform="translate(0,0)"><g id="eksbXHhDOKN83" transform="matrix(1 0 0 1 2.57800000000000 2.57800000000000)"><path id="eksbXHhDOKN84" d="M85.421000,0C132.597716,0,170.842000,38.244284,170.842000,85.421000C170.842000,132.597716,132.597716,170.842000,85.421000,170.842000C38.244284,170.842000,0,132.597716,0,85.421000C0,38.244284,38.244284,0,85.421000,0Z" fill="rgb(255,199,21)" stroke="none" stroke-width="1"/><path id="eksbXHhDOKN85" d="M162.015000,40.200000C183.671737,73.229808,179.864766,116.799069,152.807827,145.572399C125.750888,174.345729,82.497762,180.821884,48.200000,161.235000C67.601689,190.800358,103.213954,205.355427,137.769693,197.842980C172.325431,190.330533,198.680364,162.303742,204.055934,127.351787C209.431504,92.399832,192.716331,57.748909,162.015000,40.200000Z" transform="matrix(1 0 0 1 -34.21000000000000 -28.96200000000000)" fill="rgb(255,206,75)" stroke="none" stroke-width="1"/><circle id="eksbXHhDOKN86" r="74.382000" transform="matrix(1 0 0 1 85.42100000000001 85.42100000000001)" fill="rgb(254,223,107)" stroke="none" stroke-width="1"/><g id="eksbXHhDOKN87" transform="matrix(1 0 0 1 42.56400000000000 42.55700000000000)"><path id="eksbXHhDOKN88" d="M207.120000,151.338000L222.051000,166.271000C222.308881,166.529002,222.658715,166.673956,223.023500,166.673956C223.388285,166.673956,223.738119,166.529002,223.996000,166.271000L231.866000,158.400000C232.402609,157.863091,232.402609,156.992909,231.866000,156.456000L207.120000,131.700000C206.862119,131.441998,206.512285,131.297044,206.147500,131.297044C205.782715,131.297044,205.432881,131.441998,205.175000,131.700000L180.439000,156.442000C179.902391,156.978909,179.902391,157.849091,180.439000,158.386000L188.309000,166.257000C188.566881,166.515002,188.916715,166.659956,189.281500,166.659956C189.646285,166.659956,189.996119,166.515002,190.254000,166.257000L205.176000,151.333000C205.714514,150.798322,206.584243,150.800558,207.120000,151.338000Z" transform="matrix(1 0 0 1 -163.29100000000000 -131.30199999999999)" fill="rgb(254,223,107)" stroke="none" stroke-width="1"/><path id="eksbXHhDOKN89" d="M139.600000,229.500000L131.730000,237.372000C131.193391,237.908909,131.193391,238.779091,131.730000,239.316000L139.599000,247.187000C139.856881,247.445002,140.206715,247.589956,140.571500,247.589956C140.936285,247.589956,141.286119,247.445002,141.544000,247.187000L149.414000,239.315000C149.950609,238.778091,149.950609,237.907909,149.414000,237.371000L141.544000,229.500000C141.286290,229.242059,140.936621,229.097129,140.572000,229.097129C140.207379,229.097129,139.857710,229.242059,139.600000,229.500000Z" transform="matrix(1 0 0 1 -131.32400000000001 -195.47999999999999)" fill="rgb(254,223,107)" stroke="none" stroke-width="1"/><path id="eksbXHhDOKN90" d="M207.100000,312.766000L231.850000,288.011000C232.108002,287.753119,232.252956,287.403285,232.252956,287.038500C232.252956,286.673715,232.108002,286.323881,231.850000,286.066000L223.976000,278.199000C223.439091,277.662391,222.568909,277.662391,222.032000,278.199000L207.100000,293.133000C206.842119,293.391002,206.492285,293.535956,206.127500,293.535956C205.762715,293.535956,205.412881,293.391002,205.155000,293.133000L190.230000,278.207000C189.693206,277.671057,188.823794,277.671057,188.287000,278.207000L180.406000,286.068000C180.147692,286.325921,180.002543,286.675970,180.002543,287.041000C180.002543,287.406030,180.147692,287.756079,180.406000,288.014000L205.156000,312.768000C205.692909,313.304609,206.563091,313.304609,207.100000,312.768000Z" transform="matrix(1 0 0 1 -163.26900000000001 -227.43899999999999)" fill="rgb(254,223,107)" stroke="none" stroke-width="1"/><path id="eksbXHhDOKN91" d="M335.159000,229.513000L327.289000,237.385000C326.752391,237.921909,326.752391,238.792091,327.289000,239.329000L335.159000,247.200000C335.416881,247.458002,335.766715,247.602956,336.131500,247.602956C336.496285,247.602956,336.846119,247.458002,337.104000,247.200000L344.974000,239.328000C345.510609,238.791091,345.510609,237.920909,344.974000,237.384000L337.104000,229.513000C336.846119,229.254998,336.496285,229.110044,336.131500,229.110044C335.766715,229.110044,335.416881,229.254998,335.159000,229.513000Z" transform="matrix(1 0 0 1 -259.66199999999998 -195.48900000000000)" fill="rgb(254,223,107)" stroke="none" stroke-width="1"/><path id="eksbXHhDOKN92" d="M247.055000,237.089000L239.036000,229.068000C238.778119,228.809998,238.428285,228.665044,238.063500,228.665044C237.698715,228.665044,237.348881,228.809998,237.091000,229.068000L229.072000,237.089000C228.535391,237.625909,228.535391,238.496091,229.072000,239.033000L237.091000,247.055000C237.348881,247.313002,237.698715,247.457956,238.063500,247.457956C238.428285,247.457956,238.778119,247.313002,239.036000,247.055000L247.055000,239.033000C247.591609,238.496091,247.591609,237.625909,247.055000,237.089000Z" transform="matrix(1 0 0 1 -195.20699999999999 -195.19700000000000)" fill="rgb(254,223,107)" stroke="none" stroke-width="1"/></g><path id="eksbXHhDOKN93" d="M214.388000,102.906000C223.476946,132.303907,216.062704,164.318251,194.975637,186.727657C173.888570,209.137064,142.383734,218.482356,112.488000,211.196000C142.579664,237.909775,188.459845,235.848693,216.034998,206.544343C243.610151,177.239992,242.880390,131.319337,214.388000,102.906000Z" transform="matrix(1 0 0 1 -76.40100000000000 -70.11000000000000)" fill="rgb(254,223,107)" stroke="none" stroke-width="1"/></g><g id="eksbXHhDOKN94"><path id="eksbXHhDOKN95" d="M201.963000,122.900000C201.479525,122.416483,200.823767,122.144843,200.140000,122.144843C199.456233,122.144843,198.800475,122.416483,198.317000,122.900000L171.636000,149.587000C170.629790,150.593675,170.629790,152.225325,171.636000,153.232000L181.450000,163.048000C181.933475,163.531517,182.589233,163.803157,183.273000,163.803157C183.956767,163.803157,184.612525,163.531517,185.096000,163.048000L200.140000,148L215.192000,163.055000C215.675475,163.538517,216.331233,163.810157,217.015000,163.810157C217.698767,163.810157,218.354525,163.538517,218.838000,163.055000L228.652000,153.239000C229.658210,152.232325,229.658210,150.600675,228.652000,149.594000ZM217.015000,157.589000L201.963000,142.534000C201.479525,142.050483,200.823767,141.778843,200.140000,141.778843C199.456233,141.778843,198.800475,142.050483,198.317000,142.534000L183.274000,157.580000L177.105000,151.410000L200.140000,128.370000L223.184000,151.419000Z" transform="matrix(1 0 0 1 -112.14100000000001 -80.15700000000000)" fill="rgb(0,0,0)" stroke="none" stroke-width="1"/><path id="eksbXHhDOKN96" d="M134.561000,219.939000C133.877300,219.939178,133.221625,220.210727,132.738000,220.694000L122.924000,230.511000C121.917790,231.517675,121.917790,233.149325,122.924000,234.156000L132.738000,243.972000C133.745018,244.978325,135.376982,244.978325,136.384000,243.972000L146.198000,234.156000C147.204210,233.149325,147.204210,231.517675,146.198000,230.511000L136.384000,220.695000C135.900601,220.211267,135.244866,219.939333,134.561000,219.939000ZM134.561000,238.503000L128.393000,232.333000L134.562000,226.163000L140.730000,232.333000Z" transform="matrix(1 0 0 1 -80.17400000000001 -144.33500000000001)" fill="rgb(0,0,0)" stroke="none" stroke-width="1"/><path id="eksbXHhDOKN97" d="M181.438000,269.400000L171.610000,279.200000C170.604869,280.215528,170.609787,281.852529,171.621000,282.862000L198.300000,309.553000C198.783475,310.036517,199.439233,310.308157,200.123000,310.308157C200.806767,310.308157,201.462525,310.036517,201.946000,309.553000L228.636000,282.853000C228.675000,282.814000,228.718000,282.768000,228.754000,282.727000C229.652035,281.705599,229.602137,280.162259,228.640000,279.201000L218.820000,269.390000C217.813325,268.383790,216.181675,268.383790,215.175000,269.390000L200.126000,284.450000L185.082000,269.400000C184.075212,268.395007,182.444788,268.395007,181.438000,269.400000ZM200.125000,290.673000C200.808700,290.672822,201.464375,290.401273,201.948000,289.918000L217,274.864000L223.172000,281.031000L200.124000,304.084000L177.077000,281.033000L183.255000,274.871000L198.300000,289.919000C198.784173,290.403289,199.441195,290.674948,200.126000,290.674000Z" transform="matrix(1 0 0 1 -112.12700000000000 -176.29599999999999)" fill="rgb(0,0,0)" stroke="none" stroke-width="1"/><path id="eksbXHhDOKN98" d="M330.122000,244.742000C330.805700,244.741822,331.461375,244.470273,331.945000,243.987000L341.759000,234.170000C342.765210,233.163325,342.765210,231.531675,341.759000,230.525000L331.945000,220.709000C331.461525,220.225483,330.805767,219.953843,330.122000,219.953843C329.438233,219.953843,328.782475,220.225483,328.299000,220.709000L318.485000,230.525000C317.478790,231.531675,317.478790,233.163325,318.485000,234.170000L328.299000,243.986000C328.782337,244.469826,329.438112,244.741777,330.122000,244.742000ZM330.122000,226.178000L336.291000,232.348000L330.122000,238.518000L323.953000,232.348000Z" transform="matrix(1 0 0 1 -208.51100000000000 -144.34500000000000)" fill="rgb(0,0,0)" stroke="none" stroke-width="1"/><path id="eksbXHhDOKN99" d="M232.056000,244.600000C232.739700,244.599822,233.395375,244.328273,233.879000,243.845000L243.838000,233.884000C243.888000,233.834000,243.938000,233.777000,243.985000,233.724000C244.853389,232.700541,244.791186,231.182007,243.842000,230.233000L233.878000,220.267000C233.394525,219.783483,232.738767,219.511843,232.055000,219.511843C231.371233,219.511843,230.715475,219.783483,230.232000,220.267000L220.268000,230.233000C219.261790,231.239675,219.261790,232.871325,220.268000,233.878000L230.232000,243.845000C230.715684,244.328798,231.371888,244.600417,232.056000,244.600000ZM232.056000,225.736000L238.374000,232.056000L232.056000,238.376000L225.738000,232.056000Z" transform="matrix(1 0 0 1 -144.05600000000001 -144.05300000000000)" fill="rgb(0,0,0)" stroke="none" stroke-width="1"/><path id="eksbXHhDOKN100" d="M150.225000,25.774000C121.833543,-2.607061,77.838296,-8.187648,43.260000,12.206000C33.501000,17.756000,36.160000,18.276000,36.888000,19.506000C37.616000,20.736000,35.727000,22.300000,45.888000,16.648000C84.371063,-6.114818,133.970218,5.709221,158.045122,43.385356C182.120025,81.061490,172.011503,131.038503,135.187015,156.396917C98.362528,181.755332,48.066973,173.374324,21.455146,137.445190C-5.156682,101.516056,1.486863,50.961656,36.478000,23.128000C49.690000,13.650000,37.778000,20.620000,36.891000,19.505000C36.004000,18.390000,44.551000,10.224000,33.268000,19.092000C7.721713,39.395908,-4.491671,72.169175,1.536583,104.239747C7.564837,136.310320,30.844842,162.411950,62.020025,172.054015C93.195209,181.696079,127.146353,173.295272,150.228000,150.228000C166.731264,133.724790,176.002707,111.341602,176.002707,88.002500C176.002707,64.663398,166.731264,42.280210,150.228000,25.777000Z" fill="rgb(0,0,0)" stroke="none" stroke-width="1"/><path id="eksbXHhDOKN101" d="M75.877000,178.526000C109.702672,194.690403,150.254230,184.133121,171.903374,153.526282C193.552517,122.919443,190.001272,81.166914,163.494000,54.656000C142.842485,34.016361,112.290129,26.839847,84.609146,36.126553C56.928163,45.413259,36.885747,69.563837,32.860500,98.482294C28.835254,127.400750,41.520402,156.106775,65.613000,172.600000C77.228000,179.446000,68.392000,173.105000,69.197000,171.931000C69.583565,171.367021,69.730251,170.672576,69.604788,170.000442C69.479326,169.328308,69.091992,168.733546,68.528000,168.347000C39.210150,148.298255,28.952189,109.829096,44.395183,77.844687C59.838176,45.860277,96.342724,29.969403,130.275566,40.459912C164.208408,50.950421,185.375405,84.670743,180.072919,119.790142C174.770432,154.909540,144.591439,180.877411,109.074000,180.882000C98.228000,180.882000,87.174000,180.763000,68.528000,168.347000C67.243000,167.732000,69.812000,170.647000,69.197000,171.931000C68.582000,173.215000,62.868000,171.406000,75.877000,178.526000Z" transform="matrix(1 0 0 1 -21.07600000000000 -21.07600000000000)" fill="rgb(0,0,0)" stroke="none" stroke-width="1"/></g></g></g><g id="eksbXHhDOKN102_to" transform="translate(598.599796,-445.553586)"><g id="eksbXHhDOKN102" transform="translate(0,0)"><g id="eksbXHhDOKN103" transform="matrix(1 0 0 1 2.57800000000000 2.57800000000000)"><path id="eksbXHhDOKN104" d="M85.421000,0C132.597716,0,170.842000,38.244284,170.842000,85.421000C170.842000,132.597716,132.597716,170.842000,85.421000,170.842000C38.244284,170.842000,0,132.597716,0,85.421000C0,38.244284,38.244284,0,85.421000,0Z" fill="rgb(255,199,21)" stroke="none" stroke-width="1"/><path id="eksbXHhDOKN105" d="M162.015000,40.200000C183.671737,73.229808,179.864766,116.799069,152.807827,145.572399C125.750888,174.345729,82.497762,180.821884,48.200000,161.235000C67.601689,190.800358,103.213954,205.355427,137.769693,197.842980C172.325431,190.330533,198.680364,162.303742,204.055934,127.351787C209.431504,92.399832,192.716331,57.748909,162.015000,40.200000Z" transform="matrix(1 0 0 1 -34.21000000000000 -28.96200000000000)" fill="rgb(255,206,75)" stroke="none" stroke-width="1"/><circle id="eksbXHhDOKN106" r="74.382000" transform="matrix(1 0 0 1 85.42100000000001 85.42100000000001)" fill="rgb(254,223,107)" stroke="none" stroke-width="1"/><g id="eksbXHhDOKN107" transform="matrix(1 0 0 1 42.56400000000000 42.55700000000000)"><path id="eksbXHhDOKN108" d="M207.120000,151.338000L222.051000,166.271000C222.308881,166.529002,222.658715,166.673956,223.023500,166.673956C223.388285,166.673956,223.738119,166.529002,223.996000,166.271000L231.866000,158.400000C232.402609,157.863091,232.402609,156.992909,231.866000,156.456000L207.120000,131.700000C206.862119,131.441998,206.512285,131.297044,206.147500,131.297044C205.782715,131.297044,205.432881,131.441998,205.175000,131.700000L180.439000,156.442000C179.902391,156.978909,179.902391,157.849091,180.439000,158.386000L188.309000,166.257000C188.566881,166.515002,188.916715,166.659956,189.281500,166.659956C189.646285,166.659956,189.996119,166.515002,190.254000,166.257000L205.176000,151.333000C205.714514,150.798322,206.584243,150.800558,207.120000,151.338000Z" transform="matrix(1 0 0 1 -163.29100000000000 -131.30199999999999)" fill="rgb(254,223,107)" stroke="none" stroke-width="1"/><path id="eksbXHhDOKN109" d="M139.600000,229.500000L131.730000,237.372000C131.193391,237.908909,131.193391,238.779091,131.730000,239.316000L139.599000,247.187000C139.856881,247.445002,140.206715,247.589956,140.571500,247.589956C140.936285,247.589956,141.286119,247.445002,141.544000,247.187000L149.414000,239.315000C149.950609,238.778091,149.950609,237.907909,149.414000,237.371000L141.544000,229.500000C141.286290,229.242059,140.936621,229.097129,140.572000,229.097129C140.207379,229.097129,139.857710,229.242059,139.600000,229.500000Z" transform="matrix(1 0 0 1 -131.32400000000001 -195.47999999999999)" fill="rgb(254,223,107)" stroke="none" stroke-width="1"/><path id="eksbXHhDOKN110" d="M207.100000,312.766000L231.850000,288.011000C232.108002,287.753119,232.252956,287.403285,232.252956,287.038500C232.252956,286.673715,232.108002,286.323881,231.850000,286.066000L223.976000,278.199000C223.439091,277.662391,222.568909,277.662391,222.032000,278.199000L207.100000,293.133000C206.842119,293.391002,206.492285,293.535956,206.127500,293.535956C205.762715,293.535956,205.412881,293.391002,205.155000,293.133000L190.230000,278.207000C189.693206,277.671057,188.823794,277.671057,188.287000,278.207000L180.406000,286.068000C180.147692,286.325921,180.002543,286.675970,180.002543,287.041000C180.002543,287.406030,180.147692,287.756079,180.406000,288.014000L205.156000,312.768000C205.692909,313.304609,206.563091,313.304609,207.100000,312.768000Z" transform="matrix(1 0 0 1 -163.26900000000001 -227.43899999999999)" fill="rgb(254,223,107)" stroke="none" stroke-width="1"/><path id="eksbXHhDOKN111" d="M335.159000,229.513000L327.289000,237.385000C326.752391,237.921909,326.752391,238.792091,327.289000,239.329000L335.159000,247.200000C335.416881,247.458002,335.766715,247.602956,336.131500,247.602956C336.496285,247.602956,336.846119,247.458002,337.104000,247.200000L344.974000,239.328000C345.510609,238.791091,345.510609,237.920909,344.974000,237.384000L337.104000,229.513000C336.846119,229.254998,336.496285,229.110044,336.131500,229.110044C335.766715,229.110044,335.416881,229.254998,335.159000,229.513000Z" transform="matrix(1 0 0 1 -259.66199999999998 -195.48900000000000)" fill="rgb(254,223,107)" stroke="none" stroke-width="1"/><path id="eksbXHhDOKN112" d="M247.055000,237.089000L239.036000,229.068000C238.778119,228.809998,238.428285,228.665044,238.063500,228.665044C237.698715,228.665044,237.348881,228.809998,237.091000,229.068000L229.072000,237.089000C228.535391,237.625909,228.535391,238.496091,229.072000,239.033000L237.091000,247.055000C237.348881,247.313002,237.698715,247.457956,238.063500,247.457956C238.428285,247.457956,238.778119,247.313002,239.036000,247.055000L247.055000,239.033000C247.591609,238.496091,247.591609,237.625909,247.055000,237.089000Z" transform="matrix(1 0 0 1 -195.20699999999999 -195.19700000000000)" fill="rgb(254,223,107)" stroke="none" stroke-width="1"/></g><path id="eksbXHhDOKN113" d="M214.388000,102.906000C223.476946,132.303907,216.062704,164.318251,194.975637,186.727657C173.888570,209.137064,142.383734,218.482356,112.488000,211.196000C142.579664,237.909775,188.459845,235.848693,216.034998,206.544343C243.610151,177.239992,242.880390,131.319337,214.388000,102.906000Z" transform="matrix(1 0 0 1 -76.40100000000000 -70.11000000000000)" fill="rgb(254,223,107)" stroke="none" stroke-width="1"/></g><g id="eksbXHhDOKN114"><path id="eksbXHhDOKN115" d="M201.963000,122.900000C201.479525,122.416483,200.823767,122.144843,200.140000,122.144843C199.456233,122.144843,198.800475,122.416483,198.317000,122.900000L171.636000,149.587000C170.629790,150.593675,170.629790,152.225325,171.636000,153.232000L181.450000,163.048000C181.933475,163.531517,182.589233,163.803157,183.273000,163.803157C183.956767,163.803157,184.612525,163.531517,185.096000,163.048000L200.140000,148L215.192000,163.055000C215.675475,163.538517,216.331233,163.810157,217.015000,163.810157C217.698767,163.810157,218.354525,163.538517,218.838000,163.055000L228.652000,153.239000C229.658210,152.232325,229.658210,150.600675,228.652000,149.594000ZM217.015000,157.589000L201.963000,142.534000C201.479525,142.050483,200.823767,141.778843,200.140000,141.778843C199.456233,141.778843,198.800475,142.050483,198.317000,142.534000L183.274000,157.580000L177.105000,151.410000L200.140000,128.370000L223.184000,151.419000Z" transform="matrix(1 0 0 1 -112.14100000000001 -80.15700000000000)" fill="rgb(0,0,0)" stroke="none" stroke-width="1"/><path id="eksbXHhDOKN116" d="M134.561000,219.939000C133.877300,219.939178,133.221625,220.210727,132.738000,220.694000L122.924000,230.511000C121.917790,231.517675,121.917790,233.149325,122.924000,234.156000L132.738000,243.972000C133.745018,244.978325,135.376982,244.978325,136.384000,243.972000L146.198000,234.156000C147.204210,233.149325,147.204210,231.517675,146.198000,230.511000L136.384000,220.695000C135.900601,220.211267,135.244866,219.939333,134.561000,219.939000ZM134.561000,238.503000L128.393000,232.333000L134.562000,226.163000L140.730000,232.333000Z" transform="matrix(1 0 0 1 -80.17400000000001 -144.33500000000001)" fill="rgb(0,0,0)" stroke="none" stroke-width="1"/><path id="eksbXHhDOKN117" d="M181.438000,269.400000L171.610000,279.200000C170.604869,280.215528,170.609787,281.852529,171.621000,282.862000L198.300000,309.553000C198.783475,310.036517,199.439233,310.308157,200.123000,310.308157C200.806767,310.308157,201.462525,310.036517,201.946000,309.553000L228.636000,282.853000C228.675000,282.814000,228.718000,282.768000,228.754000,282.727000C229.652035,281.705599,229.602137,280.162259,228.640000,279.201000L218.820000,269.390000C217.813325,268.383790,216.181675,268.383790,215.175000,269.390000L200.126000,284.450000L185.082000,269.400000C184.075212,268.395007,182.444788,268.395007,181.438000,269.400000ZM200.125000,290.673000C200.808700,290.672822,201.464375,290.401273,201.948000,289.918000L217,274.864000L223.172000,281.031000L200.124000,304.084000L177.077000,281.033000L183.255000,274.871000L198.300000,289.919000C198.784173,290.403289,199.441195,290.674948,200.126000,290.674000Z" transform="matrix(1 0 0 1 -112.12700000000000 -176.29599999999999)" fill="rgb(0,0,0)" stroke="none" stroke-width="1"/><path id="eksbXHhDOKN118" d="M330.122000,244.742000C330.805700,244.741822,331.461375,244.470273,331.945000,243.987000L341.759000,234.170000C342.765210,233.163325,342.765210,231.531675,341.759000,230.525000L331.945000,220.709000C331.461525,220.225483,330.805767,219.953843,330.122000,219.953843C329.438233,219.953843,328.782475,220.225483,328.299000,220.709000L318.485000,230.525000C317.478790,231.531675,317.478790,233.163325,318.485000,234.170000L328.299000,243.986000C328.782337,244.469826,329.438112,244.741777,330.122000,244.742000ZM330.122000,226.178000L336.291000,232.348000L330.122000,238.518000L323.953000,232.348000Z" transform="matrix(1 0 0 1 -208.51100000000000 -144.34500000000000)" fill="rgb(0,0,0)" stroke="none" stroke-width="1"/><path id="eksbXHhDOKN119" d="M232.056000,244.600000C232.739700,244.599822,233.395375,244.328273,233.879000,243.845000L243.838000,233.884000C243.888000,233.834000,243.938000,233.777000,243.985000,233.724000C244.853389,232.700541,244.791186,231.182007,243.842000,230.233000L233.878000,220.267000C233.394525,219.783483,232.738767,219.511843,232.055000,219.511843C231.371233,219.511843,230.715475,219.783483,230.232000,220.267000L220.268000,230.233000C219.261790,231.239675,219.261790,232.871325,220.268000,233.878000L230.232000,243.845000C230.715684,244.328798,231.371888,244.600417,232.056000,244.600000ZM232.056000,225.736000L238.374000,232.056000L232.056000,238.376000L225.738000,232.056000Z" transform="matrix(1 0 0 1 -144.05600000000001 -144.05300000000000)" fill="rgb(0,0,0)" stroke="none" stroke-width="1"/><path id="eksbXHhDOKN120" d="M150.225000,25.774000C121.833543,-2.607061,77.838296,-8.187648,43.260000,12.206000C33.501000,17.756000,36.160000,18.276000,36.888000,19.506000C37.616000,20.736000,35.727000,22.300000,45.888000,16.648000C84.371063,-6.114818,133.970218,5.709221,158.045122,43.385356C182.120025,81.061490,172.011503,131.038503,135.187015,156.396917C98.362528,181.755332,48.066973,173.374324,21.455146,137.445190C-5.156682,101.516056,1.486863,50.961656,36.478000,23.128000C49.690000,13.650000,37.778000,20.620000,36.891000,19.505000C36.004000,18.390000,44.551000,10.224000,33.268000,19.092000C7.721713,39.395908,-4.491671,72.169175,1.536583,104.239747C7.564837,136.310320,30.844842,162.411950,62.020025,172.054015C93.195209,181.696079,127.146353,173.295272,150.228000,150.228000C166.731264,133.724790,176.002707,111.341602,176.002707,88.002500C176.002707,64.663398,166.731264,42.280210,150.228000,25.777000Z" fill="rgb(0,0,0)" stroke="none" stroke-width="1"/><path id="eksbXHhDOKN121" d="M75.877000,178.526000C109.702672,194.690403,150.254230,184.133121,171.903374,153.526282C193.552517,122.919443,190.001272,81.166914,163.494000,54.656000C142.842485,34.016361,112.290129,26.839847,84.609146,36.126553C56.928163,45.413259,36.885747,69.563837,32.860500,98.482294C28.835254,127.400750,41.520402,156.106775,65.613000,172.600000C77.228000,179.446000,68.392000,173.105000,69.197000,171.931000C69.583565,171.367021,69.730251,170.672576,69.604788,170.000442C69.479326,169.328308,69.091992,168.733546,68.528000,168.347000C39.210150,148.298255,28.952189,109.829096,44.395183,77.844687C59.838176,45.860277,96.342724,29.969403,130.275566,40.459912C164.208408,50.950421,185.375405,84.670743,180.072919,119.790142C174.770432,154.909540,144.591439,180.877411,109.074000,180.882000C98.228000,180.882000,87.174000,180.763000,68.528000,168.347000C67.243000,167.732000,69.812000,170.647000,69.197000,171.931000C68.582000,173.215000,62.868000,171.406000,75.877000,178.526000Z" transform="matrix(1 0 0 1 -21.07600000000000 -21.07600000000000)" fill="rgb(0,0,0)" stroke="none" stroke-width="1"/></g></g></g><g id="eksbXHhDOKN122_to" transform="translate(397.589645,-133.154534)"><g id="eksbXHhDOKN122" transform="translate(0,0)"><g id="eksbXHhDOKN123" transform="matrix(1 0 0 1 2.13900000000000 2.13900000000000)"><path id="eksbXHhDOKN124" d="M70.861000,0C109.996450,-0,141.722000,31.725550,141.722000,70.861000C141.722000,109.996450,109.996450,141.722000,70.861000,141.722000C31.725550,141.722000,0,109.996450,0,70.861000C-0,52.067496,7.465690,34.043723,20.754705,20.754707C34.043720,7.465692,52.067493,0,70.861000,0Z" fill="rgb(255,199,21)" stroke="none" stroke-width="1"/><path id="eksbXHhDOKN125" d="M142.615000,40.200000C160.576661,67.599738,157.416778,103.739728,134.972643,127.606604C112.528509,151.473480,76.650643,156.845856,48.200000,140.600000C64.293186,165.127448,93.835259,177.203440,122.501642,170.972480C151.168025,164.741521,173.031683,141.491917,177.491207,112.497107C181.950731,83.502298,168.084073,54.757221,142.615000,40.200000Z" transform="matrix(1 0 0 1 -36.59500000000000 -30.87800000000000)" fill="rgb(255,206,75)" stroke="none" stroke-width="1"/><circle id="eksbXHhDOKN126" r="61.703000" transform="matrix(1 0 0 1 70.86100000000000 70.86100000000000)" fill="rgb(254,223,107)" stroke="none" stroke-width="1"/><path id="eksbXHhDOKN127" d="M197.019000,102.906000C204.560987,127.292396,198.411907,153.850520,180.919447,172.440618C163.426987,191.030715,137.291737,198.782736,112.492000,192.737000C137.456104,214.881241,175.502576,213.164208,198.370527,188.861312C221.238477,164.558417,220.639715,126.477927,197.019000,102.906000Z" transform="matrix(1 0 0 1 -82.55300000000000 -75.70099999999999)" fill="rgb(254,223,107)" stroke="none" stroke-width="1"/></g><g id="eksbXHhDOKN128"><path id="eksbXHhDOKN129" d="M196.665000,122.770000C195.829669,121.934670,194.475331,121.934670,193.640000,122.770000L171.507000,144.908000C170.672337,145.743217,170.672337,147.096783,171.507000,147.932000L179.648000,156.075000C180.483331,156.910330,181.837669,156.910330,182.673000,156.075000L195.152000,143.594000L207.639000,156.083000C208.474331,156.918330,209.828669,156.918330,210.664000,156.083000L218.805000,147.940000C219.639663,147.104783,219.639663,145.751217,218.805000,144.916000ZM209.152000,151.546000L196.665000,139.057000C195.829669,138.221670,194.475331,138.221670,193.640000,139.057000L181.161000,151.538000L176.044000,146.420000L195.153000,127.307000L214.269000,146.427000Z" transform="matrix(1 0 0 1 -122.15400000000000 -87.31399999999999)" fill="rgb(0,0,0)" stroke="none" stroke-width="1"/><path id="eksbXHhDOKN130" d="M132.449000,219.939000C131.881826,219.939376,131.337998,220.164892,130.937000,220.566000L122.796000,228.709000C121.961337,229.544217,121.961337,230.897783,122.796000,231.733000L130.937000,239.876000C131.772331,240.711330,133.126669,240.711330,133.962000,239.876000L142.103000,231.733000C142.937663,230.897783,142.937663,229.544217,142.103000,228.709000L133.962000,220.566000C133.560820,220.164554,133.016543,219.939001,132.449000,219.939000ZM132.449000,235.339000L127.332000,230.221000L132.449000,225.102000L137.566000,230.220000Z" transform="matrix(1 0 0 1 -87.33199999999999 -157.22200000000001)" fill="rgb(0,0,0)" stroke="none" stroke-width="1"/><path id="eksbXHhDOKN131" d="M179.635000,269.272000L171.482000,277.404000C170.647660,278.246265,170.651684,279.604693,171.491000,280.442000L193.624000,302.579000C194.459331,303.414330,195.813669,303.414330,196.649000,302.579000L218.789000,280.434000C218.822000,280.401000,218.857000,280.364000,218.889000,280.334000C219.634144,279.486688,219.592555,278.206175,218.794000,277.409000L210.648000,269.270000C210.247031,268.868921,209.703134,268.643589,209.136000,268.643589C208.568866,268.643589,208.024969,268.868921,207.624000,269.270000L195.138000,281.758000L182.659000,269.276000C181.824888,268.440231,180.471320,268.438441,179.635000,269.272000ZM195.135000,286.919000C195.702031,286.918890,196.245839,286.693742,196.647000,286.293000L209.136000,273.800000L214.256000,278.916000L195.136000,298.040000L176.019000,278.920000L181.144000,273.808000L193.625000,286.291000C194.025811,286.692388,194.569760,286.917954,195.137000,286.918000Z" transform="matrix(1 0 0 1 -122.13800000000001 -192.03600000000000)" fill="rgb(0,0,0)" stroke="none" stroke-width="1"/><path id="eksbXHhDOKN132" d="M328.010000,240.516000C328.577174,240.515624,329.121002,240.290108,329.522000,239.889000L337.663000,231.746000C338.497663,230.910783,338.497663,229.557217,337.663000,228.722000L329.522000,220.579000C328.686669,219.743670,327.332331,219.743670,326.497000,220.579000L318.356000,228.722000C317.521337,229.557217,317.521337,230.910783,318.356000,231.746000L326.497000,239.889000C326.898118,240.290540,327.442435,240.516109,328.010000,240.516000ZM328.010000,225.116000L333.127000,230.234000L328.010000,235.353000L322.893000,230.235000Z" transform="matrix(1 0 0 1 -227.12799999999999 -157.23200000000000)" fill="rgb(0,0,0)" stroke="none" stroke-width="1"/><path id="eksbXHhDOKN133" d="M229.918000,240.320000C230.485031,240.319890,231.028839,240.094742,231.430000,239.694000L239.691000,231.431000C239.732000,231.390000,239.776000,231.342000,239.813000,231.298000C240.536329,230.448607,240.484947,229.185819,239.695000,228.398000L231.430000,220.131000C230.594669,219.295670,229.240331,219.295670,228.405000,220.131000L220.140000,228.400000C219.305337,229.235217,219.305337,230.588783,220.140000,231.424000L228.405000,239.692000C228.805954,240.093906,229.350292,240.319844,229.918000,240.320000ZM229.918000,224.671000L235.159000,229.914000L229.918000,235.157000L224.677000,229.914000Z" transform="matrix(1 0 0 1 -156.91900000000001 -156.91399999999999)" fill="rgb(0,0,0)" stroke="none" stroke-width="1"/><path id="eksbXHhDOKN134" d="M124.618000,21.381000C101.065904,-2.161966,64.570167,-6.791181,35.886000,10.126000C27.786000,14.726000,29.999000,15.161000,30.600000,16.178000C31.201000,17.195000,29.637000,18.496000,38.063000,13.808000C69.985447,-5.076199,111.130490,4.730404,131.103125,35.983395C151.075760,67.236386,142.692313,108.694822,112.145874,129.732185C81.599435,150.769548,39.876817,143.819209,17.799696,114.015580C-4.277425,84.211951,1.231556,42.274674,30.257000,19.184000C41.217000,11.321000,31.335000,17.103000,30.600000,16.179000C29.865000,15.255000,36.955000,8.479000,27.595000,15.836000C6.403522,32.679024,-3.727848,59.865685,1.272769,86.469444C6.273386,113.073203,25.584865,134.725593,51.445765,142.724344C77.306665,150.723094,105.470501,143.754771,124.618000,124.620000C153.125880,96.111794,153.125880,49.891206,124.618000,21.383000Z" fill="rgb(0,0,0)" stroke="none" stroke-width="1"/><path id="eksbXHhDOKN135" d="M68.418000,153.569000C96.477630,166.977084,130.115982,158.219176,148.074564,132.830027C166.033146,107.440878,163.087842,72.806143,141.100000,50.814000C123.969058,33.693056,98.625363,27.739787,75.663236,35.442814C52.701109,43.145840,36.074865,63.178621,32.734705,87.166935C29.394545,111.155249,39.915679,134.968062,59.900000,148.651000C69.535000,154.330000,62.205000,149.070000,62.873000,148.096000C63.540447,147.121714,63.292003,145.790860,62.318000,145.123000C37.998465,128.490531,29.490600,96.578391,42.302424,70.046599C55.114248,43.514807,85.396841,30.334026,113.545158,39.037534C141.693475,47.741042,159.251218,75.714138,154.851450,104.846952C150.451682,133.979766,125.416177,155.520238,95.953000,155.523000C86.953000,155.523000,77.786000,155.423000,62.318000,145.123000C61.252000,144.613000,63.383000,147.031000,62.873000,148.096000C62.363000,149.161000,57.626000,147.663000,68.418000,153.569000Z" transform="matrix(1 0 0 1 -22.95700000000000 -22.95700000000000)" fill="rgb(0,0,0)" stroke="none" stroke-width="1"/></g></g></g></g><g id="eksbXHhDOKN136" transform="matrix(1 0 0 1 749.74400000000003 434.74799999999999)"><g id="eksbXHhDOKN137" transform="matrix(1 0 0 1 20.58300000000000 20.63500000000000)"><circle id="eksbXHhDOKN138" r="85.867000" transform="matrix(1 0 0 1 85.86700000000000 85.86700000000000)" fill="rgb(255,199,21)" stroke="none" stroke-width="1"/><path id="eksbXHhDOKN139" d="M132.858000,81.057000L96.300000,81.057000L96.300000,44.500000C96.331451,41.752352,94.883622,39.199855,92.509193,37.816872C90.134764,36.433889,87.200236,36.433889,84.825807,37.816872C82.451378,39.199855,81.003549,41.752352,81.035000,44.500000L81.035000,81.060000L44.473000,81.060000C41.725352,81.028549,39.172855,82.476378,37.789872,84.850807C36.406889,87.225236,36.406889,90.159764,37.789872,92.534193C39.172855,94.908622,41.725352,96.356451,44.473000,96.325000L81.033000,96.325000L81.033000,132.885000C81.080861,137.066237,84.483989,140.430634,88.665500,140.430634C92.847011,140.430634,96.250139,137.066237,96.298000,132.885000L96.298000,96.322000L132.858000,96.322000C135.605648,96.353451,138.158145,94.905622,139.541128,92.531193C140.924111,90.156764,140.924111,87.222236,139.541128,84.847807C138.158145,82.473378,135.605648,81.025549,132.858000,81.057000Z" transform="matrix(1 0 0 1 -2.79900000000000 -2.82300000000000)" fill="rgb(255,250,227)" stroke="none" stroke-width="1"/></g><g id="eksbXHhDOKN140" transform="matrix(1 0 0 1 17.25700000000000 17.25000000000000)"><path id="eksbXHhDOKN141" d="M106.450000,17.250000C67.832363,17.259211,33.605734,42.115924,21.648876,78.835885C9.692017,115.555846,22.720362,155.799859,53.928371,178.545895C85.136380,201.291932,127.436634,201.374311,158.733000,178.750000C190.029366,156.125689,163.733000,174.808000,167.751000,171.076000C171.769000,167.344000,174.803000,163.820000,174.803000,163.820000C175.190436,162.901360,175.139293,161.856415,174.664000,160.980000C174.170000,160.297000,169.495000,159.845000,169.495000,159.845000C169.495000,159.845000,165.776000,164.061000,162.107000,167.435000C159.795591,169.545701,157.361339,171.517813,154.817000,173.341000C121.212299,197.618069,74.811629,193.191314,46.403551,162.998051C17.995473,132.804789,16.401333,86.220702,42.678901,54.156058C68.956469,22.091414,114.945972,14.503002,150.131673,36.426015C185.317373,58.349028,198.773322,102.975879,181.571000,140.695000C164.368678,178.414121,178.807000,145.758000,175.750000,150.572000C172.693000,155.386000,169.342000,159.948000,169.342000,159.948000C169.342000,159.948000,173.448000,165.166000,174.664000,163.998000C177.269572,160.791737,179.698827,157.446129,181.941000,153.976000C184.048083,150.589680,185.953398,147.081910,187.647000,143.471000C200.218779,115.850928,197.894345,83.735230,181.476316,58.213351C165.058287,32.691471,136.796629,17.260989,106.450000,17.250000Z" transform="matrix(1 0 0 1 -17.25700000000000 -17.25000000000000)" fill="rgb(0,0,0)" stroke="none" stroke-width="1"/><path id="eksbXHhDOKN142" d="M90.255000,145.419000C96.312155,145.412937,101.220937,140.504155,101.227000,134.447000L101.227000,101.226000L134.448000,101.226000C140.507668,101.226000,145.420000,96.313668,145.420000,90.254000C145.420000,84.194332,140.507668,79.282000,134.448000,79.282000L101.226000,79.282000L101.226000,46.062000C101.226000,40.002332,96.313668,35.090000,90.254000,35.090000C84.194332,35.090000,79.282000,40.002332,79.282000,46.062000L79.282000,79.283000L46.062000,79.283000C40.002332,79.283000,35.090000,84.195332,35.090000,90.255000C35.090000,96.314668,40.002332,101.227000,46.062000,101.227000L79.283000,101.227000L79.283000,134.448000C79.290714,140.504308,84.198691,145.411838,90.255000,145.419000ZM46.062000,94.548000C43.690765,94.548000,41.768500,92.625735,41.768500,90.254500C41.768500,87.883265,43.690765,85.961000,46.062000,85.961000L82.622000,85.961000C84.465622,85.959897,85.959897,84.465622,85.961000,82.622000L85.961000,46.062000C85.961000,43.690765,87.883265,41.768500,90.254500,41.768500C92.625735,41.768500,94.548000,43.690765,94.548000,46.062000L94.548000,82.622000C94.548000,84.466079,96.042921,85.961000,97.887000,85.961000L134.447000,85.961000C136.818235,85.961000,138.740500,87.883265,138.740500,90.254500C138.740500,92.625735,136.818235,94.548000,134.447000,94.548000L97.887000,94.548000C96.042921,94.548000,94.548000,96.042921,94.548000,97.887000L94.548000,134.447000C94.548000,136.818235,92.625735,138.740500,90.254500,138.740500C87.883265,138.740500,85.961000,136.818235,85.961000,134.447000L85.961000,97.887000C85.959897,96.043378,84.465622,94.549103,82.622000,94.548000Z" transform="matrix(1 0 0 1 -1.06100000000000 -1.04900000000000)" fill="rgb(0,0,0)" stroke="none" stroke-width="1"/></g></g></g><clipPath id="eksbXHhDOKN143"><rect id="eksbXHhDOKN144" width="1000" height="1000" rx="0" ry="0" fill="rgb(0,0,0)" stroke="none" stroke-width="1"/></clipPath></g></svg>