<svg id="equVYMTtHEh1" xmlns="http://www.w3.org/2000/svg" xmlns:xlink="http://www.w3.org/1999/xlink" viewBox="0 0 1000 1000" shape-rendering="geometricPrecision" text-rendering="geometricPrecision"><style><![CDATA[#equVYMTtHEh3 {animation: equVYMTtHEh3_s_do 3000ms linear infinite normal forwards}@keyframes equVYMTtHEh3_s_do { 0% {stroke-dashoffset: 324.640000} 66.666667% {stroke-dashoffset: 0} 100% {stroke-dashoffset: 0}} #equVYMTtHEh6 {animation: equVYMTtHEh6_s_do 3000ms linear infinite normal forwards}@keyframes equVYMTtHEh6_s_do { 0% {stroke-dashoffset: 317.690000} 66.666667% {stroke-dashoffset: 0} 100% {stroke-dashoffset: 0}} #equVYMTtHEh9 {animation: equVYMTtHEh9_s_do 3000ms linear infinite normal forwards}@keyframes equVYMTtHEh9_s_do { 0% {stroke-dashoffset: 149.660000} 66.666667% {stroke-dashoffset: 0} 100% {stroke-dashoffset: 0}} #equVYMTtHEh12 {animation: equVYMTtHEh12_s_do 3000ms linear infinite normal forwards}@keyframes equVYMTtHEh12_s_do { 0% {stroke-dashoffset: 149.660000} 66.666667% {stroke-dashoffset: 0} 100% {stroke-dashoffset: 0}} #equVYMTtHEh15 {animation: equVYMTtHEh15_s_do 3000ms linear infinite normal forwards}@keyframes equVYMTtHEh15_s_do { 0% {stroke-dashoffset: 149.660000} 66.666667% {stroke-dashoffset: 0} 100% {stroke-dashoffset: 0}} #equVYMTtHEh18 {animation: equVYMTtHEh18_s_do 3000ms linear infinite normal forwards}@keyframes equVYMTtHEh18_s_do { 0% {stroke-dashoffset: 149.660000} 66.666667% {stroke-dashoffset: 0} 100% {stroke-dashoffset: 0}} #equVYMTtHEh21 {animation: equVYMTtHEh21_s_do 3000ms linear infinite normal forwards}@keyframes equVYMTtHEh21_s_do { 0% {stroke-dashoffset: 301.500000} 66.666667% {stroke-dashoffset: 0} 100% {stroke-dashoffset: 0}} #equVYMTtHEh24 {animation: equVYMTtHEh24_s_do 3000ms linear infinite normal forwards}@keyframes equVYMTtHEh24_s_do { 0% {stroke-dashoffset: 321.100000} 66.666667% {stroke-dashoffset: 0} 100% {stroke-dashoffset: 0}} #equVYMTtHEh31_tr {animation: equVYMTtHEh31_tr__tr 3000ms linear infinite normal forwards}@keyframes equVYMTtHEh31_tr__tr { 0% {transform: translate(500.127109px,500.569813px) rotate(-10deg)} 60% {transform: translate(500.127109px,500.569813px) rotate(-10deg)} 83.333333% {transform: translate(500.127109px,500.569813px) rotate(0deg)} 100% {transform: translate(500.127109px,500.569813px) rotate(0deg)}} #equVYMTtHEh31 {animation: equVYMTtHEh31_c_o 3000ms linear infinite normal forwards}@keyframes equVYMTtHEh31_c_o { 0% {opacity: 0} 60% {opacity: 0} 73.333333% {opacity: 1} 100% {opacity: 1}}]]></style><g id="equVYMTtHEh2" transform="matrix(-1 0 0 1 972.75399832453115 635.15861470000175)"><polyline id="equVYMTtHEh3" points="117.458135,149.743751 117.458136,56.744778 178.539906,56.744778 349.102677,56.744786" transform="matrix(1 0 0 1 -43.77267820000002 14.84159940999996)" fill="none" stroke="rgb(0,0,0)" stroke-width="25" stroke-linecap="round" stroke-linejoin="round" stroke-dashoffset="324.640000" stroke-dasharray="324.640000"/><circle id="equVYMTtHEh4" r="27.500000" transform="matrix(1 0 0 1 73.68545532000002 164.58535004000007)" fill="rgb(2,222,37)" stroke="rgb(0,0,0)" stroke-width="20"/></g><g id="equVYMTtHEh5" transform="matrix(1 0 0 1 13.75000146999996 635.15862233000166)"><polyline id="equVYMTtHEh6" points="117.458135,149.743751 117.458136,56.744778 178.539906,56.744778 342.146677,56.744771" transform="matrix(1 0 0 1 -43.77267820000002 14.84159940999996)" fill="none" stroke="rgb(0,0,0)" stroke-width="25" stroke-linecap="round" stroke-linejoin="round" stroke-dashoffset="317.690000" stroke-dasharray="317.690000"/><circle id="equVYMTtHEh7" r="27.500000" transform="matrix(1 0 0 1 73.68545532000002 164.58535004000007)" fill="rgb(2,123,222)" stroke="rgb(0,0,0)" stroke-width="20"/></g><g id="equVYMTtHEh8" transform="matrix(-1 0 0 1 986.43807226453225 398.13464502000136)"><polyline id="equVYMTtHEh9" points="117.458135,149.743751 173.095273,149.743751 210.992004,149.743751 267.121677,149.743751" transform="matrix(1 0 0 1 -43.77267820000002 14.90660599999990)" fill="none" stroke="rgb(0,0,0)" stroke-width="25" stroke-linecap="round" stroke-linejoin="round" stroke-dashoffset="149.660000" stroke-dasharray="149.660000"/><circle id="equVYMTtHEh10" r="27.500000" transform="matrix(1 0 0 1 73.68545532000002 164.58535004000007)" fill="rgb(17,216,243)" stroke="rgb(0,0,0)" stroke-width="20"/></g><g id="equVYMTtHEh11" transform="matrix(1 0 0 1 13.75000216999990 403.04114233000166)"><polyline id="equVYMTtHEh12" points="117.458135,149.743751 173.095273,149.743751 210.992004,149.743751 267.121677,149.743751" transform="matrix(1 0 0 1 -43.77267820000002 14.90660599999990)" fill="none" stroke="rgb(0,0,0)" stroke-width="25" stroke-linecap="round" stroke-linejoin="round" stroke-dashoffset="149.660000" stroke-dasharray="149.660000"/><circle id="equVYMTtHEh13" r="27.500000" transform="matrix(1 0 0 1 73.68545532000002 164.58535004000007)" fill="rgb(2,222,37)" stroke="rgb(0,0,0)" stroke-width="20"/></g><g id="equVYMTtHEh14" transform="matrix(-1 0 0 1 994.18807275453116 201.74464129000052)"><polyline id="equVYMTtHEh15" points="117.458135,149.743751 173.095273,149.743751 210.992004,149.743751 267.121677,149.743751" transform="matrix(1 0 0 1 -45.83860544999997 14.90660599999990)" fill="none" stroke="rgb(0,0,0)" stroke-width="25" stroke-linecap="round" stroke-linejoin="round" stroke-dashoffset="149.660000" stroke-dasharray="149.660000"/><circle id="equVYMTtHEh16" r="27.500000" transform="matrix(1 0 0 1 73.68545532000002 164.58535004000007)" fill="rgb(2,123,222)" stroke="rgb(0,0,0)" stroke-width="20"/></g><g id="equVYMTtHEh17" transform="matrix(1 0 0 1 0.00000167999991 201.74464892000054)"><polyline id="equVYMTtHEh18" points="117.458135,149.743751 173.095273,149.743751 210.992004,149.743751 267.121677,149.743751" transform="matrix(1 0 0 1 -43.77267820000002 14.90660599999990)" fill="none" stroke="rgb(0,0,0)" stroke-width="25" stroke-linecap="round" stroke-linejoin="round" stroke-dashoffset="149.660000" stroke-dasharray="149.660000"/><circle id="equVYMTtHEh19" r="27.500000" transform="matrix(1 0 0 1 73.68545532000002 164.58535004000007)" fill="rgb(17,216,243)" stroke="rgb(0,0,0)" stroke-width="20"/></g><g id="equVYMTtHEh20" transform="matrix(-1 0 0 1 996.25400000453124 3.99999706999998)"><polyline id="equVYMTtHEh21" points="117.458135,151.713066 117.458135,207.736691 210.992005,207.736691 351.967678,264.413397" transform="matrix(1 0 0 1 -43.77267820000002 14.90660599999990)" fill="none" stroke="rgb(0,0,0)" stroke-width="25" stroke-linecap="round" stroke-linejoin="round" stroke-dashoffset="301.500000" stroke-dasharray="301.500000"/><circle id="equVYMTtHEh22" r="27.500000" transform="matrix(1 0 0 1 73.68545700000000 139.11967175000004)" fill="rgb(2,222,37)" stroke="rgb(0,0,0)" stroke-width="20"/></g><g id="equVYMTtHEh23"><polyline id="equVYMTtHEh24" points="117.458135,151.713066 117.458135,207.736691 210.992005,207.736691 373.843678,261.644391" transform="matrix(1 0 0 1 -43.77267820000002 14.90660599999990)" fill="none" stroke="rgb(0,0,0)" stroke-width="25" stroke-linecap="round" stroke-linejoin="round" stroke-dashoffset="321.100000" stroke-dasharray="321.100000"/><circle id="equVYMTtHEh25" r="27.500000" transform="matrix(1 0 0 1 73.68545700000000 139.11967175000004)" fill="rgb(2,123,222)" stroke="rgb(0,0,0)" stroke-width="20"/></g><g id="equVYMTtHEh26" clip-path="url(#equVYMTtHEh39)"><g id="equVYMTtHEh27"><g id="equVYMTtHEh28" transform="matrix(1 0 0 1 205.43899999999999 166.62000000000000)"><path id="equVYMTtHEh29" d="M101.473000,196.773000L101.473000,392.831000C101.233062,558.253777,216.536523,701.386393,378.218000,736.370000C539.899477,701.386393,655.202938,558.253777,654.963000,392.831000L654.963000,196.773000C554.183231,182.544456,458.824093,142.394346,378.218000,80.252000C297.611907,142.394346,202.252769,182.544456,101.473000,196.773000Z" transform="matrix(1 0 0 1 -83.56300000000000 -61.30800000000000)" fill="rgb(255,205,105)" stroke="none" stroke-width="1"/><path id="equVYMTtHEh30" d="M747.893000,354.162000L747.893000,256.224000C747.893245,247.302463,741.326611,239.741454,732.493000,238.492000C713.731000,235.832000,676.799000,227.725000,676.799000,227.725000C676.799000,227.725000,628.466000,219.274000,575.305000,193.720000C522.144000,168.166000,517.465000,166.531000,464.156000,125.510000C457.718586,120.552234,448.749414,120.552234,442.312000,125.510000C409.262000,150.943000,357.228000,180.980000,307.636000,202.071000C277.523000,214.878000,243.114000,223.963000,229.671000,227.723000C229.671000,227.723000,192.739000,235.830000,173.977000,238.490000C165.143830,239.740265,158.577620,247.300786,158.577000,256.222000L158.577000,452.281000C158.577000,487.116000,162.391000,523.762000,182.865000,581.828000C203.339000,639.894000,240.738000,692.778000,301.190000,739.708000C361.642000,786.638000,388.701000,800.135000,449.431000,813.322000C451.935092,813.866345,454.526908,813.866345,457.031000,813.322000C517.761000,800.135000,606.392000,739.522000,619.383000,729.331000C632.374000,719.140000,666,684.547000,666,684.547000C666,684.547000,704.593000,637.374000,725.066000,579.308000C745.539000,521.242000,747.893000,487.117000,747.893000,452.282000ZM453.238000,777.472000C300.643000,742.533000,194.400000,609.366000,194.400000,452.281000L194.400000,271.570000C288.035782,255.769757,376.676881,218.283639,453.238000,162.108000C529.798369,218.283645,618.438823,255.769781,712.074000,271.570000L712.074000,452.281000C712.074000,609.366000,605.833000,742.533000,453.238000,777.472000Z" transform="matrix(1 0 0 1 -158.58400000000000 -121.79200000000000)" fill="rgb(0,0,0)" stroke="none" stroke-width="1"/></g><g id="equVYMTtHEh31_tr" transform="translate(500.127109,500.569813) rotate(-10)"><g id="equVYMTtHEh31" transform="translate(-205.912109,-206.132813)" opacity="0"><g id="equVYMTtHEh32"><path id="equVYMTtHEh33" d="M339.011000,526.981000C235.199000,526.981000,151.044000,442.824000,151.044000,339.012000C151.044000,235.200000,235.200000,151.044000,339.011000,151.044000C442.822000,151.044000,526.979000,235.200000,526.979000,339.011000C526.979000,442.822000,442.824000,526.981000,339.011000,526.981000Z" transform="matrix(1 0 0 1 -133.13499999999999 -133.13399999999999)" fill="rgb(0,202,196)" stroke="none" stroke-width="1"/><path id="equVYMTtHEh34" d="M-18762.814000,-14313.837000C-18841.753846,-14327.930387,-18905.413224,-14386.420209,-18926.126000,-14463.887000C-18926.463808,-14465.161697,-18926.661643,-14466.469422,-18926.716000,-14467.787000C-18930.733383,-14483.939001,-18932.764730,-14500.520887,-18932.765000,-14517.165000C-18932.765000,-14630.686000,-18840.410000,-14723.042000,-18726.888000,-14723.042000C-18613.366000,-14723.042000,-18521.011000,-14630.686000,-18521.011000,-14517.165000C-18521.011623,-14501.689286,-18522.770230,-14486.263728,-18526.253000,-14471.185000C-18547.589000,-14376.564000,-18632.171000,-14310.685000,-18726.962000,-14310.692000C-18738.981435,-14310.694609,-18750.977679,-14311.746940,-18762.814000,-14313.837000ZM-18756.595000,-14349.108000C-18723.418548,-14343.214892,-18689.237892,-14347.371773,-18658.441000,-14361.045000C-18657.513238,-14361.712596,-18656.523730,-14362.289893,-18655.486000,-14362.769000C-18608.457120,-14384.674195,-18573.928798,-14426.761220,-18561.636000,-14477.164000Q-18560.476000,-14482.046000,-18559.591000,-14487.055000C-18543.306000,-14579.402000,-18605.185000,-14667.777000,-18697.532000,-14684.055000C-18762.943186,-14695.458600,-18829.030511,-14667.888016,-18866.944000,-14613.379000Q-18867.398000,-14612.727000,-18867.895000,-14612.127000C-18886.864772,-14584.092280,-18896.984271,-14551.009611,-18896.944000,-14517.160000C-18896.815829,-14450.762702,-18858.186598,-14390.467896,-18797.921000,-14362.599000C-18796.671302,-14362.023557,-18795.491616,-14361.306888,-18794.405000,-14360.463000C-18782.290748,-14355.212607,-18769.602358,-14351.401559,-18756.600000,-14349.108000Z" transform="matrix(1 0 0 1 18932.79999999999927 14723)" fill="rgb(0,0,0)" stroke="none" stroke-width="1"/></g><g id="equVYMTtHEh35" transform="matrix(1 0 0 1 100.21299999999999 71.63700000000000)"><path id="equVYMTtHEh36" d="M364.407000,235.505000L225.100000,235.505000C215.103646,235.505000,207,243.608646,207,253.605000L207,300.783000C207,349.248748,246.289252,388.538000,294.755000,388.538000C343.220748,388.538000,382.510000,349.248748,382.510000,300.783000L382.510000,253.608000C382.510000,248.807582,380.603041,244.203776,377.208633,240.809367C373.814224,237.414959,369.210418,235.508000,364.410000,235.508000Z" transform="matrix(1 0 0 1 -189.09000000000000 -137.96899999999999)" fill="rgb(255,123,121)" stroke="none" stroke-width="1"/><path id="equVYMTtHEh37" d="M302.664000,181.044000C264.106939,181.086986,232.860986,212.332939,232.818000,250.890000L232.818000,260.679000C213.017824,260.805318,197.025963,276.878438,197,296.679000L197,343.860000C196.999999,381.610112,217.139444,416.492654,249.832000,435.367710C282.524555,454.242766,322.803445,454.242766,355.496001,435.367710C388.188556,416.492654,408.328001,381.610112,408.328000,343.860000L408.328000,296.682000C408.302037,276.881438,392.310176,260.808318,372.510000,260.682000L372.510000,250.890000C372.467014,212.332939,341.221061,181.086986,302.664000,181.044000ZM302.664000,216.862000C321.447912,216.882942,336.670058,232.105088,336.691000,250.889000L336.691000,260.669000L268.637000,260.669000L268.637000,250.889000C268.657942,232.105088,283.880088,216.882942,302.664000,216.862000ZM372.510000,343.862000C372.604658,368.878350,359.312921,392.035018,337.663764,404.570598C316.014608,417.106178,289.314392,417.106178,267.665236,404.570598C246.016079,392.035018,232.724342,368.878350,232.819000,343.862000L232.819000,296.682000C232.819000,296.575409,232.905409,296.489000,233.012000,296.489000L372.312000,296.489000C372.418364,296.489547,372.504453,296.575636,372.505000,296.682000Z" transform="matrix(1 0 0 1 -197 -180.78799341000004)" fill="rgb(0,0,0)" stroke="none" stroke-width="1"/><path id="equVYMTtHEh38" d="M263.909000,261.560000C254.018361,261.560552,246.000552,269.578361,246,279.469000L246,296.100000C246,302.498270,249.413436,308.410514,254.954500,311.609649C260.495564,314.808784,267.322436,314.808784,272.863500,311.609649C278.404564,308.410515,281.818000,302.498270,281.818000,296.100000L281.818000,279.470000C281.818000,269.578971,273.800029,261.560552,263.909000,261.560000Z" transform="matrix(1 0 0 1 -158.24400000000000 -117.36300000000000)" fill="rgb(0,0,0)" stroke="none" stroke-width="1"/></g></g></g></g><clipPath id="equVYMTtHEh39"><rect id="equVYMTtHEh40" width="1000" height="1000" rx="0" ry="0" fill="rgb(0,0,0)" stroke="none" stroke-width="1"/></clipPath></g></svg>