<svg id="e8vVsMgKm7o1" xmlns="http://www.w3.org/2000/svg" xmlns:xlink="http://www.w3.org/1999/xlink" viewBox="0 0 1000 1000" shape-rendering="geometricPrecision" text-rendering="geometricPrecision"><style><![CDATA[#e8vVsMgKm7o4_to {animation: e8vVsMgKm7o4_to__to 3000ms linear infinite normal forwards}@keyframes e8vVsMgKm7o4_to__to { 0% {transform: translate(270.780777px,959.733613px)} 33.333333% {transform: translate(270.800514px,751.263092px)} 100% {transform: translate(270.800514px,751.263092px)}} #e8vVsMgKm7o18_tr {animation: e8vVsMgKm7o18_tr__tr 3000ms linear infinite normal forwards}@keyframes e8vVsMgKm7o18_tr__tr { 0% {transform: translate(684.677612px,228.916443px) rotate(0deg)} 100% {transform: translate(684.677612px,228.916443px) rotate(540.727249deg)}} #e8vVsMgKm7o18 {animation: e8vVsMgKm7o18_c_o 3000ms linear infinite normal forwards}@keyframes e8vVsMgKm7o18_c_o { 0% {opacity: 0} 16.666667% {opacity: 1} 100% {opacity: 1}} #e8vVsMgKm7o21_tr {animation: e8vVsMgKm7o21_tr__tr 3000ms linear infinite normal forwards}@keyframes e8vVsMgKm7o21_tr__tr { 0% {transform: translate(379.261651px,70.489365px) rotate(0deg)} 100% {transform: translate(379.261651px,70.489365px) rotate(540.727249deg)}} #e8vVsMgKm7o21 {animation: e8vVsMgKm7o21_c_o 3000ms linear infinite normal forwards}@keyframes e8vVsMgKm7o21_c_o { 0% {opacity: 0} 16.666667% {opacity: 1} 100% {opacity: 1}} #e8vVsMgKm7o24_tr {animation: e8vVsMgKm7o24_tr__tr 3000ms linear infinite normal forwards}@keyframes e8vVsMgKm7o24_tr__tr { 0% {transform: translate(73.841717px,228.902390px) rotate(0deg)} 100% {transform: translate(73.841717px,228.902390px) rotate(540.727249deg)}} #e8vVsMgKm7o24 {animation: e8vVsMgKm7o24_c_o 3000ms linear infinite normal forwards}@keyframes e8vVsMgKm7o24_c_o { 0% {opacity: 0} 16.666667% {opacity: 1} 100% {opacity: 1}} #e8vVsMgKm7o27_to {animation: e8vVsMgKm7o27_to__to 3000ms linear infinite normal forwards}@keyframes e8vVsMgKm7o27_to__to { 0% {transform: translate(277.664383px,-444.683075px)} 33.333333% {transform: translate(287.625000px,239.666000px)} 100% {transform: translate(287.625000px,239.666000px)}}]]></style><defs><linearGradient id="e8vVsMgKm7o19-fill" x1="0.500000" y1="0" x2="0.500000" y2="1" spreadMethod="pad" gradientUnits="objectBoundingBox"><stop id="e8vVsMgKm7o19-fill-0" offset="0%" stop-color="rgb(50,176,249)"/><stop id="e8vVsMgKm7o19-fill-1" offset="100%" stop-color="rgb(4,205,51)"/></linearGradient><linearGradient id="e8vVsMgKm7o22-fill" x1="0.500000" y1="0" x2="0.500000" y2="1" spreadMethod="pad" gradientUnits="objectBoundingBox"><stop id="e8vVsMgKm7o22-fill-0" offset="0%" stop-color="rgb(4,205,51)"/><stop id="e8vVsMgKm7o22-fill-1" offset="100%" stop-color="rgb(50,176,249)"/></linearGradient><linearGradient id="e8vVsMgKm7o25-fill" x1="0.500000" y1="0" x2="0.500000" y2="1" spreadMethod="pad" gradientUnits="objectBoundingBox"><stop id="e8vVsMgKm7o25-fill-0" offset="0%" stop-color="rgb(25,222,243)"/><stop id="e8vVsMgKm7o25-fill-1" offset="100%" stop-color="rgb(4,205,51)"/></linearGradient></defs><g id="e8vVsMgKm7o2" clip-path="url(#e8vVsMgKm7o47)"><g id="e8vVsMgKm7o3"><g id="e8vVsMgKm7o4_to" transform="translate(270.780777,959.733613)"><g id="e8vVsMgKm7o4" transform="translate(-270.800514,-751.263092)"><g id="e8vVsMgKm7o5"><path id="e8vVsMgKm7o6" d="M8.964000,317.682000L29.859000,374.332000L85.759000,460.358000C103.870902,481.727453,126.421187,498.894225,151.841000,510.664000C180.441000,523.864000,210.395000,540.434000,231.430000,563.169000C245.155000,578.015000,252.917000,596.869000,254.221000,667.756000L400.990000,667.756000L400.990000,583.273000C395.985000,533.186000,377.198000,476.825000,318.743000,456.741000L266.605000,438.641000L175.243000,361.089000C166.765005,353.907076,154.170067,354.530502,146.442760,362.514559C138.715454,370.498616,138.503895,383.107199,145.959000,391.346000L185.759000,434.419000L116.032000,402.319000L72.213000,349.500000L53.095000,300.868000C48.341959,288.847317,34.807460,282.882171,22.728171,287.484235C10.648882,292.086299,4.514635,305.545001,8.965000,317.681000ZM8.964000,317.682000" transform="matrix(1 0 0 1 57.54900000000000 268.05500000000001)" fill="rgb(255,206,182)" stroke="none" stroke-width="1"/><path id="e8vVsMgKm7o7" d="M259.441000,425.447000L207.296000,407.347000L115.941000,329.800000C107.462122,322.641489,94.887406,323.273657,87.169223,331.246442C79.451040,339.219227,79.227173,351.807833,86.657000,360.050000L126.452000,403.123000L167.200000,425.447000C225.648000,445.531000,244.435000,501.899000,249.447000,551.979000L249.447000,636.461000L341.683000,636.461000L341.683000,551.979000C336.683000,501.900000,317.900000,445.531000,259.441000,425.447000ZM259.441000,425.447000" transform="matrix(1 0 0 1 116.85200000000000 299.35000000000002)" fill="rgb(237,189,166)" stroke="none" stroke-width="1"/><path id="e8vVsMgKm7o8" d="M147.489000,467.633000L303.689000,467.633000C311.081750,467.634656,317.074344,473.627250,317.076000,481.020000L317.076000,520.779000C317.074344,528.171750,311.081750,534.164344,303.689000,534.166000L147.489000,534.166000C143.938038,534.167061,140.532180,532.757054,138.021083,530.246332C135.509985,527.735610,134.099469,524.329962,134.100000,520.779000L134.100000,481.020000C134.099469,477.469038,135.509985,474.063390,138.021083,471.552668C140.532180,469.041946,143.938038,467.631939,147.489000,467.633000ZM147.489000,467.633000" transform="matrix(1 0 0 1 159.43000000000001 414.29700000000003)" fill="rgb(127,209,155)" stroke="none" stroke-width="1"/><path id="e8vVsMgKm7o9" d="M262.895000,467.633000L184.795000,467.633000L184.795000,534.167000L262.895000,534.167000C270.287750,534.165344,276.280344,528.172750,276.282000,520.780000L276.282000,481.020000C276.280344,473.627250,270.287750,467.634656,262.895000,467.633000ZM262.895000,467.633000" transform="matrix(1 0 0 1 200.21899999999999 414.29700000000003)" fill="rgb(60,171,139)" stroke="none" stroke-width="1"/><path id="e8vVsMgKm7o10" d="M420.554000,607.900000L420.554000,589.300000C420.554000,588.856000,420.533000,588.400000,420.491000,587.954000C413.265000,515.731000,381.691000,468.013000,329.213000,449.980000L279.457000,432.716000L190.034000,356.800000C177.172646,345.875173,158.309035,345.812422,145.375283,356.651441C132.441531,367.490460,129.204600,386.074380,137.712000,400.648000L130.512000,397.335000L90.043000,348.552000L71.714000,301.940000C64.215061,283.064792,42.946370,273.712246,23.967258,280.944180C4.988145,288.176115,-4.663491,309.310761,2.300000,328.390000L23.195000,385.047000C23.542061,385.991197,23.996369,386.892430,24.549000,387.733000L80.449000,473.766000C80.765762,474.249640,81.111738,474.713502,81.485000,475.155000C100.901980,497.987250,125.027056,516.350294,152.206000,528.985000C174.398000,539.228000,206.354000,555.498000,227.537000,578.395000C232.979000,584.274000,238.154000,591.289000,241.770000,610.083000C233.543642,614.919810,228.489282,623.747063,228.482000,633.290000L228.482000,673.050000C228.497979,687.910425,240.539578,699.953813,255.400000,699.972000L411.600000,699.972000C426.461984,699.956017,438.506017,687.911984,438.522000,673.050000L438.522000,633.290000C438.506109,621.878043,431.310915,611.710747,420.554000,607.900000ZM163.542000,504.400000C140.189309,493.539735,119.429359,477.810630,102.655000,458.268000L48.063000,374.254000L27.690000,319.021000C26.690397,316.304680,26.907189,313.289668,28.285131,310.744304C29.663072,308.198940,32.069076,306.369065,34.890000,305.721000C39.747490,304.628677,44.679408,307.224513,46.529000,311.847000L65.647000,360.475000C66.175442,361.810473,66.910402,363.054639,67.825000,364.162000L111.645000,416.984000C112.937086,418.542715,114.563217,419.790850,116.403000,420.636000L183.522000,451.536000L218.911000,491.796000C222.095048,495.463208,226.999609,497.143726,231.763610,496.199868C236.527611,495.256010,240.420934,491.832429,241.966226,487.228231C243.511518,482.624032,242.471952,477.544842,239.242000,473.918000L201.955000,431.500000C201.870000,431.400000,201.779000,431.300000,201.687000,431.211000L162.019000,388.272000C159.337269,385.319602,159.409673,380.791963,162.184435,377.926823C164.959198,375.061682,169.482192,374.844244,172.519000,377.430000L263.874000,454.989000C265.149601,456.069460,266.614780,456.903605,268.195000,457.449000L320.383000,475.559000C362.610000,490.074000,387.206000,528.572000,393.494000,589.980000L393.494000,606.363000L268.600000,606.363000C264.152000,582.373000,256.827000,570.192000,247.400000,559.998000C222.948000,533.581000,187.827000,515.619000,163.542000,504.400000ZM411.442000,672.900000L255.542000,672.900000L255.542000,633.438000L411.442000,633.438000ZM411.442000,672.900000" transform="matrix(1 0 0 1 51.52000000000000 262.02699999999999)" fill="rgb(0,0,0)" stroke="none" stroke-width="1"/></g><g id="e8vVsMgKm7o11"><path id="e8vVsMgKm7o12" d="M663.510000,317.682000L642.615000,374.332000L586.715000,460.358000C568.603120,481.727476,546.052830,498.894252,520.633000,510.664000C492.033000,523.864000,462.079000,540.434000,441.044000,563.169000C427.319000,578.015000,419.557000,596.869000,418.253000,667.756000L271.484000,667.756000L271.484000,583.273000C276.489000,533.186000,295.276000,476.825000,353.731000,456.741000L405.869000,438.641000L497.231000,361.089000C505.708995,353.907076,518.303933,354.530502,526.031240,362.514559C533.758546,370.498616,533.970105,383.107199,526.515000,391.346000L486.715000,434.419000L556.449000,402.319000L600.261000,349.500000L619.386000,300.872000C624.114856,288.816748,637.671547,282.820232,649.772368,287.431231C661.873188,292.042230,668.001702,305.539762,663.509000,317.685000ZM663.510000,317.682000" transform="matrix(1 0 0 1 269.97899999999998 268.05500000000001)" fill="rgb(255,206,182)" stroke="none" stroke-width="1"/><path id="e8vVsMgKm7o13" d="M627.380000,287.379000L595.488000,360.532000L537.731000,433.220000C519.593000,454.566000,430.190000,497.730000,404.755000,509.468000C376.155000,522.668000,346.201000,539.238000,325.166000,561.973000C311.433000,576.819000,303.679000,595.673000,302.375000,666.560000L393.392000,666.560000C394.692000,595.670000,402.451000,576.819000,416.183000,561.973000C437.219000,539.238000,467.172000,522.679000,495.772000,509.468000C521.192805,497.696551,543.745039,480.530114,561.861000,459.162000L617.761000,373.136000L638.661000,316.486000C642.761960,305.327257,637.929844,292.859531,627.380000,287.379000ZM627.380000,287.379000" transform="matrix(1 0 0 1 294.83600000000001 269.25000000000000)" fill="rgb(237,189,166)" stroke="none" stroke-width="1"/><path id="e8vVsMgKm7o14" d="M431.115000,467.633000L274.915000,467.633000C267.522250,467.634656,261.529656,473.627250,261.528000,481.020000L261.528000,520.779000C261.529656,528.171750,267.522250,534.164344,274.915000,534.166000L431.115000,534.166000C434.665269,534.166000,438.070100,532.755524,440.580331,530.244917C443.090563,527.734310,444.500530,524.329269,444.500000,520.779000L444.500000,481.020000C444.500530,477.469731,443.090563,474.064690,440.580331,471.554083C438.070100,469.043476,434.665269,467.633000,431.115000,467.633000ZM431.115000,467.633000" transform="matrix(1 0 0 1 261.96899999999999 414.29700000000003)" fill="rgb(127,209,155)" stroke="none" stroke-width="1"/><path id="e8vVsMgKm7o15" d="M390.321000,467.633000L312.227000,467.633000L312.227000,534.167000L390.322000,534.167000C393.872616,534.167531,397.277960,532.757289,399.788624,530.246624C402.299289,527.735960,403.709531,524.330616,403.709000,520.780000L403.709000,481.020000C403.709531,477.469211,402.299152,474.063715,399.788271,471.553022C397.277390,469.042329,393.871789,467.632204,390.321000,467.633000ZM390.321000,467.633000" transform="matrix(1 0 0 1 302.76400000000001 414.29700000000003)" fill="rgb(60,171,139)" stroke="none" stroke-width="1"/><path id="e8vVsMgKm7o16" d="M688.079000,297.872000C681.206134,285.159107,667.583980,277.586214,653.158571,278.458869C638.733162,279.331524,626.123240,288.491308,620.833000,301.940000L602.504000,348.540000L562.033000,397.330000L554.871000,400.630000C563.354291,386.050190,560.102810,367.479491,547.170559,356.649256C534.238308,345.819021,515.385205,345.878027,502.521000,356.789000L413.090000,432.709000L363.377000,449.966000C310.858000,468.013000,279.283000,515.724000,272.064000,587.954000C272.015931,588.401038,271.992562,588.850387,271.994000,589.300000L271.994000,607.900000C261.237437,611.711264,254.044054,621.880198,254.032000,633.292000L254.032000,673.044000C254.050183,687.905072,266.092928,699.947817,280.954000,699.966000L437.154000,699.966000C452.015984,699.950017,464.060017,687.905984,464.076000,673.044000L464.076000,633.290000C464.070228,623.746639,459.019031,614.917599,450.795000,610.076000C454.404000,591.282000,459.586000,584.268000,465.021000,578.388000C486.205000,555.488000,518.160000,539.228000,540.352000,528.978000C567.532059,516.345143,591.657505,497.981818,611.073000,475.148000C611.452321,474.711348,611.798611,474.247065,612.109000,473.759000L668,387.733000C668.551291,386.889178,669.005503,385.985784,669.354000,385.040000L690.249000,328.390000C693.944389,318.378099,693.153851,307.260288,688.079000,297.872000ZM437,672.900000L281.100000,672.900000L281.100000,633.438000L437,633.438000ZM664.855000,319.020000L644.482000,374.253000L589.890000,458.270000C573.116285,477.811543,552.357408,493.539928,529.006000,504.400000C504.720000,515.616000,469.606000,533.571000,445.152000,560.007000C435.727000,570.194000,428.402000,582.375000,423.952000,606.365000L299.064000,606.365000L299.064000,589.992000C305.352000,528.576000,329.948000,490.079000,372.217000,475.557000L424.355000,457.457000C425.937134,456.907890,427.404364,456.071555,428.683000,454.990000L520.038000,377.431000C523.044537,374.913724,527.471043,375.090715,530.267000,377.840000C533.114950,380.644477,533.273048,385.186280,530.627000,388.182000L490.867000,431.205000C490.782000,431.305000,490.691000,431.405000,490.599000,431.505000L453.314000,473.915000C448.434257,479.535215,449.007186,488.040710,454.596580,492.955725C460.185974,497.870741,468.694906,497.351351,473.645000,491.793000L509.034000,451.540000L576.153000,420.640000C577.993141,419.792270,579.619214,418.541786,580.911000,416.981000L624.731000,364.159000C625.648539,363.053706,626.383787,361.809051,626.909000,360.472000L646.027000,311.851000C647.871716,307.223654,652.806232,304.623483,657.666000,305.718000C660.487068,306.365257,662.893010,308.195541,664.269599,310.741591C665.646189,313.287640,665.860201,316.303050,664.857000,319.018000ZM664.855000,319.020000" transform="matrix(1 0 0 1 255.93400000000000 262.02699999999999)" fill="rgb(0,0,0)" stroke="none" stroke-width="1"/></g></g></g><g id="e8vVsMgKm7o17" transform="matrix(1 0 0 1 120.73999999999999 51.53600000000000)"><g id="e8vVsMgKm7o18_tr" transform="translate(684.677612,228.916443) rotate(0)"><g id="e8vVsMgKm7o18" transform="translate(-684.677612,-228.916443)" opacity="0"><path id="e8vVsMgKm7o19" d="M455.890000,98.894000L472.379000,142.742000L519.174000,144.871000C521.493093,144.979069,523.502875,146.512018,524.220266,148.720008C524.937658,150.927999,524.212698,153.349484,522.400000,154.800000L485.792000,184.034000L498.230000,229.200000C498.846716,231.439432,498.011108,233.826641,496.132384,235.192581C494.253661,236.558521,491.725112,236.617247,489.785000,235.340000L450.674000,209.560000L411.563000,235.340000C409.622344,236.618735,407.092380,236.560989,405.212088,235.195041C403.331797,233.829093,402.494802,231.440895,403.111000,229.200000L415.546000,184.041000L378.937000,154.800000C377.124071,153.349596,376.399352,150.927755,377.117576,148.719920C377.835801,146.512084,379.846709,144.980163,382.166000,144.874000L428.961000,142.738000L445.450000,98.894000C446.266848,96.719019,448.346686,95.278453,450.670000,95.278453C452.993314,95.278453,455.073152,96.719019,455.890000,98.894000ZM455.890000,98.894000" transform="matrix(1 0 0 1 234.01300000000001 63.13300000000000)" fill="url(#e8vVsMgKm7o19-fill)" stroke="none" stroke-width="1"/><path id="e8vVsMgKm7o20" d="M376.534000,171.420000L406.170000,195.078000L396.100000,231.637000C393.955335,239.318394,396.812024,247.523517,403.263415,252.212114C409.714806,256.900712,418.401056,257.084508,425.045000,252.673000L456.704000,231.806000L488.371000,252.673000C495.018333,257.055978,503.686555,256.858598,510.127497,252.177594C516.568439,247.496590,519.432482,239.312809,517.316000,231.637000L507.249000,195.078000L536.885000,171.413000C543.106110,166.446247,545.597113,158.143502,543.137635,150.572384C540.678157,143.001267,533.783323,137.747512,525.831000,137.385000L487.947000,135.665000L474.595000,100.165000C471.792842,92.712596,464.664809,87.777523,456.703000,87.777523C448.741191,87.777523,441.613158,92.712596,438.811000,100.165000L425.466000,135.665000L387.582000,137.385000C379.629095,137.749620,372.734699,143.004794,370.275469,150.576705C367.816239,158.148616,370.307057,166.451950,376.528000,171.420000ZM435.623000,162.298000C441.029346,162.053285,445.769050,158.608660,447.671000,153.542000L456.716000,129.503000L465.754000,153.542000C467.659139,158.609249,472.400973,162.053422,477.809000,162.298000L503.462000,163.468000L483.392000,179.492000C479.163051,182.870499,477.353800,188.443777,478.792000,193.662000L485.609000,218.427000L464.160000,204.292000C459.640822,201.310373,453.779178,201.310373,449.260000,204.292000L427.815000,218.426000L434.632000,193.661000C436.070200,188.442777,434.260949,182.869499,430.032000,179.491000L409.962000,163.467000ZM435.623000,162.298000" transform="matrix(1 0 0 1 227.97100000000000 57.09800000000000)" fill="rgb(0,0,0)" stroke="none" stroke-width="1"/></g></g><g id="e8vVsMgKm7o21_tr" transform="translate(379.261651,70.489365) rotate(0)"><g id="e8vVsMgKm7o21" transform="translate(-379.261887,-70.489155)" opacity="0"><path id="e8vVsMgKm7o22" d="M286.654000,11.116000L303.143000,54.964000L349.938000,57.093000C352.259691,57.198030,354.273076,58.731319,354.991569,60.941534C355.710061,63.151750,354.983137,65.575853,353.167000,67.026000L316.558000,96.254000L328.993000,141.420000C329.610450,143.659321,328.774448,146.046795,326.894913,147.411767C325.015377,148.776739,322.486392,148.833015,320.548000,147.553000L281.437000,121.773000L242.327000,147.560000C240.386199,148.837506,237.857011,148.779176,235.977168,147.413554C234.097326,146.047933,233.260016,143.660653,233.875000,141.420000L246.310000,96.254000L209.700000,67.026000C207.883863,65.575853,207.156939,63.151750,207.875431,60.941534C208.593924,58.731319,210.607309,57.198030,212.929000,57.093000L259.724000,54.964000L276.213000,11.116000C277.029476,8.940323,279.109666,7.499121,281.433500,7.499121C283.757334,7.499121,285.837524,8.940323,286.654000,11.116000ZM286.654000,11.116000" transform="matrix(1 0 0 1 97.82700000000000 -7.50000000000000)" fill="url(#e8vVsMgKm7o22-fill)" stroke="none" stroke-width="1"/><path id="e8vVsMgKm7o23" d="M207.300000,83.636000L236.932000,107.300000L226.865000,143.860000C224.751434,151.534970,227.616822,159.716254,234.057224,164.395309C240.497627,169.074363,249.163951,169.271050,255.810000,164.889000L287.477000,144.022000L319.137000,164.896000C325.784768,169.275284,334.450657,169.076147,340.890249,164.396125C347.329840,159.716103,350.194834,151.535082,348.082000,143.860000L338.015000,107.300000L367.651000,83.635000C373.871008,78.668430,376.361671,70.366857,373.903033,62.796493C371.444394,55.226129,364.551271,49.972142,356.600000,49.608000L318.716000,47.881000L305.362000,12.386000C302.561080,4.934601,295.434434,-0.000046,287.474000,-0.000046C279.513566,-0.000046,272.386920,4.934601,269.586000,12.386000L256.234000,47.881000L218.350000,49.608000C210.398391,49.972058,203.504996,55.226376,201.046521,62.797144C198.588046,70.367912,201.079319,78.669738,207.300000,83.636000ZM266.389000,74.521000C271.796449,74.273314,276.535735,70.826239,278.437000,65.758000L287.482000,41.719000L296.520000,65.758000C298.424234,70.826995,303.165779,74.273711,308.575000,74.521000L334.228000,75.684000L314.158000,91.715000C309.928145,95.092872,308.118699,100.666752,309.558000,105.885000L316.375000,130.650000L294.937000,116.509000C290.416872,113.530538,284.557128,113.530538,280.037000,116.509000L258.592000,130.650000L265.409000,105.885000C266.848301,100.666752,265.038855,95.092872,260.809000,91.715000L240.739000,75.684000ZM266.389000,74.521000" transform="matrix(1 0 0 1 91.78700000000001 -13.53500000000000)" fill="rgb(0,0,0)" stroke="none" stroke-width="1"/></g></g><g id="e8vVsMgKm7o24_tr" transform="translate(73.841717,228.902390) rotate(0)"><g id="e8vVsMgKm7o24" transform="translate(-73.841717,-228.902390)" opacity="0"><path id="e8vVsMgKm7o25" d="M117.416000,98.894000L133.900000,142.742000L180.695000,144.871000C183.016691,144.976030,185.030076,146.509319,185.748569,148.719534C186.467061,150.929750,185.740137,153.353853,183.924000,154.804000L147.320000,184.038000L159.755000,229.200000C160.371716,231.439432,159.536108,233.826641,157.657384,235.192581C155.778661,236.558521,153.250112,236.617247,151.310000,235.340000L112.192000,209.560000L73.081000,235.340000C71.141033,236.618478,68.611706,236.560337,66.732533,235.194070C64.853360,233.827803,64.018069,231.439674,64.636000,229.200000L77.071000,184.041000L40.463000,154.800000C38.646691,153.351151,37.919579,150.927634,38.638321,148.718210C39.357063,146.508786,41.370890,144.976917,43.692000,144.874000L90.487000,142.738000L106.976000,98.890000C107.793681,96.715331,109.874071,95.275562,112.197385,95.276452C114.520699,95.277342,116.599985,96.718705,117.416000,98.894000ZM117.416000,98.894000" transform="matrix(1 0 0 1 -38.35500000000000 63.13300000000000)" fill="url(#e8vVsMgKm7o25-fill)" stroke="none" stroke-width="1"/><path id="e8vVsMgKm7o26" d="M38.056000,171.420000L67.692000,195.078000L57.626000,231.645000C55.512434,239.319970,58.377822,247.501254,64.818224,252.180309C71.258627,256.859363,79.924951,257.056050,86.571000,252.674000L118.238000,231.807000L149.898000,252.674000C156.545333,257.056978,165.213555,256.859598,171.654497,252.178594C178.095439,247.497590,180.959482,239.313809,178.843000,231.638000L168.776000,195.079000L198.412000,171.421000C204.632943,166.452950,207.123761,158.149616,204.664531,150.577705C202.205301,143.005794,195.310905,137.750620,187.358000,137.386000L149.474000,135.666000L136.129000,100.166000C133.326842,92.713596,126.198809,87.778523,118.237000,87.778523C110.275191,87.778523,103.147158,92.713596,100.345000,100.166000L87,135.665000L49.116000,137.385000C41.163842,137.750541,34.270204,143.004921,31.809983,150.575770C29.349763,158.146620,31.837787,166.449661,38.056000,171.420000ZM97.138000,162.300000C102.546027,162.055422,107.287861,158.611249,109.193000,153.544000L118.238000,129.505000L127.276000,153.544000C129.180996,158.610927,133.922344,162.055031,139.330000,162.300000L164.983000,163.470000L144.913000,179.494000C140.684051,182.872499,138.874800,188.445777,140.313000,193.664000L147.130000,218.429000L125.685000,204.295000C121.166456,201.311259,115.303544,201.311259,110.785000,204.295000L89.342000,218.427000L96.159000,193.662000C97.597200,188.443777,95.787949,182.870499,91.559000,179.492000L71.489000,163.468000ZM97.138000,162.300000" transform="matrix(1 0 0 1 -44.39500000000000 57.09800000000000)" fill="rgb(0,0,0)" stroke="none" stroke-width="1"/></g></g></g><g id="e8vVsMgKm7o27_to" transform="translate(277.664383,-444.683075)"><g id="e8vVsMgKm7o27" transform="translate(0,0)"><g id="e8vVsMgKm7o28" transform="matrix(1 0 0 1 6.51400000000000 6.51400000000000)"><path id="e8vVsMgKm7o29" d="M215.826000,0C335.026000,0,431.652000,96.629000,431.652000,215.826000C431.652000,335.023000,335.023000,431.652000,215.826000,431.652000C96.629000,431.652000,0,335.023000,0,215.826000C0,96.629000,96.629000,0,215.826000,0Z" fill="rgb(255,199,21)" stroke="none" stroke-width="1"/><path id="e8vVsMgKm7o30" d="M335.765000,40.200000C358.885643,75.345432,371.177101,116.506466,371.114000,158.575000C371.114000,277.775000,274.486000,374.401000,155.288000,374.401000C117.722787,374.459910,80.798818,364.667238,48.200000,346C88.068071,406.848658,155.930724,443.492017,228.677000,443.451000C347.877000,443.451000,444.503000,346.823000,444.503000,227.625000C444.534975,150.158669,403.031596,78.621849,335.765000,40.200000Z" transform="matrix(1 0 0 1 -12.85200000000000 -11.80000000000000)" fill="rgb(255,206,75)" stroke="none" stroke-width="1"/><circle id="e8vVsMgKm7o31" r="187.934000" transform="matrix(1 0 0 1 215.82599999999999 215.82599999999999)" fill="rgb(254,223,107)" stroke="none" stroke-width="1"/><g id="e8vVsMgKm7o32" transform="matrix(1 0 0 1 107.54300000000001 107.52400000000000)"><path id="e8vVsMgKm7o33" d="M248.467000,181.926000L286.191000,219.657000C286.842502,220.308508,287.726133,220.674522,288.647500,220.674522C289.568867,220.674522,290.452498,220.308508,291.104000,219.657000L310.988000,199.769000C311.639447,199.117668,312.005436,198.234204,312.005436,197.313000C312.005436,196.391796,311.639447,195.508332,310.988000,194.857000L248.466000,132.320000C247.814457,131.668186,246.930613,131.301978,246.009000,131.301978C245.087387,131.301978,244.203543,131.668186,243.552000,132.320000L181.052000,194.834000C180.400553,195.485332,180.034564,196.368796,180.034564,197.290000C180.034564,198.211204,180.400553,199.094668,181.052000,199.746000L200.936000,219.634000C201.587372,220.285753,202.471051,220.651937,203.392500,220.651937C204.313949,220.651937,205.197628,220.285753,205.849000,219.634000L243.549000,181.926000C244.200965,181.273452,245.085570,180.906806,246.008000,180.906806C246.930430,180.906806,247.815035,181.273452,248.467000,181.926000Z" transform="matrix(1 0 0 1 -137.72900000000001 -131.30199999999999)" fill="rgb(254,223,107)" stroke="none" stroke-width="1"/><path id="e8vVsMgKm7o34" d="M152.227000,230.115000L132.342000,250C131.690553,250.651332,131.324564,251.534796,131.324564,252.456000C131.324564,253.377204,131.690553,254.260668,132.342000,254.912000L152.225000,274.800000C152.876372,275.451753,153.760051,275.817937,154.681500,275.817937C155.602949,275.817937,156.486628,275.451753,157.138000,274.800000L177.023000,254.911000C177.674447,254.259668,178.040436,253.376204,178.040436,252.455000C178.040436,251.533796,177.674447,250.650332,177.023000,249.999000L157.139000,230.112000C156.487401,229.460705,155.603664,229.095086,154.682378,229.095649C153.761093,229.096212,152.877803,229.462910,152.227000,230.115000Z" transform="matrix(1 0 0 1 -131.32499999999999 -144.16000000000000)" fill="rgb(254,223,107)" stroke="none" stroke-width="1"/><path id="e8vVsMgKm7o35" d="M248.463000,366.151000L311,303.600000C311.651814,302.948457,312.018022,302.064613,312.018022,301.143000C312.018022,300.221387,311.651814,299.337543,311,298.686000L291.100000,278.809000C289.743431,277.452970,287.544569,277.452970,286.188000,278.809000L248.464000,316.539000C247.812498,317.190508,246.928867,317.556522,246.007500,317.556522C245.086133,317.556522,244.202502,317.190508,243.551000,316.539000L205.851000,278.827000C204.494888,277.471751,202.297112,277.471751,200.941000,278.827000L181.028000,298.689000C180.375574,299.340624,180.008977,300.224897,180.008977,301.147000C180.008977,302.069103,180.375574,302.953376,181.028000,303.605000L243.560000,366.149000C244.211332,366.800447,245.094796,367.166436,246.016000,367.166436C246.937204,367.166436,247.820668,366.800447,248.472000,366.149000Z" transform="matrix(1 0 0 1 -137.72499999999999 -150.56399999999999)" fill="rgb(254,223,107)" stroke="none" stroke-width="1"/><path id="e8vVsMgKm7o36" d="M347.789000,230.128000L327.900000,250.017000C327.248553,250.668332,326.882564,251.551796,326.882564,252.473000C326.882564,253.394204,327.248553,254.277668,327.900000,254.929000L347.784000,274.816000C348.435502,275.467508,349.319133,275.833522,350.240500,275.833522C351.161867,275.833522,352.045498,275.467508,352.697000,274.816000L372.582000,254.927000C373.233447,254.275668,373.599436,253.392204,373.599436,252.471000C373.599436,251.549796,373.233447,250.666332,372.582000,250.015000L352.700000,230.128000C351.343317,228.773188,349.145683,228.773188,347.789000,230.128000Z" transform="matrix(1 0 0 1 -157.03800000000001 -144.16200000000001)" fill="rgb(254,223,107)" stroke="none" stroke-width="1"/><path id="e8vVsMgKm7o37" d="M275.123000,249.949000L254.861000,229.683000C254.209498,229.031492,253.325867,228.665478,252.404500,228.665478C251.483133,228.665478,250.599502,229.031492,249.948000,229.683000L229.686000,249.949000C229.034553,250.600332,228.668564,251.483796,228.668564,252.405000C228.668564,253.326204,229.034553,254.209668,229.686000,254.861000L249.948000,275.129000C250.599543,275.780814,251.483387,276.147022,252.405000,276.147022C253.326613,276.147022,254.210457,275.780814,254.862000,275.129000L275.124000,254.861000C276.480030,253.504431,276.480030,251.305569,275.124000,249.949000Z" transform="matrix(1 0 0 1 -144.12400000000000 -144.10400000000001)" fill="rgb(254,223,107)" stroke="none" stroke-width="1"/></g><path id="e8vVsMgKm7o38" d="M369.942000,102.906000C376.341625,123.607492,379.586361,145.154899,379.567000,166.823000C379.567000,286.023000,282.939000,382.649000,163.741000,382.649000C146.474193,382.655718,129.268704,380.594712,112.492000,376.510000C146.828410,407.032703,191.189512,423.864004,237.131000,423.800000C340.924000,423.800000,425.065000,339.659000,425.065000,235.866000C425.127757,185.974199,405.287438,138.118154,369.942000,102.906000Z" transform="matrix(1 0 0 1 -21.30500000000000 -20.04400000000000)" fill="rgb(254,223,107)" stroke="none" stroke-width="1"/></g><g id="e8vVsMgKm7o39"><path id="e8vVsMgKm7o40" d="M249.413000,124.052000C246.868803,121.508135,242.744197,121.508135,240.200000,124.052000L172.789000,191.479000C170.245916,194.022739,170.245916,198.146261,172.789000,200.690000L197.589000,225.490000C200.133197,228.033865,204.257803,228.033865,206.802000,225.490000L244.811000,187.475000L282.842000,225.512000C285.386197,228.055865,289.510803,228.055865,292.055000,225.512000L316.855000,200.712000C319.398084,198.168261,319.398084,194.044739,316.855000,191.501000ZM287.444000,211.700000L249.413000,173.663000C246.868803,171.119135,242.744197,171.119135,240.200000,173.663000L202.191000,211.678000L186.605000,196.089000L244.805000,137.875000L303.028000,196.112000Z" transform="matrix(1 0 0 1 -22.46800000000000 -16.06000000000000)" fill="rgb(0,0,0)" stroke="none" stroke-width="1"/><path id="e8vVsMgKm7o41" d="M153.480000,219.939000C151.752140,219.939224,150.095068,220.625504,148.873000,221.847000L124.073000,246.647000C121.529916,249.190739,121.529916,253.314261,124.073000,255.858000L148.873000,280.658000C151.417197,283.201865,155.541803,283.201865,158.086000,280.658000L182.886000,255.858000C185.429084,253.314261,185.429084,249.190739,182.886000,246.647000L158.086000,221.847000C156.864364,220.625470,155.207579,219.939159,153.480000,219.939000ZM153.480000,266.844000L137.895000,251.256000L153.481000,235.666000L169.066000,251.254000Z" transform="matrix(1 0 0 1 -16.06300000000000 -28.91900000000000)" fill="rgb(0,0,0)" stroke="none" stroke-width="1"/><path id="e8vVsMgKm7o42" d="M197.588000,270.563000L172.755000,295.332000C170.215476,297.897723,170.227993,302.033695,172.783000,304.584000L240.200000,372.010000C242.744197,374.553865,246.868803,374.553865,249.413000,372.010000L316.847000,304.562000C316.947000,304.462000,317.054000,304.347000,317.147000,304.242000C319.415505,301.661299,319.289009,297.762236,316.858000,295.334000L292.048000,270.546000C289.504604,268.003031,285.381396,268.003031,282.838000,270.546000L244.800000,308.585000L206.800000,270.569000C204.257345,268.024696,200.133967,268.022010,197.588000,270.563000ZM244.800000,324.311000C246.527860,324.310776,248.184932,323.624496,249.407000,322.403000L287.439000,284.365000L303.039000,299.946000L244.800000,358.192000L186.570000,299.950000L202.179000,284.381000L240.200000,322.400000C241.419363,323.621626,243.073960,324.309003,244.800000,324.311000Z" transform="matrix(1 0 0 1 -22.46500000000000 -35.32200000000000)" fill="rgb(0,0,0)" stroke="none" stroke-width="1"/><path id="e8vVsMgKm7o43" d="M349.040000,282.584000C350.767860,282.583776,352.424932,281.897496,353.647000,280.676000L378.447000,255.876000C380.990084,253.332261,380.990084,249.208739,378.447000,246.665000L353.647000,221.865000C351.102803,219.321135,346.978197,219.321135,344.434000,221.865000L319.634000,246.665000C317.090916,249.208739,317.090916,253.332261,319.634000,255.876000L344.434000,280.676000C345.655511,281.897716,347.312377,282.584060,349.040000,282.584000ZM349.040000,235.684000L364.626000,251.272000L349.040000,266.862000L333.455000,251.270000Z" transform="matrix(1 0 0 1 -41.77700000000000 -28.92000000000000)" fill="rgb(0,0,0)" stroke="none" stroke-width="1"/><path id="e8vVsMgKm7o44" d="M251.200000,282.900000C252.927860,282.899776,254.584932,282.213496,255.807000,280.992000L280.970000,255.824000C281.096000,255.698000,281.228000,255.554000,281.343000,255.424000C283.537477,252.838614,283.380878,249.001943,280.983000,246.604000L255.809000,221.424000C253.264803,218.880135,249.140197,218.880135,246.596000,221.424000L221.421000,246.600000C218.877916,249.143739,218.877916,253.267261,221.421000,255.811000L246.600000,280.988000C247.819324,282.209807,249.473860,282.897519,251.200000,282.900000ZM251.200000,235.238000L267.165000,251.200000L251.200000,267.169000L235.238000,251.200000Z" transform="matrix(1 0 0 1 -28.86300000000000 -28.86200000000000)" fill="rgb(0,0,0)" stroke="none" stroke-width="1"/><path id="e8vVsMgKm7o45" d="M379.558000,65.121000C307.823936,-6.586336,196.665686,-20.686255,109.300000,30.840000C84.644000,44.864000,91.370000,46.176000,93.200000,49.273000C95.030000,52.370000,90.268000,56.332000,115.932000,42.053000C213.162146,-15.461992,338.480363,14.409688,399.310432,109.600960C460.140502,204.792232,434.603286,331.065045,341.563871,395.137994C248.524455,459.210942,121.446918,438.038501,54.207138,347.261370C-13.032642,256.484238,3.749895,128.752805,92.157000,58.426000C125.537000,34.478000,95.440000,52.088000,93.201000,49.273000C90.962000,46.458000,112.556000,25.824000,84.048000,48.229000C19.475112,99.520752,-11.405980,182.338331,3.820204,263.385632C19.046389,344.432932,77.878635,410.396257,156.663936,434.755609C235.449236,459.114962,321.245475,437.868814,379.559000,379.559000C466.387019,292.729056,466.387019,151.951944,379.559000,65.122000Z" fill="rgb(0,0,0)" stroke="none" stroke-width="1"/><path id="e8vVsMgKm7o46" d="M142.685000,402.037000C202.942678,430.823863,273.755821,426.681935,330.246539,391.066347C386.737256,355.450758,421.004654,293.342770,421.010000,226.562000C421.009596,147.915436,373.633867,77.013098,300.973893,46.916415C228.313919,16.819733,144.678721,33.455683,89.067000,89.067000C48.165921,129.972599,27.598053,186.963223,32.949260,244.561234C38.300467,302.159245,69.015242,354.385397,116.752000,387.056000C146.100000,404.356000,123.774000,388.333000,125.807000,385.366000C126.783868,383.941281,127.154721,382.186840,126.837968,380.488675C126.521215,378.790510,125.542805,377.287743,124.118000,376.311000C74.701214,342.479461,45.152342,286.450160,45.143000,226.562000C45.143000,126.527000,126.528000,45.142000,226.563000,45.142000C326.598000,45.142000,407.983000,126.527000,407.983000,226.562000C407.983000,326.597000,326.598000,407.982000,226.563000,407.982000C199.163000,407.982000,171.231000,407.682000,124.118000,376.311000C120.872000,374.757000,127.361000,382.122000,125.807000,385.366000C124.253000,388.610000,109.816000,384.048000,142.685000,402.037000Z" transform="matrix(1 0 0 1 -4.22300000000000 -4.22300000000000)" fill="rgb(0,0,0)" stroke="none" stroke-width="1"/></g></g></g></g><clipPath id="e8vVsMgKm7o47"><rect id="e8vVsMgKm7o48" width="1000" height="1000" rx="0" ry="0" fill="rgb(0,0,0)" stroke="none" stroke-width="1"/></clipPath></g></svg>